<?xml version="1.0" encoding="UTF-8" standalone="no"?>
<!DOCTYPE svg PUBLIC "-//W3C//DTD SVG 1.1//EN" "http://www.w3.org/Graphics/SVG/1.1/DTD/svg11.dtd">
<svg width="100%" height="100%" viewBox="0 0 62 145" version="1.1" xmlns="http://www.w3.org/2000/svg" xmlns:xlink="http://www.w3.org/1999/xlink" xml:space="preserve" xmlns:serif="http://www.serif.com/" style="fill-rule:evenodd;clip-rule:evenodd;stroke-linejoin:round;stroke-miterlimit:2;">
    <g transform="matrix(1,0,0,1,-120,-400)">
        <path d="M172.442,400.821L168.225,402.492L166.955,419.146L166.851,420.516L165.61,419.932L160.447,417.503L153.493,416.511L147.579,426.769L147.4,427.081L147.064,427.195L136.214,430.899L134.997,431.314L134.963,430.024L134.832,424.989L120.928,436.369C120.725,437.722 120.541,439.086 120.378,440.461L146.858,472.8L147.531,473.621L146.712,474.292L126.023,491.225C133.6,510.969 147.306,528.894 165.123,544.34L170.63,539.833L142.364,505.314L141.692,504.492L142.51,503.822L176.311,476.158L148.045,441.638L147.372,440.816L148.191,440.146L181.991,412.483L172.442,400.821Z" style="fill:rgb(0,128,0);"/>
    </g>
</svg>
