<?xml version="1.0" encoding="UTF-8" standalone="no"?>
<!DOCTYPE svg PUBLIC "-//W3C//DTD SVG 1.1//EN" "http://www.w3.org/Graphics/SVG/1.1/DTD/svg11.dtd">
<svg width="100%" height="100%" viewBox="0 0 78 274" version="1.1" xmlns="http://www.w3.org/2000/svg" xmlns:xlink="http://www.w3.org/1999/xlink" xml:space="preserve" xmlns:serif="http://www.serif.com/" style="fill-rule:evenodd;clip-rule:evenodd;stroke-linejoin:round;stroke-miterlimit:2;">
    <g transform="matrix(1,0,0,1,-205,-313)">
        <path d="M233.175,329.627L237.342,327.467L237.614,327.327L237.919,327.375L239.441,327.615L243.705,326.527L244.648,326.286L244.862,327.242L245.983,332.255L255.223,329.086L256.941,328.498L256.443,330.244L252.19,345.17L252.094,345.509L251.798,345.703L248.45,347.895L253.506,353.942L254.193,354.764L253.364,355.443L219.564,383.107L247.829,417.626L248.502,418.448L247.683,419.118L213.883,446.782L242.148,481.302L242.821,482.123L242.002,482.794L208.202,510.458L236.467,544.977L237.14,545.799L236.321,546.469L205.525,571.674C215.365,576.887 225.735,581.539 236.471,585.568C237.478,585.946 238.488,586.318 239.502,586.685L231.974,577.491L231.301,576.669L232.12,575.999L265.92,548.335L237.655,513.816L236.982,512.994L237.8,512.324L271.601,484.66L243.336,450.14L242.663,449.318L243.481,448.648L277.282,420.985L249.016,386.465L248.344,385.643L249.162,384.973L282.952,357.318L254.038,322.739L255.575,321.453L255.497,321.36L265.319,313.148C252.315,315.378 239.595,318.581 227.424,322.751L233.175,329.627Z" style="fill:rgb(0,255,0);"/>
    </g>
</svg>
