<?xml version="1.0" encoding="UTF-8" standalone="no"?>
<!DOCTYPE svg PUBLIC "-//W3C//DTD SVG 1.1//EN" "http://www.w3.org/Graphics/SVG/1.1/DTD/svg11.dtd">
<svg width="100%" height="100%" viewBox="0 0 78 261" version="1.1" xmlns="http://www.w3.org/2000/svg" xmlns:xlink="http://www.w3.org/1999/xlink" xml:space="preserve" xmlns:serif="http://www.serif.com/" style="fill-rule:evenodd;clip-rule:evenodd;stroke-linejoin:round;stroke-miterlimit:2;">
    <g transform="matrix(1,0,0,1,-393,-334)">
        <path d="M396.141,594.846C418.001,588.142 437.801,577.422 453.892,562.151L428.237,530.818L427.564,529.996L428.382,529.326L462.183,501.662L433.918,467.143L433.245,466.321L434.063,465.651L467.864,437.987L439.598,403.467L438.926,402.645L439.744,401.975L470.648,376.682C459.076,361.18 444.053,348.38 426.746,338.255C424.307,336.829 421.822,335.457 419.295,334.136L415.773,337.082L444.088,370.945L444.775,371.767L443.946,372.445L410.146,400.109L438.411,434.629L439.084,435.451L438.265,436.121L404.465,463.785L432.73,498.304L433.403,499.126L432.584,499.796L398.784,527.46L427.049,561.98L427.722,562.801L426.903,563.472L393.103,591.135L396.141,594.846Z" style="fill:rgb(0,128,0);"/>
    </g>
</svg>
