<?xml version="1.0" encoding="UTF-8" standalone="no"?>
<!DOCTYPE svg PUBLIC "-//W3C//DTD SVG 1.1//EN" "http://www.w3.org/Graphics/SVG/1.1/DTD/svg11.dtd">
<svg width="100%" height="100%" viewBox="0 0 81 289" version="1.1" xmlns="http://www.w3.org/2000/svg" xmlns:xlink="http://www.w3.org/1999/xlink" xml:space="preserve" xmlns:serif="http://www.serif.com/" style="fill-rule:evenodd;clip-rule:evenodd;stroke-linejoin:round;stroke-miterlimit:2;">
    <g transform="matrix(1,0,0,1,-234,-309)">
        <path d="M243.36,588.05C254.589,591.932 266.164,595.142 277.898,597.618L263.738,580.325L263.065,579.503L263.883,578.833L297.684,551.169L269.419,516.649L268.746,515.827L269.564,515.157L303.365,487.493L275.099,452.974L274.427,452.152L275.245,451.482L309.046,423.818L280.78,389.298L280.107,388.476L280.926,387.806L314.716,360.151L285.801,325.572L287.339,324.287L287.262,324.194L304.981,309.377C293.056,309.625 281.144,310.658 269.439,312.474L256.955,322.913L285.27,356.776L285.957,357.598L285.128,358.276L251.328,385.94L279.593,420.46L280.266,421.282L279.447,421.952L245.647,449.616L273.912,484.135L274.585,484.957L273.766,485.627L239.966,513.291L268.231,547.811L268.904,548.632L268.085,549.303L234.285,576.967L243.36,588.05Z" style="fill:rgb(0,128,0);"/>
    </g>
</svg>
