<?xml version="1.0" encoding="UTF-8" standalone="no"?>
<!DOCTYPE svg PUBLIC "-//W3C//DTD SVG 1.1//EN" "http://www.w3.org/Graphics/SVG/1.1/DTD/svg11.dtd">
<svg width="100%" height="100%" viewBox="0 0 3234 1020" version="1.1" xmlns="http://www.w3.org/2000/svg" xmlns:xlink="http://www.w3.org/1999/xlink" xml:space="preserve" xmlns:serif="http://www.serif.com/" style="fill-rule:evenodd;clip-rule:evenodd;stroke-linejoin:round;stroke-miterlimit:2;">
    <g transform="matrix(1,0,0,1,-137,-193)">
        <path d="M775.325,449.378C822.923,412.35 870.888,373.657 917.685,334.608C964.977,295.145 1011.41,255.036 1055.38,215.628L1079.81,193.726L1066.61,223.747C1055.74,248.458 1042.88,273.203 1027.24,297.971C1017.07,314.096 1005.71,330.271 992.937,346.485C1052.62,317.356 1107.97,294.845 1159.94,277.518C1220.71,257.258 1276.82,244.083 1329.78,235.669L1351.69,232.19L1335.84,247.739C1317.29,265.936 1298.12,283.431 1278.2,300.047C1269.38,307.4 1260.43,314.574 1251.35,321.536C1279.6,315.581 1308.65,314.103 1337.01,312.664C1356.98,311.654 1376.6,310.66 1394.98,308.131C1418.24,304.931 1438.19,300.935 1457.23,297.127C1507.26,287.113 1551.17,278.327 1631.86,287.732L1648.42,289.664L1635.57,300.241C1619.41,313.537 1602.64,326.715 1585.1,339.73C1572.8,348.864 1560.13,357.927 1547.06,366.895C1596.24,370.45 1644.85,376.29 1693.17,383.694C1748.25,392.135 1802.89,402.598 1857.53,414.014L1874.21,417.502L1859.96,426.882C1846.76,435.568 1833.03,444.089 1818.06,452.219C1806.71,458.386 1794.61,464.36 1781.46,470.034C1817.7,490.515 1867.54,504.488 1917.37,518.466C1945.56,526.374 1973.77,534.286 1999.48,543.317L2026.27,552.723L1998.21,557.018L1955.01,563.63C1979.35,572.558 2001.75,581.131 2022.81,589.185C2146.45,636.479 2223.5,665.955 2380.84,647.32C2588.55,622.723 2783.02,517.15 3010.96,393.41C3103.56,343.14 3201.67,289.88 3308.72,237.68L3355.79,214.729L3316.5,249.374C3247.89,309.889 3201.58,389.274 3161.16,458.544C3151.38,475.317 3141.93,491.509 3132.4,507.019C3098.61,562.008 3072.62,613.849 3056.6,664.359C3040.69,714.527 3034.61,763.424 3040.49,812.869C3043.56,838.633 3047.73,863.852 3055.17,888.381C3062.54,912.653 3073.14,936.236 3089.11,958.976C3131.29,1019.06 3203.69,1074.01 3283.93,1134.9C3299.97,1147.07 3316.33,1159.49 3332.78,1172.19L3370.35,1201.22L3325.96,1184.44C3245.75,1154.12 3164.02,1128.69 3080.9,1107.87C2997.84,1087.06 2913.41,1070.86 2827.78,1058.97C2767.43,1050.6 2708.88,1036.07 2650.55,1021.59C2538.17,993.704 2426.57,966.011 2305.77,983.76C2264.49,989.825 2225.29,1005.15 2185.5,1023.3C2221.55,1045.55 2263.88,1064.85 2306.49,1084.29C2350.59,1104.41 2395.01,1124.67 2433.61,1148.64L2452.92,1160.63L2430.24,1161.75C2375.01,1164.48 2319.97,1169.47 2265.21,1177.51C2210.49,1185.55 2155.97,1196.65 2101.69,1211.58L2099.29,1212.24L2096.99,1211.24C2075.99,1202.02 2054.87,1194 2033.75,1185.98C1992.05,1170.14 1950.35,1154.3 1908,1128.69C1890.47,1133.19 1872.84,1137.4 1855.22,1141.31C1784.3,1157.04 1713.18,1168.06 1647.27,1174.56C1512.13,1187.89 1400.89,1182.78 1243.53,1175.54C1223.75,1174.64 1203.06,1173.69 1186.21,1172.94L1185.65,1172.88C1011.62,1151.46 841.339,1117.33 676.629,1064.29C511.809,1011.23 352.549,939.224 200.709,842.104L200.41,841.915L200.073,841.638C164.081,812.516 144.779,795.889 139.61,781.982C133.326,765.078 144.268,754.842 169.325,739.68L169.542,739.55L170.014,739.33C241.819,705.764 299.574,678.648 347.774,655.149C395.304,631.979 432.455,612.825 463.064,595.182C488.424,580.569 509.829,567.353 529.338,555.312C583.226,522.05 622.802,497.62 699.118,472.498C724.668,464.083 750.062,456.385 775.316,449.362L775.325,449.378ZM1927.34,1123.61C1964.53,1144.54 2001.64,1158.64 2038.75,1172.73C2059.21,1180.5 2079.68,1188.27 2100.33,1197.26C2154.32,1182.51 2208.62,1171.51 2263.15,1163.51C2310.69,1156.53 2358.36,1151.82 2406.13,1148.89C2373.15,1130.29 2336.77,1113.7 2300.61,1097.21C2254.47,1076.16 2208.67,1055.27 2170.17,1030.41C2162.04,1034.23 2153.87,1038.13 2145.63,1042.06C2113.41,1057.45 2080.27,1073.27 2044.79,1086.39C2006.95,1100.38 1967.47,1112.78 1927.35,1123.61L1927.34,1123.61ZM1823.37,1133.59C1824.88,1114.08 1821.25,1096.6 1810.37,1082.61C1798.97,1067.96 1779.25,1056.41 1748.76,1049.35L1748.78,1049.25C1715.11,1051.52 1680.61,1048.32 1647.05,1038.47C1627.32,1032.67 1607.99,1026.62 1589.57,1017.81C1570.52,1008.69 1552.6,996.743 1536.53,979.405C1529.77,972.099 1523.76,964.038 1518.21,955.272C1508.24,1032.81 1469.44,1103.6 1401.85,1167.65C1485.68,1169.86 1561.21,1168.84 1645.85,1160.49C1702.19,1154.93 1762.51,1146 1823.36,1133.59L1823.37,1133.59ZM1359.75,1166.32C1443.3,1091.55 1495.22,998.204 1492.27,904.574C1489.54,898.446 1486.79,892.126 1483.96,885.634C1478.78,873.732 1473.32,861.206 1467.32,848.27C1459.12,883.149 1440.25,913.588 1416.14,939.058C1393.26,963.227 1365.48,982.916 1337.67,997.632C1319.74,1016.67 1306.14,1038.79 1297.92,1065.17C1289.36,1092.63 1286.53,1124.82 1290.56,1163.04L1287.63,1163.34C1312.68,1164.46 1336.61,1165.49 1359.75,1166.32ZM1262.01,1162.18C1258.13,1121.47 1261.44,1086.75 1270.79,1056.73C1274.97,1043.32 1280.35,1030.86 1286.81,1019.23C1274.29,1023.24 1262.46,1026.03 1251.89,1027.52C1242.62,1028.83 1232.4,1029.15 1221.63,1028.44C1186.63,1026.13 1144.14,1012.9 1108.55,986.8C1094.68,976.64 1081.86,964.546 1070.87,950.396C1074.22,961.061 1078.38,971.777 1083.46,982.572C1109,1036.74 1172.31,1101.99 1257.64,1161.98L1262.01,1162.18L1262.01,1162.18ZM1208.6,1159.73C1128.72,1101.46 1083.79,1049.72 1057.82,994.633C1052.67,983.697 1048.37,972.843 1044.83,962.053C1043.39,966.792 1041.87,971.528 1040.27,976.272C1023.76,1025.43 999.176,1074.71 968.097,1124.17C1040.3,1138.31 1113.32,1149.69 1187.02,1158.77L1208.6,1159.73L1208.6,1159.73C1208.6,1159.73 1208.61,1159.73 1208.61,1159.73L1208.6,1159.73ZM3170.14,1063.55L3170.06,1063.97C3095.39,1049.74 3019.39,1035.27 2943.36,1020.86C2867.33,1006.46 2791.24,992.11 2716.37,978.111C2682.04,971.689 2646.26,967.309 2610.48,962.935C2541.27,954.462 2472.04,945.99 2412.34,922.793C2407.55,936.325 2401.9,950.093 2395.35,964.1C2484.27,965.758 2568.88,986.745 2653.93,1007.85C2711.87,1022.23 2770.02,1036.66 2829.68,1044.94C2915.79,1056.89 3000.7,1073.19 3084.28,1094.13C3152.78,1111.29 3220.43,1131.59 3287.14,1155.19L3275.29,1146.2C3237.84,1117.77 3202.08,1090.63 3170.14,1063.55L3170.14,1063.54C3170.14,1063.54 3170.14,1063.54 3170.13,1063.54L3170.14,1063.55ZM2136.76,1139.46L2093.74,1139.46C2093.68,1137.54 2093.99,1135.68 2094.67,1133.91C2095.76,1130.98 2097.52,1128.09 2099.93,1125.25C2102.34,1122.41 2105.83,1119.13 2110.38,1115.4C2117.46,1109.6 2122.24,1105 2124.72,1101.61C2127.21,1098.22 2128.45,1095.02 2128.45,1092C2128.45,1088.83 2127.32,1086.16 2125.06,1083.99C2122.79,1081.81 2119.84,1080.72 2116.2,1080.72C2112.35,1080.72 2109.27,1081.88 2106.97,1084.19C2104.66,1086.5 2103.49,1089.69 2103.46,1093.78L2095.24,1092.93C2095.81,1086.81 2097.92,1082.14 2101.59,1078.93C2105.26,1075.71 2110.19,1074.11 2116.38,1074.11C2122.62,1074.11 2127.57,1075.84 2131.2,1079.3C2134.85,1082.77 2136.67,1087.06 2136.67,1092.18C2136.67,1094.78 2136.13,1097.34 2135.07,1099.86C2134,1102.37 2132.23,1105.02 2129.76,1107.81C2127.29,1110.59 2123.18,1114.4 2117.44,1119.26C2112.65,1123.28 2109.57,1126.02 2108.21,1127.45C2106.85,1128.89 2105.72,1130.33 2104.84,1131.78L2136.76,1131.78L2136.76,1139.46ZM1545.67,1112.44L1553.35,1111.73C1554,1115.34 1555.25,1117.96 1557.08,1119.59C1558.91,1121.21 1561.27,1122.03 1564.14,1122.03C1566.6,1122.03 1568.75,1121.46 1570.6,1120.34C1572.45,1119.21 1573.97,1117.71 1575.15,1115.83C1576.33,1113.95 1577.32,1111.42 1578.12,1108.22C1578.92,1105.02 1579.32,1101.77 1579.32,1098.45C1579.32,1098.1 1579.31,1097.57 1579.28,1096.85C1577.68,1099.4 1575.5,1101.46 1572.73,1103.05C1569.96,1104.63 1566.97,1105.42 1563.74,1105.42C1558.35,1105.42 1553.8,1103.47 1550.07,1099.56C1546.34,1095.66 1544.47,1090.51 1544.47,1084.11C1544.47,1077.51 1546.42,1072.2 1550.31,1068.17C1554.2,1064.15 1559.08,1062.14 1564.94,1062.14C1569.17,1062.14 1573.04,1063.28 1576.55,1065.56C1580.06,1067.84 1582.72,1071.08 1584.54,1075.3C1586.36,1079.52 1587.27,1085.62 1587.27,1093.61C1587.27,1101.93 1586.37,1108.55 1584.56,1113.48C1582.76,1118.41 1580.07,1122.16 1576.5,1124.73C1572.94,1127.31 1568.76,1128.6 1563.96,1128.6C1558.87,1128.6 1554.71,1127.18 1551.49,1124.36C1548.26,1121.53 1546.32,1117.56 1545.67,1112.44ZM2235.63,987.279C2218.29,983.757 2203.06,980.615 2186.77,976.938C2120.58,962.002 2077.19,952.206 2031.57,956.328C1975.57,961.387 1939.04,980.528 1901.1,1000.41C1888.08,1007.23 1874.9,1014.14 1861.47,1020.35C1843.38,1028.71 1824.18,1035.51 1804.27,1040.48C1816.12,1047.57 1825.52,1055.86 1832.78,1065.19C1846.76,1083.16 1852.46,1104.35 1852.04,1127.49L1852.15,1127.47C1916.13,1113.27 1980.07,1095.18 2039.91,1073.05C2074.97,1060.09 2107.73,1044.44 2139.57,1029.24C2171.99,1013.76 2203.48,998.724 2235.63,987.28L2235.63,987.279ZM938.182,1118.15C965.491,1075.32 989.595,1030.1 1006.16,987.302C977.751,1013.64 943.304,1028.88 913.546,1034.18C911.271,1034.58 908.596,1034.94 905.535,1035.24L905.358,1035.25C890.844,1042.7 878.7,1051.19 869.377,1061.68C860.549,1071.62 854.108,1083.56 850.395,1098.42C879.511,1105.49 908.775,1112.06 938.182,1118.15L938.182,1118.15ZM1063.56,1113.83L1055.57,1113.83L1055.57,1062.91C1053.65,1064.75 1051.13,1066.58 1048,1068.42C1044.88,1070.25 1042.08,1071.63 1039.59,1072.55L1039.59,1064.82C1044.06,1062.72 1047.96,1060.17 1051.31,1057.18C1054.65,1054.2 1057.02,1051.3 1058.41,1048.48L1063.56,1048.48L1063.56,1113.83ZM1202.79,1071.49C1199.48,1070.28 1197.02,1068.55 1195.42,1066.3C1193.82,1064.05 1193.03,1061.35 1193.03,1058.22C1193.03,1053.48 1194.73,1049.5 1198.13,1046.27C1201.53,1043.05 1206.06,1041.43 1211.71,1041.43C1217.4,1041.43 1221.97,1043.08 1225.43,1046.38C1228.9,1049.68 1230.63,1053.7 1230.63,1058.44C1230.63,1061.46 1229.84,1064.08 1228.25,1066.32C1226.67,1068.55 1224.26,1070.28 1221.04,1071.49C1225.03,1072.79 1228.08,1074.89 1230.16,1077.79C1232.25,1080.69 1233.29,1084.16 1233.29,1088.18C1233.29,1093.75 1231.32,1098.42 1227.39,1102.21C1223.45,1106 1218.27,1107.89 1211.85,1107.89C1205.43,1107.89 1200.25,1105.99 1196.31,1102.19C1192.37,1098.39 1190.4,1093.64 1190.4,1087.96C1190.4,1083.73 1191.48,1080.18 1193.62,1077.33C1195.77,1074.47 1198.83,1072.53 1202.79,1071.49ZM910.476,1069.05C907.161,1067.83 904.705,1066.1 903.107,1063.85C901.508,1061.6 900.709,1058.91 900.709,1055.77C900.709,1051.04 902.411,1047.06 905.815,1043.83C909.218,1040.61 913.747,1038.99 919.4,1038.99C925.082,1038.99 929.655,1040.64 933.118,1043.94C936.581,1047.24 938.312,1051.26 938.312,1056C938.312,1059.01 937.52,1061.64 935.937,1063.88C934.353,1066.11 931.949,1067.83 928.723,1069.05C932.718,1070.35 935.759,1072.45 937.846,1075.35C939.932,1078.25 940.976,1081.71 940.976,1085.74C940.976,1091.3 939.008,1095.98 935.071,1099.77C931.135,1103.56 925.955,1105.45 919.533,1105.45C913.11,1105.45 907.931,1103.55 903.994,1099.75C900.058,1095.94 898.09,1091.2 898.09,1085.52C898.09,1081.29 899.163,1077.74 901.309,1074.88C903.454,1072.03 906.51,1070.08 910.476,1069.05ZM1198.62,1088.01C1198.62,1090.28 1199.16,1092.49 1200.24,1094.62C1201.32,1096.75 1202.92,1098.4 1205.06,1099.57C1207.19,1100.74 1209.48,1101.32 1211.94,1101.32C1215.76,1101.32 1218.91,1100.1 1221.39,1097.64C1223.88,1095.18 1225.12,1092.06 1225.12,1088.27C1225.12,1084.42 1223.84,1081.24 1221.28,1078.73C1218.72,1076.21 1215.52,1074.95 1211.67,1074.95C1207.91,1074.95 1204.8,1076.2 1202.33,1078.68C1199.85,1081.17 1198.62,1084.28 1198.62,1088.01ZM906.303,1085.56C906.303,1087.84 906.843,1090.05 907.923,1092.18C909.004,1094.31 910.609,1095.96 912.74,1097.13C914.871,1098.3 917.165,1098.88 919.622,1098.88C923.44,1098.88 926.592,1097.65 929.078,1095.2C931.564,1092.74 932.807,1089.62 932.807,1085.83C932.807,1081.98 931.527,1078.8 928.967,1076.28C926.407,1073.77 923.203,1072.51 919.355,1072.51C915.596,1072.51 912.481,1073.75 910.01,1076.24C907.539,1078.72 906.303,1081.83 906.303,1085.56ZM1578.39,1083.71C1578.39,1079.13 1577.17,1075.49 1574.73,1072.79C1572.29,1070.1 1569.35,1068.75 1565.91,1068.75C1562.36,1068.75 1559.27,1070.2 1556.64,1073.1C1554,1076 1552.68,1079.76 1552.68,1084.38C1552.68,1088.52 1553.93,1091.89 1556.44,1094.48C1558.94,1097.07 1562.02,1098.36 1565.69,1098.36C1569.39,1098.36 1572.43,1097.07 1574.82,1094.48C1577.2,1091.89 1578.39,1088.3 1578.39,1083.71ZM822.882,1091.58C827.765,1071.98 836.355,1056.11 848.189,1042.8C851.312,1039.28 854.646,1035.96 858.195,1032.81C810.976,1025.28 750.795,1003.79 695.255,970.603C671.22,956.245 647.962,939.668 626.856,921.056C655.498,967.286 696.73,1016.89 759.236,1074.47C780.367,1080.46 801.581,1086.16 822.88,1091.58L822.882,1091.58ZM1386.17,1085.4L1378.17,1085.4L1378.17,1034.48C1376.25,1036.32 1373.73,1038.15 1370.61,1039.99C1367.48,1041.82 1364.68,1043.2 1362.19,1044.12L1362.19,1036.39C1366.66,1034.29 1370.57,1031.74 1373.91,1028.75C1377.26,1025.77 1379.63,1022.86 1381.02,1020.05L1386.17,1020.05L1386.17,1085.4ZM1201.19,1057.95C1201.19,1061.03 1202.18,1063.54 1204.17,1065.5C1206.15,1067.45 1208.73,1068.43 1211.89,1068.43C1214.97,1068.43 1217.49,1067.46 1219.46,1065.52C1221.43,1063.58 1222.41,1061.2 1222.41,1058.39C1222.41,1055.46 1221.4,1053 1219.37,1051C1217.35,1049 1214.82,1048.01 1211.8,1048.01C1208.76,1048.01 1206.23,1048.98 1204.21,1050.93C1202.2,1052.89 1201.19,1055.23 1201.19,1057.95ZM908.878,1055.51C908.878,1058.59 909.869,1061.1 911.852,1063.05C913.835,1065.01 916.41,1065.98 919.577,1065.98C922.655,1065.98 925.178,1065.02 927.147,1063.08C929.115,1061.14 930.099,1058.76 930.099,1055.95C930.099,1053.02 929.085,1050.56 927.058,1048.56C925.03,1046.56 922.507,1045.56 919.488,1045.56C916.44,1045.56 913.909,1046.54 911.897,1048.49C909.884,1050.45 908.878,1052.78 908.878,1055.51ZM775.528,1054.25L779.483,1053.72C779.937,1055.96 780.71,1057.58 781.801,1058.57C782.892,1059.56 784.222,1060.05 785.789,1060.05C787.649,1060.05 789.22,1059.41 790.502,1058.12C791.784,1056.83 792.425,1055.23 792.425,1053.33C792.425,1051.51 791.831,1050.01 790.645,1048.84C789.458,1047.66 787.95,1047.07 786.119,1047.07C785.371,1047.07 784.441,1047.21 783.328,1047.51L783.767,1044.03C784.031,1044.06 784.244,1044.08 784.405,1044.08C786.089,1044.08 787.605,1043.64 788.953,1042.76C790.301,1041.88 790.974,1040.53 790.974,1038.69C790.974,1037.24 790.484,1036.04 789.502,1035.09C788.521,1034.14 787.254,1033.66 785.701,1033.66C784.163,1033.66 782.881,1034.15 781.856,1035.11C780.83,1036.08 780.171,1037.53 779.878,1039.46L775.923,1038.76C776.407,1036.11 777.505,1034.06 779.219,1032.6C780.933,1031.14 783.064,1030.41 785.613,1030.41C787.371,1030.41 788.99,1030.79 790.469,1031.54C791.949,1032.3 793.08,1033.33 793.864,1034.63C794.648,1035.93 795.039,1037.32 795.039,1038.78C795.039,1040.17 794.666,1041.44 793.919,1042.58C793.172,1043.73 792.066,1044.63 790.601,1045.31C792.505,1045.75 793.985,1046.66 795.039,1048.04C796.094,1049.43 796.621,1051.16 796.621,1053.24C796.621,1056.05 795.596,1058.44 793.545,1060.39C791.494,1062.35 788.902,1063.33 785.767,1063.33C782.94,1063.33 780.592,1062.48 778.725,1060.8C776.857,1059.12 775.791,1056.93 775.528,1054.25ZM2946.78,1029.61L2933.92,1029.61L2932.19,1038.27C2934.12,1036.92 2936.15,1036.25 2938.27,1036.25C2941.09,1036.25 2943.46,1037.22 2945.39,1039.17C2947.33,1041.12 2948.29,1043.62 2948.29,1046.69C2948.29,1049.6 2947.44,1052.12 2945.74,1054.24C2943.68,1056.85 2940.86,1058.16 2937.29,1058.16C2934.36,1058.16 2931.97,1057.34 2930.11,1055.69C2928.26,1054.05 2927.2,1051.88 2926.94,1049.17L2931.09,1048.82C2931.4,1050.84 2932.11,1052.36 2933.23,1053.38C2934.35,1054.39 2935.7,1054.9 2937.29,1054.9C2939.19,1054.9 2940.8,1054.19 2942.12,1052.75C2943.44,1051.32 2944.1,1049.41 2944.1,1047.04C2944.1,1044.78 2943.46,1043 2942.2,1041.7C2940.93,1040.39 2939.27,1039.74 2937.22,1039.74C2935.95,1039.74 2934.8,1040.03 2933.77,1040.61C2932.74,1041.19 2931.94,1041.94 2931.35,1042.86L2927.64,1042.38L2930.76,1025.83L2946.78,1025.83L2946.78,1029.61ZM700.781,1057.07C656.366,1014.65 626.128,979.101 604.428,946.428C604.059,952.275 603.429,958.243 602.491,964.36C599.921,981.15 595.103,999.028 587.345,1018.32C618.338,1029.86 649.543,1040.68 680.958,1050.79C687.557,1052.92 694.166,1055 700.781,1057.07ZM2002.69,1054.3L1994.69,1054.3L1994.69,1003.38C1992.77,1005.21 1990.25,1007.05 1987.13,1008.88C1984,1010.72 1981.2,1012.1 1978.71,1013.01L1978.71,1005.29C1983.18,1003.19 1987.09,1000.64 1990.43,997.652C1993.78,994.663 1996.14,991.763 1997.54,988.951L2002.69,988.951L2002.69,1054.3ZM3070.05,955.934C2998.58,946.84 2925.25,940.126 2851.95,933.412C2705.48,919.999 2559,906.578 2426.14,874.104C2423.71,885.671 2420.62,897.417 2416.86,909.34C2474.97,932.048 2543.6,940.454 2612.21,948.847C2648.27,953.259 2684.34,957.675 2719,964.157C2793.87,978.158 2869.96,992.508 2945.99,1006.91C3014.2,1019.83 3082.37,1032.8 3149.6,1045.61C3121.1,1019.98 3096.46,994.16 3077.48,967.129C3074.88,963.418 3072.4,959.682 3070.06,955.934L3070.05,955.934ZM2010.66,599.728C1981.6,621.394 1948.08,649.904 1925.92,674.832C1903.05,700.557 1883.7,728.174 1867.99,757.739L1867.39,757.425C1863.86,779.384 1858.62,800.731 1852.07,821.525C1828.77,895.488 1786.31,968.285 1711.02,1021.09C1724.65,1021.95 1738.26,1021.76 1751.71,1020.62C1786.09,1017.69 1819.49,1008.48 1849.62,994.561C1863.49,988.155 1875.81,981.697 1887.98,975.319C1890.84,973.823 1893.68,972.327 1896.53,970.843C1934.23,937.945 1966.35,893.049 1992.31,834.923C2018.72,775.794 2038.68,703.183 2051.6,615.843L2053.89,616.18C2042.23,611.797 2030.25,607.217 2017.78,602.448L2010.66,599.724L2010.66,599.728ZM1668.6,492.467C1668.6,492.468 1668.6,492.47 1668.6,492.471L1668.61,492.473C1701.21,546.882 1720.61,595.137 1729.73,636.747C1734.02,640.449 1737.02,644.028 1738.52,647.325C1739.86,650.273 1740.28,653.188 1739.72,656.019C1739.08,659.249 1737.38,662.701 1734.63,666.235C1739.24,707.801 1732.75,741.826 1718.72,767.685C1713.27,777.737 1704.99,788.672 1694.52,799.252C1673.39,820.589 1642.63,841.317 1607.27,851.394C1572.86,861.199 1534.18,861.044 1495.68,841.971C1500.82,853.21 1505.52,863.987 1510.02,874.31C1525.6,910.046 1538.69,940.066 1557.3,960.147C1570.59,974.493 1585.63,984.487 1601.74,992.191C1618.49,1000.2 1636.55,1005.85 1655.03,1011.28C1658.57,1012.32 1662.12,1013.28 1665.68,1014.15C1853.48,879.093 1868.65,711.343 1804.45,528.563C1764.1,516.61 1719.21,504.491 1668.61,492.473L1668.6,492.467ZM617.954,1014.15L613.999,1014.15L613.999,988.95C613.046,989.858 611.798,990.767 610.252,991.675C608.707,992.583 607.319,993.264 606.088,993.718L606.088,989.895C608.3,988.855 610.234,987.595 611.889,986.116C613.545,984.636 614.716,983.201 615.405,981.809L617.954,981.809L617.954,1014.15ZM560.852,1008.26C567.868,990.915 572.194,974.987 574.465,960.147C576.825,944.745 576.996,930.504 575.69,917.053C573.58,895.311 569.08,886.604 563.466,875.743C558.064,865.296 551.786,853.152 545.48,829.846L545.405,829.971C532.649,851.08 514.917,867.345 498.847,881.366C481.312,896.658 460.702,908.278 437.618,916.913C421.471,922.951 404.117,927.507 385.755,930.843C443.247,959.601 501.645,985.307 560.852,1008.26ZM932.323,592.847C920.351,586.685 909.216,580.1 898.594,573.819C850.356,545.29 813.627,523.572 691.964,562.434C684.93,571.066 677.645,579.168 670.272,586.528C644.165,612.597 614.424,635.479 584.324,656.083C588.961,657.81 593.085,660.467 595.876,664.06C599.747,669.043 598.707,677.589 599.767,688.242C600.803,698.655 603.154,716.724 594.828,726.777C585.203,738.401 574.598,748.777 560.783,751.189C561.021,752.741 561.229,754.275 561.412,755.797C563.806,764.612 565.81,772.209 567.76,779.617C570.842,791.315 574.162,802.913 577.878,814.484C604.299,868.622 654.765,913.475 709.718,946.304C781.39,989.122 859.708,1011.26 902.618,1007.06C904.403,1006.88 906.383,1006.6 908.528,1006.22C941.734,1000.31 981.862,979.712 1008.03,942.179C1018.47,927.195 1026.7,909.458 1031.36,888.795C1030.45,869.701 1031.4,850.776 1033.68,831.974C1033.72,830.661 1033.75,829.339 1033.81,828.009C995.863,838.436 957.896,862.526 919.909,898.386L910.175,888.07C966.519,834.88 1023.42,806.306 1081,808.033C1137.28,809.72 1193.59,840.337 1249.89,905.15L1541.72,729.44C1574.83,709.502 1612.58,700.73 1641.91,693.916L1645.13,693.168C1669.83,687.417 1688.93,680.337 1702.54,673.144C1717.04,665.483 1724.72,658.389 1725.74,653.294C1725.77,653.141 1725.64,653.412 1725.55,653.206C1723.04,647.699 1711.78,639.884 1694.54,631.854C1676.25,623.331 1651.83,615.142 1624.32,609.68C1573.46,599.579 1512.27,598.822 1460.15,622.532L1459.42,622.862L1458.77,623.01C1330.85,652.064 1210.08,676.375 1111.42,686.012C1011.51,695.774 933.973,690.316 893.983,659.354L902.641,648.171C923.448,664.281 956.252,672.779 998.313,675.413C990.859,656.1 979.996,639.693 967.107,625.166C956.623,613.353 944.785,602.756 932.334,592.85L932.323,592.847ZM1063.56,822.667C1063.89,830.043 1064.01,837.428 1063.9,844.812C1064.01,850.604 1063.9,856.255 1063.6,861.767L1063.67,862.284C1070.15,908.235 1094.78,941.572 1125.27,963.934C1156.2,986.613 1193.05,998.106 1223.38,1000.11C1232.39,1000.71 1240.66,1000.48 1247.86,999.46C1289.12,993.639 1351.88,965.606 1395.48,919.553C1424.46,888.937 1444.64,850.338 1443.31,805.213L1252.05,920.373L1246.89,923.484L1242.99,918.894C1188.16,854.237 1134.05,823.807 1080.57,822.203C1074.91,822.033 1069.24,822.192 1063.57,822.666L1063.56,822.667ZM2898.55,967.434L2902.9,967.434L2902.9,971.06L2898.55,971.06L2898.55,978.772L2894.6,978.772L2894.6,971.06L2880.62,971.06L2880.62,967.434L2895.32,946.56L2898.55,946.56L2898.55,967.434ZM2243.62,665.179C2233.44,748.28 2216.93,815.439 2193.16,864.319C2177.59,896.335 2158.85,920.747 2136.68,936.971C2153.85,940.412 2172.37,944.599 2193.03,949.261C2215.67,954.371 2266.2,964.255 2297.82,970.686C2299.79,970.355 2301.76,970.045 2303.74,969.755C2314.95,968.109 2326.08,966.847 2337.12,965.927C2373.49,911.541 2388.05,859.567 2387.69,809.237C2387.34,759.915 2372.71,711.917 2350.29,664.647C2310.33,667.956 2275.59,667.935 2243.62,665.177L2243.62,665.179ZM2894.6,967.434L2894.6,952.91L2884.51,967.434L2894.6,967.434ZM534.693,939.145L543.483,939.145L543.483,946.47L534.693,946.47L534.693,962.053L526.702,962.053L526.702,946.47L498.466,946.47L498.466,939.145L528.167,896.97L534.693,896.97L534.693,939.145ZM2078.79,625.379C2065.44,713.085 2045.05,786.389 2018.2,846.509C2001.94,882.917 1983.29,914.554 1962.36,941.7C1981.83,935.289 2003.46,930.433 2028.96,928.13C2048.99,926.32 2068.2,926.843 2088.4,929.106C2120.79,920.79 2146.98,894.396 2167.63,851.916C2189.98,805.955 2205.63,741.866 2215.43,661.966C2168.06,655.217 2125.56,642.295 2078.79,625.38L2078.79,625.379ZM3024.18,783.584C2928.11,779.899 2831,778.36 2732.78,779.073C2634.12,779.788 2534.08,782.762 2432.59,788.114C2432.85,792.059 2433.03,796.032 2433.14,800.021C2433.64,819.537 2432.24,839.567 2428.78,860.158C2560.66,892.474 2706.94,905.877 2853.2,919.27C2923,925.661 2992.81,932.052 3061.16,940.51C3052.84,924.801 3046.5,908.788 3041.56,892.502C3033.87,867.165 3029.56,841.127 3026.4,814.524C3025.16,804.19 3024.43,793.88 3024.18,783.584L3024.18,783.584ZM526.702,939.145L526.702,909.8L506.324,939.145L526.702,939.145ZM1167.24,932.068L1159.25,932.068L1159.25,881.147C1157.32,882.982 1154.8,884.817 1151.68,886.652C1148.55,888.487 1145.75,889.863 1143.26,890.78L1143.26,883.056C1147.73,880.954 1151.64,878.409 1154.98,875.42C1158.33,872.43 1160.69,869.53 1162.09,866.718L1167.24,866.718L1167.24,932.068ZM696.01,633.25C710.391,679.121 716.995,725.371 716.488,771.968C715.982,818.565 708.365,865.51 694.307,912.77C752.136,812.804 755.845,719.3 696.01,633.25ZM820.599,617.22C829.793,661.112 832.175,707.412 827.746,756.12C823.317,804.829 812.077,855.945 794.026,909.47C836.86,875.953 862.56,665.91 820.599,617.22ZM343.062,908.828C369.035,905.026 409.47,897.184 427.69,890.369C431.865,888.808 435.936,887.132 439.909,885.347C445.504,865.82 444.442,848.694 439.715,833.11C434.263,815.139 423.842,798.614 412.913,782.78C401.385,766.073 386.767,750.739 369.195,736.874C352.175,723.444 321.154,706 297.71,694.954C262.51,711.686 222.366,730.497 176.46,751.952C158.312,762.945 150.079,769.564 152.876,777.09C156.787,787.613 174.824,802.99 208.613,830.341C252.805,858.597 297.639,884.703 343.063,908.828L343.062,908.828ZM743.021,905.88C770.627,885.226 787.312,820.785 790.014,757.414C792.716,694.043 781.434,631.74 753.103,615.36C784.051,698.09 783.604,793.43 743.021,905.88ZM1690.11,887.774L1697.79,887.063C1698.44,890.674 1699.68,893.293 1701.52,894.921C1703.35,896.549 1705.7,897.363 1708.58,897.363C1711.03,897.363 1713.19,896.801 1715.04,895.676C1716.88,894.551 1718.4,893.049 1719.59,891.17C1720.77,889.29 1721.76,886.753 1722.56,883.556C1723.36,880.36 1723.76,877.104 1723.76,873.789C1723.76,873.434 1723.74,872.901 1723.72,872.191C1722.12,874.736 1719.93,876.801 1717.17,878.384C1714.4,879.967 1711.4,880.759 1708.18,880.759C1702.79,880.759 1698.23,878.806 1694.5,874.899C1690.77,870.992 1688.91,865.842 1688.91,859.449C1688.91,852.849 1690.86,847.537 1694.75,843.512C1698.64,839.486 1703.52,837.474 1709.38,837.474C1713.61,837.474 1717.48,838.613 1720.99,840.892C1724.49,843.171 1727.15,846.419 1728.98,850.637C1730.8,854.855 1731.71,860.959 1731.71,868.95C1731.71,877.267 1730.8,883.889 1729,888.817C1727.19,893.745 1724.51,897.496 1720.94,900.071C1717.37,902.646 1713.19,903.933 1708.4,903.933C1703.31,903.933 1699.15,902.52 1695.92,899.694C1692.7,896.867 1690.76,892.894 1690.11,887.774ZM1880.24,858.844L1888.23,857.778C1889.15,862.307 1890.71,865.57 1892.92,867.567C1895.12,869.565 1897.81,870.564 1900.97,870.564C1904.73,870.564 1907.91,869.262 1910.5,866.657C1913.09,864.053 1914.38,860.827 1914.38,856.979C1914.38,853.309 1913.18,850.283 1910.79,847.9C1908.39,845.518 1905.34,844.327 1901.64,844.327C1900.13,844.327 1898.25,844.623 1896,845.214L1896.89,838.2C1897.42,838.259 1897.85,838.289 1898.18,838.289C1901.58,838.289 1904.64,837.401 1907.37,835.625C1910.09,833.849 1911.45,831.112 1911.45,827.412C1911.45,824.482 1910.46,822.055 1908.48,820.131C1906.49,818.207 1903.93,817.245 1900.8,817.245C1897.69,817.245 1895.1,818.222 1893.03,820.176C1890.95,822.129 1889.62,825.059 1889.03,828.966L1881.04,827.545C1882.02,822.188 1884.24,818.037 1887.7,815.092C1891.16,812.147 1895.47,810.675 1900.62,810.675C1904.17,810.675 1907.44,811.437 1910.43,812.961C1913.42,814.486 1915.71,816.565 1917.29,819.199C1918.87,821.833 1919.66,824.63 1919.66,827.59C1919.66,830.401 1918.91,832.961 1917.4,835.27C1915.89,837.578 1913.66,839.413 1910.7,840.775C1914.54,841.663 1917.53,843.505 1919.66,846.302C1921.8,849.099 1922.86,852.599 1922.86,856.802C1922.86,862.484 1920.79,867.301 1916.64,871.252C1912.5,875.203 1907.26,877.179 1900.93,877.179C1895.22,877.179 1890.47,875.477 1886.7,872.074C1882.93,868.67 1880.77,864.26 1880.24,858.844ZM1722.83,859.05C1722.83,854.462 1721.61,850.822 1719.16,848.129C1716.72,845.435 1713.79,844.089 1710.35,844.089C1706.8,844.089 1703.71,845.539 1701.07,848.439C1698.44,851.34 1697.12,855.099 1697.12,859.716C1697.12,863.859 1698.37,867.226 1700.87,869.816C1703.37,872.405 1706.46,873.7 1710.13,873.7C1713.83,873.7 1716.87,872.405 1719.25,869.816C1721.64,867.226 1722.83,863.637 1722.83,859.05ZM2714.91,853.381L2722.91,852.316C2723.82,856.844 2725.38,860.107 2727.59,862.105C2729.79,864.103 2732.48,865.102 2735.65,865.102C2739.41,865.102 2742.58,863.799 2745.17,861.195C2747.76,858.59 2749.05,855.364 2749.05,851.517C2749.05,847.847 2747.86,844.82 2745.46,842.438C2743.06,840.055 2740.01,838.864 2736.31,838.864C2734.8,838.864 2732.92,839.16 2730.67,839.752L2731.56,832.738C2732.1,832.797 2732.52,832.826 2732.85,832.826C2736.25,832.826 2739.32,831.938 2742.04,830.163C2744.76,828.387 2746.12,825.649 2746.12,821.95C2746.12,819.019 2745.13,816.593 2743.15,814.669C2741.17,812.745 2738.61,811.783 2735.47,811.783C2732.36,811.783 2729.77,812.76 2727.7,814.713C2725.63,816.666 2724.3,819.597 2723.7,823.503L2715.71,822.083C2716.69,816.726 2718.91,812.575 2722.37,809.63C2725.84,806.685 2730.14,805.213 2735.29,805.213C2738.84,805.213 2742.11,805.975 2745.1,807.499C2748.09,809.023 2750.38,811.102 2751.96,813.736C2753.55,816.371 2754.34,819.167 2754.34,822.127C2754.34,824.939 2753.58,827.499 2752.07,829.807C2750.56,832.116 2748.33,833.951 2745.37,835.312C2749.22,836.2 2752.21,838.043 2754.34,840.84C2756.47,843.637 2757.53,847.136 2757.53,851.339C2757.53,857.022 2755.46,861.839 2751.32,865.79C2747.18,869.741 2741.94,871.717 2735.6,871.717C2729.89,871.717 2725.15,870.015 2721.37,866.611C2717.6,863.207 2715.45,858.798 2714.91,853.381ZM460.655,612.884C446.927,630.765 425.353,664.325 418.668,682.072C412.289,699.005 409.025,716.782 409.976,735.253C419.841,745.158 428.613,755.649 436.252,766.716C448.558,784.547 460.346,803.344 466.89,824.906C470.848,837.949 472.841,851.792 471.859,866.718C474.725,864.57 477.508,862.329 480.199,859.982C494.621,847.4 510.469,832.91 521.096,815.322C528.529,803.018 533.57,788.834 533.924,772.096C533.741,771.163 533.567,770.22 533.401,769.285C532.81,765.965 532.297,762.488 531.854,758.852C530.29,753.922 528.829,749.272 527.715,745.453C511.735,736.109 508.642,717.044 514.691,693.313C518.853,676.983 523.651,664.904 532.628,658.959C537.552,655.698 543.196,655.157 549.331,655.005C582.274,630.842 624.386,592.241 650.261,566.409C674.701,542.011 695.668,514.762 710.039,483.897C707.879,484.599 705.715,485.301 703.551,486.012C628.767,510.629 589.831,534.667 536.811,567.395C517.406,579.371 496.118,592.512 470.164,607.47C467.061,609.257 463.899,611.064 460.663,612.884L460.655,612.884ZM2316.45,805.376C2316.45,797.681 2317.24,791.488 2318.83,786.797C2320.41,782.106 2322.76,778.487 2325.88,775.942C2329.01,773.397 2332.93,772.124 2337.67,772.124C2341.16,772.124 2344.23,772.827 2346.86,774.233C2349.49,775.639 2351.67,777.666 2353.39,780.315C2355.1,782.964 2356.45,786.19 2357.43,789.993C2358.4,793.796 2358.89,798.924 2358.89,805.376C2358.89,813.012 2358.11,819.176 2356.54,823.867C2354.97,828.558 2352.62,832.183 2349.5,834.744C2346.38,837.304 2342.44,838.584 2337.67,838.584C2331.4,838.584 2326.47,836.334 2322.89,831.836C2318.6,826.419 2316.45,817.6 2316.45,805.376ZM2295.98,837.474L2287.99,837.474L2287.99,786.553C2286.07,788.388 2283.55,790.223 2280.42,792.058C2277.3,793.893 2274.5,795.269 2272.01,796.186L2272.01,788.462C2276.48,786.36 2280.39,783.815 2283.73,780.826C2287.08,777.836 2289.44,774.936 2290.83,772.124L2295.98,772.124L2295.98,837.474ZM2324.66,805.376C2324.66,816.061 2325.91,823.171 2328.41,826.708C2330.91,830.245 2334,832.013 2337.67,832.013C2341.34,832.013 2344.43,830.237 2346.93,826.686C2349.43,823.134 2350.68,816.031 2350.68,805.376C2350.68,794.662 2349.43,787.544 2346.93,784.022C2344.43,780.5 2341.31,778.739 2337.58,778.739C2333.91,778.739 2330.98,780.293 2328.79,783.4C2326.04,787.366 2324.66,794.692 2324.66,805.376ZM1707.58,686.497C1693.07,693.95 1673.31,701.189 1648.31,707.01L1645.09,707.758C1616.66,714.363 1580.07,722.865 1549,741.566L1469.87,789.217C1481.05,799.861 1492.37,808.065 1503.64,814.179C1536.49,832 1569.84,832.494 1599.41,824.066C1629.66,815.448 1656.06,797.625 1674.25,779.251C1682.88,770.528 1689.51,761.875 1693.67,754.217C1703.19,736.655 1708.39,714.024 1707.58,686.497ZM306.521,813.899L263.502,813.899C263.442,811.975 263.753,810.126 264.434,808.35C265.529,805.42 267.283,802.534 269.695,799.693C272.107,796.851 275.592,793.566 280.15,789.837C287.223,784.036 292.003,779.441 294.489,776.052C296.976,772.663 298.219,769.459 298.219,766.441C298.219,763.274 297.087,760.603 294.822,758.427C292.558,756.252 289.606,755.164 285.966,755.164C282.118,755.164 279.04,756.319 276.731,758.627C274.423,760.936 273.254,764.132 273.224,768.216L265.011,767.373C265.573,761.246 267.689,756.577 271.36,753.366C275.03,750.155 279.957,748.549 286.143,748.549C292.388,748.549 297.331,750.281 300.971,753.744C304.612,757.206 306.432,761.498 306.432,766.618C306.432,769.223 305.899,771.783 304.834,774.299C303.768,776.814 302,779.463 299.528,782.245C297.057,785.027 292.95,788.845 287.209,793.699C282.414,797.724 279.336,800.455 277.974,801.89C276.613,803.326 275.488,804.768 274.6,806.219L306.521,806.219L306.521,813.899ZM2124.24,754.578L2116.29,755.2C2115.58,752.062 2114.57,749.783 2113.27,748.363C2111.11,746.084 2108.45,744.944 2105.28,744.944C2102.73,744.944 2100.5,745.655 2098.57,747.075C2096.06,748.91 2094.08,751.589 2092.63,755.111C2091.18,758.633 2090.42,763.65 2090.36,770.161C2092.29,767.231 2094.64,765.055 2097.42,763.635C2100.2,762.214 2103.12,761.504 2106.17,761.504C2111.49,761.504 2116.03,763.465 2119.77,767.386C2123.52,771.308 2125.39,776.376 2125.39,782.592C2125.39,786.676 2124.51,790.472 2122.75,793.979C2120.99,797.486 2118.57,800.172 2115.49,802.037C2112.41,803.901 2108.92,804.834 2105.01,804.834C2098.35,804.834 2092.92,802.384 2088.72,797.486C2084.52,792.588 2082.41,784.515 2082.41,773.269C2082.41,760.69 2084.74,751.544 2089.39,745.832C2093.44,740.86 2098.9,738.374 2105.77,738.374C2110.89,738.374 2115.08,739.809 2118.35,742.68C2121.62,745.551 2123.58,749.517 2124.24,754.578ZM2091.61,782.636C2091.61,785.388 2092.19,788.023 2093.36,790.538C2094.53,793.054 2096.16,794.97 2098.26,796.287C2100.37,797.605 2102.57,798.263 2104.88,798.263C2108.25,798.263 2111.15,796.902 2113.58,794.179C2116.01,791.456 2117.22,787.756 2117.22,783.08C2117.22,778.581 2116.02,775.037 2113.63,772.447C2111.23,769.858 2108.21,768.563 2104.57,768.563C2100.96,768.563 2097.89,769.858 2095.38,772.447C2092.86,775.037 2091.61,778.433 2091.61,782.636ZM1275.17,790.603L1232.15,790.603C1232.09,788.679 1232.4,786.829 1233.08,785.054C1234.17,782.123 1235.93,779.238 1238.34,776.396C1240.75,773.555 1244.24,770.27 1248.8,766.541C1255.87,760.74 1260.65,756.145 1263.13,752.756C1265.62,749.367 1266.86,746.163 1266.86,743.144C1266.86,739.978 1265.73,737.306 1263.47,735.131C1261.2,732.956 1258.25,731.868 1254.61,731.868C1250.76,731.868 1247.68,733.022 1245.38,735.331C1243.07,737.639 1241.9,740.836 1241.87,744.92L1233.66,744.077C1234.22,737.95 1236.34,733.281 1240.01,730.07C1243.67,726.859 1248.6,725.253 1254.79,725.253C1261.03,725.253 1265.98,726.985 1269.62,730.447C1273.26,733.91 1275.08,738.202 1275.08,743.322C1275.08,745.927 1274.54,748.487 1273.48,751.002C1272.41,753.518 1270.64,756.167 1268.17,758.949C1265.7,761.731 1261.6,765.549 1255.85,770.403C1251.06,774.428 1247.98,777.159 1246.62,778.594C1245.26,780.029 1244.13,781.472 1243.25,782.923L1275.17,782.923L1275.17,790.603ZM3085.41,560.678C2971.68,598.595 2858.62,633.084 2748.51,660.526C2635.1,688.79 2524.68,709.61 2419.7,719.055C2425.24,736.893 2429.16,755.192 2431.31,773.978C2533.03,768.609 2633.45,765.623 2732.63,764.903C2831.27,764.19 2928.41,765.714 3024.13,769.376C3024.8,733.09 3031.38,696.893 3043.05,660.086C3053.36,627.57 3067.66,594.594 3085.41,560.678L3085.43,560.674C3085.42,560.673 3085.42,560.672 3085.42,560.67L3085.41,560.678ZM580.189,715.446C565.178,755.899 518.07,739.072 534.687,694.196C544.991,666.366 564.219,659.731 575.902,666.324C586.21,672.14 590.466,687.75 580.19,715.445L580.189,715.446ZM2846.57,737.922L2803.55,737.922C2803.49,735.998 2803.81,734.148 2804.49,732.372C2805.58,729.442 2807.34,726.557 2809.75,723.715C2812.16,720.874 2815.64,717.589 2820.2,713.86C2827.28,708.059 2832.06,703.464 2834.54,700.075C2837.03,696.686 2838.27,693.482 2838.27,690.463C2838.27,687.297 2837.14,684.625 2834.88,682.45C2832.61,680.275 2829.66,679.187 2826.02,679.187C2822.17,679.187 2819.09,680.341 2816.78,682.65C2814.47,684.958 2813.31,688.155 2813.28,692.239L2805.06,691.396C2805.63,685.269 2807.74,680.6 2811.41,677.389C2815.08,674.178 2820.01,672.572 2826.2,672.572C2832.44,672.572 2837.38,674.304 2841.02,677.766C2844.66,681.229 2846.48,685.521 2846.48,690.641C2846.48,693.245 2845.95,695.806 2844.89,698.321C2843.82,700.837 2842.05,703.486 2839.58,706.268C2837.11,709.05 2833,712.868 2827.26,717.722C2822.47,721.747 2819.39,724.478 2818.03,725.913C2816.67,727.348 2815.54,728.791 2814.65,730.242L2846.57,730.242L2846.57,737.922ZM451.073,715.493L459.065,714.427C459.982,718.956 461.543,722.219 463.748,724.217C465.953,726.214 468.639,727.213 471.806,727.213C475.565,727.213 478.739,725.911 481.329,723.307C483.919,720.702 485.213,717.476 485.213,713.628C485.213,709.958 484.015,706.932 481.617,704.55C479.22,702.167 476.172,700.976 472.472,700.976C470.963,700.976 469.083,701.272 466.834,701.864L467.722,694.849C468.254,694.908 468.684,694.938 469.009,694.938C472.413,694.938 475.476,694.05 478.199,692.274C480.922,690.498 482.283,687.761 482.283,684.061C482.283,681.131 481.292,678.704 479.309,676.78C477.326,674.857 474.766,673.895 471.628,673.895C468.521,673.895 465.931,674.871 463.859,676.825C461.788,678.778 460.456,681.708 459.864,685.615L451.873,684.194C452.849,678.837 455.069,674.686 458.532,671.741C461.995,668.797 466.301,667.324 471.451,667.324C475.003,667.324 478.273,668.086 481.262,669.611C484.252,671.135 486.538,673.214 488.121,675.848C489.705,678.482 490.496,681.279 490.496,684.239C490.496,687.05 489.742,689.611 488.232,691.919C486.723,694.228 484.488,696.063 481.529,697.424C485.376,698.312 488.365,700.154 490.496,702.951C492.627,705.748 493.693,709.248 493.693,713.451C493.693,719.133 491.621,723.95 487.478,727.901C483.334,731.853 478.095,733.828 471.762,733.828C466.049,733.828 461.307,732.126 457.533,728.723C453.759,725.319 451.606,720.909 451.073,715.493ZM330.506,679.289C349.673,688.886 367.023,699.584 382.505,711.334C384.072,697.855 387.393,684.769 392.16,672.119C396.826,659.732 401.788,650.31 407.959,641.028C391.529,649.44 373.62,658.342 353.962,667.925C346.433,671.596 338.621,675.382 330.506,679.289ZM580.687,679.658L567.833,679.658L566.097,688.315C568.031,686.968 570.06,686.294 572.184,686.294C574.996,686.294 577.369,687.268 579.303,689.216C581.236,691.164 582.203,693.669 582.203,696.731C582.203,699.646 581.354,702.165 579.654,704.289C577.589,706.897 574.769,708.2 571.195,708.2C568.265,708.2 565.874,707.38 564.021,705.739C563.807,705.55 563.603,705.353 563.411,705.15C562.791,707.622 561.392,709.405 557.179,709.482C552.378,710.182 549.844,707.855 549.583,702.503L549.583,702.503C547.588,696.734 547.197,694.53 551.722,694.057C556.158,694.358 560.749,695.294 562.845,699.044L564.999,698.862C565.306,700.884 566.02,702.403 567.141,703.421C568.262,704.439 569.613,704.948 571.195,704.948C573.099,704.948 574.711,704.231 576.029,702.795C577.347,701.36 578.006,699.455 578.006,697.082C578.006,694.826 577.373,693.047 576.106,691.743C574.839,690.439 573.18,689.787 571.129,689.787C569.855,689.787 568.705,690.077 567.679,690.655C566.654,691.234 565.848,691.985 565.262,692.907L561.549,692.424L564.669,675.879L580.687,675.879L580.687,679.658ZM2415.08,705.247C2520.2,696.023 2631.08,675.177 2745.15,646.75C2859.62,618.219 2977.17,582.095 3095.27,542.45C3103.08,528.346 3111.44,514.065 3120.35,499.582C3129.55,484.604 3139.06,468.299 3148.91,451.404C3183.2,392.629 3221.68,326.684 3274.6,270.354C3183.49,315.901 3098.53,362.029 3017.74,405.874C2793.01,527.884 2600.63,632.314 2394.76,659.834C2402.69,674.648 2409.49,689.775 2415.09,705.241L2415.08,705.247ZM1841.88,539.986C1863.82,595.649 1872.78,647.603 1872.49,696.513C1882.4,682.495 1893.15,668.978 1904.73,655.945C1926.42,631.552 1951.11,608.776 1978.71,587.591C1939.27,572.738 1894.72,556.617 1841.88,539.986ZM379.274,695.461L375.319,695.461L375.319,670.258C374.367,671.167 373.118,672.075 371.573,672.983C370.027,673.891 368.64,674.572 367.409,675.027L367.409,671.203C369.621,670.163 371.555,668.903 373.21,667.424C374.865,665.944 376.037,664.509 376.725,663.117L379.274,663.117L379.274,695.461ZM1323.8,637.651C1303.71,630.067 1280.23,626.65 1256.76,623.234C1236.95,620.353 1217.15,617.468 1198.23,612.012C1183.6,615.737 1169.17,618.403 1155.14,620.233C1116.39,625.286 1073.88,626.801 1032.71,621.837C1020.31,620.342 1008.03,618.269 995.995,615.528C1009.41,632.77 1022.31,654.983 1029.89,676.314C1054.33,676.284 1081.17,674.736 1110,671.922C1173.19,665.745 1245.84,653.425 1323.8,637.651L1323.8,637.651ZM1908.3,576.69L1882.33,576.69L1878.82,594.182C1882.73,591.459 1886.83,590.098 1891.12,590.098C1896.8,590.098 1901.6,592.066 1905.5,596.002C1909.41,599.939 1911.36,605 1911.36,611.186C1911.36,617.075 1909.65,622.166 1906.21,626.458C1902.04,631.726 1896.34,634.36 1889.12,634.36C1883.2,634.36 1878.37,632.702 1874.63,629.388C1870.88,626.073 1868.74,621.678 1868.21,616.202L1876.6,615.492C1877.22,619.576 1878.66,622.647 1880.93,624.704C1883.19,626.761 1885.92,627.789 1889.12,627.789C1892.97,627.789 1896.22,626.339 1898.89,623.439C1901.55,620.538 1902.88,616.691 1902.88,611.896C1902.88,607.338 1901.6,603.742 1899.04,601.108C1896.48,598.474 1893.13,597.157 1888.99,597.157C1886.41,597.157 1884.09,597.741 1882.02,598.91C1879.94,600.079 1878.32,601.596 1877.13,603.461L1869.63,602.484L1875.93,569.055L1908.3,569.055L1908.3,576.69ZM1251.28,593.697L1260.93,595.116C1293.36,599.834 1340.4,612.228 1368.92,628.297C1397.14,622.29 1425.94,615.92 1455.12,609.295C1510.18,584.515 1574.13,585.243 1627.13,595.767C1653.13,600.928 1676.57,608.473 1695.04,616.51C1683.83,580.35 1664.76,539.276 1635.96,493.49L1645.95,487.187C1622.57,481.832 1598.04,476.499 1572.21,471.225L1572.01,471.185L1571.49,471.022C1520.14,454.819 1468.13,441.627 1415.45,431.587C1381.38,497.695 1338.57,541.867 1293.29,571.017C1279.45,579.925 1265.39,587.413 1251.29,593.693L1251.28,593.697ZM2795.21,606.768L2787.22,606.768L2787.22,555.846C2785.3,557.681 2782.78,559.516 2779.65,561.351C2776.53,563.186 2773.73,564.562 2771.24,565.48L2771.24,557.755C2775.71,555.654 2779.62,553.108 2782.96,550.119C2786.3,547.13 2788.67,544.229 2790.06,541.418L2795.21,541.418L2795.21,606.768ZM1212.98,408.942C1201.84,450.706 1183.82,494.445 1159.24,528.972C1141.48,553.924 1119.58,576.6 1092.61,596.485C1112.76,596.182 1132.65,594.608 1151.61,592.136C1192.09,586.854 1236.17,574.056 1277.95,547.164C1317.63,521.622 1355.35,483.244 1386.17,426.344C1329.24,416.805 1271.53,410.942 1212.98,408.946L1212.98,408.942ZM872.755,440.03C891.634,528.5 900.215,534.523 923.785,551.05L923.765,551.079C927.326,553.575 931.152,556.259 934.409,558.663C938.884,561.96 943.323,565.33 947.71,568.769C974.429,582.104 1004.79,589.908 1036.09,593.683C1038.52,593.977 1040.96,594.241 1043.4,594.487C1083.47,572.003 1113.59,544.245 1136.18,512.51C1158.37,481.344 1173.45,446.171 1183.69,408.27C1173.44,408.145 1163.17,408.133 1152.87,408.248C1061.6,409.26 968.278,419.632 872.758,440.031L872.755,440.03ZM1466.73,511.525L1458.78,512.146C1458.07,509.009 1457.06,506.73 1455.76,505.309C1453.6,503.03 1450.94,501.891 1447.77,501.891C1445.22,501.891 1442.99,502.601 1441.07,504.022C1438.55,505.857 1436.57,508.536 1435.12,512.058C1433.67,515.58 1432.91,520.596 1432.85,527.108C1434.78,524.177 1437.13,522.002 1439.91,520.581C1442.69,519.161 1445.61,518.45 1448.66,518.45C1453.99,518.45 1458.52,520.411 1462.27,524.333C1466.01,528.254 1467.88,533.323 1467.88,539.538C1467.88,543.623 1467,547.418 1465.24,550.926C1463.48,554.433 1461.06,557.119 1457.98,558.983C1454.9,560.848 1451.41,561.78 1447.5,561.78C1440.84,561.78 1435.41,559.331 1431.21,554.433C1427.01,549.534 1424.91,541.462 1424.91,530.215C1424.91,517.637 1427.23,508.491 1431.88,502.779C1435.93,497.807 1441.39,495.321 1448.26,495.321C1453.38,495.321 1457.57,496.756 1460.84,499.627C1464.11,502.498 1466.08,506.464 1466.73,511.525ZM1434.1,539.583C1434.1,542.335 1434.68,544.969 1435.85,547.485C1437.02,550.001 1438.65,551.917 1440.76,553.234C1442.86,554.551 1445.06,555.21 1447.37,555.21C1450.74,555.21 1453.64,553.848 1456.07,551.125C1458.5,548.402 1459.71,544.703 1459.71,540.027C1459.71,535.528 1458.51,531.984 1456.12,529.394C1453.72,526.804 1450.7,525.509 1447.06,525.509C1443.45,525.509 1440.38,526.804 1437.87,529.394C1435.35,531.984 1434.1,535.38 1434.1,539.583ZM1927.13,553.568L1966.71,547.509C1949.37,542.162 1931.47,537.133 1913.56,532.108C1857.01,516.244 1800.44,500.379 1761.96,474.724L1750.68,467.206L1763.3,462.216C1780.92,455.254 1796.7,447.696 1811.3,439.762C1820.51,434.756 1829.23,429.615 1837.63,424.382C1788.85,414.376 1740.09,405.226 1691.08,397.718C1636.4,389.337 1581.34,382.973 1525.47,379.692L1504.18,378.442L1521.95,366.687C1541.16,353.987 1559.34,341.198 1576.66,328.339C1589.31,318.951 1601.51,309.523 1613.32,300.062C1545.35,293.954 1505.22,301.975 1459.98,311.029C1440.71,314.883 1420.52,318.929 1396.91,322.175C1377.81,324.8 1357.97,325.805 1337.78,326.829C1296.38,328.929 1253.43,331.104 1215.09,347.533L1147.45,376.525L1208.32,335.148C1229.41,320.816 1249.64,305.43 1269.14,289.164C1282.83,277.751 1296.22,265.856 1309.33,253.55C1263.76,261.854 1215.77,273.847 1164.43,290.962C1104.43,310.968 1039.78,337.993 968.98,374.33L935.662,391.434L960.429,363.332C981.941,338.926 999.958,314.625 1015.24,290.416C1023.87,276.747 1031.62,263.127 1038.63,249.542C1002.68,281.278 965.111,313.5 926.76,345.499C888.207,377.669 849.07,409.443 810.21,440.091C927.47,410.264 1041.55,395.315 1152.69,394.084C1298.49,392.466 1439.16,414.449 1575.26,457.34C1731.49,489.25 1841.29,523.11 1927.12,553.564L1927.13,553.568ZM745.445,472.814C738.574,490.293 729.383,508.076 718.755,525.073C790.826,506.255 831.805,510.737 866.135,524.679C859.515,507.675 853.018,483.358 845.08,446.206C812.131,453.878 778.922,462.738 745.445,472.814ZM1241.22,518.314L1233,518.314C1233.09,513.194 1234.1,507.008 1236.02,499.757C1237.94,492.506 1240.7,485.514 1244.3,478.78C1247.9,472.047 1251.72,466.372 1255.78,461.755L1223.9,461.755L1223.9,454.074L1266.03,454.074L1266.03,460.29C1261.89,464.7 1257.78,470.56 1253.71,477.87C1249.64,485.181 1246.5,492.698 1244.28,500.423C1242.68,505.869 1241.66,511.833 1241.22,518.314ZM1041.5,467.426L1033.55,468.047C1032.84,464.91 1031.84,462.631 1030.54,461.211C1028.37,458.932 1025.71,457.792 1022.54,457.792C1020,457.792 1017.76,458.502 1015.84,459.923C1013.32,461.758 1011.34,464.437 1009.89,467.959C1008.44,471.481 1007.69,476.497 1007.63,483.009C1009.55,480.079 1011.9,477.903 1014.69,476.482C1017.47,475.062 1020.38,474.352 1023.43,474.352C1028.76,474.352 1033.3,476.312 1037.04,480.234C1040.78,484.155 1042.65,489.224 1042.65,495.439C1042.65,499.524 1041.77,503.319 1040.01,506.827C1038.25,510.334 1035.83,513.02 1032.76,514.884C1029.68,516.749 1026.18,517.681 1022.28,517.681C1015.62,517.681 1010.19,515.232 1005.98,510.334C1001.78,505.436 999.68,497.363 999.68,486.116C999.68,473.538 1002,464.392 1006.65,458.68C1010.71,453.708 1016.17,451.222 1023.03,451.222C1028.15,451.222 1032.35,452.657 1035.62,455.528C1038.89,458.399 1040.85,462.365 1041.5,467.426ZM1008.87,495.484C1008.87,498.236 1009.46,500.87 1010.62,503.386C1011.79,505.902 1013.43,507.818 1015.53,509.135C1017.63,510.452 1019.84,511.111 1022.14,511.111C1025.52,511.111 1028.42,509.749 1030.85,507.026C1033.27,504.304 1034.49,500.604 1034.49,495.928C1034.49,491.429 1033.29,487.885 1030.89,485.295C1028.49,482.705 1025.47,481.41 1021.83,481.41C1018.22,481.41 1015.16,482.705 1012.64,485.295C1010.13,487.885 1008.87,491.281 1008.87,495.484ZM799.827,501.328L795.762,501.328C795.806,498.794 796.304,495.732 797.256,492.143C798.208,488.554 799.574,485.094 801.354,481.761C803.134,478.429 805.027,475.62 807.034,473.335L791.257,473.335L791.257,469.533L812.109,469.533L812.109,472.609C810.059,474.792 808.026,477.692 806.012,481.311C803.998,484.929 802.442,488.649 801.343,492.473C800.552,495.168 800.047,498.12 799.827,501.328ZM1443.37,401.555L1435.38,401.555L1435.38,350.634C1433.46,352.469 1430.94,354.304 1427.81,356.139C1424.69,357.974 1421.89,359.35 1419.4,360.267L1419.4,352.543C1423.87,350.441 1427.78,347.896 1431.12,344.907C1434.47,341.917 1436.83,339.017 1438.23,336.205L1443.37,336.205L1443.37,401.555Z" style="fill:rgb(31,26,23);"/>
    </g>
</svg>
