<?xml version="1.0" encoding="UTF-8" standalone="no"?>
<!DOCTYPE svg PUBLIC "-//W3C//DTD SVG 1.1//EN" "http://www.w3.org/Graphics/SVG/1.1/DTD/svg11.dtd">
<svg width="100%" height="100%" viewBox="0 0 3508 1406" version="1.1" xmlns="http://www.w3.org/2000/svg" xmlns:xlink="http://www.w3.org/1999/xlink" xml:space="preserve" xmlns:serif="http://www.serif.com/" style="fill-rule:evenodd;clip-rule:evenodd;stroke-linejoin:round;stroke-miterlimit:2;">
    <path d="M696.01,633.25C724.772,724.991 722.424,818.25 694.307,912.77C752.136,812.804 755.845,719.3 696.01,633.25ZM743.021,905.88C798.232,864.571 809.765,648.12 753.103,615.36C784.051,698.09 783.604,793.43 743.021,905.88ZM820.599,617.22C838.987,705.004 830.127,802.42 794.026,909.47C836.86,875.953 862.56,665.91 820.599,617.22ZM580.189,715.446C565.178,755.899 518.07,739.072 534.687,694.196C544.991,666.366 564.219,659.731 575.902,666.324C586.21,672.14 590.466,687.75 580.19,715.445L580.189,715.446ZM549.583,702.503C547.588,696.734 547.197,694.53 551.722,694.057C557.207,694.43 562.928,695.772 563.878,702.205C563.439,706.085 562.937,709.377 557.179,709.482C552.378,710.182 549.844,707.855 549.583,702.503L549.583,702.503ZM1707.58,686.497C1693.07,693.95 1673.31,701.189 1648.31,707.01L1645.09,707.758C1616.66,714.363 1580.07,722.865 1549,741.566L1469.87,789.217C1481.05,799.861 1492.37,808.065 1503.64,814.179C1536.49,832 1569.84,832.494 1599.41,824.066C1629.66,815.448 1656.06,797.625 1674.25,779.251C1682.88,770.528 1689.51,761.875 1693.67,754.217C1703.19,736.655 1708.39,714.024 1707.58,686.497L1707.58,686.497ZM1063.56,822.667C1063.89,830.043 1064.01,837.428 1063.9,844.812C1064.01,850.604 1063.9,856.255 1063.6,861.767L1063.67,862.284C1070.15,908.235 1094.78,941.572 1125.27,963.934C1156.2,986.613 1193.05,998.106 1223.38,1000.11C1232.39,1000.71 1240.66,1000.48 1247.86,999.46C1289.12,993.639 1351.88,965.606 1395.48,919.553C1424.46,888.937 1444.64,850.338 1443.31,805.213L1252.05,920.373L1246.89,923.484L1242.99,918.894C1188.16,854.237 1134.05,823.807 1080.57,822.203C1074.91,822.033 1069.24,822.192 1063.57,822.666L1063.56,822.667ZM932.323,592.847C920.351,586.685 909.216,580.1 898.594,573.819C850.356,545.29 813.627,523.572 691.964,562.434C684.93,571.066 677.645,579.168 670.272,586.528C644.165,612.597 614.424,635.479 584.324,656.083C588.961,657.81 593.085,660.467 595.876,664.06C599.747,669.043 598.707,677.589 599.767,688.242C600.803,698.655 603.154,716.724 594.828,726.777C585.203,738.401 574.598,748.777 560.783,751.189C561.021,752.741 561.229,754.275 561.412,755.797C563.806,764.612 565.81,772.209 567.76,779.617C570.842,791.315 574.162,802.913 577.878,814.484C604.299,868.622 654.765,913.475 709.718,946.304C781.39,989.122 859.708,1011.26 902.618,1007.06C904.403,1006.88 906.383,1006.6 908.528,1006.22C941.734,1000.31 981.862,979.712 1008.03,942.179C1018.47,927.195 1026.7,909.458 1031.36,888.795C1030.45,869.701 1031.4,850.776 1033.68,831.974C1033.72,830.661 1033.75,829.339 1033.81,828.009C995.863,838.436 957.896,862.526 919.909,898.386L910.175,888.07C966.519,834.88 1023.42,806.306 1081,808.033C1137.28,809.72 1193.59,840.337 1249.89,905.15L1541.72,729.44C1574.83,709.502 1612.58,700.73 1641.91,693.916L1645.13,693.168C1669.83,687.417 1688.93,680.337 1702.54,673.144C1717.04,665.483 1724.72,658.389 1725.74,653.294C1725.77,653.141 1725.64,653.412 1725.55,653.206C1723.04,647.699 1711.78,639.884 1694.54,631.854C1676.25,623.331 1651.83,615.142 1624.32,609.68C1573.46,599.579 1512.27,598.822 1460.15,622.532L1459.42,622.862L1458.77,623.01C1330.85,652.064 1210.08,676.375 1111.42,686.012C1011.51,695.774 933.973,690.316 893.983,659.354L902.641,648.171C923.448,664.281 956.252,672.779 998.313,675.413C990.859,656.1 979.996,639.693 967.107,625.166C956.623,613.353 944.785,602.756 932.334,592.85L932.323,592.847ZM1323.8,637.651C1303.71,630.067 1280.23,626.65 1256.76,623.234C1236.95,620.353 1217.15,617.468 1198.23,612.012C1183.6,615.737 1169.17,618.403 1155.14,620.233C1116.39,625.286 1073.88,626.801 1032.71,621.837C1020.31,620.342 1008.03,618.269 995.995,615.528C1009.41,632.77 1022.31,654.983 1029.89,676.314C1054.33,676.284 1081.17,674.736 1110,671.922C1173.19,665.745 1245.84,653.425 1323.8,637.651L1323.8,637.651ZM2401.4,825.881C2398.9,870.873 2384.8,917.018 2354.77,964.741C2363.11,964.316 2371.42,964.072 2379.68,964.011C2403.48,914.857 2415.8,868.908 2418.46,825.681L2401.4,825.882L2401.4,825.881ZM1927.34,1123.61C1964.53,1144.54 2001.64,1158.64 2038.75,1172.73C2059.21,1180.5 2079.68,1188.27 2100.33,1197.26C2154.32,1182.51 2208.62,1171.51 2263.15,1163.51C2310.69,1156.53 2358.36,1151.82 2406.13,1148.89C2373.15,1130.29 2336.77,1113.7 2300.61,1097.21C2254.47,1076.16 2208.67,1055.27 2170.17,1030.41C2162.04,1034.23 2153.87,1038.13 2145.63,1042.06C2113.41,1057.45 2080.27,1073.27 2044.79,1086.39C2006.95,1100.38 1967.47,1112.78 1927.35,1123.61L1927.34,1123.61ZM3170.14,1063.54L3170.06,1063.97C3095.39,1049.74 3019.39,1035.27 2943.36,1020.86C2867.33,1006.46 2791.24,992.11 2716.37,978.111C2682.04,971.689 2646.26,967.309 2610.48,962.935C2541.27,954.462 2472.04,945.99 2412.34,922.793C2407.55,936.325 2401.9,950.093 2395.35,964.1C2484.27,965.758 2568.88,986.745 2653.93,1007.85C2711.87,1022.23 2770.02,1036.66 2829.68,1044.94C2915.79,1056.89 3000.7,1073.19 3084.28,1094.13C3152.78,1111.29 3220.43,1131.59 3287.14,1155.19L3275.29,1146.2C3237.84,1117.77 3202.07,1090.62 3170.13,1063.54L3170.14,1063.54ZM3070.05,955.934C2998.58,946.84 2925.25,940.126 2851.95,933.412C2705.48,919.999 2559,906.578 2426.14,874.104C2423.71,885.671 2420.62,897.417 2416.86,909.34C2474.97,932.048 2543.6,940.454 2612.21,948.847C2648.27,953.259 2684.34,957.675 2719,964.157C2793.87,978.158 2869.96,992.508 2945.99,1006.91C3014.2,1019.83 3082.37,1032.8 3149.6,1045.61C3121.1,1019.98 3096.46,994.16 3077.48,967.129C3074.88,963.418 3072.4,959.682 3070.06,955.934L3070.05,955.934ZM3024.18,783.584C2928.11,779.899 2831,778.36 2732.78,779.073C2634.12,779.788 2534.08,782.762 2432.59,788.114C2432.85,792.059 2433.03,796.032 2433.14,800.021C2433.64,819.537 2432.24,839.567 2428.78,860.158C2560.66,892.474 2706.94,905.877 2853.2,919.27C2923,925.661 2992.81,932.052 3061.16,940.51C3052.84,924.801 3046.5,908.788 3041.56,892.502C3033.87,867.165 3029.56,841.127 3026.4,814.524C3025.16,804.19 3024.43,793.88 3024.18,783.584L3024.18,783.584ZM3085.43,560.674C2971.68,598.595 2858.62,633.084 2748.51,660.526C2635.1,688.79 2524.68,709.61 2419.7,719.055C2425.24,736.893 2429.16,755.192 2431.31,773.978C2533.03,768.609 2633.45,765.623 2732.63,764.903C2831.27,764.19 2928.41,765.714 3024.13,769.376C3024.8,733.09 3031.38,696.893 3043.05,660.086C3053.36,627.566 3067.67,594.587 3085.42,560.67L3085.43,560.674ZM1927.13,553.568L1966.71,547.509C1949.37,542.162 1931.47,537.133 1913.56,532.108C1857.01,516.244 1800.44,500.379 1761.96,474.724L1750.68,467.206L1763.3,462.216C1780.92,455.254 1796.7,447.696 1811.3,439.762C1820.51,434.756 1829.23,429.615 1837.63,424.382C1788.85,414.376 1740.09,405.226 1691.08,397.718C1636.4,389.337 1581.34,382.973 1525.47,379.692L1504.18,378.442L1521.95,366.687C1541.16,353.987 1559.34,341.198 1576.66,328.339C1589.31,318.951 1601.51,309.523 1613.32,300.062C1545.35,293.954 1505.22,301.975 1459.98,311.029C1440.71,314.883 1420.52,318.929 1396.91,322.175C1377.81,324.8 1357.97,325.805 1337.78,326.829C1296.38,328.929 1253.43,331.104 1215.09,347.533L1147.45,376.525L1208.32,335.148C1229.41,320.816 1249.64,305.43 1269.14,289.164C1282.83,277.751 1296.22,265.856 1309.33,253.55C1263.76,261.854 1215.77,273.847 1164.43,290.962C1104.43,310.968 1039.78,337.993 968.98,374.33L935.662,391.434L960.429,363.332C981.941,338.926 999.958,314.625 1015.24,290.416C1023.87,276.747 1031.62,263.127 1038.63,249.542C1002.68,281.278 965.111,313.5 926.76,345.499C888.207,377.669 849.07,409.443 810.21,440.091C927.47,410.264 1041.55,395.315 1152.69,394.084C1298.49,392.466 1439.16,414.449 1575.26,457.34C1731.49,489.25 1841.29,523.11 1927.12,553.564L1927.13,553.568ZM775.325,449.378C822.923,412.35 870.888,373.657 917.685,334.608C964.977,295.145 1011.41,255.036 1055.38,215.628L1079.81,193.726L1066.61,223.747C1055.74,248.458 1042.88,273.203 1027.24,297.971C1017.07,314.096 1005.71,330.271 992.937,346.485C1052.62,317.356 1107.97,294.845 1159.94,277.518C1220.71,257.258 1276.82,244.083 1329.78,235.669L1351.69,232.19L1335.84,247.739C1317.29,265.936 1298.12,283.431 1278.2,300.047C1269.38,307.4 1260.43,314.574 1251.35,321.536C1279.6,315.581 1308.65,314.103 1337.01,312.664C1356.98,311.654 1376.6,310.66 1394.98,308.131C1418.24,304.931 1438.19,300.935 1457.23,297.127C1507.26,287.113 1551.17,278.327 1631.86,287.732L1648.42,289.664L1635.57,300.241C1619.41,313.537 1602.64,326.715 1585.1,339.73C1572.8,348.864 1560.13,357.927 1547.06,366.895C1596.24,370.45 1644.85,376.29 1693.17,383.694C1748.25,392.135 1802.89,402.598 1857.53,414.014L1874.21,417.502L1859.96,426.882C1846.76,435.568 1833.03,444.089 1818.06,452.219C1806.71,458.386 1794.61,464.36 1781.46,470.034C1817.7,490.515 1867.54,504.488 1917.37,518.466C1945.56,526.374 1973.77,534.286 1999.48,543.317L2026.27,552.723L1998.21,557.018L1955.01,563.63C1979.35,572.558 2001.75,581.131 2022.81,589.185C2146.45,636.479 2223.5,665.955 2380.84,647.32C2588.55,622.723 2783.02,517.15 3010.96,393.41C3103.56,343.14 3201.67,289.88 3308.72,237.68L3355.79,214.729L3316.5,249.374C3247.89,309.889 3201.58,389.274 3161.16,458.544C3151.38,475.317 3141.93,491.509 3132.4,507.019C3098.61,562.008 3072.62,613.849 3056.6,664.359C3040.69,714.527 3034.61,763.424 3040.49,812.869C3043.56,838.633 3047.73,863.852 3055.17,888.381C3062.54,912.653 3073.14,936.236 3089.11,958.976C3131.29,1019.06 3203.69,1074.01 3283.93,1134.9C3299.97,1147.07 3316.33,1159.49 3332.78,1172.19L3370.35,1201.22L3325.96,1184.44C3245.75,1154.12 3164.02,1128.69 3080.9,1107.87C2997.84,1087.06 2913.41,1070.86 2827.78,1058.97C2767.43,1050.6 2708.88,1036.07 2650.55,1021.59C2538.17,993.704 2426.57,966.011 2305.77,983.76C2264.49,989.825 2225.29,1005.15 2185.5,1023.3C2221.55,1045.55 2263.88,1064.85 2306.49,1084.29C2350.59,1104.41 2395.01,1124.67 2433.61,1148.64L2452.92,1160.63L2430.24,1161.75C2375.01,1164.48 2319.97,1169.47 2265.21,1177.51C2210.49,1185.55 2155.97,1196.65 2101.69,1211.58L2099.29,1212.24L2096.99,1211.24C2075.99,1202.02 2054.87,1194 2033.75,1185.98C1992.05,1170.14 1950.35,1154.3 1908,1128.69C1890.47,1133.19 1872.84,1137.4 1855.22,1141.31C1784.3,1157.04 1713.18,1168.06 1647.27,1174.56C1512.13,1187.89 1400.89,1182.78 1243.53,1175.54C1223.75,1174.64 1203.06,1173.69 1186.21,1172.94L1185.65,1172.88C1011.62,1151.46 841.339,1117.33 676.629,1064.29C511.809,1011.23 352.549,939.224 200.709,842.104L200.41,841.915L200.073,841.638C164.081,812.516 144.779,795.889 139.61,781.982C133.326,765.078 144.268,754.842 169.325,739.68L169.542,739.55L170.014,739.33C241.819,705.764 299.574,678.648 347.774,655.149C395.304,631.979 432.455,612.825 463.064,595.182C488.424,580.569 509.829,567.353 529.338,555.312C583.226,522.05 622.802,497.62 699.118,472.498C724.668,464.083 750.062,456.385 775.316,449.362L775.325,449.378ZM1212.98,408.942C1201.84,450.706 1183.82,494.445 1159.24,528.972C1141.48,553.924 1119.58,576.6 1092.61,596.485C1112.76,596.182 1132.65,594.608 1151.61,592.136C1192.09,586.854 1236.17,574.056 1277.95,547.164C1317.63,521.622 1355.35,483.244 1386.17,426.344C1329.24,416.805 1271.53,410.942 1212.98,408.946L1212.98,408.942ZM872.755,440.03C891.634,528.5 900.215,534.523 923.785,551.05L923.765,551.079C927.326,553.575 931.152,556.259 934.409,558.663C938.884,561.96 943.323,565.33 947.71,568.769C974.429,582.104 1004.79,589.908 1036.09,593.683C1038.52,593.977 1040.96,594.241 1043.4,594.487C1083.47,572.003 1113.59,544.245 1136.18,512.51C1158.37,481.344 1173.45,446.171 1183.69,408.27C1173.44,408.145 1163.17,408.133 1152.87,408.248C1061.6,409.26 968.278,419.632 872.758,440.031L872.755,440.03ZM745.445,472.814C738.574,490.293 729.383,508.076 718.755,525.073C790.826,506.255 831.805,510.737 866.135,524.679C859.515,507.675 853.018,483.358 845.08,446.206C812.131,453.878 778.922,462.738 745.444,472.815L745.445,472.814ZM460.655,612.884C446.927,630.765 425.353,664.325 418.668,682.072C412.289,699.005 409.025,716.782 409.976,735.253C419.841,745.158 428.613,755.649 436.252,766.716C448.558,784.547 460.346,803.344 466.89,824.906C470.848,837.949 472.841,851.792 471.859,866.718C474.725,864.57 477.508,862.329 480.199,859.982C494.621,847.4 510.469,832.91 521.096,815.322C528.529,803.018 533.57,788.834 533.924,772.096C533.741,771.163 533.567,770.22 533.401,769.285C532.81,765.965 532.297,762.488 531.854,758.852C530.29,753.922 528.829,749.272 527.715,745.453C511.735,736.109 508.642,717.044 514.691,693.313C518.853,676.983 523.651,664.904 532.628,658.959C537.552,655.698 543.196,655.157 549.331,655.005C582.274,630.842 624.386,592.241 650.261,566.409C674.701,542.011 695.668,514.762 710.039,483.897C707.879,484.599 705.715,485.301 703.551,486.012C628.767,510.629 589.831,534.667 536.811,567.395C517.406,579.371 496.118,592.512 470.164,607.47C467.061,609.257 463.899,611.064 460.663,612.884L460.655,612.884ZM330.505,679.288C349.673,688.886 367.023,699.584 382.505,711.334C384.072,697.855 387.393,684.769 392.16,672.119C396.826,659.732 401.788,650.31 407.959,641.028C391.529,649.44 373.62,658.342 353.962,667.925C346.433,671.596 338.621,675.382 330.506,679.289L330.505,679.288ZM343.062,908.828C369.035,905.026 409.47,897.184 427.69,890.369C431.865,888.808 435.936,887.132 439.909,885.347C445.504,865.82 444.442,848.694 439.715,833.11C434.263,815.139 423.842,798.614 412.913,782.78C401.385,766.073 386.767,750.739 369.195,736.874C352.175,723.444 321.154,706 297.71,694.954C262.51,711.686 222.366,730.497 176.46,751.952C158.312,762.945 150.079,769.564 152.876,777.09C156.787,787.613 174.824,802.99 208.613,830.341C252.805,858.597 297.639,884.703 343.063,908.828L343.062,908.828ZM560.852,1008.26C567.868,990.915 572.194,974.987 574.465,960.147C576.825,944.745 576.996,930.504 575.69,917.053C573.58,895.311 569.08,886.604 563.466,875.743C558.064,865.296 551.786,853.152 545.48,829.846L545.405,829.971C532.649,851.08 514.917,867.345 498.847,881.366C481.312,896.658 460.702,908.278 437.618,916.913C421.471,922.951 404.117,927.507 385.755,930.843C443.247,959.601 501.645,985.307 560.855,1008.26L560.852,1008.26ZM700.782,1057.07C656.366,1014.65 626.128,979.101 604.428,946.428C604.059,952.275 603.429,958.243 602.491,964.36C599.921,981.15 595.103,999.028 587.345,1018.32C618.338,1029.86 649.543,1040.68 680.958,1050.79C687.557,1052.92 694.166,1055 700.782,1057.07L700.782,1057.07ZM822.882,1091.58C827.765,1071.98 836.355,1056.11 848.189,1042.8C851.312,1039.28 854.646,1035.96 858.195,1032.81C810.976,1025.28 750.795,1003.79 695.255,970.603C671.22,956.245 647.962,939.668 626.856,921.056C655.498,967.286 696.73,1016.89 759.236,1074.47C780.367,1080.46 801.581,1086.16 822.88,1091.58L822.882,1091.58ZM938.182,1118.15C965.491,1075.32 989.595,1030.1 1006.16,987.302C977.751,1013.64 943.304,1028.88 913.546,1034.18C911.271,1034.58 908.596,1034.94 905.535,1035.24L905.358,1035.25C890.844,1042.7 878.7,1051.19 869.377,1061.68C860.549,1071.62 854.108,1083.56 850.395,1098.42C879.511,1105.49 908.775,1112.06 938.182,1118.15L938.182,1118.15ZM1208.6,1159.73C1128.72,1101.46 1083.79,1049.72 1057.82,994.633C1052.67,983.697 1048.37,972.843 1044.83,962.053C1043.39,966.792 1041.87,971.528 1040.27,976.272C1023.76,1025.43 999.176,1074.71 968.097,1124.17C1040.3,1138.31 1113.32,1149.69 1187.02,1158.77L1208.61,1159.73L1208.6,1159.73ZM1262.01,1162.18C1258.13,1121.47 1261.44,1086.75 1270.79,1056.73C1274.97,1043.32 1280.35,1030.86 1286.81,1019.23C1274.29,1023.24 1262.46,1026.03 1251.89,1027.52C1242.62,1028.83 1232.4,1029.15 1221.63,1028.44C1186.63,1026.13 1144.14,1012.9 1108.55,986.8C1094.68,976.64 1081.86,964.546 1070.87,950.396C1074.22,961.061 1078.38,971.777 1083.46,982.572C1109,1036.74 1172.31,1101.99 1257.64,1161.98L1262.01,1162.18L1262.01,1162.18ZM1359.75,1166.32C1443.3,1091.55 1495.22,998.204 1492.27,904.574C1489.54,898.446 1486.79,892.126 1483.96,885.634C1478.78,873.732 1473.32,861.206 1467.32,848.27C1459.12,883.149 1440.25,913.588 1416.14,939.058C1393.26,963.227 1365.48,982.916 1337.67,997.632C1319.74,1016.67 1306.14,1038.79 1297.92,1065.17C1289.36,1092.63 1286.53,1124.82 1290.56,1163.04L1287.63,1163.34C1312.68,1164.46 1336.61,1165.49 1359.75,1166.32L1359.75,1166.32ZM1823.37,1133.59C1824.88,1114.08 1821.25,1096.6 1810.37,1082.61C1798.97,1067.96 1779.25,1056.41 1748.76,1049.35L1748.78,1049.25C1715.11,1051.52 1680.61,1048.32 1647.05,1038.47C1627.32,1032.67 1607.99,1026.62 1589.57,1017.81C1570.52,1008.69 1552.6,996.743 1536.53,979.405C1529.77,972.099 1523.76,964.038 1518.21,955.272C1508.24,1032.81 1469.44,1103.6 1401.85,1167.65C1485.68,1169.86 1561.21,1168.84 1645.85,1160.49C1702.19,1154.93 1762.51,1146 1823.36,1133.59L1823.37,1133.59ZM2235.63,987.279C2218.29,983.757 2203.06,980.615 2186.77,976.938C2120.58,962.002 2077.19,952.206 2031.57,956.328C1975.57,961.387 1939.04,980.528 1901.1,1000.41C1888.08,1007.23 1874.9,1014.14 1861.47,1020.35C1843.38,1028.71 1824.18,1035.51 1804.27,1040.48C1816.12,1047.57 1825.52,1055.86 1832.78,1065.19C1846.76,1083.16 1852.46,1104.35 1852.04,1127.49L1852.15,1127.47C1916.13,1113.27 1980.07,1095.18 2039.91,1073.05C2074.97,1060.09 2107.73,1044.44 2139.57,1029.24C2171.99,1013.76 2203.48,998.724 2235.63,987.28L2235.63,987.279ZM2243.62,665.179C2233.44,748.28 2216.93,815.439 2193.16,864.319C2177.59,896.335 2158.85,920.747 2136.68,936.971C2153.85,940.412 2172.37,944.599 2193.03,949.261C2215.67,954.371 2266.2,964.255 2297.82,970.686C2299.79,970.355 2301.76,970.045 2303.74,969.755C2314.95,968.109 2326.08,966.847 2337.12,965.927C2373.49,911.541 2388.05,859.567 2387.69,809.237C2387.34,759.915 2372.71,711.917 2350.29,664.647C2310.33,667.956 2275.59,667.935 2243.62,665.177L2243.62,665.179ZM2078.79,625.379C2065.44,713.085 2045.05,786.389 2018.2,846.509C2001.94,882.917 1983.29,914.554 1962.36,941.7C1981.83,935.289 2003.46,930.433 2028.96,928.13C2048.99,926.32 2068.2,926.843 2088.4,929.106C2120.79,920.79 2146.98,894.396 2167.63,851.916C2189.98,805.955 2205.63,741.866 2215.43,661.966C2168.06,655.217 2125.56,642.295 2078.79,625.38L2078.79,625.379ZM2010.66,599.728C1981.6,621.394 1948.08,649.904 1925.92,674.832C1903.05,700.557 1883.7,728.174 1867.99,757.739L1867.39,757.425C1863.86,779.384 1858.62,800.731 1852.07,821.525C1828.77,895.488 1786.31,968.285 1711.02,1021.09C1724.65,1021.95 1738.26,1021.76 1751.71,1020.62C1786.09,1017.69 1819.49,1008.48 1849.62,994.561C1863.49,988.155 1875.81,981.697 1887.98,975.319C1890.84,973.823 1893.68,972.327 1896.53,970.843C1934.23,937.945 1966.35,893.049 1992.31,834.923C2018.72,775.794 2038.68,703.183 2051.6,615.843L2053.89,616.18C2042.23,611.797 2030.25,607.217 2017.78,602.448L2010.66,599.724L2010.66,599.728ZM1841.88,539.983C1863.82,595.649 1872.78,647.603 1872.49,696.513C1882.4,682.495 1893.15,668.978 1904.73,655.945C1926.42,631.552 1951.11,608.776 1978.71,587.591C1939.27,572.738 1894.72,556.617 1841.88,539.986L1841.88,539.983ZM1668.6,492.467C1701.21,546.882 1720.61,595.137 1729.73,636.747C1734.02,640.449 1737.02,644.028 1738.52,647.325C1739.86,650.273 1740.28,653.188 1739.72,656.019C1739.08,659.249 1737.38,662.701 1734.63,666.235C1739.24,707.801 1732.75,741.826 1718.72,767.685C1713.27,777.737 1704.99,788.672 1694.52,799.252C1673.39,820.589 1642.63,841.317 1607.27,851.394C1572.86,861.199 1534.18,861.044 1495.68,841.971C1500.82,853.21 1505.52,863.987 1510.02,874.31C1525.6,910.046 1538.69,940.066 1557.3,960.147C1570.59,974.493 1585.63,984.487 1601.74,992.191C1618.49,1000.2 1636.55,1005.85 1655.03,1011.28C1658.57,1012.32 1662.12,1013.28 1665.68,1014.15C1853.48,879.093 1868.65,711.343 1804.45,528.563C1764.1,516.609 1719.2,504.489 1668.6,492.471L1668.6,492.467ZM1251.28,593.697L1260.93,595.116C1293.36,599.834 1340.4,612.228 1368.92,628.297C1397.14,622.29 1425.94,615.92 1455.12,609.295C1510.18,584.515 1574.13,585.243 1627.13,595.767C1653.13,600.928 1676.57,608.473 1695.04,616.51C1683.83,580.35 1664.76,539.276 1635.96,493.49L1645.95,487.187C1622.57,481.832 1598.04,476.499 1572.21,471.225L1572.01,471.185L1571.49,471.022C1520.14,454.819 1468.13,441.627 1415.45,431.587C1381.38,497.695 1338.57,541.867 1293.29,571.017C1279.45,579.925 1265.39,587.413 1251.29,593.693L1251.28,593.697ZM2415.08,705.247C2520.2,696.023 2631.08,675.177 2745.15,646.75C2859.62,618.219 2977.17,582.095 3095.27,542.45C3103.08,528.346 3111.44,514.065 3120.35,499.582C3129.55,484.604 3139.06,468.299 3148.91,451.404C3183.2,392.629 3221.68,326.684 3274.6,270.354C3183.49,315.901 3098.53,362.029 3017.74,405.874C2793.01,527.884 2600.63,632.314 2394.76,659.834C2402.69,674.648 2409.49,689.775 2415.09,705.241L2415.08,705.247Z" style="fill:rgb(31,26,23);"/>
</svg>
