<?xml version="1.0" encoding="UTF-8" standalone="no"?>
<!DOCTYPE svg PUBLIC "-//W3C//DTD SVG 1.1//EN" "http://www.w3.org/Graphics/SVG/1.1/DTD/svg11.dtd">
<svg width="100%" height="100%" viewBox="0 0 344 523" version="1.1" xmlns="http://www.w3.org/2000/svg" xmlns:xlink="http://www.w3.org/1999/xlink" xml:space="preserve" xmlns:serif="http://www.serif.com/" style="fill-rule:evenodd;clip-rule:evenodd;stroke-linejoin:round;stroke-miterlimit:2;">
    <g transform="matrix(1,0,0,1,-1495,-492)">
        <path d="M1668.61,492.473C1719.21,504.491 1764.1,516.61 1804.45,528.563C1868.65,711.343 1853.48,879.093 1665.68,1014.15C1662.12,1013.28 1658.57,1012.32 1655.03,1011.28C1636.55,1005.85 1618.49,1000.2 1601.74,992.191C1585.63,984.487 1570.59,974.493 1557.3,960.147C1538.69,940.066 1525.6,910.046 1510.02,874.31C1505.52,863.987 1500.82,853.21 1495.68,841.971C1534.18,861.044 1572.86,861.199 1607.27,851.394C1642.63,841.317 1673.39,820.589 1694.52,799.252C1704.99,788.672 1713.27,777.737 1718.72,767.685C1732.75,741.826 1739.24,707.801 1734.63,666.235C1737.38,662.701 1739.08,659.249 1739.72,656.019C1740.28,653.188 1739.86,650.273 1738.52,647.325C1737.02,644.028 1734.02,640.449 1729.73,636.747C1720.61,595.137 1701.21,546.882 1668.61,492.473L1668.6,492.471C1668.6,492.47 1668.6,492.468 1668.6,492.467L1668.61,492.473Z" style="fill:rgb(0,255,0);"/>
    </g>
</svg>
