<?xml version="1.0" encoding="UTF-8" standalone="no"?>
<!DOCTYPE svg PUBLIC "-//W3C//DTD SVG 1.1//EN" "http://www.w3.org/Graphics/SVG/1.1/DTD/svg11.dtd">
<svg width="100%" height="100%" viewBox="0 0 893 234" version="1.1" xmlns="http://www.w3.org/2000/svg" xmlns:xlink="http://www.w3.org/1999/xlink" xml:space="preserve" xmlns:serif="http://www.serif.com/" style="fill-rule:evenodd;clip-rule:evenodd;stroke-linejoin:round;stroke-miterlimit:2;">
    <g transform="matrix(1,0,0,1,-2395,-922)">
        <path d="M3170.14,1063.55C3202.08,1090.63 3237.84,1117.77 3275.29,1146.2L3287.14,1155.19C3220.43,1131.59 3152.78,1111.29 3084.28,1094.13C3000.7,1073.19 2915.79,1056.89 2829.68,1044.94C2770.02,1036.66 2711.87,1022.23 2653.93,1007.85C2568.88,986.745 2484.27,965.758 2395.35,964.1C2401.9,950.093 2407.55,936.325 2412.34,922.793C2472.04,945.99 2541.27,954.462 2610.48,962.935C2646.26,967.309 2682.04,971.689 2716.37,978.111C2791.24,992.11 2867.33,1006.46 2943.36,1020.86C3019.39,1035.27 3095.39,1049.74 3170.06,1063.97L3170.14,1063.55L3170.13,1063.54C3170.14,1063.54 3170.14,1063.54 3170.14,1063.54L3170.14,1063.55Z" style="fill:rgb(0,0,255);"/>
    </g>
</svg>
