<?xml version="1.0" encoding="UTF-8" standalone="no"?>
<!DOCTYPE svg PUBLIC "-//W3C//DTD SVG 1.1//EN" "http://www.w3.org/Graphics/SVG/1.1/DTD/svg11.dtd">
<svg width="100%" height="100%" viewBox="0 0 1157 305" version="1.1" xmlns="http://www.w3.org/2000/svg" xmlns:xlink="http://www.w3.org/1999/xlink" xml:space="preserve" xmlns:serif="http://www.serif.com/" style="fill-rule:evenodd;clip-rule:evenodd;stroke-linejoin:round;stroke-miterlimit:2;">
    <g transform="matrix(1,0,0,1,-810,-249)">
        <path d="M1927.13,553.568L1966.71,547.509C1949.37,542.162 1931.47,537.133 1913.56,532.108C1857.01,516.244 1800.44,500.379 1761.96,474.724L1750.68,467.206L1763.3,462.216C1780.92,455.254 1796.7,447.696 1811.3,439.762C1820.51,434.756 1829.23,429.615 1837.63,424.382C1788.85,414.376 1740.09,405.226 1691.08,397.718C1636.4,389.337 1581.34,382.973 1525.47,379.692L1504.18,378.442L1521.95,366.687C1541.16,353.987 1559.34,341.198 1576.66,328.339C1589.31,318.951 1601.51,309.523 1613.32,300.062C1545.35,293.954 1505.22,301.975 1459.98,311.029C1440.71,314.883 1420.52,318.929 1396.91,322.175C1377.81,324.8 1357.97,325.805 1337.78,326.829C1296.38,328.929 1253.43,331.104 1215.09,347.533L1147.45,376.525L1208.32,335.148C1229.41,320.816 1249.64,305.43 1269.14,289.164C1282.83,277.751 1296.22,265.856 1309.33,253.55C1263.76,261.854 1215.77,273.847 1164.43,290.962C1104.43,310.968 1039.78,337.993 968.98,374.33L935.662,391.434L960.429,363.332C981.941,338.926 999.958,314.625 1015.24,290.416C1023.87,276.747 1031.62,263.127 1038.63,249.542C1002.68,281.278 965.111,313.5 926.76,345.499C888.207,377.669 849.07,409.443 810.21,440.091C927.47,410.264 1041.55,395.315 1152.69,394.084C1298.49,392.466 1439.16,414.449 1575.26,457.34C1731.49,489.25 1841.29,523.11 1927.12,553.564L1927.13,553.568Z" style="fill:rgb(128,128,128);"/>
    </g>
</svg>
