<?xml version="1.0" encoding="UTF-8" standalone="no"?>
<!DOCTYPE svg PUBLIC "-//W3C//DTD SVG 1.1//EN" "http://www.w3.org/Graphics/SVG/1.1/DTD/svg11.dtd">
<svg width="100%" height="100%" viewBox="0 0 734 172" version="1.1" xmlns="http://www.w3.org/2000/svg" xmlns:xlink="http://www.w3.org/1999/xlink" xml:space="preserve" xmlns:serif="http://www.serif.com/" style="fill-rule:evenodd;clip-rule:evenodd;stroke-linejoin:round;stroke-miterlimit:2;">
    <g transform="matrix(1,0,0,1,-2416,-874)">
        <path d="M3070.05,955.934C2998.58,946.84 2925.25,940.126 2851.95,933.412C2705.48,919.999 2559,906.578 2426.14,874.104C2423.71,885.671 2420.62,897.417 2416.86,909.34C2474.97,932.048 2543.6,940.454 2612.21,948.847C2648.27,953.259 2684.34,957.675 2719,964.157C2793.87,978.158 2869.96,992.508 2945.99,1006.91C3014.2,1019.83 3082.37,1032.8 3149.6,1045.61C3121.1,1019.98 3096.46,994.16 3077.48,967.129C3074.88,963.418 3072.4,959.682 3070.06,955.934L3070.05,955.934Z" style="fill:rgb(255,255,0);"/>
    </g>
</svg>
