<?xml version="1.0" encoding="UTF-8" standalone="no"?>
<!DOCTYPE svg PUBLIC "-//W3C//DTD SVG 1.1//EN" "http://www.w3.org/Graphics/SVG/1.1/DTD/svg11.dtd">
<svg width="100%" height="100%" viewBox="0 0 448 389" version="1.1" xmlns="http://www.w3.org/2000/svg" xmlns:xlink="http://www.w3.org/1999/xlink" xml:space="preserve" xmlns:serif="http://www.serif.com/" style="fill-rule:evenodd;clip-rule:evenodd;stroke-linejoin:round;stroke-miterlimit:2;">
    <g transform="matrix(1,0,0,1,-996,-612)">
        <path d="M1063.56,822.667C1063.89,830.043 1064.01,837.428 1063.9,844.812C1064.01,850.604 1063.9,856.255 1063.6,861.767L1063.67,862.284C1070.15,908.235 1094.78,941.572 1125.27,963.934C1156.2,986.613 1193.05,998.106 1223.38,1000.11C1232.39,1000.71 1240.66,1000.48 1247.86,999.46C1289.12,993.639 1351.88,965.606 1395.48,919.553C1424.46,888.937 1444.64,850.338 1443.31,805.213L1252.05,920.373L1246.89,923.484L1242.99,918.894C1188.16,854.237 1134.05,823.807 1080.57,822.203C1074.91,822.033 1069.24,822.192 1063.57,822.666L1063.56,822.667ZM1323.8,637.651C1303.71,630.067 1280.23,626.65 1256.76,623.234C1236.95,620.353 1217.15,617.468 1198.23,612.012C1183.6,615.737 1169.17,618.403 1155.14,620.233C1116.39,625.286 1073.88,626.801 1032.71,621.837C1020.31,620.342 1008.03,618.269 995.995,615.528C1009.41,632.77 1022.31,654.983 1029.89,676.314C1054.33,676.284 1081.17,674.736 1110,671.922C1173.19,665.745 1245.84,653.425 1323.8,637.651L1323.8,637.651Z" style="fill:rgb(128,128,128);"/>
    </g>
</svg>
