<?xml version="1.0" encoding="UTF-8" standalone="no"?>
<!DOCTYPE svg PUBLIC "-//W3C//DTD SVG 1.1//EN" "http://www.w3.org/Graphics/SVG/1.1/DTD/svg11.dtd">
<svg width="100%" height="100%" viewBox="0 0 1166 467" version="1.1" xmlns="http://www.w3.org/2000/svg" xmlns:xlink="http://www.w3.org/1999/xlink" xml:space="preserve" xmlns:serif="http://www.serif.com/" style="fill-rule:evenodd;clip-rule:evenodd;stroke-linejoin:round;stroke-miterlimit:2;">
    <g transform="matrix(1,0,0,1,-560,-541)">
        <path d="M932.323,592.847C920.351,586.685 909.216,580.1 898.594,573.819C850.356,545.29 813.627,523.572 691.964,562.434C684.93,571.066 677.645,579.168 670.272,586.528C644.165,612.597 614.424,635.479 584.324,656.083C588.961,657.81 593.085,660.467 595.876,664.06C599.747,669.043 598.707,677.589 599.767,688.242C600.803,698.655 603.154,716.724 594.828,726.777C585.203,738.401 574.598,748.777 560.783,751.189C561.021,752.741 561.229,754.275 561.412,755.797C563.806,764.612 565.81,772.209 567.76,779.617C570.842,791.315 574.162,802.913 577.878,814.484C604.299,868.622 654.765,913.475 709.718,946.304C781.39,989.122 859.708,1011.26 902.618,1007.06C904.403,1006.88 906.383,1006.6 908.528,1006.22C941.734,1000.31 981.862,979.712 1008.03,942.179C1018.47,927.195 1026.7,909.458 1031.36,888.795C1030.45,869.701 1031.4,850.776 1033.68,831.974C1033.72,830.661 1033.75,829.339 1033.81,828.009C995.863,838.436 957.896,862.526 919.909,898.386L910.175,888.07C966.519,834.88 1023.42,806.306 1081,808.033C1137.28,809.72 1193.59,840.337 1249.89,905.15L1541.72,729.44C1574.83,709.502 1612.58,700.73 1641.91,693.916L1645.13,693.168C1669.83,687.417 1688.93,680.337 1702.54,673.144C1717.04,665.483 1724.72,658.389 1725.74,653.294C1725.77,653.141 1725.64,653.412 1725.55,653.206C1723.04,647.699 1711.78,639.884 1694.54,631.854C1676.25,623.331 1651.83,615.142 1624.32,609.68C1573.46,599.579 1512.27,598.822 1460.15,622.532L1459.42,622.862L1458.77,623.01C1330.85,652.064 1210.08,676.375 1111.42,686.012C1011.51,695.774 933.973,690.316 893.983,659.354L902.641,648.171C923.448,664.281 956.252,672.779 998.313,675.413C990.859,656.1 979.996,639.693 967.107,625.166C956.623,613.353 944.785,602.756 932.334,592.85L932.323,592.847Z" style="fill:rgb(255,165,0);"/>
        <clipPath id="_clip1">
            <path d="M932.323,592.847C920.351,586.685 909.216,580.1 898.594,573.819C850.356,545.29 813.627,523.572 691.964,562.434C684.93,571.066 677.645,579.168 670.272,586.528C644.165,612.597 614.424,635.479 584.324,656.083C588.961,657.81 593.085,660.467 595.876,664.06C599.747,669.043 598.707,677.589 599.767,688.242C600.803,698.655 603.154,716.724 594.828,726.777C585.203,738.401 574.598,748.777 560.783,751.189C561.021,752.741 561.229,754.275 561.412,755.797C563.806,764.612 565.81,772.209 567.76,779.617C570.842,791.315 574.162,802.913 577.878,814.484C604.299,868.622 654.765,913.475 709.718,946.304C781.39,989.122 859.708,1011.26 902.618,1007.06C904.403,1006.88 906.383,1006.6 908.528,1006.22C941.734,1000.31 981.862,979.712 1008.03,942.179C1018.47,927.195 1026.7,909.458 1031.36,888.795C1030.45,869.701 1031.4,850.776 1033.68,831.974C1033.72,830.661 1033.75,829.339 1033.81,828.009C995.863,838.436 957.896,862.526 919.909,898.386L910.175,888.07C966.519,834.88 1023.42,806.306 1081,808.033C1137.28,809.72 1193.59,840.337 1249.89,905.15L1541.72,729.44C1574.83,709.502 1612.58,700.73 1641.91,693.916L1645.13,693.168C1669.83,687.417 1688.93,680.337 1702.54,673.144C1717.04,665.483 1724.72,658.389 1725.74,653.294C1725.77,653.141 1725.64,653.412 1725.55,653.206C1723.04,647.699 1711.78,639.884 1694.54,631.854C1676.25,623.331 1651.83,615.142 1624.32,609.68C1573.46,599.579 1512.27,598.822 1460.15,622.532L1459.42,622.862L1458.77,623.01C1330.85,652.064 1210.08,676.375 1111.42,686.012C1011.51,695.774 933.973,690.316 893.983,659.354L902.641,648.171C923.448,664.281 956.252,672.779 998.313,675.413C990.859,656.1 979.996,639.693 967.107,625.166C956.623,613.353 944.785,602.756 932.334,592.85L932.323,592.847Z"/>
        </clipPath>
        <g clip-path="url(#_clip1)">
            <path d="M696.01,633.25C710.391,679.121 716.995,725.371 716.488,771.968C715.982,818.565 708.365,865.51 694.307,912.77C752.136,812.804 755.845,719.3 696.01,633.25Z" style="fill:rgb(31,26,23);"/>
            <path d="M820.599,617.22C829.793,661.112 832.175,707.412 827.746,756.12C823.317,804.829 812.077,855.945 794.026,909.47C836.86,875.953 862.56,665.91 820.599,617.22Z" style="fill:rgb(31,26,23);"/>
            <path d="M743.021,905.88C770.627,885.226 787.312,820.785 790.014,757.414C792.716,694.043 781.434,631.74 753.103,615.36C784.051,698.09 783.604,793.43 743.021,905.88Z" style="fill:rgb(31,26,23);"/>
        </g>
    </g>
</svg>
