<?xml version="1.0" encoding="UTF-8" standalone="no"?>
<!DOCTYPE svg PUBLIC "-//W3C//DTD SVG 1.1//EN" "http://www.w3.org/Graphics/SVG/1.1/DTD/svg11.dtd">
<svg width="100%" height="100%" viewBox="0 0 634 163" version="1.1" xmlns="http://www.w3.org/2000/svg" xmlns:xlink="http://www.w3.org/1999/xlink" xml:space="preserve" xmlns:serif="http://www.serif.com/" style="fill-rule:evenodd;clip-rule:evenodd;stroke-linejoin:round;stroke-miterlimit:2;">
    <g transform="matrix(1,0,0,1,-2428,-778)">
        <path d="M3024.18,783.584C2928.11,779.899 2831,778.36 2732.78,779.073C2634.12,779.788 2534.08,782.762 2432.59,788.114C2432.85,792.059 2433.03,796.032 2433.14,800.021C2433.64,819.537 2432.24,839.567 2428.78,860.158C2560.66,892.474 2706.94,905.877 2853.2,919.27C2923,925.661 2992.81,932.052 3061.16,940.51C3052.84,924.801 3046.5,908.788 3041.56,892.502C3033.87,867.165 3029.56,841.127 3026.4,814.524C3025.16,804.19 3024.43,793.88 3024.18,783.584L3024.18,783.584Z" style="fill:rgb(0,128,0);"/>
    </g>
</svg>
