<?xml version="1.0" encoding="UTF-8" standalone="no"?>
<!DOCTYPE svg PUBLIC "-//W3C//DTD SVG 1.1//EN" "http://www.w3.org/Graphics/SVG/1.1/DTD/svg11.dtd">
<svg width="100%" height="100%" viewBox="0 0 667 214" version="1.1" xmlns="http://www.w3.org/2000/svg" xmlns:xlink="http://www.w3.org/1999/xlink" xml:space="preserve" xmlns:serif="http://www.serif.com/" style="fill-rule:evenodd;clip-rule:evenodd;stroke-linejoin:round;stroke-miterlimit:2;">
    <g transform="matrix(1,0,0,1,-2419,-560)">
        <path d="M3085.42,560.67C3085.42,560.672 3085.42,560.673 3085.43,560.674L3085.41,560.678C3067.66,594.594 3053.36,627.57 3043.05,660.086C3031.38,696.893 3024.8,733.09 3024.13,769.376C2928.41,765.714 2831.27,764.19 2732.63,764.903C2633.45,765.623 2533.03,768.609 2431.31,773.978C2429.16,755.192 2425.24,736.893 2419.7,719.055C2524.68,709.61 2635.1,688.79 2748.51,660.526C2858.62,633.084 2971.68,598.595 3085.41,560.678L3085.42,560.67Z" style="fill:rgb(255,165,0);"/>
    </g>
</svg>
