<?xml version="1.0" encoding="UTF-8" standalone="no"?>
<!DOCTYPE svg PUBLIC "-//W3C//DTD SVG 1.1//EN" "http://www.w3.org/Graphics/SVG/1.1/DTD/svg11.dtd">
<svg width="100%" height="100%" viewBox="0 0 480 168" version="1.1" xmlns="http://www.w3.org/2000/svg" xmlns:xlink="http://www.w3.org/1999/xlink" xml:space="preserve" xmlns:serif="http://www.serif.com/" style="fill-rule:evenodd;clip-rule:evenodd;stroke-linejoin:round;stroke-miterlimit:2;">
    <g transform="matrix(1,0,0,1,-1927,-1030)">
        <path d="M1927.34,1123.61C1964.53,1144.54 2001.64,1158.64 2038.75,1172.73C2059.21,1180.5 2079.68,1188.27 2100.33,1197.26C2154.32,1182.51 2208.62,1171.51 2263.15,1163.51C2310.69,1156.53 2358.36,1151.82 2406.13,1148.89C2373.15,1130.29 2336.77,1113.7 2300.61,1097.21C2254.47,1076.16 2208.67,1055.27 2170.17,1030.41C2162.04,1034.23 2153.87,1038.13 2145.63,1042.06C2113.41,1057.45 2080.27,1073.27 2044.79,1086.39C2006.95,1100.38 1967.47,1112.78 1927.35,1123.61L1927.34,1123.61Z" style="fill:rgb(255,165,0);"/>
    </g>
</svg>
