<?xml version="1.0" encoding="UTF-8" standalone="no"?>
<!DOCTYPE svg PUBLIC "-//W3C//DTD SVG 1.1//EN" "http://www.w3.org/Graphics/SVG/1.1/DTD/svg11.dtd">
<svg width="100%" height="100%" viewBox="0 0 881 436" version="1.1" xmlns="http://www.w3.org/2000/svg" xmlns:xlink="http://www.w3.org/1999/xlink" xml:space="preserve" xmlns:serif="http://www.serif.com/" style="fill-rule:evenodd;clip-rule:evenodd;stroke-linejoin:round;stroke-miterlimit:2;">
    <g transform="matrix(1,0,0,1,-2394,-270)">
        <path d="M2415.08,705.247C2520.2,696.023 2631.08,675.177 2745.15,646.75C2859.62,618.219 2977.17,582.095 3095.27,542.45C3103.08,528.346 3111.44,514.065 3120.35,499.582C3129.55,484.604 3139.06,468.299 3148.91,451.404C3183.2,392.629 3221.68,326.684 3274.6,270.354C3183.49,315.901 3098.53,362.029 3017.74,405.874C2793.01,527.884 2600.63,632.314 2394.76,659.834C2402.69,674.648 2409.49,689.775 2415.09,705.241L2415.08,705.247Z" style="fill:rgb(128,128,128);"/>
    </g>
</svg>
