<?xml version="1.0" encoding="UTF-8" standalone="no"?>
<!DOCTYPE svg PUBLIC "-//W3C//DTD SVG 1.1//EN" "http://www.w3.org/Graphics/SVG/1.1/DTD/svg11.dtd">
<svg width="100%" height="100%" viewBox="0 0 252 307" version="1.1" xmlns="http://www.w3.org/2000/svg" xmlns:xlink="http://www.w3.org/1999/xlink" xml:space="preserve" xmlns:serif="http://www.serif.com/" style="fill-rule:evenodd;clip-rule:evenodd;stroke-linejoin:round;stroke-miterlimit:2;">
    <g transform="matrix(1,0,0,1,-2136,-664)">
        <path d="M2243.62,665.179C2233.44,748.28 2216.93,815.439 2193.16,864.319C2177.59,896.335 2158.85,920.747 2136.68,936.971C2153.85,940.412 2172.37,944.599 2193.03,949.261C2215.67,954.371 2266.2,964.255 2297.82,970.686C2299.79,970.355 2301.76,970.045 2303.74,969.755C2314.95,968.109 2326.08,966.847 2337.12,965.927C2373.49,911.541 2388.05,859.567 2387.69,809.237C2387.34,759.915 2372.71,711.917 2350.29,664.647C2310.33,667.956 2275.59,667.935 2243.62,665.177L2243.62,665.179Z" style="fill:rgb(0,255,255);"/>
    </g>
</svg>
