<?xml version="1.0" encoding="UTF-8" standalone="no"?>
<!DOCTYPE svg PUBLIC "-//W3C//DTD SVG 1.1//EN" "http://www.w3.org/Graphics/SVG/1.1/DTD/svg11.dtd">
<svg width="100%" height="100%" viewBox="0 0 312 187" version="1.1" xmlns="http://www.w3.org/2000/svg" xmlns:xlink="http://www.w3.org/1999/xlink" xml:space="preserve" xmlns:serif="http://www.serif.com/" style="fill-rule:evenodd;clip-rule:evenodd;stroke-linejoin:round;stroke-miterlimit:2;">
    <g transform="matrix(1,0,0,1,-872,-408)">
        <path d="M872.755,440.03C891.634,528.5 900.215,534.523 923.785,551.05L923.765,551.079C927.326,553.575 931.152,556.259 934.409,558.663C938.884,561.96 943.323,565.33 947.71,568.769C974.429,582.104 1004.79,589.908 1036.09,593.683C1038.52,593.977 1040.96,594.241 1043.4,594.487C1083.47,572.003 1113.59,544.245 1136.18,512.51C1158.37,481.344 1173.45,446.171 1183.69,408.27C1173.44,408.145 1163.17,408.133 1152.87,408.248C1061.6,409.26 968.278,419.632 872.758,440.031L872.755,440.03Z" style="fill:rgb(128,0,128);"/>
    </g>
</svg>
