<?xml version="1.0" encoding="UTF-8" standalone="no"?>
<!DOCTYPE svg PUBLIC "-//W3C//DTD SVG 1.1//EN" "http://www.w3.org/Graphics/SVG/1.1/DTD/svg11.dtd">
<svg width="100%" height="100%" viewBox="0 0 217 213" version="1.1" xmlns="http://www.w3.org/2000/svg" xmlns:xlink="http://www.w3.org/1999/xlink" xml:space="preserve" xmlns:serif="http://www.serif.com/" style="fill-rule:evenodd;clip-rule:evenodd;stroke-linejoin:round;stroke-miterlimit:2;">
    <g transform="matrix(1,0,0,1,-1070,-950)">
        <path d="M1262.01,1162.18C1258.13,1121.47 1261.44,1086.75 1270.79,1056.73C1274.97,1043.32 1280.35,1030.86 1286.81,1019.23C1274.29,1023.24 1262.46,1026.03 1251.89,1027.52C1242.62,1028.83 1232.4,1029.15 1221.63,1028.44C1186.63,1026.13 1144.14,1012.9 1108.55,986.8C1094.68,976.64 1081.86,964.546 1070.87,950.396C1074.22,961.061 1078.38,971.777 1083.46,982.572C1109,1036.74 1172.31,1101.99 1257.64,1161.98L1262.01,1162.18L1262.01,1162.18Z" style="fill:rgb(255,0,0);"/>
    </g>
</svg>
