<?xml version="1.0" encoding="UTF-8" standalone="no"?>
<!DOCTYPE svg PUBLIC "-//W3C//DTD SVG 1.1//EN" "http://www.w3.org/Graphics/SVG/1.1/DTD/svg11.dtd">
<svg width="100%" height="100%" viewBox="0 0 192 180" version="1.1" xmlns="http://www.w3.org/2000/svg" xmlns:xlink="http://www.w3.org/1999/xlink" xml:space="preserve" xmlns:serif="http://www.serif.com/" style="fill-rule:evenodd;clip-rule:evenodd;stroke-linejoin:round;stroke-miterlimit:2;">
    <g transform="matrix(1,0,0,1,-385,-829)">
        <path d="M560.852,1008.26C501.645,985.307 443.247,959.601 385.755,930.843C404.117,927.507 421.471,922.951 437.618,916.913C460.702,908.278 481.312,896.658 498.847,881.366C514.917,867.345 532.649,851.08 545.405,829.971L545.48,829.846C551.786,853.152 558.064,865.296 563.466,875.743C569.08,886.604 573.58,895.311 575.69,917.053C576.996,930.504 576.825,944.745 574.465,960.147C572.194,974.987 567.868,990.915 560.852,1008.26Z" style="fill:rgb(255,255,0);"/>
    </g>
</svg>
