<?xml version="1.0" encoding="UTF-8" standalone="no"?>
<!DOCTYPE svg PUBLIC "-//W3C//DTD SVG 1.1//EN" "http://www.w3.org/Graphics/SVG/1.1/DTD/svg11.dtd">
<svg width="100%" height="100%" viewBox="0 0 302 384" version="1.1" xmlns="http://www.w3.org/2000/svg" xmlns:xlink="http://www.w3.org/1999/xlink" xml:space="preserve" xmlns:serif="http://www.serif.com/" style="fill-rule:evenodd;clip-rule:evenodd;stroke-linejoin:round;stroke-miterlimit:2;">
    <g transform="matrix(1,0,0,1,-409,-483)">
        <path d="M460.655,612.884C446.927,630.765 425.353,664.325 418.668,682.072C412.289,699.005 409.025,716.782 409.976,735.253C419.841,745.158 428.613,755.649 436.252,766.716C448.558,784.547 460.346,803.344 466.89,824.906C470.848,837.949 472.841,851.792 471.859,866.718C474.725,864.57 477.508,862.329 480.199,859.982C494.621,847.4 510.469,832.91 521.096,815.322C528.529,803.018 533.57,788.834 533.924,772.096C533.741,771.163 533.567,770.22 533.401,769.285C532.81,765.965 532.297,762.488 531.854,758.852C530.29,753.922 528.829,749.272 527.715,745.453C511.735,736.109 508.642,717.044 514.691,693.313C518.853,676.983 523.651,664.904 532.628,658.959C537.552,655.698 543.196,655.157 549.331,655.005C582.274,630.842 624.386,592.241 650.261,566.409C674.701,542.011 695.668,514.762 710.039,483.897C707.879,484.599 705.715,485.301 703.551,486.012C628.767,510.629 589.831,534.667 536.811,567.395C517.406,579.371 496.118,592.512 470.164,607.47C467.061,609.257 463.899,611.064 460.663,612.884L460.655,612.884Z" style="fill:rgb(0,128,0);"/>
    </g>
</svg>
