<?xml version="1.0" encoding="UTF-8" standalone="no"?>
<!DOCTYPE svg PUBLIC "-//W3C//DTD SVG 1.1//EN" "http://www.w3.org/Graphics/SVG/1.1/DTD/svg11.dtd">
<svg width="100%" height="100%" viewBox="0 0 457 399" version="1.1" xmlns="http://www.w3.org/2000/svg" xmlns:xlink="http://www.w3.org/1999/xlink" xml:space="preserve" xmlns:serif="http://www.serif.com/" style="fill-rule:evenodd;clip-rule:evenodd;stroke-linejoin:round;stroke-miterlimit:2;">
    <g transform="matrix(1,0,0,1,-1251,-431)">
        <path d="M1707.58,686.497C1708.39,714.024 1703.19,736.655 1693.67,754.217C1689.51,761.875 1682.88,770.528 1674.25,779.251C1656.06,797.625 1629.66,815.448 1599.41,824.066C1569.84,832.494 1536.49,832 1503.64,814.179C1492.37,808.065 1481.05,799.861 1469.87,789.217L1549,741.566C1580.07,722.865 1616.66,714.363 1645.09,707.758L1648.31,707.01C1673.31,701.189 1693.07,693.95 1707.58,686.497ZM1251.28,593.697L1260.93,595.116C1293.36,599.834 1340.4,612.228 1368.92,628.297C1397.14,622.29 1425.94,615.92 1455.12,609.295C1510.18,584.515 1574.13,585.243 1627.13,595.767C1653.13,600.928 1676.57,608.473 1695.04,616.51C1683.83,580.35 1664.76,539.276 1635.96,493.49L1645.95,487.187C1622.57,481.832 1598.04,476.499 1572.21,471.225L1572.01,471.185L1571.49,471.022C1520.14,454.819 1468.13,441.627 1415.45,431.587C1381.38,497.695 1338.57,541.867 1293.29,571.017C1279.45,579.925 1265.39,587.413 1251.29,593.693L1251.28,593.697Z" style="fill:rgb(128,0,128);"/>
    </g>
</svg>
