<?xml version="1.0" encoding="UTF-8" standalone="no"?>
<!DOCTYPE svg PUBLIC "-//W3C//DTD SVG 1.1//EN" "http://www.w3.org/Graphics/SVG/1.1/DTD/svg11.dtd">
<svg width="100%" height="100%" viewBox="0 0 432 173" version="1.1" xmlns="http://www.w3.org/2000/svg" xmlns:xlink="http://www.w3.org/1999/xlink" xml:space="preserve" xmlns:serif="http://www.serif.com/" style="fill-rule:evenodd;clip-rule:evenodd;stroke-linejoin:round;stroke-miterlimit:2;">
    <g transform="matrix(1,0,0,1,-1804,-955)">
        <path d="M2235.63,987.279C2218.29,983.757 2203.06,980.615 2186.77,976.938C2120.58,962.002 2077.19,952.206 2031.57,956.328C1975.57,961.387 1939.04,980.528 1901.1,1000.41C1888.08,1007.23 1874.9,1014.14 1861.47,1020.35C1843.38,1028.71 1824.18,1035.51 1804.27,1040.48C1816.12,1047.57 1825.52,1055.86 1832.78,1065.19C1846.76,1083.16 1852.46,1104.35 1852.04,1127.49L1852.15,1127.47C1916.13,1113.27 1980.07,1095.18 2039.91,1073.05C2074.97,1060.09 2107.73,1044.44 2139.57,1029.24C2171.99,1013.76 2203.48,998.724 2235.63,987.28L2235.63,987.279Z" style="fill:rgb(128,128,128);"/>
    </g>
</svg>
