<?xml version="1.0" encoding="UTF-8" standalone="no"?>
<!DOCTYPE svg PUBLIC "-//W3C//DTD SVG 1.1//EN" "http://www.w3.org/Graphics/SVG/1.1/DTD/svg11.dtd">
<svg width="100%" height="100%" viewBox="0 0 292 215" version="1.1" xmlns="http://www.w3.org/2000/svg" xmlns:xlink="http://www.w3.org/1999/xlink" xml:space="preserve" xmlns:serif="http://www.serif.com/" style="fill-rule:evenodd;clip-rule:evenodd;stroke-linejoin:round;stroke-miterlimit:2;">
    <g transform="matrix(1,0,0,1,-152,-694)">
        <path d="M343.063,908.828C297.639,884.703 252.805,858.597 208.613,830.341C174.824,802.99 156.787,787.613 152.876,777.09C150.079,769.564 158.312,762.945 176.46,751.952C222.366,730.497 262.51,711.686 297.71,694.954C321.154,706 352.175,723.444 369.195,736.874C386.767,750.739 401.385,766.073 412.913,782.78C423.842,798.614 434.263,815.139 439.715,833.11C444.442,848.694 445.504,865.82 439.909,885.347C435.936,887.132 431.865,888.808 427.69,890.369C409.47,897.184 369.035,905.026 343.063,908.828Z" style="fill:rgb(255,165,0);"/>
    </g>
</svg>
