<?xml version="1.0" encoding="UTF-8" standalone="no"?>
<!DOCTYPE svg PUBLIC "-//W3C//DTD SVG 1.1//EN" "http://www.w3.org/Graphics/SVG/1.1/DTD/svg11.dtd">
<svg width="100%" height="100%" viewBox="0 0 206 319" version="1.1" xmlns="http://www.w3.org/2000/svg" xmlns:xlink="http://www.w3.org/1999/xlink" xml:space="preserve" xmlns:serif="http://www.serif.com/" style="fill-rule:evenodd;clip-rule:evenodd;stroke-linejoin:round;stroke-miterlimit:2;">
    <g transform="matrix(1,0,0,1,-1287,-848)">
        <path d="M1359.75,1166.32C1336.61,1165.49 1312.68,1164.46 1287.63,1163.34L1290.56,1163.04C1286.53,1124.82 1289.36,1092.63 1297.92,1065.17C1306.14,1038.79 1319.74,1016.67 1337.67,997.632C1365.48,982.916 1393.26,963.227 1416.14,939.058C1440.25,913.588 1459.12,883.149 1467.32,848.27C1473.32,861.206 1478.78,873.732 1483.96,885.634C1486.79,892.126 1489.54,898.446 1492.27,904.574C1495.22,998.204 1443.3,1091.55 1359.75,1166.32Z" style="fill:rgb(128,128,128);"/>
    </g>
</svg>
