<?xml version="1.0" encoding="UTF-8" standalone="no"?>
<!DOCTYPE svg PUBLIC "-//W3C//DTD SVG 1.1//EN" "http://www.w3.org/Graphics/SVG/1.1/DTD/svg11.dtd">
<svg width="100%" height="100%" viewBox="0 0 343 423" version="1.1" xmlns="http://www.w3.org/2000/svg" xmlns:xlink="http://www.w3.org/1999/xlink" xml:space="preserve" xmlns:serif="http://www.serif.com/" style="fill-rule:evenodd;clip-rule:evenodd;stroke-linejoin:round;stroke-miterlimit:2;">
    <g transform="matrix(1,0,0,1,-1711,-599)">
        <path d="M2010.66,599.728C1981.6,621.394 1948.08,649.904 1925.92,674.832C1903.05,700.557 1883.7,728.174 1867.99,757.739L1867.39,757.425C1863.86,779.384 1858.62,800.731 1852.07,821.525C1828.77,895.488 1786.31,968.285 1711.02,1021.09C1724.65,1021.95 1738.26,1021.76 1751.71,1020.62C1786.09,1017.69 1819.49,1008.48 1849.62,994.561C1863.49,988.155 1875.81,981.697 1887.98,975.319C1890.84,973.823 1893.68,972.327 1896.53,970.843C1934.23,937.945 1966.35,893.049 1992.31,834.923C2018.72,775.794 2038.68,703.183 2051.6,615.843L2053.89,616.18C2042.23,611.797 2030.25,607.217 2017.78,602.448L2010.66,599.724L2010.66,599.728Z" style="fill:rgb(0,128,0);"/>
    </g>
</svg>
