<?xml version="1.0" encoding="UTF-8" standalone="no"?>
<!DOCTYPE svg PUBLIC "-//W3C//DTD SVG 1.1//EN" "http://www.w3.org/Graphics/SVG/1.1/DTD/svg11.dtd">
<svg width="100%" height="100%" viewBox="0 0 423 214" version="1.1" xmlns="http://www.w3.org/2000/svg" xmlns:xlink="http://www.w3.org/1999/xlink" xml:space="preserve" xmlns:serif="http://www.serif.com/" style="fill-rule:evenodd;clip-rule:evenodd;stroke-linejoin:round;stroke-miterlimit:2;">
    <g transform="matrix(1,0,0,1,-1401,-955)">
        <path d="M1823.37,1133.59C1824.88,1114.08 1821.25,1096.6 1810.37,1082.61C1798.97,1067.96 1779.25,1056.41 1748.76,1049.35L1748.78,1049.25C1715.11,1051.52 1680.61,1048.32 1647.05,1038.47C1627.32,1032.67 1607.99,1026.62 1589.57,1017.81C1570.52,1008.69 1552.6,996.743 1536.53,979.405C1529.77,972.099 1523.76,964.038 1518.21,955.272C1508.24,1032.81 1469.44,1103.6 1401.85,1167.65C1485.68,1169.86 1561.21,1168.84 1645.85,1160.49C1702.19,1154.93 1762.51,1146 1823.36,1133.59L1823.37,1133.59Z" style="fill:rgb(0,255,0);"/>
    </g>
</svg>
