<?xml version="1.0" encoding="UTF-8" standalone="no"?>
<!DOCTYPE svg PUBLIC "-//W3C//DTD SVG 1.1//EN" "http://www.w3.org/Graphics/SVG/1.1/DTD/svg11.dtd">
<svg width="100%" height="100%" viewBox="0 0 596 842" version="1.1" xmlns="http://www.w3.org/2000/svg" xmlns:xlink="http://www.w3.org/1999/xlink" xml:space="preserve" xmlns:serif="http://www.serif.com/" style="fill-rule:evenodd;clip-rule:evenodd;stroke-linejoin:round;stroke-miterlimit:2;">
    <path id="path12454" d="M290.752,396.164C291.435,396.424 291.936,396.97 292.191,397.755C292.416,398.451 292.438,399.343 292.203,400.389C291.59,403.117 289.153,407.09 283.822,411.539L283.842,411.539C284.593,411.526 285.196,411.74 285.645,412.134C286.094,412.529 286.366,413.086 286.458,413.76C286.55,414.44 286.454,415.254 286.167,416.144C288.102,415.153 289.796,414.365 291.26,413.77C292.913,413.099 294.296,412.664 295.426,412.451C298.614,391.881 305.583,375.516 314.141,362.65C325.6,345.423 339.904,334.47 351.793,328.087C372.034,317.218 394.067,320.06 416.345,322.934C424.543,323.992 432.775,325.054 440.996,325.431C447.846,325.745 454.668,325.079 461.38,323.704C468.106,322.326 474.736,320.235 481.182,317.705C481.748,317.483 482.294,318.305 481.87,318.741C476.455,324.32 469.676,327.756 462.059,330.071C454.491,332.371 446.104,333.561 437.408,334.652C430.246,335.551 422.84,335.522 415.396,335.494C407.902,335.465 400.366,335.436 393.045,336.356C385.807,337.267 378.752,339.057 372.107,341.456C367.414,343.149 362.926,345.147 358.723,347.349C362.249,346.19 365.856,345.217 369.532,344.485C375.773,343.242 382.213,342.69 388.804,343.095C401.15,343.852 412.58,347.907 424.234,352.04C428.826,353.67 433.455,355.311 438.153,356.757C449.201,360.156 460.21,363.396 471.258,365.291C482.271,367.18 493.327,367.733 504.503,365.769C505.116,365.662 505.457,366.674 504.907,366.963C495.804,371.741 486.078,374.174 476.233,375.143C466.412,376.109 456.483,375.618 446.941,374.55C437.933,373.542 428.999,371.931 420.241,370.352C398.769,366.481 378.352,362.8 360.233,368.694C356.686,369.847 353.207,371.133 349.803,372.558C348.27,373.2 346.752,373.87 345.251,374.57C350.267,373.42 355.221,372.64 360.117,372.189C366.929,371.561 373.607,371.57 380.172,372.109C396.961,373.485 407.309,384.491 418.272,396.15C427.468,405.931 437.104,416.179 451.33,421.422C457.468,423.684 464.474,425.021 472.689,424.998C480.929,424.974 490.379,423.582 501.377,420.384C501.973,420.211 502.424,421.17 501.913,421.52C493.672,427.164 483.645,430.314 473.622,431.688C461.296,433.377 448.96,432.378 439.969,430.028C425.893,426.35 414.335,418.964 403.225,411.864C387.911,402.078 373.456,392.842 354.588,394.847C373.268,402.049 384.469,418.256 395.574,434.326C404.629,447.431 413.622,460.445 426.536,468.264C432.899,472.117 439.364,475.621 446.435,478.308C453.499,480.994 461.191,482.876 470.027,483.495C470.638,483.538 470.765,484.549 470.179,484.738C460.699,487.803 450.605,487.605 440.913,485.574C428.433,482.96 416.618,477.308 407.646,471.683C393.161,462.602 381.902,450.382 371.595,439.101L370.771,438.199C356.657,422.75 344.246,409.301 327.72,408.721C322.868,408.551 318.145,408.97 313.576,410.075C309.136,411.148 304.828,412.87 300.668,415.327C300.684,415.504 300.687,415.685 300.677,415.869L300.677,415.871C300.659,416.201 300.598,416.557 300.492,416.934C300.057,418.476 298.804,420.729 297.309,423.414C296.637,424.623 295.914,425.923 295.178,427.319C294.842,427.955 294.525,428.644 294.205,429.336C293.119,431.691 292.012,434.091 289.87,435.365C296.879,436.257 302.327,437.645 306.359,439.174C312.619,441.548 315.575,444.376 315.747,446.313L315.747,446.312C316.498,448.505 316.842,450.824 317.161,452.984C317.613,456.037 318.017,458.761 319.426,460.066C320.685,461.232 322.283,461.854 324.208,461.946C326.203,462.041 328.547,461.576 331.227,460.568C331.78,460.36 332.318,461.097 331.95,461.559C329.856,464.182 327.652,464.814 325.753,465.359C324.829,465.624 323.983,465.867 323.332,466.314C321.029,467.898 319.588,469.3 318.938,470.347C318.721,470.696 318.607,470.982 318.592,471.198C318.586,471.289 318.602,471.352 318.641,471.382C318.715,471.438 318.85,471.476 319.044,471.493C319.681,471.548 320.718,471.423 322.175,471.107C323.694,470.778 325.631,470.251 328.006,469.517C328.6,469.333 329.067,470.287 328.561,470.645C325.36,472.912 323.673,475.039 323.199,476.617C323.04,477.148 323.026,477.594 323.146,477.934C323.249,478.229 323.469,478.458 323.794,478.601C324.498,478.913 325.637,478.866 327.138,478.343C328.931,477.717 331.322,476.619 334.332,475.033C337.35,473.443 340.992,471.358 345.277,468.765C345.785,468.457 346.45,469.096 346.164,469.616C345.496,470.835 344.712,471.962 343.801,472.949C342.942,473.88 341.971,474.688 340.882,475.332C338.713,476.616 337.2,477.639 336.342,478.356C336.451,478.324 336.569,478.289 336.694,478.249C338.002,477.832 339.819,477.044 342.04,475.935C344.265,474.824 346.876,473.4 349.768,471.713C350.272,471.419 350.915,472.022 350.658,472.545C349.618,474.652 347.377,476.556 344.366,478.327C343.466,478.857 342.497,479.375 341.471,479.884C341.859,479.767 342.246,479.649 342.632,479.528C345.661,478.582 348.645,477.52 351.584,476.355C352.166,476.124 352.698,477.102 352.187,477.466C342.305,484.507 335.3,488.212 329.945,489.851C324.487,491.522 320.713,491.067 317.371,489.794C315.352,489.025 313.75,487.729 312.591,485.984C311.434,484.244 310.724,482.06 310.486,479.511C310.275,477.246 310.56,474.767 310.883,471.966C311.075,470.293 311.282,468.501 311.402,466.532C311.553,464.068 311.62,461.339 311.564,458.473C311.519,456.212 311.398,453.869 311.182,451.508C309.876,452.225 308.299,452.923 306.472,453.565C304.386,454.299 301.98,454.961 299.29,455.5C298.356,455.687 297.559,455.862 296.739,456.043C293.977,456.652 290.963,457.317 287.691,457.539C285.026,457.719 282.167,457.807 279.213,457.897C272.836,458.092 266.004,458.301 259.316,459.538C258.776,462.488 256.412,465.192 253.403,467.613C250.314,470.099 246.554,472.29 243.436,474.133C239.386,476.526 235.193,478.41 231.378,479.775C226.916,481.371 222.953,482.265 220.324,482.441C217.219,484.548 214.579,486.329 212.338,488.126C210.059,489.953 208.135,491.836 206.447,494.165C204.526,496.817 202.991,499.7 201.815,502.796C200.634,505.902 199.813,509.227 199.321,512.75C199.239,513.342 198.306,513.446 198.095,512.887C197.182,510.467 196.898,507.73 196.94,504.831C196.977,502.298 197.261,499.643 197.587,496.967C196.74,497.312 195.818,497.744 194.878,498.184C192.708,499.201 190.432,500.267 188.573,500.527C187.374,500.695 186.359,500.585 185.37,500.469L185.158,500.444C183.958,500.303 182.784,500.185 181.413,500.651C179.507,501.299 177.6,502.454 175.705,503.601C173.031,505.221 170.379,506.826 167.577,507.127C167.061,507.183 166.693,506.586 166.971,506.151C169.1,502.818 170.29,500.328 170.516,498.705C170.688,497.47 170.156,496.849 168.903,496.857C167.63,496.865 165.377,497.096 162.625,497.859C160.684,498.397 158.494,499.202 156.223,500.384C155.617,500.699 154.983,500.98 154.34,501.265C152.011,502.296 149.541,503.391 147.818,506.609C147.578,507.058 146.892,507.037 146.679,506.574C145.946,504.977 146.755,503.834 147.458,502.843C147.721,502.473 147.964,502.13 148.021,501.875C148.266,500.789 148.313,500.149 148.047,500.215C147.174,500.432 145.45,501.822 142.561,504.818C142.197,505.195 141.519,504.959 141.469,504.437C141.371,503.404 141.587,502.634 141.942,502.009C142.284,501.406 142.728,500.979 143.139,500.569C144.245,499.467 145.311,498.679 146.153,498.056C147.05,497.394 147.633,496.963 147.6,496.794C147.561,496.592 147.295,496.456 146.804,496.386L146.807,496.386C146.083,496.284 145.012,496.363 143.598,496.625C143.009,496.734 142.62,495.869 143.092,495.499C146.046,493.186 149.097,490.789 152.265,488.97C155.492,487.118 158.843,485.858 162.342,485.87C166.452,485.883 170.202,487.424 174.045,489.003C176.142,489.865 178.268,490.739 180.481,491.367C182.812,492.028 185.305,491.99 187.762,491.953C188.284,491.945 188.805,491.937 189.331,491.935C189.6,491.935 189.869,491.934 190.136,491.934C193.18,491.934 196.094,491.933 198.519,490.968C201.281,489.869 203.616,488.259 206.061,486.573C206.517,486.259 206.979,485.941 207.258,485.75C208.962,484.589 210.717,483.391 212.393,482.056C214.036,480.748 215.609,479.305 216.992,477.635C217.454,476.617 218.132,475.415 219.006,474.029C219.896,472.617 220.991,471.01 222.271,469.205C222.83,468.415 223.377,467.578 223.949,466.701C224.847,465.326 225.809,463.853 226.977,462.313C224.172,461.865 221.321,461.311 218.441,460.686C215.739,460.101 213.002,459.45 210.248,458.768C210.848,459.563 211.539,460.35 212.295,461.121C213.482,462.334 214.843,463.519 216.276,464.651C216.712,464.996 216.479,465.75 215.925,465.79C209.554,466.245 204.755,464.304 199.76,462.284C199.397,462.137 199.074,462.006 198.274,461.687C187.038,457.21 180.039,448.313 172.549,438.788C167.442,432.294 162.102,425.506 155.043,419.679C155.683,420.965 156.27,422.235 156.772,423.471C157.625,425.574 158.237,427.591 158.463,429.448C158.688,431.308 158.703,433.014 158.531,434.55C158.22,437.337 157.292,439.57 155.897,441.182C154.478,442.821 152.589,443.809 150.379,444.078C149.574,444.175 148.726,444.176 147.841,444.077C145.922,443.863 143.741,443.336 141.524,442.166C139.311,440.998 137.068,439.192 135.024,436.419C132.855,433.475 131.554,429.178 130.09,424.341C129.049,420.902 127.923,417.184 126.361,413.541C125.336,414.359 124.324,415.172 123.444,415.975C120.639,418.53 116.92,421.261 112.975,423.891C109.037,426.517 104.883,429.038 101.192,431.182C100.665,431.488 100,430.747 100.36,430.255C103.381,426.129 106.811,421.943 110.24,417.758C113.581,413.68 116.922,409.6 119.851,405.626C116.79,399.396 113.049,393.784 108.873,388.57C104.61,383.249 99.89,378.341 94.972,373.614C94.524,373.183 95.128,372.312 95.687,372.58C98.666,374.006 101.555,375.624 104.365,377.408C107.17,379.189 109.898,381.137 112.559,383.226C113.698,384.121 114.761,385.036 115.778,385.972C116.415,386.559 117.036,387.155 117.647,387.76C117.752,384.132 118.014,380.885 118.429,378.007C118.902,374.721 119.574,371.922 120.438,369.595C121.691,366.217 123.761,362.452 126.117,359.982C127.324,358.716 128.616,357.779 129.931,357.381C131.327,356.958 132.727,357.128 134.056,358.122L134.056,358.124C134.836,358.708 135.586,359.58 136.283,360.789C137.672,358.376 139.294,356.363 140.888,354.824C143.103,352.684 145.304,351.44 146.791,351.276C147.033,351.249 147.281,351.248 147.527,351.274C148.26,351.354 148.973,351.683 149.539,352.343C150.049,352.938 150.433,353.802 150.584,354.993C151.523,353.273 152.417,351.829 153.268,350.664C154.518,348.952 155.696,347.811 156.801,347.243L156.803,347.241C157.542,346.861 158.533,346.592 159.487,346.585L159.49,346.585C160.218,346.58 160.938,346.726 161.534,347.086C162.164,347.467 162.642,348.07 162.84,348.959C162.841,348.965 162.843,348.972 162.844,348.978C165.285,345.317 167.583,343.122 169.631,341.867C173.522,339.482 176.548,340.426 178.018,341.234C179.365,341.973 180.312,343.662 180.616,345.841C180.883,347.759 180.658,350.086 179.765,352.482C179.024,354.471 177.758,356.515 176.326,358.35C174.628,360.526 172.688,362.419 171.112,363.581C169.22,364.976 166.901,366.469 164.194,368.05C161.945,369.364 159.42,370.744 156.645,372.184C165.782,373.937 175.602,378.779 185.683,383.75C189.903,385.831 194.17,387.935 198.421,389.83C199.367,388.633 200.024,387.326 200.488,385.948C200.997,384.438 201.28,382.832 201.46,381.183C200.111,375.128 199.864,371.426 200.574,369.769C201.357,367.94 202.904,368.038 205.113,369.806C204.95,362.834 205.032,358.302 205.47,355.492C205.998,352.097 207.084,350.997 208.876,351.199C213.037,351.669 214.548,359.859 216.623,371.106C216.96,372.938 217.315,374.857 217.729,377C218.27,379.799 218.91,383.228 220.003,386.484C221.054,389.612 222.527,392.604 224.745,394.758C228.782,394.644 232.893,394.164 236.996,393.29C241.021,392.432 245.045,391.194 248.993,389.549C249.525,389.281 249.971,389.182 250.341,389.223C250.985,389.294 251.353,389.699 251.508,390.336C251.618,390.787 251.601,391.369 251.493,392.019C251.175,393.949 250.035,396.69 249.195,398.174C248.231,399.879 246.854,401.599 245.243,403.329C243.87,404.803 242.343,406.269 240.761,407.733C241.156,407.861 241.529,407.991 241.883,408.124C242.543,408.372 243.116,408.622 243.606,408.874C243.792,408.97 243.973,409.071 244.146,409.175C244.184,409.197 244.221,409.221 244.257,409.243C248.468,406.33 252.291,403.184 255.772,399.95C259.355,396.62 262.576,393.2 265.485,389.847C267.792,387.188 270.021,384.59 272.159,382.019C274.237,379.519 276.13,377.157 277.764,374.97C278.549,373.919 279.375,372.787 280.154,371.719C283.205,367.535 285.527,364.352 287.839,363.09C288.648,362.649 289.406,362.465 290.063,362.534C290.738,362.605 291.296,362.928 291.693,363.501C292.048,364.014 292.258,364.722 292.284,365.617C292.336,367.414 291.649,370.096 289.876,373.629C289.466,374.445 289.096,375.319 288.699,376.257C288.333,377.121 287.946,378.037 287.5,378.986C287.719,378.787 287.93,378.598 288.136,378.421C289.32,377.394 290.444,376.911 291.396,376.917C292.147,376.923 292.788,377.216 293.277,377.774C293.723,378.282 294.026,379.008 294.149,379.93C294.433,382.066 293.747,385.401 291.572,389.623C290.418,391.86 288.844,394.36 286.769,397.074C286.656,397.223 286.541,397.371 286.425,397.52C286.626,397.367 286.817,397.225 287.001,397.092C288.44,396.049 289.768,395.791 290.749,396.164L290.752,396.164ZM146.984,495.125C148.073,495.28 148.696,495.757 148.851,496.555C149.036,497.507 148.198,498.126 146.911,499.077C146.102,499.675 145.078,500.432 144.036,501.471C143.775,501.731 143.497,502.002 143.268,502.305C145.415,500.229 146.852,499.201 147.743,498.979C149.449,498.554 149.787,499.821 149.262,502.154C149.178,502.528 148.983,502.869 148.749,503.216C150.325,501.651 152.111,500.859 153.826,500.099C154.443,499.825 155.051,499.556 155.635,499.252C157.984,498.031 160.261,497.195 162.286,496.633C165.174,495.832 167.551,495.59 168.898,495.581C171.134,495.567 172.084,496.675 171.777,498.879C171.555,500.472 170.564,502.715 168.822,505.594C170.881,505.03 172.954,503.774 175.042,502.51C176.991,501.331 178.951,500.143 181.004,499.445C182.693,498.871 184.036,499.029 185.419,499.192C186.362,499.303 187.326,499.416 188.399,499.266C190.073,499.032 192.257,498.009 194.34,497.033C195.694,496.399 197.007,495.783 198.144,495.397C198.577,495.25 199.037,495.624 198.981,496.077C198.609,499.068 198.256,502.049 198.216,504.846C198.192,506.534 198.281,508.157 198.547,509.677C199.051,507.121 199.739,504.676 200.624,502.347C201.841,499.142 203.429,496.159 205.416,493.417C207.176,490.988 209.176,489.031 211.54,487.134C213.495,485.566 215.663,484.065 218.14,482.38C218.128,482.378 218.116,482.376 218.104,482.374C217.47,482.261 216.998,482.039 216.717,481.707C216.408,481.343 216.256,480.885 216.253,480.332L216.253,480.332C215.275,481.313 214.242,482.211 213.185,483.053C211.474,484.415 209.699,485.628 207.976,486.802C207.45,487.16 207.116,487.39 206.783,487.62C204.271,489.352 201.872,491.006 198.988,492.154C196.337,493.209 193.304,493.21 190.136,493.21C189.869,493.21 189.6,493.21 189.331,493.211C188.823,493.211 188.3,493.22 187.777,493.228C185.234,493.267 182.652,493.307 180.137,492.593C177.865,491.948 175.698,491.057 173.562,490.179C169.84,488.65 166.209,487.158 162.342,487.145C159.096,487.134 155.948,488.325 152.898,490.076C150.432,491.492 148.032,493.269 145.693,495.081C146.186,495.059 146.615,495.073 146.981,495.125L146.984,495.125ZM312.392,450.788C312.65,453.41 312.791,455.989 312.839,458.448C312.897,461.367 312.829,464.128 312.678,466.607C312.559,468.543 312.347,470.388 312.148,472.111C311.833,474.85 311.554,477.274 311.752,479.396C311.97,481.73 312.61,483.715 313.652,485.282C314.662,486.801 316.059,487.931 317.824,488.603C320.926,489.785 324.445,490.201 329.576,488.631C334.026,487.269 339.668,484.427 347.254,479.335C345.853,479.827 344.439,480.298 343.011,480.744C339.948,481.701 336.822,482.547 333.627,483.271C333.01,483.411 332.667,482.287 333.256,482.057C337.222,480.51 340.854,478.92 343.723,477.231C345.283,476.313 346.615,475.368 347.648,474.391C345.805,475.423 344.115,476.323 342.608,477.076C340.331,478.214 338.451,479.027 337.078,479.465C336.18,479.751 335.537,479.86 335.155,479.808L335.153,479.808C334.553,479.725 334.292,479.403 334.37,478.855C334.407,478.594 334.58,478.296 334.888,477.97C335.625,477.191 337.41,475.907 340.235,474.236C341.214,473.658 342.089,472.929 342.865,472.087C343.101,471.831 343.327,471.564 343.545,471.288C340.266,473.236 337.397,474.857 334.926,476.159C331.864,477.773 329.413,478.896 327.557,479.543C325.729,480.181 324.265,480.203 323.281,479.767C322.623,479.476 322.17,478.992 321.945,478.353C321.737,477.759 321.74,477.047 321.979,476.253C322.372,474.945 323.434,473.346 325.282,471.643C324.209,471.939 323.265,472.175 322.444,472.353C320.849,472.699 319.686,472.834 318.935,472.768C318.497,472.731 318.14,472.604 317.869,472.398C317.465,472.092 317.278,471.656 317.316,471.114C317.346,470.696 317.524,470.21 317.857,469.674C318.588,468.496 320.152,466.957 322.61,465.267C323.441,464.696 324.379,464.427 325.404,464.133C326.517,463.814 327.743,463.461 328.969,462.629C327.207,463.09 325.6,463.29 324.148,463.221C321.914,463.115 320.047,462.381 318.559,461.003C316.823,459.394 316.388,456.459 315.901,453.169C315.673,451.63 315.433,450.008 315.044,448.44C314.959,448.559 314.868,448.678 314.768,448.796C314.215,449.453 313.417,450.125 312.393,450.788L312.392,450.788ZM351.841,395.212C350.019,395.499 348.57,395.718 347.11,395.937C331.382,398.301 314.614,400.823 300.264,413.99C300.278,414.014 300.291,414.039 300.304,414.063C304.482,411.631 308.813,409.917 313.277,408.838C317.975,407.703 322.809,407.271 327.76,407.444C344.953,408.048 357.599,421.892 372.046,437.706C382.428,449.07 393.749,461.463 408.324,470.601C417.196,476.164 428.868,481.75 441.172,484.328C449.542,486.082 458.205,486.443 466.475,484.457C458.943,483.626 452.227,481.871 445.986,479.499C438.81,476.771 432.284,473.236 425.874,469.355C412.738,461.402 403.664,448.271 394.528,435.048C383.088,418.492 371.545,401.789 351.841,395.212ZM218.247,477.952C218.247,478.083 218.172,478.197 218.084,478.308C217.774,479.013 217.589,479.602 217.538,480.072C217.499,480.446 217.546,480.718 217.688,480.885C217.769,480.98 217.986,481.059 218.323,481.119C218.731,481.191 219.267,481.214 219.911,481.185C220.047,481.108 220.189,481.068 220.348,481.159C222.874,480.973 226.664,480.107 230.95,478.574C234.701,477.232 238.819,475.383 242.788,473.037C245.874,471.213 249.596,469.044 252.606,466.621C254.415,465.165 255.971,463.617 256.972,462.002C254.172,463.397 249.471,463.418 245.362,463.435C244.277,463.44 243.234,463.444 242.275,463.474C239.993,463.545 237.664,463.482 235.296,463.309C233.056,463.145 230.758,462.879 228.414,462.534C227.07,464.248 226.003,465.882 225.016,467.394C224.432,468.287 223.875,469.141 223.307,469.942C222.039,471.731 220.957,473.319 220.082,474.706C219.297,475.952 218.679,477.034 218.247,477.952ZM153.239,416.645L153.25,416.653C153.421,416.666 153.519,416.78 153.602,416.917C161.913,423.204 167.874,430.783 173.55,438C180.931,447.385 187.826,456.151 198.742,460.501C198.941,460.58 199.61,460.851 200.234,461.103C204.631,462.882 208.873,464.596 214.167,464.577C213.189,463.751 212.252,462.895 211.388,462.013C210.202,460.802 209.164,459.551 208.361,458.279L208.361,458.279C208.222,458.214 208.12,458.107 208.119,457.881C207.442,456.734 206.959,455.57 206.73,454.401C206.483,453.136 206.53,451.87 206.947,450.62C207.033,450.36 207.399,450.144 207.669,450.195C212.507,451.105 217.022,450.811 221.179,449.188C225.019,447.689 228.569,445.049 231.803,441.171C229.586,441.128 227.446,441.036 225.66,440.706C223.367,440.284 221.66,439.461 221.09,437.864C220.972,437.531 221.2,437.111 221.544,437.029C225.393,436.114 228.776,434.848 231.69,433.233C234.263,431.806 236.478,430.104 238.332,428.129C236.52,427.632 234.877,426.997 233.365,426.258C231.574,425.382 229.966,424.36 228.475,423.247C228.074,422.947 228.182,422.288 228.657,422.131C233.31,420.592 238.442,418.455 241.755,416.225C243.084,415.33 244.108,414.43 244.664,413.564C245.136,412.832 245.245,412.132 244.867,411.499C244.709,411.235 244.469,410.972 244.139,410.709C244.039,410.686 243.933,410.617 243.816,410.473C243.711,410.401 243.603,410.331 243.494,410.265C243.352,410.18 243.195,410.093 243.023,410.005C242.57,409.771 242.043,409.541 241.439,409.314C240.836,409.088 240.136,408.86 239.335,408.63C238.868,408.496 238.72,407.874 239.078,407.546C240.951,405.832 242.76,404.126 244.312,402.461C245.861,400.797 247.179,399.154 248.089,397.546C248.877,396.153 249.944,393.596 250.238,391.814C250.319,391.321 250.34,390.908 250.273,390.634C250.251,390.545 250.227,390.491 250.202,390.488C250.071,390.474 249.859,390.537 249.552,390.693C249.551,390.693 249.507,390.713 249.507,390.713C245.478,392.395 241.37,393.659 237.26,394.535C233.058,395.43 228.857,395.92 224.737,396.034C224.551,396.151 224.407,396.125 224.279,396.045C220.98,396.115 217.73,395.943 214.572,395.548C211.352,395.145 208.22,394.505 205.221,393.647C204.993,393.679 204.863,393.621 204.779,393.519C203.695,393.2 202.647,392.857 201.636,392.494C200.629,392.131 199.629,391.737 198.639,391.312C198.537,391.309 198.416,391.264 198.268,391.152C198.19,391.118 198.199,391.123 198.163,391.107C198.111,391.084 198.134,391.094 198.136,391.095L198.136,391.095C198.134,391.094 198.108,391.082 197.979,391.024C193.651,389.097 189.362,386.982 185.12,384.891C174.497,379.652 164.166,374.559 154.744,373.151C154.595,373.207 154.447,373.219 154.298,373.085C152.64,372.858 151.006,372.747 149.399,372.772C147.718,372.799 146.072,372.976 144.467,373.326C139.882,374.325 135.073,376.365 130.553,379.237C126.344,381.91 122.391,385.3 119.104,389.235C119.977,390.135 120.832,391.041 121.705,391.967C124.703,395.147 127.927,398.567 132.424,402.297C132.433,402.304 132.535,402.415 132.541,402.424C133.1,403.228 133.356,404.035 133.37,404.842C133.382,405.487 133.237,406.12 132.968,406.744C136.844,410.4 141.023,411.704 144.892,412.91C147.824,413.824 150.585,414.685 152.986,416.458C153.089,416.534 153.11,416.549 153.118,416.554L153.124,416.558C153.142,416.571 153.16,416.585 153.178,416.598L153.241,416.645L153.239,416.645ZM289.777,363.791C289.402,363.793 288.951,363.931 288.447,364.206C286.398,365.324 284.146,368.412 281.185,372.471C280.464,373.461 279.698,374.51 278.785,375.732C277.112,377.971 275.21,380.346 273.141,382.835C271.132,385.252 268.86,387.898 266.447,390.678C263.507,394.067 260.254,397.522 256.639,400.88C253.208,404.068 249.449,407.172 245.32,410.055C245.584,410.311 245.796,410.575 245.958,410.846C246.619,411.952 246.476,413.101 245.736,414.252C245.081,415.27 243.933,416.291 242.463,417.281C239.32,419.396 234.645,421.413 230.236,422.942C231.382,423.733 232.6,424.465 233.923,425.112C235.636,425.949 237.525,426.647 239.656,427.152C240.108,427.259 240.293,427.836 239.99,428.188C237.904,430.609 235.343,432.661 232.307,434.344C229.496,435.902 226.282,437.143 222.668,438.065C223.281,438.762 224.43,439.187 225.889,439.456C227.901,439.827 230.495,439.882 233.125,439.917C233.636,439.924 233.935,440.543 233.621,440.946C230.027,445.564 226.023,448.664 221.643,450.374C217.421,452.022 212.866,452.374 208.009,451.547C207.807,452.409 207.81,453.282 207.981,454.157C208.178,455.165 208.597,456.181 209.188,457.191C212.378,457.991 215.558,458.757 218.71,459.44C221.83,460.117 224.916,460.71 227.944,461.174C228.057,461.123 228.196,461.128 228.385,461.241C230.743,461.592 233.079,461.864 235.386,462.033C237.728,462.205 240.016,462.268 242.235,462.198C243.189,462.169 244.251,462.164 245.356,462.16C250.85,462.137 257.493,462.109 258.123,458.9C258.157,458.61 258.203,458.328 258.722,458.354C265.639,457.036 272.646,456.822 279.178,456.622C282.086,456.533 284.901,456.446 287.607,456.263C290.832,456.044 293.772,455.396 296.464,454.803C297.404,454.596 298.316,454.394 299.04,454.249C301.686,453.719 304.035,453.074 306.053,452.365C308.084,451.651 309.785,450.872 311.123,450.079C311.179,449.977 311.288,449.895 311.499,449.85C312.506,449.22 313.276,448.585 313.791,447.974C314.236,447.445 314.47,446.956 314.478,446.531L314.478,446.531C314.443,446.42 314.42,446.311 314.443,446.208C314.113,444.698 311.412,442.451 305.911,440.365C301.384,438.648 295.023,437.112 286.605,436.275C285.973,436.212 286.004,435.039 286.635,435.004C290.281,434.806 291.684,431.763 293.05,428.802C293.374,428.099 293.696,427.4 294.052,426.725C294.767,425.37 295.509,424.036 296.199,422.796C297.651,420.185 298.87,417.995 299.266,416.589C299.344,416.316 299.388,416.052 299.402,415.801L299.402,415.803C299.413,415.591 299.403,415.399 299.374,415.226C299.302,415.086 299.276,414.974 299.28,414.882C299.256,414.819 299.228,414.758 299.197,414.697C299.134,414.574 299.058,414.459 298.969,414.356C298.963,414.35 298.958,414.345 298.952,414.339C298.938,414.323 298.925,414.308 298.912,414.293C298.817,414.194 298.712,414.106 298.598,414.029C298.528,413.982 298.453,413.938 298.374,413.898C298.289,413.883 298.191,413.842 298.075,413.769C297.97,413.731 297.857,413.698 297.738,413.671C297.68,413.658 297.621,413.645 297.562,413.635C297.467,413.658 297.345,413.648 297.183,413.588C297.035,413.577 296.875,413.574 296.7,413.579C296.587,413.582 296.473,413.588 296.361,413.598C296.274,413.639 296.155,413.658 295.99,413.644C294.9,413.809 293.491,414.238 291.739,414.95C289.921,415.688 287.76,416.721 285.232,418.067C285.222,418.073 285.212,418.078 285.202,418.085C281.225,420.497 277.849,423.338 274.473,426.179C271.659,428.548 268.844,430.917 265.627,433.079C263.053,434.809 259.981,435.866 256.723,436.986C254.195,437.856 251.552,438.765 248.986,440.049C248.701,440.191 248.416,440.334 248.132,439.763C247.848,439.193 248.133,439.05 248.418,438.907C251.057,437.587 253.742,436.664 256.31,435.78C259.492,434.686 262.494,433.653 264.92,432.023C268.035,429.929 270.843,427.565 273.651,425.202C277.023,422.364 280.395,419.526 284.391,417.084C285.039,415.839 285.306,414.731 285.197,413.928C285.148,413.562 285.017,413.274 284.808,413.09C284.598,412.906 284.283,412.806 283.862,412.813C282.965,412.828 281.698,413.306 280.055,414.407C279.893,414.521 279.73,414.635 279.564,414.748C279.039,415.108 278.318,414.074 278.836,413.704C278.84,413.702 278.843,413.7 278.846,413.697L278.846,413.697C278.854,413.691 278.862,413.686 278.87,413.68C279.012,413.579 279.153,413.482 279.291,413.389C287.003,408.005 290.273,403.176 290.963,400.11C291.146,399.295 291.138,398.632 290.98,398.143C290.851,397.745 290.614,397.475 290.299,397.355L290.301,397.355C289.707,397.129 288.812,397.352 287.748,398.123C286.863,398.764 285.772,399.643 284.477,400.76C283.182,401.877 281.672,403.239 279.949,404.845L279.934,404.86L279.934,404.859C279.927,404.865 279.921,404.871 279.914,404.877C279.448,405.312 278.58,404.415 279.028,403.963C281.711,401.249 283.936,398.685 285.757,396.301C287.785,393.649 289.32,391.213 290.441,389.039C292.487,385.068 293.142,382.004 292.888,380.094C292.8,379.431 292.603,378.932 292.32,378.61C292.082,378.338 291.765,378.195 291.391,378.192C290.735,378.188 289.904,378.57 288.968,379.382C288.457,379.824 287.895,380.341 287.287,380.927C286.679,381.512 286.024,382.166 285.326,382.883C284.886,383.335 283.993,382.618 284.337,382.09C285.79,379.867 286.715,377.682 287.528,375.763C287.947,374.774 288.337,373.852 288.735,373.06C290.406,369.73 291.056,367.26 291.008,365.652C290.99,365.009 290.861,364.533 290.646,364.222C290.473,363.972 290.228,363.83 289.933,363.799C289.886,363.794 289.837,363.791 289.787,363.791L289.777,363.791ZM132.31,407.929C131.791,408.697 131.11,409.451 130.335,410.193L130.335,410.191C129.43,411.058 128.418,411.894 127.391,412.72L127.391,412.719C129.064,416.554 130.233,420.412 131.311,423.972C132.742,428.702 134.014,432.902 136.051,435.666C137.967,438.266 140.059,439.954 142.117,441.04C144.17,442.124 146.196,442.612 147.981,442.811C148.764,442.899 149.516,442.898 150.229,442.812C152.119,442.582 153.73,441.742 154.935,440.35C156.163,438.931 156.983,436.932 157.265,434.411C157.426,432.973 157.411,431.364 157.197,429.597C156.986,427.862 156.404,425.954 155.591,423.949C154.782,421.956 153.746,419.872 152.617,417.769C152.518,417.694 152.508,417.687 152.482,417.667L152.479,417.667C152.275,417.514 152.236,417.485 152.234,417.483L152.234,417.483C152.236,417.484 152.258,417.501 152.229,417.479C150.006,415.838 147.343,415.007 144.513,414.125C140.587,412.901 136.351,411.58 132.335,407.893L132.31,407.929ZM299.41,413.046C314.045,399.619 331.009,397.068 346.921,394.676C348.573,394.428 350.215,394.181 351.509,393.978C351.643,393.853 351.798,393.865 351.958,393.909C372.512,390.723 387.74,400.452 403.912,410.787C414.946,417.838 426.426,425.174 440.288,428.796C449.141,431.11 461.296,432.093 473.453,430.426C481.834,429.278 490.209,426.869 497.491,422.768C488.148,425.181 479.956,426.252 472.689,426.273C464.318,426.297 457.166,424.929 450.892,422.617C436.384,417.271 426.643,406.91 417.345,397.022C406.559,385.549 396.377,374.721 380.073,373.384C373.545,372.848 366.936,372.836 360.232,373.454C353.538,374.07 346.723,375.314 339.768,377.29C331.945,381.423 324.585,386.422 317.76,392.412C311.083,398.272 304.912,405.088 299.312,412.977C299.345,413 299.378,413.022 299.41,413.046ZM117.951,389.872C117.734,389.815 117.655,389.691 117.627,389.543C116.748,388.649 115.853,387.772 114.916,386.909C113.928,385.999 112.89,385.106 111.772,384.227C109.146,382.165 106.453,380.243 103.683,378.484C102.102,377.48 100.495,376.531 98.861,375.639C102.731,379.496 106.442,383.5 109.864,387.773C114.174,393.152 118.027,398.955 121.164,405.416C121.238,405.569 121.204,405.933 121.104,406.069C118.083,410.195 114.655,414.38 111.226,418.565C108.505,421.886 105.783,425.208 103.285,428.474C106.215,426.728 109.309,424.808 112.268,422.835C116.159,420.24 119.826,417.548 122.586,415.033C123.555,414.15 124.667,413.264 125.786,412.371C126.043,412.167 125.765,412.388 125.982,412.214C126.035,412.136 126.124,412.06 126.267,411.986C127.402,411.078 128.521,410.166 129.453,409.274L129.453,409.272C130.301,408.46 131.018,407.647 131.491,406.842C131.507,406.748 131.56,406.641 131.668,406.516C131.948,405.96 132.104,405.408 132.095,404.862C132.085,404.327 131.914,403.779 131.543,403.221C127.03,399.47 123.791,396.035 120.778,392.84C119.819,391.822 118.883,390.828 117.951,389.873L117.951,389.872ZM351.153,350.219C351.226,350.133 351.338,350.08 351.455,350.031C357.508,346.279 364.347,342.9 371.679,340.254C378.406,337.826 385.553,336.013 392.89,335.09C400.292,334.159 407.865,334.188 415.396,334.217C422.804,334.246 430.172,334.274 437.254,333.386C445.89,332.302 454.216,331.121 461.691,328.849C468.065,326.913 473.827,324.18 478.647,320.03C473.09,322.072 467.403,323.767 461.635,324.949C454.812,326.347 447.886,327.025 440.941,326.706C432.737,326.33 424.444,325.26 416.186,324.194C394.111,321.346 372.28,318.53 352.396,329.207C340.653,335.512 326.523,346.332 315.202,363.352C306.785,376.007 299.919,392.093 296.739,412.303C296.807,412.302 296.877,412.302 296.946,412.303C300.536,404.613 304.334,397.391 308.491,390.744C312.727,383.973 317.337,377.797 322.481,372.329C326.745,367.797 331.435,363.808 336.335,360.159C341.149,356.575 346.153,353.328 351.153,350.219ZM338.958,376.279C339.04,376.183 339.167,376.137 339.3,376.098C342.563,374.379 345.903,372.81 349.315,371.381C352.749,369.943 356.26,368.646 359.84,367.482C378.257,361.491 398.83,365.2 420.465,369.101C429.182,370.672 438.072,372.275 447.08,373.284C456.551,374.344 466.396,374.832 476.109,373.876C484.466,373.054 492.735,371.16 500.595,367.64C490.665,368.86 480.835,368.226 471.044,366.546C459.935,364.64 448.876,361.386 437.779,357.972C433.022,356.508 428.399,354.868 423.81,353.24C412.249,349.139 400.909,345.117 388.73,344.37C382.244,343.972 375.913,344.514 369.782,345.735C363.654,346.955 357.722,348.854 352.033,351.171C346.978,354.31 341.924,357.583 337.092,361.18C332.251,364.785 327.619,368.726 323.408,373.201C318.326,378.603 313.766,384.714 309.573,391.417C305.632,397.718 302.014,404.543 298.591,411.795C304.162,404.017 310.294,397.274 316.922,391.456C323.764,385.451 331.132,380.434 338.958,376.279ZM135.273,378.582C136.993,378.582 138.472,379.682 139.639,381.63C140.766,383.51 141.614,386.212 142.108,389.48C143.073,395.856 142.272,402.138 139.124,402.614C138.991,402.634 138.856,402.644 138.719,402.644C136.985,402.644 135.239,401.25 133.824,399.002C132.48,396.867 131.403,393.931 130.915,390.708C129.954,384.349 131.685,379.088 134.796,378.618C134.953,378.595 135.113,378.582 135.273,378.582ZM131.918,387.692C137.063,388.152 138,395.844 134.726,398.039C134.784,398.136 134.842,398.231 134.901,398.324C136.083,400.203 137.451,401.369 138.719,401.369C138.795,401.369 138.867,401.363 138.935,401.353C141.265,401.001 141.714,395.398 140.848,389.669C140.378,386.56 139.587,384.017 138.548,382.282C137.619,380.733 136.507,379.858 135.273,379.858C135.174,379.858 135.078,379.866 134.985,379.879C132.995,380.18 131.793,383.395 131.918,387.692ZM202.656,380.702C202.755,380.813 202.759,380.96 202.746,381.113C203.098,382.677 203.53,384.427 204.043,386.368C204.54,388.244 205.108,390.279 205.751,392.476C208.616,393.286 211.622,393.893 214.727,394.282C217.429,394.62 220.202,394.792 223.02,394.784C221.096,392.577 219.77,389.781 218.798,386.887C217.672,383.535 217.026,380.07 216.479,377.238C216.104,375.303 215.73,373.274 215.372,371.334C213.397,360.625 211.959,352.828 208.737,352.464C207.749,352.353 207.115,353.183 206.725,355.685C206.274,358.581 206.217,363.48 206.425,371.228C206.439,371.771 205.743,372.079 205.349,371.704C203.403,369.856 202.159,369.299 201.745,370.267C201.146,371.666 201.407,375.045 202.656,380.702ZM202.229,384.422C202.083,385.075 201.907,385.719 201.694,386.351C201.219,387.76 200.559,389.104 199.626,390.348C200.417,390.678 201.23,390.993 202.065,391.293C202.809,391.56 203.553,391.812 204.3,392.045C203.745,390.128 203.25,388.344 202.812,386.692C202.606,385.91 202.411,385.153 202.229,384.422ZM159.495,347.86C158.744,347.866 157.963,348.077 157.381,348.376L157.383,348.374C156.462,348.847 155.434,349.862 154.299,351.417C153.125,353.025 151.861,355.185 150.507,357.896C150.232,358.448 149.237,358.158 149.304,357.545C149.4,356.656 149.404,355.901 149.334,355.266C149.225,354.281 148.944,353.604 148.573,353.17C148.238,352.78 147.82,352.587 147.392,352.54C147.24,352.524 147.084,352.525 146.93,352.542C145.698,352.678 143.781,353.799 141.77,355.741C140.042,357.409 138.274,359.672 136.837,362.431C136.601,362.883 135.916,362.871 135.696,362.411C134.935,360.822 134.125,359.764 133.293,359.142L133.293,359.144C132.326,358.421 131.311,358.296 130.299,358.602C129.207,358.932 128.099,359.748 127.038,360.859C124.809,363.197 122.837,366.796 121.634,370.039C120.799,372.288 120.148,374.999 119.689,378.187C119.295,380.926 119.041,384.022 118.932,387.484C122.14,383.839 125.896,380.686 129.871,378.161C134.515,375.21 139.466,373.111 144.197,372.08C145.89,371.712 147.619,371.525 149.379,371.497C151.065,371.471 152.787,371.591 154.539,371.835L154.539,371.834C157.894,370.123 160.912,368.49 163.551,366.948C166.232,365.382 168.515,363.914 170.359,362.554C171.854,361.452 173.701,359.648 175.325,357.567C176.684,355.825 177.882,353.896 178.574,352.037C179.389,349.852 179.596,347.743 179.355,346.014C179.108,344.237 178.396,342.893 177.406,342.349C176.181,341.676 173.643,340.9 170.294,342.953C168.044,344.332 165.447,346.963 162.644,351.687C162.327,352.222 161.329,351.816 161.478,351.211C161.685,350.374 161.709,349.726 161.599,349.232C161.487,348.724 161.222,348.385 160.877,348.177C160.499,347.948 160.01,347.856 159.497,347.86L159.495,347.86Z"/>
</svg>
