<?xml version="1.0" encoding="UTF-8" standalone="no"?>
<!DOCTYPE svg PUBLIC "-//W3C//DTD SVG 1.1//EN" "http://www.w3.org/Graphics/SVG/1.1/DTD/svg11.dtd">
<svg width="100%" height="100%" viewBox="0 0 76 30" version="1.1" xmlns="http://www.w3.org/2000/svg" xmlns:xlink="http://www.w3.org/1999/xlink" xml:space="preserve" xmlns:serif="http://www.serif.com/" style="fill-rule:evenodd;clip-rule:evenodd;stroke-linejoin:round;stroke-miterlimit:2;">
    <g transform="matrix(1,0,0,1,-143,-480)">
        <g id="path12474" transform="matrix(0.264583,0,0,0.264583,76.7719,99.7521)">
            <path d="M527.171,1438.41C523.475,1442.12 519.574,1445.51 515.578,1448.69C509.109,1453.85 502.401,1458.43 495.889,1462.86C493.902,1464.22 492.638,1465.09 491.381,1465.96C481.887,1472.5 472.819,1478.76 461.918,1483.09C451.901,1487.08 440.438,1487.08 428.463,1487.09C427.454,1487.09 426.438,1487.09 425.422,1487.09C423.499,1487.09 421.524,1487.12 419.547,1487.15C409.934,1487.3 400.178,1487.45 390.671,1484.75C382.083,1482.31 373.895,1478.95 365.821,1475.63C351.755,1469.85 338.029,1464.21 323.414,1464.16C311.146,1464.12 299.249,1468.62 287.721,1475.24C278.401,1480.59 269.329,1487.31 260.488,1494.16C262.353,1494.07 263.974,1494.13 265.358,1494.32L265.368,1494.32C269.485,1494.91 271.839,1496.71 272.424,1499.73C273.123,1503.33 269.958,1505.66 265.092,1509.26C262.034,1511.52 258.164,1514.38 254.226,1518.31C253.24,1519.29 252.189,1520.31 251.324,1521.46C259.439,1513.61 264.87,1509.73 268.238,1508.89C274.686,1507.28 275.963,1512.07 273.978,1520.89C273.659,1522.3 272.923,1523.59 272.039,1524.9C277.994,1518.99 284.747,1515.99 291.23,1513.12C293.562,1512.09 295.86,1511.07 298.066,1509.92C306.945,1505.31 315.551,1502.14 323.205,1500.02C334.119,1496.99 343.101,1496.08 348.194,1496.05C356.645,1495.99 360.234,1500.18 359.073,1508.51C358.234,1514.53 354.49,1523.01 347.906,1533.89C355.688,1531.76 363.524,1527.01 371.416,1522.24C378.779,1517.78 386.188,1513.29 393.948,1510.65C400.331,1508.48 405.41,1509.08 410.634,1509.69C414.2,1510.11 417.843,1510.54 421.898,1509.97C428.224,1509.09 436.478,1505.22 444.351,1501.53C449.468,1499.14 454.433,1496.81 458.728,1495.35C460.367,1494.79 462.105,1496.21 461.892,1497.92C460.486,1509.23 459.153,1520.49 459.001,1531.06C458.909,1537.44 459.245,1543.58 460.254,1549.32C462.158,1539.66 464.758,1530.42 468.101,1521.62C472.704,1509.51 478.705,1498.23 486.213,1487.87C492.866,1478.69 500.424,1471.29 509.361,1464.12C516.75,1458.2 524.942,1452.52 534.307,1446.15C534.261,1446.14 534.214,1446.14 534.169,1446.13C531.771,1445.7 529.989,1444.86 528.926,1443.61C527.759,1442.23 527.186,1440.5 527.171,1438.41L527.171,1438.41Z" style="fill:rgb(255,165,0);"/>
        </g>
    </g>
</svg>
