<?xml version="1.0" encoding="UTF-8" standalone="no"?>
<!DOCTYPE svg PUBLIC "-//W3C//DTD SVG 1.1//EN" "http://www.w3.org/Graphics/SVG/1.1/DTD/svg11.dtd">
<svg width="100%" height="100%" viewBox="0 0 35 54" version="1.1" xmlns="http://www.w3.org/2000/svg" xmlns:xlink="http://www.w3.org/1999/xlink" xml:space="preserve" xmlns:serif="http://www.serif.com/" style="fill-rule:evenodd;clip-rule:evenodd;stroke-linejoin:round;stroke-miterlimit:2;">
    <g transform="matrix(1,0,0,1,-98,-375)">
        <g id="path12456" transform="matrix(0.264583,0,0,0.264583,76.7719,99.7521)">
            <path d="M155.638,1096.52C154.818,1096.3 154.519,1095.83 154.413,1095.27C151.089,1091.89 147.709,1088.58 144.167,1085.32C140.431,1081.88 136.511,1078.5 132.282,1075.18C122.359,1067.39 112.181,1060.12 101.71,1053.47C95.735,1049.68 89.663,1046.09 83.488,1042.72C98.114,1057.3 112.139,1072.43 125.074,1088.58C141.363,1108.91 155.923,1130.85 167.782,1155.27C168.06,1155.84 167.933,1157.22 167.556,1157.73C156.138,1173.33 143.179,1189.14 130.22,1204.96C119.934,1217.52 109.65,1230.07 100.207,1242.41C111.281,1235.81 122.976,1228.56 134.158,1221.1C148.865,1211.29 162.723,1201.12 173.157,1191.61C176.82,1188.27 181.02,1184.92 185.25,1181.55C186.22,1180.78 185.172,1181.62 185.992,1180.96C186.19,1180.66 186.528,1180.38 187.067,1180.1C191.356,1176.67 195.587,1173.22 199.109,1169.85L199.109,1169.84C202.316,1166.77 205.025,1163.7 206.812,1160.65C206.873,1160.3 207.075,1159.89 207.483,1159.42C208.541,1157.32 209.13,1155.24 209.095,1153.17C209.059,1151.15 208.412,1149.08 207.007,1146.97C189.951,1132.79 177.708,1119.81 166.323,1107.73C162.698,1103.89 159.159,1100.13 155.638,1096.52L155.638,1096.52Z" style="fill:rgb(255,165,0);"/>
        </g>
    </g>
</svg>
