<?xml version="1.0" encoding="UTF-8" standalone="no"?>
<!DOCTYPE svg PUBLIC "-//W3C//DTD SVG 1.1//EN" "http://www.w3.org/Graphics/SVG/1.1/DTD/svg11.dtd">
<svg width="100%" height="100%" viewBox="0 0 167 91" version="1.1" xmlns="http://www.w3.org/2000/svg" xmlns:xlink="http://www.w3.org/1999/xlink" xml:space="preserve" xmlns:serif="http://www.serif.com/" style="fill-rule:evenodd;clip-rule:evenodd;stroke-linejoin:round;stroke-miterlimit:2;">
    <g transform="matrix(1,0,0,1,-300,-395)">
        <g id="path12470" transform="matrix(0.264583,0,0,0.264583,76.7719,99.7521)">
            <path d="M1039.63,1116.7C1032.75,1117.79 1027.27,1118.61 1021.75,1119.44C962.307,1128.37 898.932,1137.91 844.695,1187.67C844.747,1187.76 844.795,1187.85 844.845,1187.95C860.638,1178.76 877.005,1172.28 893.878,1168.2C911.634,1163.91 929.906,1162.28 948.616,1162.93C1013.6,1165.21 1061.39,1217.54 1116,1277.31C1155.24,1320.26 1198.02,1367.1 1253.11,1401.63C1286.64,1422.66 1330.76,1443.77 1377.26,1453.51C1408.9,1460.14 1441.64,1461.51 1472.89,1454C1444.42,1450.86 1419.04,1444.23 1395.46,1435.26C1368.33,1424.95 1343.67,1411.59 1319.44,1396.92C1269.79,1366.86 1235.5,1317.24 1200.97,1267.26C1157.73,1204.68 1114.1,1141.56 1039.63,1116.7Z" style="fill:rgb(238,130,238);"/>
        </g>
    </g>
</svg>
