<?xml version="1.0" encoding="UTF-8" standalone="no"?>
<!DOCTYPE svg PUBLIC "-//W3C//DTD SVG 1.1//EN" "http://www.w3.org/Graphics/SVG/1.1/DTD/svg11.dtd">
<svg width="100%" height="100%" viewBox="0 0 37 42" version="1.1" xmlns="http://www.w3.org/2000/svg" xmlns:xlink="http://www.w3.org/1999/xlink" xml:space="preserve" xmlns:serif="http://www.serif.com/" style="fill-rule:evenodd;clip-rule:evenodd;stroke-linejoin:round;stroke-miterlimit:2;">
    <g transform="matrix(1,0,0,1,-311,-448)">
        <g id="path12480" transform="matrix(0.264583,0,0,0.264583,76.7719,99.7521)">
            <path d="M890.534,1326.75C891.507,1336.66 892.039,1346.41 892.224,1355.7C892.442,1366.73 892.186,1377.17 891.613,1386.54C891.166,1393.86 890.362,1400.83 889.612,1407.34C888.421,1417.69 887.367,1426.85 888.115,1434.88C888.938,1443.69 891.358,1451.2 895.294,1457.12C899.112,1462.86 904.394,1467.13 911.064,1469.67C922.787,1474.14 936.087,1475.71 955.482,1469.78C972.3,1464.63 993.624,1453.89 1022.29,1434.64C1017,1436.51 1011.65,1438.28 1006.26,1439.97C994.682,1443.58 982.867,1446.78 970.792,1449.52C968.46,1450.05 967.164,1445.8 969.389,1444.93C984.377,1439.09 998.105,1433.07 1008.95,1426.69C1014.85,1423.22 1019.88,1419.65 1023.78,1415.96C1016.82,1419.86 1010.43,1423.26 1004.73,1426.11C996.127,1430.41 989.023,1433.48 983.833,1435.13C980.442,1436.22 978.01,1436.63 976.566,1436.43L976.558,1436.43C974.29,1436.12 973.303,1434.9 973.598,1432.83C973.739,1431.84 974.393,1430.72 975.557,1429.49C978.342,1426.54 985.087,1421.69 995.766,1415.37C999.465,1413.19 1002.77,1410.43 1005.71,1407.25C1006.6,1406.28 1007.45,1405.28 1008.28,1404.23C995.884,1411.59 985.039,1417.72 975.7,1422.64C964.126,1428.74 954.866,1432.98 947.849,1435.43C940.941,1437.84 935.406,1437.92 931.688,1436.28C929.202,1435.18 927.488,1433.35 926.64,1430.93C925.852,1428.69 925.864,1426 926.767,1423C928.253,1418.05 932.268,1412.01 939.252,1405.57C935.196,1406.69 931.627,1407.58 928.526,1408.26C922.496,1409.56 918.101,1410.07 915.261,1409.83C913.607,1409.68 912.257,1409.2 911.233,1408.43C909.706,1407.27 909.001,1405.62 909.145,1403.57C909.256,1401.99 909.931,1400.15 911.187,1398.13C913.952,1393.68 919.863,1387.86 929.153,1381.48C932.294,1379.32 935.838,1378.3 939.713,1377.19C943.917,1375.98 948.554,1374.65 953.186,1371.5C946.528,1373.25 940.451,1374 934.966,1373.74C926.523,1373.34 919.467,1370.57 913.843,1365.36C907.28,1359.28 905.636,1348.18 903.795,1335.75C902.934,1329.93 902.026,1323.8 900.558,1317.88C900.236,1318.32 899.889,1318.77 899.511,1319.22C897.423,1321.7 894.408,1324.24 890.535,1326.75L890.534,1326.75Z" style="fill:rgb(255,165,0);"/>
        </g>
    </g>
</svg>
