<?xml version="1.0" encoding="UTF-8" standalone="no"?>
<!DOCTYPE svg PUBLIC "-//W3C//DTD SVG 1.1//EN" "http://www.w3.org/Graphics/SVG/1.1/DTD/svg11.dtd">
<svg width="100%" height="100%" viewBox="0 0 62 47" version="1.1" xmlns="http://www.w3.org/2000/svg" xmlns:xlink="http://www.w3.org/1999/xlink" xml:space="preserve" xmlns:serif="http://www.serif.com/" style="fill-rule:evenodd;clip-rule:evenodd;stroke-linejoin:round;stroke-miterlimit:2;">
    <g transform="matrix(1,0,0,1,-118,-341)">
        <g id="path12458" transform="matrix(0.264583,0,0,0.264583,76.7719,99.7521)">
            <path d="M293.923,1028.34C306.605,1021.87 318.008,1015.7 327.985,1009.88C338.118,1003.96 346.747,998.406 353.717,993.267C359.367,989.101 366.347,982.282 372.485,974.418C377.622,967.834 382.148,960.544 384.765,953.519C387.843,945.259 388.627,937.289 387.717,930.755C386.781,924.036 384.093,918.959 380.349,916.902C375.719,914.358 366.125,911.426 353.469,919.184C344.967,924.395 335.15,934.34 324.557,952.194C323.356,954.217 319.585,952.681 320.15,950.396C320.933,947.234 321.021,944.781 320.607,942.917C320.182,940.998 319.183,939.716 317.877,938.927C316.449,938.063 314.6,937.715 312.663,937.729L312.655,937.729C309.817,937.752 306.866,938.551 304.665,939.682L304.674,939.673C301.192,941.462 297.305,945.297 293.016,951.173C288.58,957.252 283.801,965.416 278.685,975.662C277.645,977.746 273.885,976.654 274.137,974.335C274.501,970.975 274.514,968.122 274.249,965.722C273.838,961.999 272.778,959.441 271.373,957.8C270.109,956.327 268.53,955.595 266.911,955.419C266.337,955.357 265.748,955.362 265.164,955.427C260.506,955.941 253.262,960.176 245.661,967.517C239.133,973.823 232.451,982.376 227.017,992.802C226.126,994.511 223.536,994.465 222.704,992.727C219.829,986.719 216.768,982.721 213.623,980.369L213.623,980.378C209.969,977.644 206.131,977.173 202.309,978.329C198.181,979.578 193.991,982.661 189.984,986.862C181.559,995.696 174.105,1009.3 169.557,1021.56C166.402,1030.06 163.943,1040.3 162.208,1052.35C160.716,1062.71 159.759,1074.4 159.346,1087.49C171.47,1073.71 185.666,1061.8 200.688,1052.25C218.244,1041.1 236.956,1033.17 254.836,1029.27C261.234,1027.88 267.769,1027.17 274.421,1027.07C280.793,1026.97 287.3,1027.42 293.922,1028.34L293.923,1028.34Z" style="fill:rgb(255,0,0);"/>
        </g>
    </g>
</svg>
