<?xml version="1.0" encoding="UTF-8" standalone="no"?>
<!DOCTYPE svg PUBLIC "-//W3C//DTD SVG 1.1//EN" "http://www.w3.org/Graphics/SVG/1.1/DTD/svg11.dtd">
<svg width="100%" height="100%" viewBox="0 0 31 36" version="1.1" xmlns="http://www.w3.org/2000/svg" xmlns:xlink="http://www.w3.org/1999/xlink" xml:space="preserve" xmlns:serif="http://www.serif.com/" style="fill-rule:evenodd;clip-rule:evenodd;stroke-linejoin:round;stroke-miterlimit:2;">
    <g transform="matrix(1,0,0,1,-127,-407)">
        <g id="path12482" transform="matrix(0.264583,0,0,0.264583,76.7719,99.7521)">
            <path d="M191.316,1182.87C197.641,1197.36 202.057,1211.94 206.131,1225.4C211.541,1243.27 216.348,1259.15 224.047,1269.6C231.288,1279.42 239.196,1285.8 246.973,1289.91C254.732,1294 262.39,1295.85 269.136,1296.6C272.097,1296.93 274.94,1296.93 277.634,1296.6C284.775,1295.74 290.866,1292.56 295.42,1287.3C300.062,1281.94 303.161,1274.38 304.228,1264.85C304.836,1259.42 304.779,1253.34 303.968,1246.66C303.172,1240.1 300.974,1232.89 297.899,1225.31C294.842,1217.78 290.926,1209.9 286.659,1201.95C286.285,1201.67 286.248,1201.64 286.147,1201.57L286.138,1201.57C284.685,1200.48 285.446,1201.05 285.193,1200.86C276.792,1194.65 266.725,1191.52 256.03,1188.18C241.191,1183.56 225.182,1178.56 210.002,1164.63C208.029,1167.58 205.421,1170.47 202.443,1173.32L202.443,1173.31C199.021,1176.59 195.198,1179.75 191.317,1182.87L191.316,1182.87Z" style="fill:rgb(255,0,0);"/>
        </g>
    </g>
</svg>
