<?xml version="1.0" encoding="UTF-8" standalone="no"?>
<!DOCTYPE svg PUBLIC "-//W3C//DTD SVG 1.1//EN" "http://www.w3.org/Graphics/SVG/1.1/DTD/svg11.dtd">
<svg width="100%" height="100%" viewBox="0 0 596 842" version="1.1" xmlns="http://www.w3.org/2000/svg" xmlns:xlink="http://www.w3.org/1999/xlink" xml:space="preserve" xmlns:serif="http://www.serif.com/" style="fill-rule:evenodd;clip-rule:evenodd;stroke-linejoin:round;stroke-miterlimit:2;">
    <path id="path1020" d="M176.336,179.083C177.079,177.648 177.892,176.391 178.749,175.307C181.833,171.406 185.516,169.68 188.712,169.7C191.678,169.717 195.933,170.725 199.458,174.534C200.666,175.839 201.787,177.473 202.737,179.507C217.272,181.962 228.917,187.256 237.6,194.917C246.635,202.89 252.447,213.408 254.958,225.942C256.523,233.756 256.986,243.303 255.873,253.743C254.888,262.98 252.668,272.921 248.886,282.986C246.59,289.095 242.456,294.912 238.284,300.784C233.669,307.279 229.005,313.843 226.846,320.824L226.804,320.96C258.411,310.13 293.686,305.768 328.05,307.981C363.991,310.295 398.953,319.803 427.703,336.623C456.505,353.473 479.075,377.66 490.165,409.304C496.033,426.051 498.684,444.878 497.336,465.799C492.604,539.277 450.668,580.261 396.241,596.797C371.541,604.301 344.278,606.76 316.766,604.93C289.268,603.1 261.511,596.985 235.811,587.341C169.144,562.322 116.297,513.526 117.543,454.073C117.911,436.498 121.365,420.477 127.34,406.022C133.605,390.867 142.638,377.437 153.787,365.749C153.89,365.641 154.202,365.319 154.444,365.069C155.97,358.985 157.639,353.206 159.451,347.735C166.601,326.153 175.991,309.33 187.62,297.266C187.643,297.241 187.668,297.215 187.694,297.191C191.23,294.012 194.295,290.755 196.778,287.402C198.436,285.165 199.838,282.881 200.95,280.546C198.298,282.611 195.456,283.615 192.689,283.943C187.176,284.596 181.977,282.534 179.207,280.847L179.157,280.818C178.869,280.641 178.558,280.428 178.228,280.178C176.386,278.78 174.547,276.558 173.71,273.798C172.869,271.024 173.028,267.724 175.183,264.196C160.616,265.444 149.481,262.308 141.569,257.196C136.032,253.617 132.07,249.068 129.608,244.367C127.131,239.637 126.171,234.746 126.651,230.525C127.072,226.831 128.589,223.636 131.153,221.474C132.924,219.98 135.39,218.583 138.616,217.293C141.529,216.127 145.076,215.044 149.303,214.048C147.129,210.84 146.232,207.797 146.289,204.878L146.289,204.874C146.35,201.749 147.505,198.802 149.355,195.968C148.829,190.587 149.277,186.534 150.586,183.656C151.979,180.594 154.308,178.85 157.445,178.245C158.619,178.019 160.709,177.858 162.821,178.442C164.069,178.787 165.326,179.39 166.413,180.385C167.282,179.767 168.231,179.31 169.257,179.01C171.331,178.403 173.699,178.447 176.335,179.083L176.336,179.083ZM314.373,602.859C315.21,602.923 316.048,602.983 316.885,603.039C325.169,603.59 333.427,603.749 341.597,603.496L327.265,585.992L326.592,585.17L327.411,584.5L361.211,556.836L332.946,522.317L332.273,521.495L333.092,520.825L366.892,493.161L338.627,458.641L337.954,457.819L338.772,457.149L372.573,429.486L344.308,394.966L343.635,394.144L344.453,393.474L378.243,365.819L349.329,331.24L350.866,329.954L350.789,329.861L367.863,315.584C359.205,313.625 350.357,312.126 341.403,311.087L320.482,328.58L348.797,362.443L349.484,363.265L348.655,363.944L314.855,391.608L343.12,426.127L343.793,426.949L342.974,427.619L309.174,455.283L337.439,489.803L338.112,490.624L337.293,491.295L303.493,518.959L331.758,553.478L332.431,554.3L331.612,554.97L297.812,582.634L314.373,602.859ZM344.258,603.399C352.631,603.047 360.903,602.258 369.004,601.009L359.029,588.826L358.356,588.004L359.174,587.334L392.975,559.67L364.709,525.151L364.037,524.329L364.855,523.659L398.656,495.995L370.39,461.475L369.717,460.653L370.536,459.983L404.336,432.319L376.071,397.8L375.398,396.978L376.217,396.308L410.007,368.653L381.092,334.074L382.63,332.788L382.552,332.695L393.991,323.13C386.366,320.413 378.498,318.099 370.458,316.185L352.245,331.414L380.561,365.277L381.248,366.099L380.419,366.778L346.618,394.442L374.884,428.961L375.557,429.783L374.738,430.453L340.938,458.117L369.203,492.637L369.876,493.458L369.057,494.128L335.257,521.792L363.522,556.312L364.195,557.134L363.376,557.804L329.576,585.468L344.258,603.399ZM281.191,598.293C291.209,600.284 301.33,601.739 311.436,602.619L295.501,583.159L294.829,582.336L295.647,581.666L329.448,554.003L301.182,519.483L300.509,518.661L301.328,517.991L335.128,490.327L306.863,455.808L306.19,454.986L307.009,454.316L340.809,426.652L312.544,392.132L311.871,391.31L312.69,390.64L346.479,362.985L317.565,328.406L319.103,327.12L319.025,327.028L338.474,310.765C334.973,310.398 331.457,310.1 327.931,309.873C321.427,309.454 314.891,309.272 308.354,309.327L288.718,325.747L317.034,359.609L317.721,360.431L316.891,361.11L283.091,388.774L311.356,423.294L312.029,424.115L311.211,424.786L277.41,452.449L305.675,486.969L306.348,487.791L305.53,488.461L271.729,516.125L299.995,550.644L300.667,551.466L299.849,552.136L266.048,579.8L281.191,598.293ZM371.426,600.621C379.113,599.342 386.639,597.645 393.942,595.507L390.792,591.66L390.119,590.838L390.938,590.168L424.738,562.504L396.473,527.984L395.8,527.162L396.619,526.492L430.419,498.829L402.154,464.309L401.481,463.487L402.3,462.817L436.1,435.153L407.835,400.634L407.162,399.812L407.98,399.142L441.77,371.486L412.856,336.907L414.393,335.622L414.316,335.529L417.245,333.079C410.53,329.675 403.528,326.64 396.301,323.969L384.009,334.248L412.324,368.111L413.012,368.933L412.182,369.611L378.382,397.275L406.647,431.795L407.32,432.617L406.501,433.287L372.701,460.951L400.966,495.47L401.639,496.292L400.821,496.962L367.02,524.626L395.285,559.146L395.958,559.968L395.14,560.638L361.339,588.302L371.426,600.621ZM243.36,588.05C254.589,591.932 266.164,595.142 277.898,597.618L263.738,580.325L263.065,579.503L263.883,578.833L297.684,551.169L269.419,516.649L268.746,515.827L269.564,515.157L303.365,487.493L275.099,452.974L274.427,452.152L275.245,451.482L309.046,423.818L280.78,389.298L280.107,388.476L280.926,387.806L314.716,360.151L285.801,325.572L287.339,324.287L287.262,324.194L304.981,309.377C293.056,309.625 281.144,310.658 269.439,312.474L256.955,322.913L285.27,356.776L285.957,357.598L285.128,358.276L251.328,385.94L279.593,420.46L280.266,421.282L279.447,421.952L245.647,449.616L273.912,484.135L274.585,484.957L273.766,485.627L239.966,513.291L268.231,547.811L268.904,548.632L268.085,549.303L234.285,576.967L243.36,588.05ZM396.141,594.846C418.001,588.142 437.801,577.422 453.892,562.151L428.237,530.818L427.564,529.996L428.382,529.326L462.183,501.662L433.918,467.143L433.245,466.321L434.063,465.651L467.864,437.987L439.598,403.467L438.926,402.645L439.744,401.975L470.648,376.682C459.076,361.18 444.053,348.38 426.746,338.255C424.307,336.829 421.822,335.457 419.295,334.136L415.773,337.082L444.088,370.945L444.775,371.767L443.946,372.445L410.146,400.109L438.411,434.629L439.084,435.451L438.265,436.121L404.465,463.785L432.73,498.304L433.403,499.126L432.584,499.796L398.784,527.46L427.049,561.98L427.722,562.801L426.903,563.472L393.103,591.135L396.141,594.846ZM233.175,329.627L237.342,327.467L237.614,327.327L237.919,327.375L239.441,327.615L243.705,326.527L244.648,326.286L244.862,327.242L245.983,332.255L255.223,329.086L256.941,328.498L256.443,330.244L252.19,345.17L252.094,345.509L251.798,345.703L248.45,347.895L253.506,353.942L254.193,354.764L253.364,355.443L219.564,383.107L247.829,417.626L248.502,418.448L247.683,419.118L213.883,446.782L242.148,481.302L242.821,482.123L242.002,482.794L208.202,510.458L236.467,544.977L237.14,545.799L236.321,546.469L205.525,571.674C215.365,576.887 225.735,581.539 236.471,585.568C237.478,585.946 238.488,586.318 239.502,586.685L231.974,577.491L231.301,576.669L232.12,575.999L265.92,548.335L237.655,513.816L236.982,512.994L237.8,512.324L271.601,484.66L243.336,450.14L242.663,449.318L243.481,448.648L277.282,420.985L249.016,386.465L248.344,385.643L249.162,384.973L282.952,357.318L254.038,322.739L255.575,321.453L255.497,321.36L265.319,313.148C252.315,315.378 239.595,318.581 227.424,322.751L233.175,329.627ZM246.659,349.067L238.977,354.097L240.736,358.183L241.136,359.112L240.18,359.452L207.413,371.114L206.046,386.944L205.996,387.529L205.449,387.746L196.743,391.194L216.065,414.792L216.738,415.614L215.92,416.284L182.119,443.948L210.385,478.467L211.058,479.289L210.239,479.959L176.438,507.623L204.704,542.143L205.377,542.965L204.558,543.635L185.127,559.538C190.987,563.451 197.128,567.14 203.5,570.592L234.157,545.501L205.891,510.982L205.218,510.16L206.037,509.49L239.837,481.826L211.572,447.306L210.899,446.484L211.718,445.814L245.518,418.15L217.253,383.631L216.58,382.809L217.399,382.139L251.189,354.484L246.659,349.067ZM455.425,560.676C460.367,555.823 464.942,550.526 469.104,544.77L460,533.652L459.327,532.83L460.146,532.16L486.828,510.322C488.01,506.897 489.085,503.369 490.047,499.734L465.681,469.977L465.008,469.155L465.827,468.485L495.393,444.287C495.147,440.905 494.786,437.588 494.317,434.335L471.362,406.301L470.689,405.479L471.508,404.809L482.447,395.856C479.394,389.704 475.861,383.884 471.903,378.394L441.909,402.943L470.174,437.463L470.847,438.284L470.029,438.955L436.228,466.618L464.494,501.138L465.166,501.96L464.348,502.63L430.547,530.294L455.425,560.676ZM194.674,392.014L174.511,400.001L184.302,411.958L184.975,412.78L184.156,413.45L150.356,441.114L178.621,475.634L179.294,476.455L178.475,477.126L144.675,504.79L172.94,539.309L173.613,540.131L172.795,540.801L166.76,545.74C171.954,550.137 177.481,554.329 183.296,558.298L202.393,542.667L174.128,508.148L173.455,507.326L174.274,506.656L208.074,478.992L179.809,444.472L179.136,443.65L179.954,442.98L213.755,415.316L194.674,392.014ZM172.442,400.821L168.225,402.492L166.955,419.146L166.851,420.516L165.61,419.932L160.447,417.503L153.493,416.511L147.579,426.769L147.4,427.081L147.064,427.195L136.214,430.899L134.997,431.314L134.963,430.024L134.832,424.989L120.928,436.369C120.725,437.722 120.541,439.086 120.378,440.461L146.858,472.8L147.531,473.621L146.712,474.292L126.023,491.225C133.6,510.969 147.306,528.894 165.123,544.34L170.63,539.833L142.364,505.314L141.692,504.492L142.51,503.822L176.311,476.158L148.045,441.638L147.372,440.816L148.191,440.146L181.991,412.483L172.442,400.821ZM470.378,542.98C476.356,534.398 481.428,524.822 485.436,514.201L462.311,533.128L470.378,542.98ZM490.701,497.187C493.108,487.44 494.72,476.947 495.445,465.68C495.862,459.213 495.891,452.95 495.558,446.89L467.992,469.452L490.701,497.187ZM120.059,443.419C119.721,446.915 119.51,450.478 119.434,454.109C119.18,466.268 121.24,477.976 125.245,489.122L144.547,473.324L120.059,443.419ZM134.761,422.307L134.736,421.335L134.734,421.236L134.751,421.142L136.69,410.659L136.71,410.554L136.738,410.481L140.411,401.201L140.589,400.751L141.06,400.63L142.534,400.253L136.124,392.425C133.494,397.01 131.141,401.783 129.09,406.741C125.661,415.04 123.075,423.864 121.441,433.21L134.761,422.307ZM493.65,430.174C492.404,423.111 490.632,416.363 488.377,409.928C486.916,405.76 485.251,401.724 483.397,397.818L473.673,405.777L493.65,430.174ZM144.776,425.974C146.205,409.663 148.252,394.668 150.916,380.993L139.208,391.751L146.75,401.137L145.322,401.501L141.998,402.35L138.533,411.106L136.631,421.39L136.821,428.689L144.776,425.974ZM219.88,258.553C219.127,258.956 218.36,259.351 217.588,259.749C214.327,261.427 210.982,263.15 208.43,265.667C207.034,267.043 206.517,269.353 206.011,271.615C205.54,273.717 205.078,275.78 203.926,277.185C203.954,277.323 203.943,277.467 203.898,277.601L203.899,277.602C202.622,281.311 200.642,284.891 198.071,288.361C195.518,291.808 192.385,295.141 188.784,298.38C177.326,310.265 168.059,326.886 160.985,348.241C154.034,369.222 149.203,394.765 146.494,424.864L152.174,415.011L152.496,414.453L153.127,414.543L160.847,415.645L160.981,415.665L161.114,415.728L165.168,417.635L166.378,401.758L166.424,401.164L166.975,400.945L179.735,395.891C178.914,386.307 178.894,377.568 179.502,369.491C180.128,361.17 181.42,353.543 183.185,346.413C184.815,339.827 186.517,333.431 188.613,327.288C190.712,321.134 193.211,315.227 196.436,309.63C199.074,305.05 202.049,300.777 204.982,296.564C213.08,284.934 220.863,273.755 219.879,258.554L219.88,258.553ZM159.725,216.738C159.552,216.738 159.378,216.743 159.205,216.752L159.176,216.753L159.146,216.756L159.03,216.763L158.974,216.767L158.922,216.771L158.916,216.772L158.859,216.776L158.839,216.778L158.754,216.786L158.746,216.786C158.649,216.796 158.552,216.807 158.456,216.819L158.414,216.825L158.4,216.827C158.291,216.841 158.182,216.857 158.074,216.875L158.051,216.879C157.973,216.892 157.896,216.906 157.818,216.92L157.816,216.92L157.729,216.937L157.701,216.943L157.643,216.954L157.642,216.955L157.555,216.973L157.523,216.98L157.469,216.991L157.466,216.992L157.407,217.005L157.384,217.01L157.35,217.018L157.299,217.03L157.29,217.033L157.285,217.033L157.21,217.052L157.172,217.061L157.124,217.074L157.112,217.076L157.053,217.091L157.036,217.096L156.951,217.119L156.936,217.123L156.877,217.139L156.863,217.143L156.776,217.167L156.759,217.172L156.7,217.19L156.689,217.193L156.64,217.207L156.532,217.24L156.524,217.242L156.515,217.245L156.465,217.262L156.428,217.273C156.323,217.307 156.216,217.343 156.11,217.38L156.079,217.391L156.051,217.401L155.992,217.422L155.991,217.422L155.907,217.453L155.905,217.454L155.873,217.466L155.862,217.47L155.753,217.511L155.728,217.52L155.694,217.534L155.635,217.557C155.558,217.587 155.48,217.619 155.403,217.651L155.378,217.661L155.338,217.678C154.825,217.895 154.309,218.152 153.79,218.447C153.565,218.575 153.278,218.496 153.15,218.27C153.022,218.045 153.101,217.758 153.327,217.63C153.549,217.504 153.769,217.385 153.99,217.272C152.926,216.771 151.924,216.1 151.019,215.282C150.963,215.31 150.902,215.331 150.838,215.345C146.173,216.395 142.319,217.545 139.215,218.787C136.155,220.011 133.835,221.319 132.195,222.703C129.957,224.59 128.629,227.414 128.254,230.701C127.808,234.622 128.711,239.186 131.034,243.622C133.374,248.089 137.151,252.42 142.44,255.838C150.384,260.972 161.731,264.039 176.734,262.428C176.951,262.405 177.156,262.471 177.315,262.595C182.632,261.013 187.437,259.068 191.527,256.618C195.55,254.208 198.881,251.311 201.327,247.789L201.338,247.771L201.344,247.761L201.349,247.752C201.465,247.585 201.578,247.416 201.689,247.247C202.85,245.48 203.977,243.133 204.859,240.624C205.617,238.472 206.193,236.206 206.455,234.093C205.932,234.195 205.425,234.436 204.95,234.824C204.415,235.262 203.922,235.886 203.495,236.707L203.498,236.708C203.378,236.939 203.094,237.028 202.863,236.908C202.632,236.789 202.543,236.504 202.663,236.273C203.15,235.336 203.725,234.613 204.357,234.096C205.09,233.497 205.898,233.172 206.737,233.107C207.568,233.043 208.421,233.235 209.251,233.667C210.096,234.106 210.92,234.797 211.674,235.718C211.839,235.919 211.809,236.216 211.608,236.38C211.407,236.545 211.11,236.515 210.946,236.314C210.274,235.493 209.55,234.883 208.816,234.502C208.347,234.258 207.874,234.108 207.409,234.057C207.146,236.282 206.545,238.672 205.749,240.934C204.842,243.512 203.679,245.933 202.476,247.763C202.384,247.903 202.29,248.042 202.196,248.18C202.276,255.908 200.718,261.694 198.59,265.931C198.435,266.24 198.277,266.539 198.116,266.832C198.108,266.852 198.096,266.871 198.085,266.889C194.504,273.364 189.596,275.896 187.91,276.139C187.265,276.231 186.352,276.144 185.428,275.763C184.632,275.434 183.82,274.884 183.153,274.039C182.493,273.205 181.977,272.084 181.766,270.61C181.661,269.878 181.631,269.055 181.696,268.134C181.696,268.114 181.698,268.093 181.702,268.074C181.834,266.295 182.321,264.149 183.303,261.572C181.472,262.268 179.56,262.908 177.58,263.497C177.546,263.591 177.497,263.677 177.433,263.752C177.122,264.165 176.837,264.584 176.578,265.006C174.682,268.096 174.529,270.951 175.25,273.331C175.979,275.733 177.588,277.673 179.201,278.897C179.451,279.086 179.721,279.269 180.004,279.443L180.044,279.469C182.608,281.031 187.417,282.941 192.501,282.34C195.911,281.936 199.453,280.388 202.525,276.816C202.708,276.602 202.979,276.507 203.239,276.54C204.226,275.3 204.657,273.374 205.096,271.412C205.633,269.015 206.181,266.566 207.772,264.997C210.427,262.379 213.836,260.623 217.159,258.912C218.141,258.406 219.115,257.905 220.059,257.386L220.083,257.374C224.388,255.003 228.03,252.272 228.736,247.176C228.902,245.975 228.956,244.766 228.828,243.539C228.7,242.319 228.39,241.077 227.83,239.801C227.143,238.238 225.085,236.709 222.835,235.039C220.121,233.024 217.137,230.81 215.717,227.927C215.603,227.694 215.697,227.412 215.931,227.298C216.163,227.183 216.445,227.279 216.56,227.511C217.88,230.192 220.768,232.335 223.394,234.285C225.749,236.033 227.903,237.633 228.691,239.426C229.292,240.794 229.624,242.13 229.762,243.443C229.899,244.751 229.842,246.034 229.667,247.304C228.915,252.731 225.201,255.604 220.791,258.058C221.974,273.807 214.029,285.222 205.759,297.1C202.826,301.313 199.851,305.586 197.252,310.096C194.065,315.629 191.59,321.482 189.506,327.589C187.419,333.707 185.724,340.077 184.101,346.636C182.348,353.714 181.066,361.29 180.444,369.56C179.845,377.52 179.858,386.118 180.649,395.529L204.208,386.196L205.577,370.345L205.63,369.739L206.208,369.533L222.301,363.805C221.318,355.451 220.885,348.51 221.263,341.777C221.653,334.827 222.907,328.123 225.31,320.351C227.546,313.12 232.286,306.449 236.975,299.851C241.085,294.066 245.157,288.335 247.381,282.418C251.112,272.489 253.302,262.683 254.273,253.573C255.368,243.307 254.914,233.928 253.378,226.258C250.936,214.068 245.297,203.852 236.537,196.122C228.281,188.837 217.241,183.745 203.481,181.271C204.125,182.981 204.658,184.932 205.043,187.157C205.118,187.596 204.822,188.013 204.384,188.088C203.945,188.162 203.528,187.867 203.453,187.428C202.985,184.73 202.297,182.467 201.457,180.573L201.455,180.567L201.446,180.55L201.438,180.532C200.53,178.496 199.448,176.887 198.28,175.625C195.132,172.223 191.345,171.324 188.707,171.308C185.965,171.292 182.759,172.829 180.013,176.303C179.11,177.445 178.26,178.795 177.492,180.363L177.49,180.368L177.481,180.386L177.476,180.401C176.271,182.872 175.271,185.887 174.602,189.499C174.522,189.936 174.102,190.225 173.665,190.146C173.228,190.066 172.939,189.646 173.019,189.209C173.639,185.86 174.538,182.992 175.623,180.568C173.4,180.074 171.42,180.055 169.709,180.556C167.805,181.113 166.206,182.331 164.943,184.272C164.701,184.644 164.202,184.75 163.829,184.508C163.457,184.266 163.351,183.768 163.593,183.395C164.075,182.654 164.603,182.002 165.173,181.437C164.327,180.711 163.359,180.26 162.395,179.993C160.579,179.491 158.769,179.632 157.751,179.828C155.148,180.33 153.215,181.778 152.059,184.318C150.954,186.747 150.529,190.166 150.866,194.692C152.584,193.052 154.652,191.876 156.769,191.306C155.098,184.985 161.577,187.593 164.895,191.054C167.019,193.269 170.428,197.807 168.403,198.954C168.836,200.673 169.053,202.603 169.053,204.68C169.053,207.552 168.499,210.13 167.499,212.249C166.629,214.091 165.421,215.588 163.944,216.636C164.341,216.797 164.734,216.981 165.123,217.189C165.351,217.31 165.438,217.595 165.316,217.823C165.195,218.052 164.91,218.138 164.682,218.016C164.055,217.682 163.415,217.412 162.766,217.208L162.755,217.205L162.743,217.201L162.736,217.199L162.567,217.148L162.564,217.147L162.454,217.115L162.401,217.101L162.253,217.061C162.118,217.026 161.983,216.994 161.847,216.964L161.838,216.962L161.816,216.958C161.648,216.922 161.48,216.891 161.312,216.864L161.273,216.858L161.262,216.856L161.168,216.842L161.16,216.841L161.143,216.838L161.059,216.827L161.045,216.825L160.988,216.818L160.974,216.815L160.905,216.807L160.888,216.804L160.874,216.803L160.817,216.796L160.802,216.795C160.695,216.783 160.587,216.774 160.479,216.765L160.473,216.765L160.462,216.764C160.355,216.756 160.248,216.75 160.14,216.745L160.121,216.745L160.073,216.743L160.036,216.742L160.016,216.741L159.958,216.74L159.949,216.74L159.899,216.739L159.888,216.739L159.788,216.738L159.725,216.738ZM151.532,377.905C152.169,374.793 152.838,371.751 153.541,368.78C147.104,375.759 141.425,383.347 136.636,391.54L137.272,390.955L151.506,377.876L151.532,377.905ZM223.857,363.25L238.593,358.004L236.918,354.116L236.603,353.384L237.271,352.947L250.463,344.31L254.12,331.471L245.6,334.393L244.6,334.736L244.368,333.699L243.229,328.607L239.728,329.501L239.548,329.547L239.35,329.516L237.937,329.292L223.307,336.875C223.107,338.537 222.962,340.194 222.868,341.865C222.503,348.383 222.914,355.138 223.857,363.25ZM223.618,334.58L231.242,330.629L225.858,324.191C224.859,327.812 224.123,331.224 223.618,334.58ZM182.618,268.432C182.578,269.188 182.609,269.868 182.696,270.478C182.882,271.773 183.325,272.745 183.889,273.458C184.444,274.162 185.122,274.62 185.785,274.894C186.541,275.207 187.272,275.281 187.778,275.208C189.286,274.991 193.632,272.716 196.999,266.904C195.48,266.461 194.102,266.459 192.896,266.989C191.544,267.582 190.377,268.856 189.429,270.937C189.379,271.055 189.282,271.152 189.151,271.198C188.907,271.284 188.638,271.156 188.552,270.911C188.002,269.365 187.255,268.323 186.266,267.902C185.329,267.503 184.129,267.647 182.618,268.432L182.618,268.432ZM184.495,261.104C183.492,263.564 182.941,265.622 182.719,267.339C184.261,266.649 185.555,266.578 186.634,267.037C187.643,267.467 188.433,268.352 189.037,269.621C190.006,267.854 191.176,266.718 192.521,266.128C193.997,265.48 195.656,265.497 197.465,266.065C197.561,265.883 197.656,265.7 197.75,265.512C199.702,261.627 201.161,256.389 201.256,249.468C198.83,252.594 195.701,255.214 192.009,257.425C189.711,258.801 187.196,260.019 184.495,261.104ZM168.854,245.446C168.854,245.631 168.84,245.822 168.811,246.018C168.638,247.199 167.952,248.263 166.984,249.029C166.917,249.082 166.848,249.133 166.778,249.184L166.775,249.183L166.769,249.188L166.744,249.205L166.718,249.225L166.707,249.234C165.793,249.87 164.668,250.255 163.5,250.255C163.247,250.255 162.998,250.235 162.755,250.201C161.739,250.051 160.873,249.599 160.259,248.946C159.637,248.284 159.274,247.418 159.274,246.455L159.272,246.455C159.272,246.27 159.286,246.079 159.315,245.882C159.488,244.702 160.174,243.638 161.142,242.872C162.099,242.114 163.337,241.646 164.626,241.646C164.879,241.646 165.128,241.665 165.371,241.7C166.387,241.849 167.253,242.302 167.866,242.955C168.489,243.617 168.852,244.483 168.852,245.446L168.854,245.446ZM160.21,246.454C160.21,247.167 160.479,247.809 160.941,248.301C161.412,248.802 162.087,249.151 162.889,249.269C163.046,249.292 163.211,249.305 163.382,249.31C163.274,249.23 163.173,249.141 163.082,249.045C162.72,248.66 162.509,248.157 162.509,247.599C162.509,247.496 162.517,247.386 162.534,247.272L162.534,247.27C162.632,246.6 163.02,245.997 163.565,245.566C164.098,245.144 164.789,244.883 165.51,244.883L165.509,244.88C165.65,244.88 165.79,244.891 165.928,244.911C166.506,244.996 167.001,245.256 167.353,245.631C167.54,245.828 167.685,246.057 167.783,246.309C167.824,246.168 167.856,246.026 167.877,245.881C167.897,245.736 167.909,245.59 167.909,245.445L167.911,245.445C167.911,244.731 167.642,244.089 167.18,243.597C166.708,243.097 166.033,242.747 165.232,242.63C165.04,242.601 164.836,242.587 164.623,242.587C163.548,242.587 162.517,242.977 161.721,243.606C160.936,244.228 160.381,245.081 160.243,246.017C160.224,246.162 160.212,246.308 160.212,246.454L160.21,246.454ZM165.792,245.842C165.705,245.829 165.61,245.822 165.509,245.822L165.509,245.821C165.006,245.821 164.521,246.005 164.146,246.302C163.783,246.589 163.527,246.98 163.464,247.406C163.456,247.468 163.45,247.533 163.45,247.6C163.45,247.911 163.567,248.19 163.766,248.401C163.975,248.624 164.28,248.781 164.643,248.834C164.73,248.847 164.825,248.854 164.925,248.854L164.925,248.856C165.365,248.856 165.791,248.715 166.141,248.482L166.144,248.481L166.163,248.468L166.169,248.463L166.18,248.455L166.197,248.442L166.206,248.435L166.214,248.429L166.22,248.426C166.243,248.409 166.266,248.393 166.288,248.376C166.651,248.089 166.907,247.697 166.969,247.271L166.97,247.271C166.978,247.209 166.984,247.144 166.984,247.077C166.984,246.766 166.868,246.488 166.668,246.276C166.459,246.053 166.155,245.897 165.792,245.843L165.792,245.842ZM163.24,238.958C163.058,239.141 162.76,239.142 162.576,238.959C162.392,238.776 162.392,238.479 162.574,238.295C163.638,237.222 165.025,236.092 166.759,236.013C168.481,235.935 170.482,236.901 172.72,240.013C172.871,240.224 172.823,240.517 172.613,240.669C172.403,240.82 172.109,240.772 171.958,240.562C169.944,237.761 168.23,236.887 166.8,236.951C165.383,237.015 164.178,238.011 163.24,238.957L163.24,238.958ZM143.964,232.03C144.202,232.03 144.44,232.047 144.675,232.079C145.706,232.223 146.586,232.678 147.21,233.335C147.844,234.005 148.215,234.88 148.215,235.853C148.215,236.026 148.201,236.208 148.176,236.398C148.011,237.581 147.332,238.647 146.369,239.413C145.418,240.17 144.183,240.639 142.892,240.639C142.654,240.639 142.416,240.622 142.181,240.589C141.15,240.445 140.27,239.99 139.646,239.333C139.011,238.663 138.64,237.788 138.64,236.815C138.64,236.642 138.655,236.459 138.68,236.27C138.846,235.087 139.524,234.021 140.487,233.255C141.438,232.498 142.673,232.03 143.964,232.03ZM144.873,235.267C145.013,235.267 145.147,235.276 145.272,235.294C145.859,235.376 146.361,235.636 146.718,236.013C146.907,236.212 147.055,236.442 147.155,236.695C147.194,236.556 147.225,236.414 147.245,236.27C147.265,236.134 147.273,235.995 147.273,235.853C147.273,235.129 146.999,234.478 146.529,233.983C146.048,233.476 145.36,233.124 144.547,233.01C144.365,232.985 144.17,232.972 143.964,232.972C142.89,232.972 141.863,233.362 141.072,233.991C140.29,234.613 139.741,235.465 139.611,236.399C139.591,236.534 139.582,236.673 139.582,236.815C139.582,237.539 139.857,238.19 140.327,238.685C140.808,239.193 141.496,239.545 142.309,239.658C142.455,239.679 142.609,239.69 142.769,239.694C142.662,239.615 142.562,239.527 142.472,239.432C142.104,239.045 141.89,238.537 141.89,237.972L141.888,237.972C141.888,237.875 141.896,237.77 141.911,237.658C142.004,236.986 142.387,236.382 142.93,235.95C143.459,235.529 144.15,235.267 144.872,235.267L144.873,235.267ZM142.829,237.972C142.829,238.286 142.948,238.569 143.153,238.785C143.368,239.011 143.678,239.17 144.047,239.221C144.137,239.233 144.228,239.24 144.318,239.24C144.757,239.24 145.18,239.099 145.529,238.866L145.534,238.863L145.568,238.839L145.585,238.825L145.594,238.819L145.603,238.812C145.628,238.795 145.651,238.777 145.674,238.759C146.035,238.472 146.288,238.082 146.348,237.658C146.356,237.601 146.359,237.539 146.359,237.473L146.361,237.473C146.361,237.159 146.241,236.876 146.036,236.66C145.822,236.434 145.511,236.276 145.143,236.224L145.144,236.225C145.054,236.212 144.963,236.206 144.873,236.206C144.371,236.206 143.888,236.389 143.515,236.686C143.157,236.971 142.905,237.358 142.843,237.777L142.84,237.798C142.833,237.852 142.83,237.91 142.83,237.972L142.829,237.972ZM143.954,229.77C143.729,229.897 143.443,229.817 143.316,229.592C143.189,229.366 143.269,229.08 143.495,228.953C144.714,228.265 145.926,227.913 147.129,227.899C148.337,227.885 149.527,228.21 150.697,228.874C150.923,229.002 151.002,229.288 150.874,229.514C150.746,229.74 150.459,229.819 150.234,229.691C149.21,229.11 148.178,228.826 147.14,228.838C146.097,228.85 145.034,229.161 143.954,229.77L143.954,229.77ZM193.567,218.097L193.533,218.097C193.24,218.084 192.941,218.079 192.638,218.084L192.59,218.084L192.542,218.085L192.446,218.087L192.438,218.087L192.397,218.089L192.323,218.091L192.216,218.095L192.205,218.095L192.108,218.1L192.091,218.1L192.058,218.103L191.96,218.108L191.911,218.11L191.862,218.113L191.857,218.114L191.813,218.116L191.764,218.119L191.713,218.122L191.632,218.128L191.615,218.129L191.516,218.137L191.502,218.137L191.467,218.141L191.418,218.145L191.271,218.158L191.268,218.159L191.222,218.164L191.172,218.169L191.15,218.171C190.913,218.195 190.675,218.225 190.437,218.258C190.165,218.296 189.892,218.339 189.621,218.389L189.561,218.4L189.509,218.41L189.458,218.42L189.424,218.427L189.407,218.43L189.356,218.44L189.305,218.45L189.152,218.481L189.101,218.491L189.05,218.502L189.045,218.503C188.86,218.543 188.677,218.585 188.494,218.629L188.443,218.642L188.418,218.648C188.005,218.75 187.597,218.864 187.196,218.991L187.171,218.997L187.162,219C185.639,219.483 184.235,220.136 183.143,220.914C182.932,221.064 182.638,221.015 182.488,220.804C182.338,220.592 182.387,220.299 182.598,220.148C183.403,219.575 184.365,219.065 185.413,218.636C182.932,217.866 180.752,216.28 179.118,214.15C177.186,211.63 176.016,208.347 176.016,204.759C176.016,200.797 177.444,197.204 179.752,194.601C181.92,192.155 184.864,190.58 188.133,190.383L188.138,190.382C184.064,182.171 194.216,185.591 198.182,189.466C200.96,192.182 203.495,200.181 201.144,200.74C201.474,202.015 201.652,203.364 201.652,204.759C201.652,207.702 200.864,210.441 199.513,212.723C198.39,214.619 196.875,216.199 195.099,217.319C196.005,217.472 196.83,217.727 197.522,218.097C197.751,218.219 197.837,218.503 197.716,218.732C197.594,218.96 197.31,219.046 197.081,218.925C196.147,218.426 194.924,218.162 193.567,218.097ZM191.119,200.531C195.658,200.531 199.339,204.409 199.339,209.19C199.339,210.095 199.206,210.968 198.961,211.788C200.07,209.743 200.71,207.336 200.71,204.759C200.71,201.031 199.374,197.659 197.213,195.222C195.067,192.801 192.105,191.303 188.837,191.303C185.568,191.303 182.606,192.801 180.46,195.222C178.299,197.659 176.963,201.031 176.963,204.759C176.963,208.133 178.059,211.217 179.871,213.579C181.674,215.93 184.187,217.567 187.029,218.06L187.271,217.987L187.273,217.985C187.837,217.819 188.414,217.674 188.996,217.555C185.485,216.569 182.897,213.197 182.897,209.189C182.897,204.409 186.578,200.531 191.117,200.531L191.119,200.531ZM192.214,207.484C194.951,207.484 197.171,209.741 197.171,212.523C197.171,213.429 196.935,214.277 196.523,215.012C195.611,215.891 194.582,216.618 193.464,217.155L193.433,217.154L193.419,217.153C192.514,217.121 191.56,217.169 190.599,217.289C188.654,216.608 187.256,214.731 187.256,212.523C187.256,209.741 189.476,207.484 192.213,207.484L192.214,207.484ZM150.985,196.089L150.968,195.905L150.969,195.906C153.334,193.377 156.563,191.859 159.604,191.859C162.312,191.859 164.373,193.089 165.781,195.173C167.33,197.467 168.108,200.795 168.108,204.68C168.108,206.514 167.873,208.216 167.434,209.74C167.436,209.672 167.437,209.606 167.437,209.538C167.437,205.392 164.472,202.029 160.815,202.029C157.159,202.029 154.193,205.392 154.193,209.538C154.193,212.306 155.517,214.724 157.484,216.026C157.23,216.078 156.975,216.139 156.72,216.208L156.719,216.208L156.536,216.259L156.533,216.26L156.5,216.269L156.439,216.287L156.424,216.291L156.388,216.301L156.385,216.302L156.327,216.319L156.316,216.322L156.279,216.334L156.25,216.343L156.242,216.345L156.204,216.357L156.155,216.373L156.13,216.38L156.094,216.392L156.061,216.403L156.058,216.404L156.022,216.416L156.007,216.421C155.719,216.517 155.43,216.624 155.14,216.743C153.799,216.235 152.542,215.439 151.448,214.403L151.445,214.384C151.419,214.268 151.37,214.164 151.302,214.076L151.303,214.075C148.844,210.81 147.841,207.774 147.896,204.906C147.952,202.032 149.071,199.285 150.853,196.619C150.962,196.456 151.005,196.269 150.985,196.089L150.985,196.089ZM162.276,216.098L162.299,216.104C162.474,216.145 162.649,216.191 162.822,216.242C164.222,215.414 165.392,214.159 166.273,212.573C166.299,212.369 166.313,212.162 166.313,211.95C166.313,209.281 164.179,207.114 161.548,207.114C158.917,207.114 156.783,209.281 156.783,211.95C156.783,213.547 157.548,214.962 158.724,215.843C158.826,215.833 158.929,215.826 159.031,215.819C160.133,215.749 161.216,215.844 162.277,216.098L162.276,216.098Z"/>
</svg>
