<?xml version="1.0" encoding="UTF-8" standalone="no"?>
<!DOCTYPE svg PUBLIC "-//W3C//DTD SVG 1.1//EN" "http://www.w3.org/Graphics/SVG/1.1/DTD/svg11.dtd">
<svg width="100%" height="100%" viewBox="0 0 81 278" version="1.1" xmlns="http://www.w3.org/2000/svg" xmlns:xlink="http://www.w3.org/1999/xlink" xml:space="preserve" xmlns:serif="http://www.serif.com/" style="fill-rule:evenodd;clip-rule:evenodd;stroke-linejoin:round;stroke-miterlimit:2;">
    <g transform="matrix(1,0,0,1,-361,-323)">
        <path d="M371.426,600.621C379.113,599.342 386.639,597.645 393.942,595.507L390.792,591.66L390.119,590.838L390.938,590.168L424.738,562.504L396.473,527.984L395.8,527.162L396.619,526.492L430.419,498.829L402.154,464.309L401.481,463.487L402.3,462.817L436.1,435.153L407.835,400.634L407.162,399.812L407.98,399.142L441.77,371.486L412.856,336.907L414.393,335.622L414.316,335.529L417.245,333.079C410.53,329.675 403.528,326.64 396.301,323.969L384.009,334.248L412.324,368.111L413.012,368.933L412.182,369.611L378.382,397.275L406.647,431.795L407.32,432.617L406.501,433.287L372.701,460.951L400.966,495.47L401.639,496.292L400.821,496.962L367.02,524.626L395.285,559.146L395.958,559.968L395.14,560.638L361.339,588.302L371.426,600.621Z" style="fill:rgb(255,0,0);"/>
    </g>
</svg>
