<?xml version="1.0" encoding="UTF-8" standalone="no"?>
<!DOCTYPE svg PUBLIC "-//W3C//DTD SVG 1.1//EN" "http://www.w3.org/Graphics/SVG/1.1/DTD/svg11.dtd">
<svg width="100%" height="100%" viewBox="0 0 70 167" version="1.1" xmlns="http://www.w3.org/2000/svg" xmlns:xlink="http://www.w3.org/1999/xlink" xml:space="preserve" xmlns:serif="http://www.serif.com/" style="fill-rule:evenodd;clip-rule:evenodd;stroke-linejoin:round;stroke-miterlimit:2;">
    <g transform="matrix(1,0,0,1,-144,-392)">
        <path d="M194.674,392.014L174.511,400.001L184.302,411.958L184.975,412.78L184.156,413.45L150.356,441.114L178.621,475.634L179.294,476.455L178.475,477.126L144.675,504.79L172.94,539.309L173.613,540.131L172.795,540.801L166.76,545.74C171.954,550.137 177.481,554.329 183.296,558.298L202.393,542.667L174.128,508.148L173.455,507.326L174.274,506.656L208.074,478.992L179.809,444.472L179.136,443.65L179.954,442.98L213.755,415.316L194.674,392.014Z" style="fill:rgb(255,255,0);"/>
    </g>
</svg>
