<?xml version="1.0" encoding="UTF-8" standalone="no"?>
<!DOCTYPE svg PUBLIC "-//W3C//DTD SVG 1.1//EN" "http://www.w3.org/Graphics/SVG/1.1/DTD/svg11.dtd">
<svg width="100%" height="100%" viewBox="0 0 82 293" version="1.1" xmlns="http://www.w3.org/2000/svg" xmlns:xlink="http://www.w3.org/1999/xlink" xml:space="preserve" xmlns:serif="http://www.serif.com/" style="fill-rule:evenodd;clip-rule:evenodd;stroke-linejoin:round;stroke-miterlimit:2;">
    <g transform="matrix(1,0,0,1,-297,-311)">
        <path d="M314.373,602.859C315.21,602.923 316.048,602.983 316.885,603.039C325.169,603.59 333.427,603.749 341.597,603.496L327.265,585.992L326.592,585.17L327.411,584.5L361.211,556.836L332.946,522.317L332.273,521.495L333.092,520.825L366.892,493.161L338.627,458.641L337.954,457.819L338.772,457.149L372.573,429.486L344.308,394.966L343.635,394.144L344.453,393.474L378.243,365.819L349.329,331.24L350.866,329.954L350.789,329.861L367.863,315.584C359.205,313.625 350.357,312.126 341.403,311.087L320.482,328.58L348.797,362.443L349.484,363.265L348.655,363.944L314.855,391.608L343.12,426.127L343.793,426.949L342.974,427.619L309.174,455.283L337.439,489.803L338.112,490.624L337.293,491.295L303.493,518.959L331.758,553.478L332.431,554.3L331.612,554.97L297.812,582.634L314.373,602.859Z" style="fill:rgb(255,255,0);"/>
    </g>
</svg>
