<?xml version="1.0" encoding="UTF-8" standalone="no"?>
<!DOCTYPE svg PUBLIC "-//W3C//DTD SVG 1.1//EN" "http://www.w3.org/Graphics/SVG/1.1/DTD/svg11.dtd">
<svg width="100%" height="100%" viewBox="0 0 20 27" version="1.1" xmlns="http://www.w3.org/2000/svg" xmlns:xlink="http://www.w3.org/1999/xlink" xml:space="preserve" xmlns:serif="http://www.serif.com/" style="fill-rule:evenodd;clip-rule:evenodd;stroke-linejoin:round;stroke-miterlimit:2;">
    <g transform="matrix(1,0,0,1,-182,-249)">
        <path d="M182.618,268.432C182.578,269.188 182.609,269.868 182.696,270.478C182.882,271.773 183.325,272.745 183.889,273.458C184.444,274.162 185.122,274.62 185.785,274.894C186.541,275.207 187.272,275.281 187.778,275.208C189.286,274.991 193.632,272.716 196.999,266.904C195.48,266.461 194.102,266.459 192.896,266.989C191.544,267.582 190.377,268.856 189.429,270.937C189.379,271.055 189.282,271.152 189.151,271.198C188.907,271.284 188.638,271.156 188.552,270.911C188.002,269.365 187.255,268.323 186.266,267.902C185.329,267.503 184.129,267.647 182.618,268.432L182.618,268.432ZM184.495,261.104C183.492,263.564 182.941,265.622 182.719,267.339C184.261,266.649 185.555,266.578 186.634,267.037C187.643,267.467 188.433,268.352 189.037,269.621C190.006,267.854 191.176,266.718 192.521,266.128C193.997,265.48 195.656,265.497 197.465,266.065C197.561,265.883 197.656,265.7 197.75,265.512C199.702,261.627 201.161,256.389 201.256,249.468C198.83,252.594 195.701,255.214 192.009,257.425C189.711,258.801 187.196,260.019 184.495,261.104Z" style="fill:rgb(255,165,0);"/>
    </g>
</svg>
