<?xml version="1.0" encoding="UTF-8" standalone="no"?>
<!DOCTYPE svg PUBLIC "-//W3C//DTD SVG 1.1//EN" "http://www.w3.org/Graphics/SVG/1.1/DTD/svg11.dtd">
<svg width="100%" height="100%" viewBox="0 0 82 288" version="1.1" xmlns="http://www.w3.org/2000/svg" xmlns:xlink="http://www.w3.org/1999/xlink" xml:space="preserve" xmlns:serif="http://www.serif.com/" style="fill-rule:evenodd;clip-rule:evenodd;stroke-linejoin:round;stroke-miterlimit:2;">
    <g transform="matrix(1,0,0,1,-329,-316)">
        <path d="M344.258,603.399C352.631,603.047 360.903,602.258 369.004,601.009L359.029,588.826L358.356,588.004L359.174,587.334L392.975,559.67L364.709,525.151L364.037,524.329L364.855,523.659L398.656,495.995L370.39,461.475L369.717,460.653L370.536,459.983L404.336,432.319L376.071,397.8L375.398,396.978L376.217,396.308L410.007,368.653L381.092,334.074L382.63,332.788L382.552,332.695L393.991,323.13C386.366,320.413 378.498,318.099 370.458,316.185L352.245,331.414L380.561,365.277L381.248,366.099L380.419,366.778L346.618,394.442L374.884,428.961L375.557,429.783L374.738,430.453L340.938,458.117L369.203,492.637L369.876,493.458L369.057,494.128L335.257,521.792L363.522,556.312L364.195,557.134L363.376,557.804L329.576,585.468L344.258,603.399Z" style="fill:rgb(128,0,128);"/>
    </g>
</svg>
