<?xml version="1.0" encoding="UTF-8" standalone="no"?>
<!DOCTYPE svg PUBLIC "-//W3C//DTD SVG 1.1//EN" "http://www.w3.org/Graphics/SVG/1.1/DTD/svg11.dtd">
<svg width="100%" height="100%" viewBox="0 0 81 294" version="1.1" xmlns="http://www.w3.org/2000/svg" xmlns:xlink="http://www.w3.org/1999/xlink" xml:space="preserve" xmlns:serif="http://www.serif.com/" style="fill-rule:evenodd;clip-rule:evenodd;stroke-linejoin:round;stroke-miterlimit:2;">
    <g transform="matrix(1,0,0,1,-266,-309)">
        <path d="M281.191,598.293C291.209,600.284 301.33,601.739 311.436,602.619L295.501,583.159L294.829,582.336L295.647,581.666L329.448,554.003L301.182,519.483L300.509,518.661L301.328,517.991L335.128,490.327L306.863,455.808L306.19,454.986L307.009,454.316L340.809,426.652L312.544,392.132L311.871,391.31L312.69,390.64L346.479,362.985L317.565,328.406L319.103,327.12L319.025,327.028L338.474,310.765C334.973,310.398 331.457,310.1 327.931,309.873C321.427,309.454 314.891,309.272 308.354,309.327L288.718,325.747L317.034,359.609L317.721,360.431L316.891,361.11L283.091,388.774L311.356,423.294L312.029,424.115L311.211,424.786L277.41,452.449L305.675,486.969L306.348,487.791L305.53,488.461L271.729,516.125L299.995,550.644L300.667,551.466L299.849,552.136L266.048,579.8L281.191,598.293Z" style="fill:rgb(0,128,0);"/>
    </g>
</svg>
