<?xml version="1.0" encoding="UTF-8" standalone="no"?>
<!DOCTYPE svg PUBLIC "-//W3C//DTD SVG 1.1//EN" "http://www.w3.org/Graphics/SVG/1.1/DTD/svg11.dtd">
<svg width="100%" height="100%" viewBox="0 0 377 219" version="1.1" xmlns="http://www.w3.org/2000/svg" xmlns:xlink="http://www.w3.org/1999/xlink" xml:space="preserve" xmlns:serif="http://www.serif.com/" style="fill-rule:evenodd;clip-rule:evenodd;stroke-linejoin:round;stroke-miterlimit:2;">
    <g transform="matrix(1,0,0,1,-119,-324)">
        <path d="M470.378,542.98C476.356,534.398 481.428,524.822 485.436,514.201L462.311,533.128L470.378,542.98ZM490.701,497.187C493.108,487.44 494.72,476.947 495.445,465.68C495.862,459.213 495.891,452.95 495.558,446.89L467.992,469.452L490.701,497.187ZM120.059,443.419C119.721,446.915 119.51,450.478 119.434,454.109C119.18,466.268 121.24,477.976 125.245,489.122L144.547,473.324L120.059,443.419ZM134.761,422.307L134.736,421.335L134.734,421.236L134.751,421.142L136.69,410.659L136.71,410.554L136.738,410.481L140.411,401.201L140.589,400.751L141.06,400.63L142.534,400.253L136.124,392.425C133.494,397.01 131.141,401.783 129.09,406.741C125.661,415.04 123.075,423.864 121.441,433.21L134.761,422.307ZM493.65,430.174C492.404,423.111 490.632,416.363 488.377,409.928C486.916,405.76 485.251,401.724 483.397,397.818L473.673,405.777L493.65,430.174ZM151.532,377.905C152.169,374.793 152.838,371.751 153.541,368.78C147.104,375.759 141.425,383.347 136.636,391.54L137.272,390.955L151.506,377.876L151.532,377.905ZM223.618,334.58L231.242,330.629L225.858,324.191C224.859,327.812 224.123,331.224 223.618,334.58Z" style="fill:rgb(0,128,0);"/>
    </g>
</svg>
