<?xml version="1.0" encoding="UTF-8" standalone="no"?>
<!DOCTYPE svg PUBLIC "-//W3C//DTD SVG 1.1//EN" "http://www.w3.org/Graphics/SVG/1.1/DTD/svg11.dtd">
<svg width="100%" height="100%" viewBox="0 0 119 101" version="1.1" xmlns="http://www.w3.org/2000/svg" xmlns:xlink="http://www.w3.org/1999/xlink" xml:space="preserve" xmlns:serif="http://www.serif.com/" style="fill-rule:evenodd;clip-rule:evenodd;stroke-linejoin:round;stroke-miterlimit:2;">
    <g transform="matrix(1,0,0,1,-136,-328)">
        <path d="M144.776,425.974C146.205,409.663 148.252,394.668 150.916,380.993L139.208,391.751L146.75,401.137L145.322,401.501L141.998,402.35L138.533,411.106L136.631,421.39L136.821,428.689L144.776,425.974ZM223.857,363.25L238.593,358.004L236.918,354.116L236.603,353.384L237.271,352.947L250.463,344.31L254.12,331.471L245.6,334.393L244.6,334.736L244.368,333.699L243.229,328.607L239.728,329.501L239.548,329.547L239.35,329.516L237.937,329.292L223.307,336.875C223.107,338.537 222.962,340.194 222.868,341.865C222.503,348.383 222.914,355.138 223.857,363.25Z" style="fill:rgb(0,128,0);"/>
    </g>
</svg>
