<?xml version="1.0" encoding="UTF-8" standalone="no"?>
<!DOCTYPE svg PUBLIC "-//W3C//DTD SVG 1.1//EN" "http://www.w3.org/Graphics/SVG/1.1/DTD/svg11.dtd">
<svg width="100%" height="100%" viewBox="0 0 66 183" version="1.1" xmlns="http://www.w3.org/2000/svg" xmlns:xlink="http://www.w3.org/1999/xlink" xml:space="preserve" xmlns:serif="http://www.serif.com/" style="fill-rule:evenodd;clip-rule:evenodd;stroke-linejoin:round;stroke-miterlimit:2;">
    <g transform="matrix(1,0,0,1,-430,-378)">
        <path d="M455.425,560.676C460.367,555.823 464.942,550.526 469.104,544.77L460,533.652L459.327,532.83L460.146,532.16L486.828,510.322C488.01,506.897 489.085,503.369 490.047,499.734L465.681,469.977L465.008,469.155L465.827,468.485L495.393,444.287C495.147,440.905 494.786,437.588 494.317,434.335L471.362,406.301L470.689,405.479L471.508,404.809L482.447,395.856C479.394,389.704 475.861,383.884 471.903,378.394L441.909,402.943L470.174,437.463L470.847,438.284L470.029,438.955L436.228,466.618L464.494,501.138L465.166,501.96L464.348,502.63L430.547,530.294L455.425,560.676Z" style="fill:rgb(128,0,128);"/>
    </g>
</svg>
