<?xml version="1.0" encoding="UTF-8" standalone="no"?>
<!DOCTYPE svg PUBLIC "-//W3C//DTD SVG 1.1//EN" "http://www.w3.org/Graphics/SVG/1.1/DTD/svg11.dtd">
<svg width="100%" height="100%" viewBox="0 0 76 222" version="1.1" xmlns="http://www.w3.org/2000/svg" xmlns:xlink="http://www.w3.org/1999/xlink" xml:space="preserve" xmlns:serif="http://www.serif.com/" style="fill-rule:evenodd;clip-rule:evenodd;stroke-linejoin:round;stroke-miterlimit:2;">
    <g transform="matrix(1,0,0,1,-176,-349)">
        <path d="M246.659,349.067L238.977,354.097L240.736,358.183L241.136,359.112L240.18,359.452L207.413,371.114L206.046,386.944L205.996,387.529L205.449,387.746L196.743,391.194L216.065,414.792L216.738,415.614L215.92,416.284L182.119,443.948L210.385,478.467L211.058,479.289L210.239,479.959L176.438,507.623L204.704,542.143L205.377,542.965L204.558,543.635L185.127,559.538C190.987,563.451 197.128,567.14 203.5,570.592L234.157,545.501L205.891,510.982L205.218,510.16L206.037,509.49L239.837,481.826L211.572,447.306L210.899,446.484L211.718,445.814L245.518,418.15L217.253,383.631L216.58,382.809L217.399,382.139L251.189,354.484L246.659,349.067Z" style="fill:rgb(255,0,0);"/>
    </g>
</svg>
