<?xml version="1.0" encoding="UTF-8" standalone="no"?>
<!DOCTYPE svg PUBLIC "-//W3C//DTD SVG 1.1//EN" "http://www.w3.org/Graphics/SVG/1.1/DTD/svg11.dtd">
<svg width="100%" height="100%" viewBox="0 0 74 167" version="1.1" xmlns="http://www.w3.org/2000/svg" xmlns:xlink="http://www.w3.org/1999/xlink" xml:space="preserve" xmlns:serif="http://www.serif.com/" style="fill-rule:evenodd;clip-rule:evenodd;stroke-linejoin:round;stroke-miterlimit:2;">
    <g transform="matrix(1,0,0,1,-146,-258)">
        <path d="M219.88,258.553C219.127,258.956 218.36,259.351 217.588,259.749C214.327,261.427 210.982,263.15 208.43,265.667C207.034,267.043 206.517,269.353 206.011,271.615C205.54,273.717 205.078,275.78 203.926,277.185C203.954,277.323 203.943,277.467 203.898,277.601L203.899,277.602C202.622,281.311 200.642,284.891 198.071,288.361C195.518,291.808 192.385,295.141 188.784,298.38C177.326,310.265 168.059,326.886 160.985,348.241C154.034,369.222 149.203,394.765 146.494,424.864L152.174,415.011L152.496,414.453L153.127,414.543L160.847,415.645L160.981,415.665L161.114,415.728L165.168,417.635L166.378,401.758L166.424,401.164L166.975,400.945L179.735,395.891C178.914,386.307 178.894,377.568 179.502,369.491C180.128,361.17 181.42,353.543 183.185,346.413C184.815,339.827 186.517,333.431 188.613,327.288C190.712,321.134 193.211,315.227 196.436,309.63C199.074,305.05 202.049,300.777 204.982,296.564C213.08,284.934 220.863,273.755 219.879,258.554L219.88,258.553Z" style="fill:rgb(255,165,0);"/>
    </g>
</svg>
