<?xml version="1.0" encoding="UTF-8" standalone="no"?>
<!DOCTYPE svg PUBLIC "-//W3C//DTD SVG 1.1//EN" "http://www.w3.org/Graphics/SVG/1.1/DTD/svg11.dtd">
<svg width="100%" height="100%" viewBox="0 0 127 225" version="1.1" xmlns="http://www.w3.org/2000/svg" xmlns:xlink="http://www.w3.org/1999/xlink" xml:space="preserve" xmlns:serif="http://www.serif.com/" style="fill-rule:evenodd;clip-rule:evenodd;stroke-linejoin:round;stroke-miterlimit:2;">
    <g transform="matrix(1,0,0,1,-128,-171)">
        <path d="M159.899,216.739L159.949,216.74L159.958,216.74L160.016,216.741L160.036,216.742L160.073,216.743L160.121,216.745L160.14,216.745C160.248,216.75 160.355,216.756 160.462,216.764L160.473,216.765L160.479,216.765C160.587,216.774 160.695,216.783 160.802,216.795L160.817,216.796L160.874,216.803L160.888,216.804L160.905,216.807L160.974,216.815L160.988,216.818L161.045,216.825L161.059,216.827L161.143,216.838L161.16,216.841L161.168,216.842L161.262,216.856L161.273,216.858L161.312,216.864C161.48,216.891 161.648,216.922 161.816,216.958L161.838,216.962L161.847,216.964C161.983,216.994 162.118,217.026 162.253,217.061L162.401,217.101L162.454,217.115L162.564,217.147L162.567,217.148L162.736,217.199L162.743,217.201L162.755,217.205L162.766,217.208C163.415,217.412 164.055,217.682 164.682,218.016C164.91,218.138 165.195,218.052 165.316,217.823C165.438,217.595 165.351,217.31 165.123,217.189C164.734,216.981 164.341,216.797 163.944,216.636C165.421,215.588 166.629,214.091 167.499,212.249C168.499,210.13 169.053,207.552 169.053,204.68C169.053,202.603 168.836,200.673 168.403,198.954C170.428,197.807 167.019,193.269 164.895,191.054C161.577,187.593 155.098,184.985 156.769,191.306C154.652,191.876 152.584,193.052 150.866,194.692C150.529,190.166 150.954,186.747 152.059,184.318C153.215,181.778 155.148,180.33 157.751,179.828C158.769,179.632 160.579,179.491 162.395,179.993C163.359,180.26 164.327,180.711 165.173,181.437C164.603,182.002 164.075,182.654 163.593,183.395C163.351,183.768 163.457,184.266 163.829,184.508C164.202,184.75 164.701,184.644 164.943,184.272C166.206,182.331 167.805,181.113 169.709,180.556C171.42,180.055 173.4,180.074 175.623,180.568C174.538,182.992 173.639,185.86 173.019,189.209C172.939,189.646 173.228,190.066 173.665,190.146C174.102,190.225 174.522,189.936 174.602,189.499C175.271,185.887 176.271,182.872 177.476,180.401L177.481,180.386L177.49,180.368L177.492,180.363C178.26,178.795 179.11,177.445 180.013,176.303C182.759,172.829 185.965,171.292 188.707,171.308C191.345,171.324 195.132,172.223 198.28,175.625C199.448,176.887 200.53,178.496 201.438,180.532L201.446,180.55L201.455,180.567L201.457,180.573C202.297,182.467 202.985,184.73 203.453,187.428C203.528,187.867 203.945,188.162 204.384,188.088C204.822,188.013 205.118,187.596 205.043,187.157C204.658,184.932 204.125,182.981 203.481,181.271C217.241,183.745 228.281,188.837 236.537,196.122C245.297,203.852 250.936,214.068 253.378,226.258C254.914,233.928 255.368,243.307 254.273,253.573C253.302,262.683 251.112,272.489 247.381,282.418C245.157,288.335 241.085,294.066 236.975,299.851C232.286,306.449 227.546,313.12 225.31,320.351C222.907,328.123 221.653,334.827 221.263,341.777C220.885,348.51 221.318,355.451 222.301,363.805L206.208,369.533L205.63,369.739L205.577,370.345L204.208,386.196L180.649,395.529C179.858,386.118 179.845,377.52 180.444,369.56C181.066,361.29 182.348,353.714 184.101,346.636C185.724,340.077 187.419,333.707 189.506,327.589C191.59,321.482 194.065,315.629 197.252,310.096C199.851,305.586 202.826,301.313 205.759,297.1C214.029,285.222 221.974,273.807 220.791,258.058C225.201,255.604 228.915,252.731 229.667,247.304C229.842,246.034 229.899,244.751 229.762,243.443C229.624,242.13 229.292,240.794 228.691,239.426C227.903,237.633 225.749,236.033 223.394,234.285C220.768,232.335 217.88,230.192 216.56,227.511C216.445,227.279 216.163,227.183 215.931,227.298C215.697,227.412 215.603,227.694 215.717,227.927C217.137,230.81 220.121,233.024 222.835,235.039C225.085,236.709 227.143,238.238 227.83,239.801C228.39,241.077 228.7,242.319 228.828,243.539C228.956,244.766 228.902,245.975 228.736,247.176C228.03,252.272 224.388,255.003 220.083,257.374L220.059,257.386C219.115,257.905 218.141,258.406 217.159,258.912C213.836,260.623 210.427,262.379 207.772,264.997C206.181,266.566 205.633,269.015 205.096,271.412C204.657,273.374 204.226,275.3 203.239,276.54C202.979,276.507 202.708,276.602 202.525,276.816C199.453,280.388 195.911,281.936 192.501,282.34C187.417,282.941 182.608,281.031 180.044,279.469L180.004,279.443C179.721,279.269 179.451,279.086 179.201,278.897C177.588,277.673 175.979,275.733 175.25,273.331C174.529,270.951 174.682,268.096 176.578,265.006C176.837,264.584 177.122,264.165 177.433,263.752C177.497,263.677 177.546,263.591 177.58,263.497C179.56,262.908 181.472,262.268 183.303,261.572C182.321,264.149 181.834,266.295 181.702,268.074C181.698,268.093 181.696,268.114 181.696,268.134C181.631,269.055 181.661,269.878 181.766,270.61C181.977,272.084 182.493,273.205 183.153,274.039C183.82,274.884 184.632,275.434 185.428,275.763C186.352,276.144 187.265,276.231 187.91,276.139C189.596,275.896 194.504,273.364 198.085,266.889C198.096,266.871 198.108,266.852 198.116,266.832C198.277,266.539 198.435,266.24 198.59,265.931C200.718,261.694 202.276,255.908 202.196,248.18C202.29,248.042 202.384,247.903 202.476,247.763C203.679,245.933 204.842,243.512 205.749,240.934C206.545,238.672 207.146,236.282 207.409,234.057C207.874,234.108 208.347,234.258 208.816,234.502C209.55,234.883 210.274,235.493 210.946,236.314C211.11,236.515 211.407,236.545 211.608,236.38C211.809,236.216 211.839,235.919 211.674,235.718C210.92,234.797 210.096,234.106 209.251,233.667C208.421,233.235 207.568,233.043 206.737,233.107C205.898,233.172 205.09,233.497 204.357,234.096C203.725,234.613 203.15,235.336 202.663,236.273C202.543,236.504 202.632,236.789 202.863,236.908C203.094,237.028 203.378,236.939 203.498,236.708L203.495,236.707C203.922,235.886 204.415,235.262 204.95,234.824C205.425,234.436 205.932,234.195 206.455,234.093C206.193,236.206 205.617,238.472 204.859,240.624C203.977,243.133 202.85,245.48 201.689,247.247C201.578,247.416 201.465,247.585 201.349,247.752L201.344,247.761L201.338,247.771L201.327,247.789C198.881,251.311 195.55,254.208 191.527,256.618C187.437,259.068 182.632,261.013 177.315,262.595C177.156,262.471 176.951,262.405 176.734,262.428C161.731,264.039 150.384,260.972 142.44,255.838C137.151,252.42 133.374,248.089 131.034,243.622C128.711,239.186 127.808,234.622 128.254,230.701C128.629,227.414 129.957,224.59 132.195,222.703C133.835,221.319 136.155,220.011 139.215,218.787C142.319,217.545 146.173,216.395 150.838,215.345C150.902,215.331 150.963,215.31 151.019,215.282C151.924,216.1 152.926,216.771 153.99,217.272C153.769,217.385 153.549,217.504 153.327,217.63C153.101,217.758 153.022,218.045 153.15,218.27C153.278,218.496 153.565,218.575 153.79,218.447C154.309,218.152 154.825,217.895 155.338,217.678L155.378,217.661L155.403,217.651C155.48,217.619 155.558,217.587 155.635,217.557L155.694,217.534L155.728,217.52L155.753,217.511L155.862,217.47L155.873,217.466L155.905,217.454L155.907,217.453L155.991,217.422L155.992,217.422L156.051,217.401L156.079,217.391L156.11,217.38C156.216,217.343 156.323,217.307 156.428,217.273L156.465,217.262L156.515,217.245L156.524,217.242L156.532,217.24L156.64,217.207L156.689,217.193L156.7,217.19L156.759,217.172L156.776,217.167L156.863,217.143L156.877,217.139L156.936,217.123L156.951,217.119L157.036,217.096L157.053,217.091L157.112,217.076L157.124,217.074L157.172,217.061L157.21,217.052L157.285,217.033L157.29,217.033L157.299,217.03L157.35,217.018L157.384,217.01L157.407,217.005L157.466,216.992L157.469,216.991L157.523,216.98L157.555,216.973L157.642,216.955L157.643,216.954L157.701,216.943L157.729,216.937L157.816,216.92L157.818,216.92C157.896,216.906 157.973,216.892 158.051,216.879L158.074,216.875C158.182,216.857 158.291,216.841 158.4,216.827L158.414,216.825L158.456,216.819C158.552,216.807 158.649,216.796 158.746,216.786L158.754,216.786L158.839,216.778L158.859,216.776L158.916,216.772L158.922,216.771L158.974,216.767L159.03,216.763L159.146,216.756L159.176,216.753L159.205,216.752L159.725,216.738L159.788,216.738L159.888,216.739L159.899,216.739ZM168.852,245.446C168.852,244.483 168.489,243.617 167.866,242.955C167.253,242.302 166.387,241.849 165.371,241.7C165.128,241.665 164.879,241.646 164.626,241.646C163.337,241.646 162.099,242.114 161.142,242.872C160.174,243.638 159.488,244.702 159.315,245.882C159.286,246.079 159.272,246.27 159.272,246.455L159.274,246.455C159.274,247.418 159.637,248.284 160.259,248.946C160.873,249.599 161.739,250.051 162.755,250.201C162.998,250.235 163.247,250.255 163.5,250.255C164.668,250.255 165.793,249.87 166.707,249.234L166.718,249.225L166.744,249.205L166.769,249.188L166.775,249.183L166.778,249.184C166.848,249.133 166.917,249.082 166.984,249.029C167.952,248.263 168.638,247.199 168.811,246.018C168.84,245.822 168.854,245.631 168.854,245.446L168.852,245.446ZM143.964,232.03C144.202,232.03 144.44,232.047 144.675,232.079C145.706,232.223 146.586,232.678 147.21,233.335C147.844,234.005 148.215,234.88 148.215,235.853C148.215,236.026 148.201,236.208 148.176,236.398C148.011,237.581 147.332,238.647 146.369,239.413C145.418,240.17 144.183,240.639 142.892,240.639C142.654,240.639 142.416,240.622 142.181,240.589C141.15,240.445 140.27,239.99 139.646,239.333C139.011,238.663 138.64,237.788 138.64,236.815C138.64,236.642 138.655,236.459 138.68,236.27C138.846,235.087 139.524,234.021 140.487,233.255C141.438,232.498 142.673,232.03 143.964,232.03ZM193.567,218.097L193.533,218.097C193.24,218.084 192.941,218.079 192.638,218.084L192.59,218.084L192.542,218.085L192.446,218.087L192.438,218.087L192.397,218.089L192.323,218.091L192.216,218.095L192.205,218.095L192.108,218.1L192.091,218.1L192.058,218.103L191.96,218.108L191.911,218.11L191.862,218.113L191.857,218.114L191.813,218.116L191.764,218.119L191.713,218.122L191.632,218.128L191.615,218.129L191.516,218.137L191.502,218.137L191.467,218.141L191.418,218.145L191.271,218.158L191.268,218.159L191.222,218.164L191.172,218.169L191.15,218.171C190.913,218.195 190.675,218.225 190.437,218.258C190.165,218.296 189.892,218.339 189.621,218.389L189.561,218.4L189.509,218.41L189.458,218.42L189.424,218.427L189.407,218.43L189.356,218.44L189.305,218.45L189.152,218.481L189.101,218.491L189.05,218.502L189.045,218.503C188.86,218.543 188.677,218.585 188.494,218.629L188.443,218.642L188.418,218.648C188.005,218.75 187.597,218.864 187.196,218.991L187.171,218.997L187.162,219C185.639,219.483 184.235,220.136 183.143,220.914C182.932,221.064 182.638,221.015 182.488,220.804C182.338,220.592 182.387,220.299 182.598,220.148C183.403,219.575 184.365,219.065 185.413,218.636C182.932,217.866 180.752,216.28 179.118,214.15C177.186,211.63 176.016,208.347 176.016,204.759C176.016,200.797 177.444,197.204 179.752,194.601C181.92,192.155 184.864,190.58 188.133,190.383L188.138,190.382C184.064,182.171 194.216,185.591 198.182,189.466C200.96,192.182 203.495,200.181 201.144,200.74C201.474,202.015 201.652,203.364 201.652,204.759C201.652,207.702 200.864,210.441 199.513,212.723C198.39,214.619 196.875,216.199 195.099,217.319C196.005,217.472 196.83,217.727 197.522,218.097C197.751,218.219 197.837,218.503 197.716,218.732C197.594,218.96 197.31,219.046 197.081,218.925C196.147,218.426 194.924,218.162 193.567,218.097Z" style="fill:rgb(0,0,255);"/>
    </g>
</svg>
