<?xml version="1.0" encoding="UTF-8" standalone="no"?>
<!DOCTYPE svg PUBLIC "-//W3C//DTD SVG 1.1//EN" "http://www.w3.org/Graphics/SVG/1.1/DTD/svg11.dtd">
<svg width="100%" height="100%" viewBox="0 0 596 842" version="1.1" xmlns="http://www.w3.org/2000/svg" xmlns:xlink="http://www.w3.org/1999/xlink" xml:space="preserve" xmlns:serif="http://www.serif.com/" style="fill-rule:evenodd;clip-rule:evenodd;stroke-linejoin:round;stroke-miterlimit:2;">
    <path d="M451.346,731.287C453.161,731.215 454.964,731.129 456.584,730.823C468.337,712.57 478.43,697.514 483.841,677.061C485.958,669.06 488.107,659.975 488.856,651.162C489.277,646.218 488.458,641.644 488.891,636.701C489.784,626.499 491.144,616.238 491.615,605.694C493.483,563.871 492.42,520.045 498.992,481.384L498.991,481.385C500.244,472.524 499.482,466.661 499.745,458.942C499.994,451.651 500.394,443.391 499.699,435.159C499.175,428.958 497.489,422.915 497.676,416.51C497.906,408.611 499.636,400.07 499.797,392.02C499.981,382.775 497.706,372.744 496.907,363.752C496.665,361.031 494.423,358.351 494.157,355.709C492.803,342.249 492.813,329.778 486.906,317.894C480.467,304.943 470.142,294.013 461.293,282.064C456.086,275.033 450.549,268.153 444.747,261.419C439.592,255.436 430.144,250.151 424.617,244.395C417.927,237.427 410.74,230.529 403.786,223.864C394.498,214.963 385.013,205.865 375.019,197.691C365.63,190.013 355.732,183.226 346.897,175.824C336.804,167.367 327.974,158.463 318.817,150.329C311.467,143.8 303.668,137.944 296.624,131.876C290.007,126.177 283.036,121.037 276.703,115.764C270.323,124.074 262.081,127.749 249.495,120.611C241.369,124.754 236.33,123.405 235.017,115.426C227.97,118.015 222.5,117.212 219.333,111.449C213.361,113.594 206.351,113.367 206.985,105.057C196.02,108.762 187.977,107.389 184.204,98.594C176.254,101.772 172.964,98.116 171.358,91.989C167.952,95.451 164.687,95.972 161.565,93.551C157.561,102.314 147.298,105.168 139.382,105.148C132.397,105.13 122.54,102.038 116.961,91.667C110.415,76.553 111.648,63.772 120.658,53.324C110.524,32.634 116.828,15.578 129.815,0.001L137.075,0.001C122.667,18.441 116.054,36.463 126.586,53.567C99.422,70.993 129.89,105.838 147.981,100.485C152.21,99.233 156.909,96.813 158.727,90.283C153.672,88.791 152.467,85.368 152.34,81.405C156.249,87.224 160.424,89.275 165.185,83.039C165.287,85.645 164.842,88.133 160.572,89.786C164.758,93.173 169.443,90.724 174.198,87.442C173.245,95.044 176.214,98.212 184.915,94.9C180.891,92.998 181.606,90.014 182.998,86.874C184.981,96.299 192.368,94.219 200.528,90.496C197.818,94.08 194.26,97.107 186.618,97.457C190.023,105.105 198.634,105.199 209.612,101.86C209.905,108.339 212.033,112.247 219.902,108.111C223.924,114.556 229.294,115.041 235.586,111.449C237.078,111.064 238.237,111.116 238.212,112.727C237.573,118.663 240.01,121.137 246.941,118.551C249.165,117.507 251.058,117.554 252.619,118.693C264.47,121.605 272.348,118.74 276.252,110.099C283.935,111.366 290.284,110.088 293.994,103.778C302.268,109.938 310.039,111.266 316.42,99.232C332.724,98.762 342.199,92.387 346.014,81.121C354.419,82.18 360.914,80.873 362.124,73.024C362.289,71.15 363.886,71.055 364.04,72.953C364.239,80.25 370.342,82.129 379.44,81.263C378.415,86.672 381.715,88.77 387.885,84.033C384.518,90.865 390.31,93.042 393.407,93.648C397.39,94.427 404.318,93.09 410.24,85.88C416.639,90.544 422.27,88.745 426.776,77.499C428.924,80.564 425.985,83.755 426.748,85.642C427.493,87.488 429.706,88.4 431.123,89.025C435.31,90.871 442.156,87.877 450.054,82.968C455.581,82.744 444.811,89.433 444.571,91.742C444.113,96.15 449.442,98.316 460.557,98.238C461.148,104.584 464.459,107.969 473.757,104.843C489.025,123.734 502.349,121.346 514.21,102.926C525.548,105.457 533.482,103.566 535.926,94.545C531.688,91.272 531.003,87.259 531.313,83.039C520.078,79.755 514.941,74.438 517.9,66.419C518.159,74.884 524.665,79.05 534.01,81.263C535.549,93.965 541.198,98.648 548.674,99.251C556.097,99.85 565.321,96.427 574.107,92.84C573.276,94.136 572.352,95.385 571.451,96.847C579.539,99.602 588.724,100.138 595.238,96.395L595.238,99.897C586.367,102.487 575.498,102.989 568.744,99.285C558.885,103.643 545.5,105.335 537.913,100.013C532.756,106.405 525.233,108.535 515.345,106.405C513.48,109.194 511.609,111.533 509.746,113.469C511.229,132.04 513.81,150.79 517.742,169.034C520.4,181.364 523.914,193.563 528.711,205.565C528.543,207.675 527.597,207.452 525.873,204.897C522.962,195.792 520.7,186.163 511.848,181.856C504.33,177.071 497.739,171.285 491.801,164.795C486.767,159.294 482.702,153.286 478.438,146.955C473.748,139.992 467.914,132.551 463.625,125.044C461.788,121.83 458.84,119.069 456.761,115.889C453.78,111.33 451.227,106.59 449.565,101.782C442.971,101.2 441.07,97.127 441.467,90.745C437.95,92.76 434.77,93.039 431.974,92.281C434.047,97.375 436.373,102.503 438.267,107.595C439.997,112.244 441.144,116.894 442.873,121.541C448.147,135.718 452.448,150.169 457.616,164.383C459.717,170.162 462.798,175.728 464.843,181.492C467.893,190.089 470.36,198.561 473.558,207.157C476.594,215.318 480.449,223.146 482.964,231.307C485.906,240.851 487.505,250.73 491.241,260.273C494.167,267.748 500.051,275.225 502.832,282.7C495.15,278.328 494.969,272.788 490.12,268.082C487.4,265.442 482.846,263.301 480.126,260.662C477.694,258.625 475.4,256.505 473.116,254.381L472.202,253.53C469.918,251.406 467.624,249.286 465.192,247.249C459.78,242.715 454.106,238.281 448.081,234.464C444.09,231.936 439.663,230.123 436.068,227.127C428.059,220.45 420.463,213.679 414.038,205.888C409.35,200.203 405.947,193.427 400.191,188.443C395.523,184.401 394.014,178.664 389.188,174.721C375.639,163.652 358.165,155.357 343.381,145.023C338.488,141.602 332.654,138.684 328.074,135.065C323.446,131.408 319.649,126.708 314.588,123.441C308.471,119.491 302.793,115.11 298.132,110.412C297.004,109.761 295.838,108.95 294.632,107.967C291.282,113.814 286.886,116.211 281.011,113.733C283.446,115.679 285.966,117.582 288.656,119.427C291.642,121.476 295.231,123.305 297.844,125.525C300.484,127.767 301.783,130.515 304.407,132.765C324.723,150.191 347.236,165.761 367.543,183.222C383.846,197.24 397.929,213.16 414.343,227.102C426.636,240.533 440.589,250.379 452.448,262.786C467.22,278.241 482.009,293.837 490.325,312.84C495.734,325.198 498.341,338.697 500.687,352.739C503.901,371.983 505.452,392.541 502.332,415.267C503.201,422.229 502.86,429.387 503.553,435.997C504.245,442.608 505.972,448.673 505.633,455.452C504.975,468.594 501.44,482.604 500.207,495.544C499.447,503.518 499.488,511.458 498.972,519.359C496.702,554.144 497.461,588.3 494.849,621.113C492.947,645.008 492.608,669.671 482.998,690.616C474.882,708.306 467.874,724.746 454.488,738.892C444.195,749.769 428.495,758.746 415.621,769.226C402.413,779.977 388.308,792.59 373.104,803.951C378.413,804.062 387.198,798.951 396.359,794.246C402.426,791.129 408.706,788.752 414.081,786.169C423.85,781.476 433.342,776.351 443.214,772.022C451.393,768.436 459.965,765.681 467.997,761.583C473.661,758.692 478.591,753.267 484.3,750.524C481.904,756.085 475.425,758.729 472.529,763.79C467.947,771.799 464.089,780.257 460.253,788.728L459.511,790.367C455.675,798.838 451.817,807.296 447.235,815.305C460.129,808.611 469.024,797.583 478.169,788.056C487.443,778.394 501.897,769.855 510.245,759.84C517.611,751.003 518.859,740.684 527.042,732.158C524.788,737.981 522.033,743.637 519.78,749.46C518.027,753.989 515.44,758.351 515.021,763.213C518.93,771.518 527.958,780.64 532.417,790.543C537.017,800.761 540.212,811.811 542.068,823.653C547.35,810.569 552.141,797.513 556.6,784.476C558.837,777.933 563.158,771.81 565.249,765.275C570.199,749.796 568.376,733.338 577.13,718.468C574.525,729.818 572.242,740.019 572.982,752.317C573.239,756.589 575.181,762.581 575.794,766.953C577.458,778.836 582.557,789.746 586.505,802.276C589.57,812.005 588.099,824.315 595.237,833.288L595.237,841.889L592.49,841.889C591.275,838.746 589.476,835.813 588.345,832.674C584.65,822.417 582.026,811.967 579.195,801.742C575.3,787.677 572.197,773.641 569.822,759.632C567.039,767.65 564.789,775.719 561.848,783.67C559.445,790.165 556.342,796.541 554.069,803.092C552.416,807.856 550.891,812.675 549.374,817.5L548.767,819.429C547.25,824.254 545.725,829.073 544.072,833.837C535.277,822.96 535.065,808.082 529.271,795.872C526.794,790.653 523.711,785.747 520.609,780.851L520.009,779.904C516.907,775.008 513.824,770.102 511.347,764.883C505.305,772.628 498.038,779.437 491.415,786.042C487.441,790.004 484.285,794.108 480.121,797.698C467.135,808.894 452.761,815.014 438.72,826.491C440.683,815.383 446.632,806.447 452.04,797.379C458.015,787.359 461.748,776.16 466.602,765.55C453.643,771.149 440.712,776.206 428.174,782.63C410.591,791.641 393.46,802.134 375.286,809.986C370.337,812.124 364.899,813.304 359.446,814.454L358.39,814.677C352.937,815.827 347.499,817.007 342.55,819.145C354.319,813.187 362.527,807.583 369.744,801.978C376.961,796.374 383.188,790.769 390.999,784.812C408.241,771.659 425.105,757.904 441.954,744.4C445.843,741.284 449.099,737.865 453.078,734.83C439.741,735.335 431.497,740.277 420.749,742.498C417.961,743.074 415.191,743.43 412.423,743.771L411.316,743.908C408.548,744.249 405.778,744.605 402.99,745.181C398.194,755.071 392.539,764.734 385.626,774.065C390.979,764.284 396.034,754.487 400.094,744.644C402.698,738.334 404.893,732.004 406.496,725.647C399.392,733.417 393.176,741.695 387.63,750.357C386.572,742.719 386.98,736.303 389.462,729.692C391.941,723.087 397.16,717.534 401.478,711.201C407.789,701.945 413.598,691.965 417.849,682.404L402.461,697.976C393.622,706.922 385.865,718.534 375.942,724.812C380.947,705.611 383.395,685.854 383.288,665.541C378.881,675.977 374.732,686.47 371.165,697.086C368.645,704.588 366.414,712.152 364.588,719.803C363.948,723.905 362.39,725.102 360.414,724.979C361.674,706.421 359.14,688.946 351.065,673.054C351.325,683.205 353.085,693.035 353.191,703.248C353.38,721.453 348.093,737.997 348.894,758.872C346.329,758.073 344.031,756.372 341.923,754.04C340.14,752.068 339.599,749.568 338.496,746.963C337.246,744.01 335.475,740.873 334.042,737.342C332.254,732.938 329.888,728.181 325.854,723.309C327.662,729.662 329.768,735.95 332.54,742.092C334.498,746.432 336.79,750.699 339.544,754.865C340.825,757.593 341.381,760.264 341.214,762.879C335.163,757.25 331.258,750.775 325.779,745.527C319.823,739.82 313.486,734.723 306.82,730.155C312.799,739.544 323.626,746.47 330.157,755.051C334.546,760.816 338.221,766.742 340.88,772.897C335.023,765.255 328.875,757.775 322.013,750.691C311.816,750.614 299.654,746.838 290.697,742.609C283.867,739.384 280.3,733.899 274.285,730.495C263.561,724.425 250.861,720.969 239.373,720.256C224.309,719.323 210.204,725.14 195.887,729.675C184.751,733.203 175.172,738.958 162.566,741.174C163.835,747.53 167.271,755.331 170.58,763.046C165.546,756.272 161.95,748.985 159.314,741.355C154.28,726.787 153.746,710.803 151.38,695.093C145.3,714.967 155.721,741.842 157.891,765.217C148.406,752.285 145.003,736.519 139.601,721.671C135.264,709.75 133.01,696.829 128.673,684.909C129.915,706.95 132.824,728.991 134.065,751.033C134.219,753.754 133.981,756.476 133.731,759.197L133.682,759.724C133.433,762.445 133.195,765.166 133.348,767.888C134.661,771.006 133.045,773.343 131.011,775.568C121.869,761.694 120.75,746.202 116.32,731.364C111.217,714.273 106.696,697.053 102.627,679.733C104.835,707.593 105.014,734.967 110.189,763.54C111.307,769.713 112.659,775.944 114.314,782.247C110.373,779.248 109.204,770.579 106.634,780.577C105.189,772.633 104.966,765.148 105.299,757.87C87.668,759.58 73.212,754.194 57.396,754.171C38.078,754.143 19.801,762.109 0.002,758.539L0,753.196C15.709,762.131 38.345,747.264 57.705,747.769C73.247,748.175 82.13,753.854 104.631,754.532C100.254,737.289 101.627,723.95 100.188,708.668C98.816,694.104 98.297,679.668 100.958,665.709C108.218,687.988 114.398,709.305 120.25,731.394C122.367,739.384 122.884,747.96 125.207,755.957C126.419,760.129 127.882,765.051 130.844,768.556C133.195,753.04 129.533,739.467 128.415,724.85C127.085,707.477 125.617,690.396 127.672,674.891C134.854,691.902 138.627,710.979 145.073,728.759C147.499,735.45 150.078,742.1 152.883,748.688C151.351,738.465 147.284,726.284 146.652,715.372C145.959,703.387 147.995,692.392 152.048,682.238C154.512,694.501 155.18,707.266 157.513,719.845C158.735,726.434 160.163,733.041 161.899,739.672C174.254,734.925 184.892,730.259 196.073,726.57C205.095,723.594 213.769,720.133 222.769,718.594C230.069,717.345 237.614,717.588 245.506,718.559C255.217,719.754 264.741,721.758 273.279,726.477C280.579,730.513 286.71,737.027 296.591,741.253C303.442,744.183 311.296,746.895 320.678,749.022C312.435,741.356 307.496,734.037 303.481,726.816C310.128,730.011 316.342,733.818 322.016,738.386C324.207,740.15 324.817,742.194 326.841,744.193C329.443,746.763 333.402,749.369 335.705,752.361C333.332,748.651 331.382,744.776 329.714,740.792C325.907,731.699 323.569,722.036 321.012,712.458C326.039,720.052 330.844,727.672 335.352,735.324C339.208,741.868 340.18,748.602 346.223,755.033C345.66,740.935 348.301,726.892 348.657,712.787C349.139,693.676 346.541,673.193 348.227,655.357C350.85,659.974 352.324,664.717 354.484,669.72C356.932,675.391 359.979,681.398 361.383,687.938C363.078,695.83 363.842,704.499 363.253,714.294C365.025,707.168 367.174,700.268 369.575,693.52C371.28,688.726 374.113,684.175 376.028,679.507C379.441,671.185 380.365,662.102 385.793,654.689C386.493,666.553 386.435,678.556 385.209,690.77C384.224,700.576 382.486,710.52 379.782,720.639C384.584,715.319 389,711.613 393.503,706.578C396.51,703.217 398.699,698.979 401.87,695.796C408.978,688.662 416.503,680.944 424.528,675.726C423.376,680.973 417.992,685.833 415.133,691.099C412.91,695.195 411.433,699.619 408.845,703.644C403.11,712.562 395.894,721.148 392.105,730.045C389.85,735.341 389.951,739.804 388.965,745.85C395.018,737.24 401.147,728.679 409.668,721.64C408.963,728.353 407.085,734.794 403.491,740.841C414.283,738.805 424.013,737.194 434.573,734.879C437.948,734.14 441.932,732.43 445.381,731.78C447.001,731.474 448.804,731.388 450.619,731.316L451.346,731.287ZM25.615,772.832C30.82,777.089 35.585,781.888 39.839,787.319C43.745,792.307 45.385,798.744 50.202,803.953C54.366,794.618 56.995,785.463 57.381,776.572C60.142,784.761 62.298,793.151 63.726,801.783C65.186,792.627 68.225,784.564 72.575,777.407C75.177,781.994 75.249,788.072 75.102,795.094C75.042,797.948 75.573,801.029 75.246,804.12C77.577,801.155 80.286,798.567 83.317,796.303C86.752,793.736 91.06,794.093 94.781,790.389C96.06,789.076 98.566,790.426 97.285,792.934C92.405,803.877 85.305,813.996 77.417,823.822C75.983,825.19 74.243,824.271 75.079,822.319C81.051,813.684 86.756,804.967 90.941,795.772C88.796,797.368 86.906,797.147 84.783,798.768C81.679,801.136 78.431,804.757 75.079,809.296C72.755,812.643 69.846,812.643 70.738,809.296C72.957,801.045 72.927,792.892 72.575,784.753C68.88,790.536 65.916,797.714 64.561,807.96C63.28,810.416 62.334,810.194 61.722,807.293C61.464,804.849 61.523,802.505 61.17,800.157C60.504,795.733 59.333,791.397 58.55,787.09C56.649,793.695 54.103,799.862 52.056,806.491C50.413,811.812 49.357,817.58 47.197,822.987C46.22,824.453 43.127,828.052 45.36,820.983C46.494,816.587 47.676,812.191 49.033,807.794C47.892,806.402 46.751,805.011 45.611,803.62L38.765,795.271C37.625,793.88 36.484,792.489 35.343,791.097C39.68,802.341 42.602,814.293 42.272,826.869C41.295,830.131 39.125,829.252 39.016,827.829C38.059,808.195 32.675,790.142 25.492,772.732L25.615,772.832ZM231.683,776.508C230.259,785.371 229.604,794.443 229.383,803.635C234.357,794.981 238.774,789.731 242.634,787.884C239.926,797.828 238.089,807.991 238.111,818.619C238.114,820.062 238.308,820.489 237.15,821.464C236.256,822.216 235.655,822.177 235.551,820.802C234.732,810.808 236.526,801.291 239.384,791.967C238.152,793.341 237.028,794.803 235.98,796.329C233.083,800.543 231.263,805.481 228.3,809.802C227.299,811.057 226.854,810.918 226.967,809.385C227.138,807.208 227.76,805.081 227.917,802.92C228.428,795.857 228.082,788.776 228.883,781.8C223.508,789.013 221.301,799.32 220.383,810.885C219.925,813.894 218.549,812.565 217.633,810.885C214.294,803.888 209.974,797.875 205.299,792.217C208.713,799.879 211.419,807.638 212.382,815.635C212.719,818.368 211.386,818.646 208.382,816.469C202.442,811.89 195.824,807.764 188.214,804.301C192.322,806.883 195.629,809.905 198.922,813.01C202.216,816.115 205.497,819.304 208.049,822.886L204.882,824.803C199.183,816.872 191.012,809.56 182.631,802.301C185.303,801.673 188.758,802.349 192.881,804.137C197.553,806.164 202.416,809.951 209.299,814.219C206.674,802.505 202.124,792.308 196.381,783.05C199.844,781.658 204.283,786.238 208.923,791.664C211.708,794.919 214.716,799.412 218.049,805.718C219.319,798.749 220.938,793.298 222.813,788.956C225.382,783.005 228.431,779.137 231.717,776.299L231.683,776.508ZM273.864,801.215L278.589,800.585C279.132,803.262 280.055,805.192 281.359,806.373C282.663,807.554 284.251,808.145 286.124,808.145C288.346,808.145 290.223,807.375 291.755,805.835C293.286,804.295 294.052,802.387 294.052,800.112C294.052,797.942 293.343,796.153 291.925,794.744C290.508,793.335 288.705,792.63 286.517,792.63C285.625,792.63 284.514,792.805 283.183,793.155L283.709,789.008C284.024,789.043 284.277,789.06 284.47,789.06C286.482,789.06 288.294,788.535 289.904,787.485C291.514,786.435 292.319,784.816 292.319,782.629C292.319,780.896 291.733,779.461 290.56,778.323C289.388,777.186 287.874,776.617 286.019,776.617C284.181,776.617 282.65,777.195 281.425,778.35C280.2,779.505 279.412,781.237 279.062,783.547L274.337,782.707C274.914,779.54 276.227,777.085 278.274,775.344C280.322,773.603 282.868,772.732 285.914,772.732C288.014,772.732 289.948,773.182 291.715,774.084C293.483,774.985 294.835,776.215 295.771,777.772C296.707,779.33 297.176,780.984 297.176,782.734C297.176,784.396 296.729,785.91 295.837,787.275C294.944,788.64 293.623,789.725 291.873,790.53C294.148,791.055 295.915,792.145 297.176,793.799C298.436,795.452 299.066,797.522 299.066,800.007C299.066,803.367 297.841,806.216 295.39,808.552C292.94,810.888 289.843,812.057 286.097,812.057C282.72,812.057 279.915,811.05 277.684,809.038C275.452,807.025 274.179,804.417 273.864,801.215ZM552.087,593.249C553.869,590.398 555.649,589.948 557.43,589.576C552.796,625.5 552.602,660.617 557.764,694.761C557.226,694.972 556.571,693.427 556.129,693.461C555.189,693.535 554.621,694.884 554.056,694.196C552.67,692.507 552.3,688.586 552.419,682.74C548.006,650.996 548.482,621.874 552.087,593.249ZM538.396,511.104C533.482,518.797 531.568,531.408 529.238,542.352C526.31,556.104 525.159,569.849 522.717,583.957C519.77,600.985 515.55,618.39 512.016,634.988C522.141,616.797 526.299,590.686 530.949,568.075C534.802,549.338 537.39,530.368 538.396,511.104ZM520.696,387.051C521.895,381.967 525.575,376.464 530.547,374.863C533.504,373.911 536.941,374.292 540.262,374.539C544.027,374.819 547.644,375.166 550.248,377.534C557.815,384.417 562.731,394.906 563.772,405.083C565.073,417.799 560.607,430.574 556.927,442.816C556.305,444.881 555.572,446.854 553.988,448.425C552.904,449.499 551.11,450.298 549.914,451.164C549.108,451.748 548.184,450.152 547.243,449.828C545.464,449.216 542.752,450.146 540.777,449.851C536.431,449.202 532.763,447.439 530.046,444.319C527.471,441.362 524.267,438.478 522.81,434.768C520.876,429.844 521.033,423.91 520.195,418.774C518.492,408.336 518.27,397.344 520.696,387.051ZM523.369,390.557C524.286,387.807 525.634,384.699 528.144,382.768C530.655,380.836 534.328,380.082 537.227,380.039C544.593,379.93 553.644,383.462 556.928,390.057C561.873,399.985 561.486,412.529 558.765,423.282C556.638,431.687 551.904,444.436 543.237,444.152C537.579,443.966 531.23,440.268 527.683,435.04C525.011,431.101 524.684,426.112 523.202,422.113C521.146,416.566 522.487,410.348 522.823,404.267C523.084,399.538 521.914,394.923 523.369,390.557ZM547.331,417.252L551.972,417.252L551.972,421.119L547.331,421.119L547.331,429.346L543.113,429.346L543.113,421.119L528.206,421.119L528.206,417.252L543.886,394.987L547.331,394.987L547.331,417.252ZM543.113,417.252L543.113,401.76L532.355,417.252L543.113,417.252ZM531.884,272.684C531.996,259.327 532.107,245.97 532.218,232.613C528.688,240.417 530.658,262.805 528.378,278.027C523.759,265.171 519.14,252.315 514.521,239.459C513.943,247.227 518.17,256.437 520.352,265.055C522.155,272.174 525.352,277.839 527.381,285.039C531.391,299.273 534.482,315.132 538.73,329.45C540.973,319.877 533.626,300.051 532.152,285.654C531.701,281.247 532.159,277.032 531.884,272.684ZM427.152,89.779C429.693,97.374 431.255,105.092 434.335,112.69C437.146,119.624 441.564,126.564 444.03,133.529C447.697,143.883 449.002,153.499 452.501,163.869C455.172,171.789 459.053,179.503 461.877,187.503C466.952,201.876 470.686,216.435 475.643,230.948C478.926,240.561 484.319,249.821 486.803,259.66C472.506,251.722 468.924,243.746 458.979,236.273C448.392,228.319 436.47,221.179 427.37,212.298C413.643,198.901 404.958,182.629 390.044,170.419C384.25,165.676 378.767,160.569 372.022,156.389C359.998,148.939 346.141,142.801 334.871,135.285C324.243,128.199 315.484,120.378 306.418,112.416C310.948,111.818 314.779,108.228 318.193,102.854C326.098,104.332 332.674,102.93 337.922,98.648C341.752,95.522 346.152,91.219 347.29,84.671C353.464,86.861 358.716,85.512 362.619,78.989C365.073,82.548 368.096,85.488 375.11,84.103C375.583,87.37 378.516,89.122 383.91,89.359C388.629,100.401 396.885,102.798 411.446,89.785C417.248,93.354 420.888,90.601 424.22,86.944C425.103,87.973 426.082,88.941 427.152,89.779ZM571.277,258.977L566.552,258.977L566.552,228.867C565.414,229.952 563.922,231.037 562.076,232.122C560.229,233.207 558.571,234.021 557.101,234.563L557.101,229.995C559.744,228.753 562.054,227.248 564.031,225.48C566.009,223.713 567.409,221.997 568.232,220.335L571.277,220.335L571.277,258.977ZM453.742,101.735C460.928,115.956 471.021,131.351 481.023,144.269C490.17,156.081 500.754,166.505 514.018,174.343C512.504,165.525 511.182,156.789 509.99,148.109C508.543,137.562 507.818,126.786 506.545,116.415C501.737,120.285 497.053,121.592 492.773,121.131C485.905,120.39 478.66,115.167 473.473,107.683C465.523,111.674 460.556,109.449 458.569,101.007C456.799,101.365 455.194,101.605 453.742,101.735ZM248.715,109.957C248.679,112.209 246.825,113.828 244.675,114.438C242.524,115.048 240.077,114.65 238.851,112.869C243.164,113.807 246.39,112.721 248.715,109.957ZM249.172,97.532C246.64,98.397 243.853,98.736 242.101,98.627C238.313,98.391 229.659,96.729 231.896,89.502C233.261,94.634 238.936,95.982 242.754,96.227C246.571,96.471 251.513,95.578 254.819,90.78C255.618,94.035 252.87,96.179 249.561,97.394C253.047,102.649 258.387,103.719 262.501,103.796C266.307,103.867 271.786,102.72 273.483,97.883C275.962,104.619 265.678,107.071 262.035,106.729C256.941,106.251 250.187,104.14 249.172,97.532ZM488.477,94.018C489.642,98.102 481.525,99.684 478.145,99.503C475.068,99.338 468.037,98.177 469.854,93.124C470.964,96.712 475.574,97.654 478.676,97.825C481.777,97.997 485.792,97.372 488.477,94.018ZM595.275,91.363L595.274,91.363L595.237,0.001L595.275,0.001L595.275,91.363ZM507.163,80.285C507.493,83.949 500.331,83.978 497.485,83.276C494.894,82.637 489.1,80.508 491.465,76.504C491.828,79.736 495.597,81.286 498.208,81.935C500.819,82.583 504.335,82.703 507.163,80.285ZM396.898,80.33C395.551,83.672 389.669,83.023 387.492,82.052C385.417,81.125 381.014,78.316 384.456,74.317C383.685,77.765 386.495,79.767 388.584,80.705C390.577,81.6 393.462,82.067 396.603,80.128C395.672,79.426 395.098,78.325 395.29,76.628C396.763,79.7 400.501,79.872 402.937,79.571C405.372,79.269 408.381,78.115 409.893,74.697C411.493,78.208 405.465,80.828 402.811,81.162C401.332,81.347 398.638,81.414 396.898,80.33ZM309.726,62.045L284.289,62.045C284.254,60.907 284.437,59.814 284.84,58.764C285.487,57.031 286.524,55.325 287.951,53.645C289.377,51.964 291.438,50.022 294.133,47.817C298.316,44.387 301.142,41.669 302.612,39.666C304.082,37.662 304.817,35.767 304.817,33.982C304.817,32.11 304.148,30.53 302.809,29.244C301.47,27.957 299.724,27.314 297.572,27.314C295.297,27.314 293.477,27.997 292.112,29.362C290.746,30.727 290.055,32.617 290.038,35.032L285.181,34.533C285.514,30.911 286.765,28.15 288.935,26.251C291.105,24.352 294.019,23.403 297.677,23.403C301.37,23.403 304.292,24.427 306.445,26.474C308.597,28.522 309.674,31.06 309.674,34.087C309.674,35.627 309.359,37.141 308.729,38.629C308.099,40.116 307.053,41.683 305.592,43.328C304.13,44.973 301.702,47.23 298.307,50.101C295.472,52.481 293.652,54.095 292.847,54.944C292.042,55.793 291.376,56.646 290.851,57.503L309.726,57.503L309.726,62.045Z"/>
</svg>
