<?xml version="1.0" encoding="UTF-8" standalone="no"?>
<!DOCTYPE svg PUBLIC "-//W3C//DTD SVG 1.1//EN" "http://www.w3.org/Graphics/SVG/1.1/DTD/svg11.dtd">
<svg width="100%" height="100%" viewBox="0 0 25 43" version="1.1" xmlns="http://www.w3.org/2000/svg" xmlns:xlink="http://www.w3.org/1999/xlink" xml:space="preserve" xmlns:serif="http://www.serif.com/" style="fill-rule:evenodd;clip-rule:evenodd;stroke-linejoin:round;stroke-miterlimit:2;">
    <g transform="matrix(1,0,0,1,-199,-352)">
        <path id="path12460" d="M202.656,380.702C202.755,380.813 202.759,380.96 202.746,381.113C203.098,382.677 203.53,384.427 204.043,386.368C204.54,388.244 205.108,390.279 205.751,392.476C208.616,393.286 211.622,393.893 214.727,394.282C217.429,394.62 220.202,394.792 223.02,394.784C221.096,392.577 219.77,389.781 218.798,386.887C217.672,383.535 217.026,380.07 216.479,377.238C216.104,375.303 215.73,373.274 215.372,371.334C213.397,360.625 211.959,352.828 208.737,352.464C207.749,352.353 207.115,353.183 206.725,355.685C206.274,358.581 206.217,363.48 206.425,371.228C206.439,371.771 205.743,372.079 205.349,371.704C203.403,369.856 202.159,369.299 201.745,370.267C201.146,371.666 201.407,375.045 202.656,380.702ZM202.229,384.422C202.083,385.075 201.907,385.719 201.694,386.351C201.219,387.76 200.559,389.104 199.626,390.348C200.417,390.678 201.23,390.993 202.065,391.293C202.809,391.56 203.553,391.812 204.3,392.045C203.745,390.128 203.25,388.344 202.812,386.692C202.606,385.91 202.411,385.153 202.229,384.422Z" style="fill:rgb(255,165,0);"/>
    </g>
</svg>
