<?xml version="1.0" encoding="UTF-8" standalone="no"?>
<!DOCTYPE svg PUBLIC "-//W3C//DTD SVG 1.1//EN" "http://www.w3.org/Graphics/SVG/1.1/DTD/svg11.dtd">
<svg width="100%" height="100%" viewBox="0 0 183 93" version="1.1" xmlns="http://www.w3.org/2000/svg" xmlns:xlink="http://www.w3.org/1999/xlink" xml:space="preserve" xmlns:serif="http://www.serif.com/" style="fill-rule:evenodd;clip-rule:evenodd;stroke-linejoin:round;stroke-miterlimit:2;">
    <g transform="matrix(1,0,0,1,-296,-320)">
        <g id="path12464" transform="matrix(0.264583,0,0,0.264583,76.7719,99.7521)">
            <path d="M1037.03,946.648C1037.31,946.321 1037.73,946.121 1038.17,945.937C1061.05,931.754 1086.9,918.984 1114.61,908.984C1140.04,899.808 1167.05,892.953 1194.78,889.466C1222.75,885.948 1251.38,886.059 1279.84,886.168C1307.84,886.275 1335.68,886.383 1362.45,883.024C1395.09,878.93 1426.56,874.466 1454.81,865.88C1478.9,858.559 1500.68,848.231 1518.9,832.547C1497.89,840.265 1476.4,846.672 1454.6,851.138C1428.81,856.422 1402.63,858.983 1376.39,857.779C1345.38,856.356 1314.04,852.311 1282.82,848.285C1199.39,837.522 1116.88,826.878 1041.73,867.231C997.346,891.06 943.943,931.955 901.155,996.282C869.341,1044.11 843.392,1104.91 831.371,1181.3C831.63,1181.29 831.892,1181.29 832.154,1181.3C845.721,1152.23 860.078,1124.93 875.79,1099.81C891.798,1074.22 909.224,1050.88 928.666,1030.21C944.779,1013.09 962.505,998.006 981.027,984.214C999.221,970.669 1018.13,958.396 1037.03,946.648Z" style="fill:rgb(0,0,255);"/>
        </g>
    </g>
</svg>
