<?xml version="1.0" encoding="UTF-8" standalone="no"?>
<!DOCTYPE svg PUBLIC "-//W3C//DTD SVG 1.1//EN" "http://www.w3.org/Graphics/SVG/1.1/DTD/svg11.dtd">
<svg width="100%" height="100%" viewBox="0 0 203 68" version="1.1" xmlns="http://www.w3.org/2000/svg" xmlns:xlink="http://www.w3.org/1999/xlink" xml:space="preserve" xmlns:serif="http://www.serif.com/" style="fill-rule:evenodd;clip-rule:evenodd;stroke-linejoin:round;stroke-miterlimit:2;">
    <g transform="matrix(1,0,0,1,-298,-344)">
        <g id="path12466" transform="matrix(0.264583,0,0,0.264583,76.7719,99.7521)">
            <path d="M990.941,1045.14C991.248,1044.78 991.73,1044.61 992.233,1044.46C1004.56,1037.96 1017.19,1032.03 1030.09,1026.63C1043.06,1021.2 1056.33,1016.29 1069.86,1011.89C1139.47,989.249 1217.23,1003.27 1299,1018.01C1331.94,1023.95 1365.55,1030.01 1399.59,1033.82C1435.39,1037.83 1472.6,1039.67 1509.31,1036.06C1540.89,1032.95 1572.14,1025.8 1601.85,1012.49C1564.32,1017.1 1527.17,1014.7 1490.16,1008.36C1448.17,1001.15 1406.38,988.851 1364.44,975.948C1346.46,970.416 1328.98,964.218 1311.64,958.066C1267.94,942.566 1225.09,927.362 1179.05,924.538C1154.54,923.035 1130.61,925.082 1107.44,929.698C1084.28,934.31 1061.86,941.486 1040.36,950.246C1021.25,962.109 1002.15,974.479 983.889,988.074C965.592,1001.7 948.083,1016.59 932.17,1033.51C912.961,1053.93 895.725,1077.02 879.877,1102.36C864.981,1126.17 851.307,1151.96 838.371,1179.38C859.428,1149.98 882.603,1124.49 907.656,1102.5C933.513,1079.81 961.361,1060.84 990.941,1045.14Z" style="fill:rgb(0,255,255);"/>
        </g>
    </g>
</svg>
