<?xml version="1.0" encoding="UTF-8" standalone="no"?>
<!DOCTYPE svg PUBLIC "-//W3C//DTD SVG 1.1//EN" "http://www.w3.org/Graphics/SVG/1.1/DTD/svg11.dtd">
<svg width="100%" height="100%" viewBox="0 0 40 20" version="1.1" xmlns="http://www.w3.org/2000/svg" xmlns:xlink="http://www.w3.org/1999/xlink" xml:space="preserve" xmlns:serif="http://www.serif.com/" style="fill-rule:evenodd;clip-rule:evenodd;stroke-linejoin:round;stroke-miterlimit:2;">
    <g transform="matrix(1,0,0,1,-217,-462)">
        <g id="path12476" transform="matrix(0.264583,0,0,0.264583,76.7719,99.7521)">
            <path d="M534.707,1429.41C534.709,1429.91 534.425,1430.34 534.092,1430.76C532.92,1433.43 532.221,1435.65 532.031,1437.43C531.881,1438.84 532.062,1439.87 532.598,1440.5C532.903,1440.86 533.724,1441.16 534.998,1441.38C536.539,1441.66 538.563,1441.74 540.997,1441.64C541.513,1441.35 542.049,1441.19 542.651,1441.54C552.197,1440.84 566.522,1437.56 582.72,1431.77C596.896,1426.7 612.462,1419.71 627.464,1410.84C639.124,1403.95 653.193,1395.75 664.569,1386.59C671.408,1381.09 677.289,1375.24 681.07,1369.13C670.49,1374.4 652.722,1374.49 637.19,1374.55C633.089,1374.57 629.148,1374.58 625.524,1374.7C616.9,1374.97 608.096,1374.73 599.147,1374.07C590.681,1373.45 581.996,1372.45 573.136,1371.14C568.054,1377.62 564.022,1383.8 560.292,1389.51C558.085,1392.89 555.98,1396.12 553.834,1399.14C549.042,1405.9 544.951,1411.91 541.645,1417.15C538.677,1421.86 536.343,1425.95 534.707,1429.41Z" style="fill:rgb(255,165,0);"/>
        </g>
    </g>
</svg>
