<?xml version="1.0" encoding="UTF-8" standalone="no"?>
<!DOCTYPE svg PUBLIC "-//W3C//DTD SVG 1.1//EN" "http://www.w3.org/Graphics/SVG/1.1/DTD/svg11.dtd">
<svg width="100%" height="100%" viewBox="0 0 199 60" version="1.1" xmlns="http://www.w3.org/2000/svg" xmlns:xlink="http://www.w3.org/1999/xlink" xml:space="preserve" xmlns:serif="http://www.serif.com/" style="fill-rule:evenodd;clip-rule:evenodd;stroke-linejoin:round;stroke-miterlimit:2;">
    <g transform="matrix(1,0,0,1,-299,-372)">
        <g id="path12468" transform="matrix(0.264583,0,0,0.264583,76.7719,99.7521)">
            <path d="M841.469,1184.1C896.779,1133.36 960.895,1123.71 1021.04,1114.67C1027.28,1113.74 1033.49,1112.8 1038.38,1112.04C1038.88,1111.56 1039.47,1111.61 1040.07,1111.78C1117.76,1099.73 1175.31,1136.5 1236.44,1175.56C1278.14,1202.21 1321.53,1229.94 1373.92,1243.63C1407.38,1252.38 1453.32,1256.09 1499.27,1249.79C1530.94,1245.45 1562.6,1236.35 1590.12,1220.85C1554.81,1229.97 1523.85,1234.01 1496.38,1234.09C1464.74,1234.18 1437.71,1229.02 1414,1220.28C1359.16,1200.07 1322.35,1160.91 1287.21,1123.54C1246.44,1080.18 1207.95,1039.25 1146.33,1034.2C1121.66,1032.17 1096.68,1032.13 1071.35,1034.46C1046.05,1036.79 1020.29,1041.5 994.001,1048.96C964.432,1064.58 936.617,1083.47 910.82,1106.12C885.585,1128.27 862.262,1154.03 841.095,1183.84C841.221,1183.93 841.347,1184.01 841.469,1184.1Z" style="fill:rgb(128,128,128);"/>
        </g>
    </g>
</svg>
