<?xml version="1.0" encoding="UTF-8" standalone="no"?>
<!DOCTYPE svg PUBLIC "-//W3C//DTD SVG 1.1//EN" "http://www.w3.org/Graphics/SVG/1.1/DTD/svg11.dtd">
<svg width="100%" height="100%" viewBox="0 0 108 100" version="1.1" xmlns="http://www.w3.org/2000/svg" xmlns:xlink="http://www.w3.org/1999/xlink" xml:space="preserve" xmlns:serif="http://www.serif.com/" style="fill-rule:evenodd;clip-rule:evenodd;stroke-linejoin:round;stroke-miterlimit:2;">
    <g transform="matrix(1,0,0,1,-207,-363)">
        <g id="path12478" transform="matrix(0.264583,0,0,0.264583,76.7719,99.7521)">
            <path d="M898.417,1310.66C898.285,1310.24 898.197,1309.83 898.286,1309.44C897.038,1303.73 886.83,1295.24 866.037,1287.36C848.926,1280.87 824.886,1275.06 793.069,1271.9C790.681,1271.66 790.797,1267.22 793.182,1267.1C806.963,1266.35 812.267,1254.85 817.427,1243.65C818.653,1241 819.872,1238.35 821.216,1235.8C823.918,1230.68 826.722,1225.64 829.329,1220.95C834.82,1211.09 839.425,1202.81 840.924,1197.5C841.216,1196.46 841.383,1195.46 841.435,1194.51L841.435,1194.52C841.478,1193.72 841.441,1193 841.33,1192.34C841.061,1191.81 840.959,1191.39 840.974,1191.04C840.885,1190.81 840.779,1190.57 840.663,1190.35C840.424,1189.88 840.136,1189.44 839.799,1189.05C839.779,1189.03 839.757,1189.01 839.737,1188.99C839.682,1188.93 839.633,1188.87 839.584,1188.82C839.227,1188.44 838.829,1188.11 838.398,1187.82C838.132,1187.64 837.848,1187.47 837.552,1187.32C837.231,1187.27 836.861,1187.11 836.423,1186.84C836.023,1186.69 835.598,1186.57 835.146,1186.46C834.928,1186.41 834.705,1186.37 834.481,1186.33C834.122,1186.42 833.661,1186.38 833.05,1186.15C832.492,1186.11 831.884,1186.1 831.226,1186.12C830.798,1186.13 830.367,1186.15 829.941,1186.19C829.615,1186.35 829.166,1186.42 828.539,1186.36C824.42,1186.99 819.096,1188.61 812.474,1191.3C805.603,1194.09 797.436,1197.99 787.88,1203.08C787.842,1203.1 787.805,1203.12 787.767,1203.15C772.738,1212.26 759.977,1223 747.218,1233.74C736.58,1242.69 725.941,1251.65 713.785,1259.82C704.056,1266.36 692.443,1270.35 680.131,1274.59C670.574,1277.87 660.586,1281.31 650.889,1286.16C649.811,1286.7 648.734,1287.24 647.66,1285.08C646.587,1282.92 647.663,1282.38 648.742,1281.85C658.717,1276.86 668.862,1273.37 678.568,1270.03C690.595,1265.89 701.941,1261.99 711.111,1255.83C722.884,1247.91 733.498,1238.98 744.11,1230.05C756.855,1219.32 769.6,1208.6 784.703,1199.36C787.151,1194.66 788.16,1190.47 787.749,1187.44C787.562,1186.05 787.068,1184.96 786.277,1184.27C785.484,1183.57 784.293,1183.2 782.703,1183.22C779.312,1183.28 774.522,1185.08 768.315,1189.25C767.702,1189.68 767.084,1190.11 766.457,1190.54C764.475,1191.89 761.75,1187.99 763.707,1186.59C763.721,1186.58 763.733,1186.57 763.745,1186.57L763.744,1186.56C763.775,1186.54 763.805,1186.52 763.836,1186.5C764.373,1186.12 764.904,1185.75 765.426,1185.4C794.574,1165.05 806.933,1146.8 809.54,1135.21C810.233,1132.13 810.204,1129.62 809.606,1127.78C809.118,1126.27 808.221,1125.25 807.03,1124.8L807.038,1124.8C804.796,1123.94 801.41,1124.79 797.39,1127.7C794.045,1130.12 789.923,1133.45 785.029,1137.67C780.132,1141.89 774.425,1147.04 767.914,1153.11C767.894,1153.13 767.877,1153.14 767.859,1153.16L767.856,1153.16C767.831,1153.18 767.807,1153.21 767.783,1153.23C766.022,1154.87 762.741,1151.48 764.431,1149.77C774.575,1139.52 782.982,1129.83 789.866,1120.82C797.529,1110.79 803.332,1101.59 807.567,1093.37C815.302,1078.36 817.778,1066.78 816.817,1059.56C816.484,1057.05 815.738,1055.17 814.672,1053.95C813.77,1052.92 812.572,1052.38 811.16,1052.37C808.68,1052.36 805.538,1053.8 802,1056.87C800.069,1058.54 797.946,1060.5 795.648,1062.71C793.351,1064.92 790.874,1067.39 788.238,1070.1C786.574,1071.81 783.196,1069.1 784.499,1067.11C789.99,1058.7 793.488,1050.44 796.559,1043.19C798.141,1039.45 799.617,1035.97 801.119,1032.98C807.436,1020.39 809.892,1011.06 809.713,1004.97C809.643,1002.54 809.156,1000.75 808.344,999.572C807.688,998.625 806.765,998.089 805.649,997.971C804.123,997.811 802.211,998.322 800.033,999.51C792.288,1003.74 783.776,1015.41 772.587,1030.75C769.859,1034.49 766.966,1038.45 763.515,1043.07C757.191,1051.54 750.002,1060.51 742.182,1069.92C734.588,1079.06 726.001,1089.05 716.883,1099.56C705.772,1112.37 693.477,1125.43 679.812,1138.12C666.846,1150.17 652.639,1161.9 637.032,1172.8C638.029,1173.77 638.83,1174.76 639.443,1175.79C641.942,1179.97 641.402,1184.31 638.604,1188.66C636.129,1192.51 631.789,1196.37 626.233,1200.11C614.357,1208.1 596.688,1215.73 580.021,1221.51C584.352,1224.5 588.959,1227.26 593.959,1229.71C600.43,1232.87 607.571,1235.51 615.624,1237.42C617.332,1237.82 618.034,1240 616.887,1241.33C609.004,1250.48 599.324,1258.24 587.851,1264.6C577.224,1270.49 565.08,1275.18 551.417,1278.66C553.734,1281.3 558.078,1282.9 563.591,1283.92C571.198,1285.32 581.001,1285.53 590.941,1285.66C592.871,1285.69 594.001,1288.03 592.815,1289.55C579.233,1307.01 564.098,1318.72 547.543,1325.18C531.589,1331.41 514.373,1332.74 496.013,1329.62C495.253,1332.88 495.261,1336.18 495.907,1339.48C496.652,1343.29 498.238,1347.13 500.471,1350.95C512.528,1353.98 524.546,1356.87 536.46,1359.45C548.253,1362.01 559.915,1364.25 571.359,1366C571.787,1365.81 572.311,1365.83 573.026,1366.26C581.937,1367.59 590.767,1368.61 599.486,1369.25C608.34,1369.9 616.985,1370.14 625.372,1369.88C628.977,1369.76 632.991,1369.75 637.17,1369.73C657.933,1369.64 683.039,1369.54 685.421,1357.41C685.55,1356.31 685.726,1355.25 687.686,1355.35C713.83,1350.37 740.31,1349.55 765,1348.8C775.991,1348.46 786.629,1348.14 796.856,1347.44C809.048,1346.62 820.157,1344.17 830.333,1341.92C833.884,1341.14 837.332,1340.38 840.07,1339.83C850.07,1337.83 858.946,1335.39 866.574,1332.71C874.252,1330.01 880.681,1327.07 885.738,1324.07C885.947,1323.68 886.362,1323.37 887.156,1323.21C890.962,1320.82 893.874,1318.42 895.819,1316.12C897.503,1314.11 898.387,1312.27 898.417,1310.66L898.417,1310.66Z" style="fill:rgb(255,165,0);"/>
        </g>
    </g>
</svg>
