<?xml version="1.0" encoding="UTF-8" standalone="no"?>
<!DOCTYPE svg PUBLIC "-//W3C//DTD SVG 1.1//EN" "http://www.w3.org/Graphics/SVG/1.1/DTD/svg11.dtd">
<svg width="100%" height="100%" viewBox="0 0 132 93" version="1.1" xmlns="http://www.w3.org/2000/svg" xmlns:xlink="http://www.w3.org/1999/xlink" xml:space="preserve" xmlns:serif="http://www.serif.com/" style="fill-rule:evenodd;clip-rule:evenodd;stroke-linejoin:round;stroke-miterlimit:2;">
    <g transform="matrix(1,0,0,1,-119,-372)">
        <g id="path12472" transform="matrix(0.264583,0,0,0.264583,76.7719,99.7521)">
            <path d="M497.345,1355.06C496.819,1354.82 496.433,1354.41 496.428,1353.56C493.87,1349.22 492.045,1344.82 491.181,1340.4C490.245,1335.62 490.425,1330.84 492,1326.12C492.327,1325.13 493.708,1324.31 494.731,1324.51C513.016,1327.95 530.079,1326.84 545.791,1320.7C560.305,1315.04 573.722,1305.06 585.945,1290.4C577.566,1290.24 569.476,1289.89 562.725,1288.65C554.06,1287.05 547.609,1283.94 545.455,1277.9C545.007,1276.65 545.871,1275.06 547.169,1274.75C561.718,1271.29 574.503,1266.5 585.516,1260.4C595.242,1255.01 603.613,1248.58 610.623,1241.11C603.771,1239.23 597.563,1236.83 591.849,1234.04C585.077,1230.73 579.002,1226.86 573.368,1222.66C571.85,1221.53 572.258,1219.04 574.055,1218.44C591.639,1212.62 611.037,1204.55 623.559,1196.12C628.583,1192.74 632.45,1189.33 634.555,1186.06C636.335,1183.29 636.749,1180.65 635.319,1178.26C634.723,1177.26 633.815,1176.26 632.568,1175.27C632.19,1175.18 631.789,1174.92 631.349,1174.38C630.95,1174.1 630.544,1173.84 630.13,1173.59C629.596,1173.27 629.002,1172.94 628.352,1172.61C626.638,1171.73 624.646,1170.85 622.365,1170C620.084,1169.14 617.438,1168.28 614.41,1167.41C612.645,1166.91 612.088,1164.55 613.441,1163.32C620.519,1156.84 627.358,1150.39 633.222,1144.1C639.079,1137.81 644.059,1131.6 647.498,1125.52C650.476,1120.26 654.508,1110.59 655.62,1103.86C655.927,1101.99 656.004,1100.43 655.752,1099.4C655.67,1099.06 655.58,1098.86 655.484,1098.85C654.991,1098.79 654.189,1099.03 653.026,1099.62C653.024,1099.62 652.859,1099.69 652.857,1099.7C637.628,1106.05 622.102,1110.83 606.57,1114.14C590.688,1117.52 574.81,1119.38 559.239,1119.81C558.537,1120.25 557.992,1120.15 557.509,1119.85C545.037,1120.11 532.755,1119.46 520.82,1117.97C508.648,1116.44 496.81,1114.03 485.478,1110.78C484.616,1110.91 484.123,1110.69 483.807,1110.3C479.71,1109.09 475.749,1107.8 471.929,1106.42C468.12,1105.06 464.341,1103.56 460.6,1101.96C460.213,1101.95 459.759,1101.78 459.198,1101.35C458.903,1101.23 458.938,1101.24 458.803,1101.18C458.408,1101.01 459.149,1101.34 458.105,1100.87C441.75,1093.59 425.538,1085.6 409.506,1077.69C369.353,1057.89 330.31,1038.64 294.697,1033.32C294.136,1033.53 293.577,1033.58 293.012,1033.07C286.745,1032.21 280.568,1031.79 274.497,1031.89C268.143,1031.99 261.922,1032.66 255.854,1033.98C238.525,1037.76 220.352,1045.47 203.268,1056.32C187.36,1066.42 172.42,1079.24 159.997,1094.11C163.296,1097.51 166.525,1100.93 169.827,1104.43C181.156,1116.45 193.343,1129.38 210.339,1143.48C210.372,1143.51 210.758,1143.92 210.782,1143.96C212.893,1147 213.862,1150.05 213.916,1153.1C213.958,1155.53 213.411,1157.93 212.397,1160.29C227.043,1174.1 242.84,1179.03 257.461,1183.59C268.544,1187.04 278.978,1190.3 288.054,1197C288.945,1197.66 288.2,1197.1 289.019,1197.71L289.01,1197.71C289.024,1197.72 289.039,1197.73 289.052,1197.74C289.696,1197.78 290.068,1198.21 290.381,1198.73C321.792,1222.5 344.323,1251.14 365.777,1278.42C393.671,1313.89 419.732,1347.02 460.991,1363.46C461.743,1363.76 464.271,1364.78 466.629,1365.74C483.249,1372.46 499.279,1378.94 519.289,1378.86C515.592,1375.74 512.049,1372.51 508.785,1369.18C504.302,1364.6 500.38,1359.87 497.347,1355.06L497.345,1355.06Z" style="fill:rgb(0,128,0);"/>
            <clipPath id="_clip1">
                <path d="M497.345,1355.06C496.819,1354.82 496.433,1354.41 496.428,1353.56C493.87,1349.22 492.045,1344.82 491.181,1340.4C490.245,1335.62 490.425,1330.84 492,1326.12C492.327,1325.13 493.708,1324.31 494.731,1324.51C513.016,1327.95 530.079,1326.84 545.791,1320.7C560.305,1315.04 573.722,1305.06 585.945,1290.4C577.566,1290.24 569.476,1289.89 562.725,1288.65C554.06,1287.05 547.609,1283.94 545.455,1277.9C545.007,1276.65 545.871,1275.06 547.169,1274.75C561.718,1271.29 574.503,1266.5 585.516,1260.4C595.242,1255.01 603.613,1248.58 610.623,1241.11C603.771,1239.23 597.563,1236.83 591.849,1234.04C585.077,1230.73 579.002,1226.86 573.368,1222.66C571.85,1221.53 572.258,1219.04 574.055,1218.44C591.639,1212.62 611.037,1204.55 623.559,1196.12C628.583,1192.74 632.45,1189.33 634.555,1186.06C636.335,1183.29 636.749,1180.65 635.319,1178.26C634.723,1177.26 633.815,1176.26 632.568,1175.27C632.19,1175.18 631.789,1174.92 631.349,1174.38C630.95,1174.1 630.544,1173.84 630.13,1173.59C629.596,1173.27 629.002,1172.94 628.352,1172.61C626.638,1171.73 624.646,1170.85 622.365,1170C620.084,1169.14 617.438,1168.28 614.41,1167.41C612.645,1166.91 612.088,1164.55 613.441,1163.32C620.519,1156.84 627.358,1150.39 633.222,1144.1C639.079,1137.81 644.059,1131.6 647.498,1125.52C650.476,1120.26 654.508,1110.59 655.62,1103.86C655.927,1101.99 656.004,1100.43 655.752,1099.4C655.67,1099.06 655.58,1098.86 655.484,1098.85C654.991,1098.79 654.189,1099.03 653.026,1099.62C653.024,1099.62 652.859,1099.69 652.857,1099.7C637.628,1106.05 622.102,1110.83 606.57,1114.14C590.688,1117.52 574.81,1119.38 559.239,1119.81C558.537,1120.25 557.992,1120.15 557.509,1119.85C545.037,1120.11 532.755,1119.46 520.82,1117.97C508.648,1116.44 496.81,1114.03 485.478,1110.78C484.616,1110.91 484.123,1110.69 483.807,1110.3C479.71,1109.09 475.749,1107.8 471.929,1106.42C468.12,1105.06 464.341,1103.56 460.6,1101.96C460.213,1101.95 459.759,1101.78 459.198,1101.35C458.903,1101.23 458.938,1101.24 458.803,1101.18C458.408,1101.01 459.149,1101.34 458.105,1100.87C441.75,1093.59 425.538,1085.6 409.506,1077.69C369.353,1057.89 330.31,1038.64 294.697,1033.32C294.136,1033.53 293.577,1033.58 293.012,1033.07C286.745,1032.21 280.568,1031.79 274.497,1031.89C268.143,1031.99 261.922,1032.66 255.854,1033.98C238.525,1037.76 220.352,1045.47 203.268,1056.32C187.36,1066.42 172.42,1079.24 159.997,1094.11C163.296,1097.51 166.525,1100.93 169.827,1104.43C181.156,1116.45 193.343,1129.38 210.339,1143.48C210.372,1143.51 210.758,1143.92 210.782,1143.96C212.893,1147 213.862,1150.05 213.916,1153.1C213.958,1155.53 213.411,1157.93 212.397,1160.29C227.043,1174.1 242.84,1179.03 257.461,1183.59C268.544,1187.04 278.978,1190.3 288.054,1197C288.945,1197.66 288.2,1197.1 289.019,1197.71L289.01,1197.71C289.024,1197.72 289.039,1197.73 289.052,1197.74C289.696,1197.78 290.068,1198.21 290.381,1198.73C321.792,1222.5 344.323,1251.14 365.777,1278.42C393.671,1313.89 419.732,1347.02 460.991,1363.46C461.743,1363.76 464.271,1364.78 466.629,1365.74C483.249,1372.46 499.279,1378.94 519.289,1378.86C515.592,1375.74 512.049,1372.51 508.785,1369.18C504.302,1364.6 500.38,1359.87 497.347,1355.06L497.345,1355.06Z"/>
            </clipPath>
            <g clip-path="url(#_clip1)">
                <g id="path12484" transform="matrix(3.77953,0,0,3.77953,-290.161,-377.016)">
                    <path d="M135.273,378.582C136.993,378.582 138.472,379.682 139.639,381.63C140.766,383.51 141.614,386.212 142.108,389.48C143.073,395.856 142.272,402.138 139.124,402.614C138.991,402.634 138.856,402.644 138.719,402.644C136.985,402.644 135.239,401.25 133.824,399.002C132.48,396.867 131.403,393.931 130.915,390.708C129.954,384.349 131.685,379.088 134.796,378.618C134.953,378.595 135.113,378.582 135.273,378.582ZM131.918,387.692C137.063,388.152 138,395.844 134.726,398.039C134.784,398.136 134.842,398.231 134.901,398.324C136.083,400.203 137.451,401.369 138.719,401.369C138.795,401.369 138.867,401.363 138.935,401.353C141.265,401.001 141.714,395.398 140.848,389.669C140.378,386.56 139.587,384.017 138.548,382.282C137.619,380.733 136.507,379.858 135.273,379.858C135.174,379.858 135.078,379.866 134.985,379.879C132.995,380.18 131.793,383.395 131.918,387.692Z"/>
                </g>
            </g>
        </g>
    </g>
</svg>
