<?xml version="1.0" encoding="UTF-8" standalone="no"?>
<!DOCTYPE svg PUBLIC "-//W3C//DTD SVG 1.1//EN" "http://www.w3.org/Graphics/SVG/1.1/DTD/svg11.dtd">
<svg width="100%" height="100%" viewBox="0 0 103 103" version="1.1" xmlns="http://www.w3.org/2000/svg" xmlns:xlink="http://www.w3.org/1999/xlink" xml:space="preserve" xmlns:serif="http://www.serif.com/" style="fill-rule:evenodd;clip-rule:evenodd;stroke-linejoin:round;stroke-miterlimit:2;">
    <g>
        <path d="M11.034,37.463L5.054,37.463C3.096,37.463 1.509,39.049 1.509,41.008L1.509,56.404C1.509,58.361 3.096,59.948 5.054,59.948L11.034,59.948L11.034,37.463Z" style="fill:rgb(78,86,96);fill-rule:nonzero;"/>
        <path d="M40.943,27.8L58.969,14.085C63.438,10.685 69.868,13.872 69.868,19.488L69.868,77.251C69.868,82.867 63.438,86.054 58.969,82.654L40.943,68.939C38.348,66.964 35.176,65.895 31.915,65.895L15.247,65.895C12.92,65.895 11.034,64.009 11.034,61.682L11.034,35.057C11.034,32.73 12.92,30.844 15.247,30.844L31.915,30.844C35.176,30.844 38.348,29.775 40.943,27.8Z" style="fill:rgb(163,222,254);fill-rule:nonzero;"/>
        <path d="M40.943,68.939L43.897,71.187C36.623,59.675 34.132,42.55 34.301,30.651C33.516,30.778 32.718,30.844 31.915,30.844L15.247,30.844C12.92,30.844 11.034,32.73 11.034,35.057L11.034,61.682C11.034,64.009 12.92,65.895 15.247,65.895L31.915,65.895C35.176,65.895 38.348,66.964 40.943,68.939Z" style="fill:rgb(122,206,250);fill-rule:nonzero;"/>
        <path d="M58.97,14.085L57.356,15.313L57.356,81.427L58.97,82.654C63.439,86.054 69.869,82.867 69.869,77.251L69.869,19.488C69.868,13.872 63.438,10.685 58.97,14.085Z" style="fill:rgb(142,175,226);fill-rule:nonzero;"/>
        <path d="M89.83,72.796C89.089,72.796 88.347,72.513 87.782,71.947C86.65,70.816 86.65,68.981 87.782,67.849C92.895,62.736 95.711,55.938 95.711,48.706C95.711,41.474 92.895,34.675 87.782,29.562C86.65,28.43 86.65,26.596 87.782,25.464C88.913,24.332 90.748,24.332 91.88,25.464C104.695,38.279 104.695,59.132 91.88,71.947C91.314,72.513 90.572,72.796 89.83,72.796Z" style="fill:rgb(142,226,207);fill-rule:nonzero;"/>
        <path d="M95.351,53.135C94.444,58.682 91.836,63.796 87.782,67.849C86.65,68.981 86.65,70.816 87.782,71.947C88.347,72.513 89.089,72.796 89.83,72.796C90.572,72.796 91.314,72.513 91.88,71.947C95.96,67.867 98.739,62.971 100.221,57.78C97.931,57.024 96.324,55.179 95.351,53.135Z" style="fill:rgb(111,206,145);fill-rule:nonzero;"/>
        <path d="M80.202,63.167C79.46,63.167 78.719,62.884 78.153,62.318C77.021,61.187 77.021,59.352 78.153,58.22C83.399,52.974 83.399,44.437 78.153,39.191C77.021,38.059 77.021,36.224 78.153,35.093C79.284,33.961 81.119,33.961 82.251,35.093C89.757,42.599 89.756,54.812 82.251,62.318C81.685,62.884 80.943,63.167 80.202,63.167Z" style="fill:rgb(142,226,207);fill-rule:nonzero;"/>
        <path d="M81.979,50.388C81.622,53.253 80.348,56.025 78.153,58.22C77.021,59.352 77.021,61.187 78.153,62.318C78.719,62.884 79.461,63.167 80.202,63.167C80.943,63.167 81.685,62.884 82.251,62.318C85.031,59.538 86.778,56.113 87.499,52.52C85.178,52.616 83.348,51.731 81.979,50.388Z" style="fill:rgb(111,206,145);fill-rule:nonzero;"/>
        <path d="M99.775,87.981L25.286,13.49C23.797,12.001 21.777,11.165 19.671,11.165L12.793,11.165C10.594,11.165 9.493,13.823 11.047,15.378L85.538,89.867C87.027,91.356 89.046,92.193 91.152,92.193L98.031,92.193C100.229,92.193 101.33,89.535 99.775,87.981Z" style="fill:rgb(232,137,158);fill-rule:nonzero;"/>
        <path d="M49.889,38.095L25.286,13.49C23.797,12.001 21.777,11.165 19.671,11.165L12.793,11.165C10.594,11.165 9.493,13.823 11.047,15.378L51.956,56.286C49.347,50.919 48.106,42.825 49.889,38.095Z" style="fill:rgb(222,92,110);fill-rule:nonzero;"/>
        <path d="M23.175,57.974C23.175,56.176 21.345,54.719 19.088,54.719C16.83,54.719 15,56.176 15,57.974C15,59.772 16.83,61.229 19.088,61.229C21.345,61.229 23.175,59.772 23.175,57.974Z" style="fill:white;fill-rule:nonzero;"/>
        <path d="M45.333,57.974C45.333,56.176 43.503,54.719 41.245,54.719C38.987,54.719 37.157,56.176 37.157,57.974C37.157,59.772 38.987,61.229 41.245,61.229C43.503,61.229 45.333,59.772 45.333,57.974Z" style="fill:white;fill-rule:nonzero;"/>
        <path d="M33.462,55.472C33.462,53.435 31.986,51.784 30.166,51.784C28.346,51.784 26.871,53.435 26.871,55.472C26.871,57.509 28.346,59.161 30.166,59.161C31.986,59.161 33.462,57.509 33.462,55.472Z" style="fill:rgb(78,86,96);fill-rule:nonzero;"/>
        <path d="M34.971,55.472C34.971,52.607 32.815,50.276 30.166,50.276C27.517,50.276 25.362,52.607 25.362,55.472C25.362,58.338 27.517,60.669 30.166,60.669C32.815,60.669 34.971,58.338 34.971,55.472ZM28.379,55.472C28.379,54.271 29.181,53.293 30.166,53.293C31.152,53.293 31.953,54.271 31.953,55.472C31.953,56.675 31.152,57.652 30.166,57.652C29.181,57.652 28.379,56.675 28.379,55.472ZM21.279,54.13L21.279,52.375C21.279,51.542 20.604,50.867 19.771,50.867C18.938,50.867 18.262,51.542 18.262,52.375L18.262,54.13C18.262,54.964 18.938,55.639 19.771,55.639C20.604,55.639 21.279,54.964 21.279,54.13ZM87.658,73.73C88.314,74.103 89.056,74.305 89.83,74.305C91.007,74.305 92.114,73.847 92.946,73.014C99.43,66.531 103,57.898 103,48.706C103,39.513 99.43,30.881 92.946,24.397C91.228,22.679 88.433,22.68 86.715,24.397C84.997,26.115 84.997,28.911 86.715,30.629C91.543,35.457 94.203,41.877 94.203,48.706C94.203,55.534 91.543,61.954 86.715,66.783C85.282,68.215 85.049,70.394 86.005,72.076L78.029,64.101C78.685,64.473 79.427,64.676 80.202,64.676C81.379,64.676 82.485,64.218 83.317,63.385C91.411,55.291 91.411,42.12 83.317,34.026C81.599,32.308 78.804,32.309 77.086,34.026C75.367,35.744 75.367,38.539 77.086,40.257C79.338,42.51 80.579,45.51 80.579,48.706C80.579,51.901 79.338,54.901 77.086,57.154C75.653,58.587 75.42,60.767 76.376,62.448L71.377,57.449L71.377,23.719C71.377,22.886 70.702,22.21 69.868,22.21C69.034,22.21 68.359,22.886 68.359,23.719L68.359,54.431L58.865,44.937L58.865,16.061L59.883,15.286C61.184,14.296 62.76,13.965 64.321,14.352C65.888,14.741 67.218,15.825 67.878,17.252C68.229,18.008 69.125,18.337 69.881,17.987C70.638,17.637 70.967,16.74 70.617,15.984C69.576,13.736 67.494,12.03 65.049,11.423C62.618,10.82 60.07,11.352 58.056,12.884L40.312,26.384L26.352,12.424C24.567,10.639 22.194,9.656 19.671,9.656L12.793,9.656C11.178,9.656 9.736,10.62 9.119,12.111C8.501,13.602 8.839,15.303 9.981,16.444L22.872,29.336L15.247,29.336C12.092,29.336 9.525,31.902 9.525,35.057L9.525,35.954L5.054,35.954C2.267,35.954 0,38.22 0,41.008L0,56.404C0,59.19 2.267,61.457 5.054,61.457L9.525,61.457L9.525,61.681C9.525,64.323 11.314,66.608 13.878,67.239C13.999,67.268 14.12,67.283 14.239,67.283C14.917,67.283 15.534,66.821 15.703,66.133C15.902,65.324 15.407,64.507 14.598,64.308C13.387,64.01 12.543,62.931 12.543,61.681L12.543,35.057C12.543,33.567 13.756,32.353 15.247,32.353L25.889,32.353L55.848,62.311L55.848,78.383L41.857,67.738C39.016,65.577 35.485,64.386 31.915,64.386L21.28,64.386C20.446,64.386 19.771,65.061 19.771,65.895C19.771,66.729 20.446,67.404 21.28,67.404L31.915,67.404C34.829,67.404 37.71,68.376 40.03,70.14L58.056,83.855C59.537,84.982 61.295,85.557 63.071,85.557C64.325,85.557 65.588,85.269 66.766,84.686C69.439,83.361 71.16,80.765 71.357,77.821L84.47,90.934C86.255,92.718 88.627,93.701 91.151,93.701L98.03,93.701C99.644,93.701 101.086,92.738 101.703,91.246C102.321,89.756 101.983,88.054 100.841,86.913L87.658,73.73ZM88.849,68.916C94.247,63.518 97.22,56.34 97.22,48.706C97.22,41.071 94.247,33.894 88.849,28.495C88.307,27.953 88.307,27.072 88.848,26.531C89.119,26.26 89.475,26.125 89.83,26.125C90.186,26.125 90.542,26.26 90.813,26.53C96.726,32.444 99.982,40.319 99.982,48.706C99.982,57.093 96.726,64.968 90.813,70.881C90.55,71.143 90.202,71.287 89.83,71.287C89.459,71.287 89.111,71.143 88.849,70.881C88.307,70.339 88.307,69.458 88.849,68.916ZM79.219,59.288C82.042,56.465 83.596,52.707 83.596,48.706C83.596,44.704 82.042,40.946 79.219,38.124C78.957,37.861 78.813,37.512 78.813,37.141C78.813,36.77 78.958,36.422 79.219,36.159C79.49,35.889 79.846,35.753 80.202,35.753C80.558,35.753 80.913,35.889 81.184,36.159C88.102,43.078 88.102,54.334 81.184,61.251C80.921,61.514 80.573,61.658 80.202,61.658C79.831,61.658 79.482,61.513 79.219,61.251C78.678,60.71 78.679,59.829 79.219,59.288ZM9.525,43.277L6.808,43.277C5.974,43.277 5.299,43.952 5.299,44.786C5.299,45.62 5.974,46.295 6.808,46.295L9.525,46.295L9.525,51.117L6.808,51.117C5.974,51.117 5.299,51.792 5.299,52.625C5.299,53.459 5.974,54.134 6.808,54.134L9.525,54.134L9.525,58.44L5.054,58.44C3.931,58.44 3.018,57.527 3.018,56.404L3.018,41.008C3.018,39.885 3.931,38.972 5.054,38.972L9.525,38.972L9.525,43.277ZM55.847,18.356L55.847,41.919L42.466,28.537L55.847,18.356ZM68.36,77.252C68.36,79.303 67.263,81.071 65.425,81.982C63.588,82.893 61.515,82.695 59.883,81.453L58.865,80.679L58.865,65.329L68.359,74.823L68.359,77.252L68.36,77.252ZM98.916,90.092C98.842,90.27 98.608,90.684 98.03,90.684L91.151,90.684C89.434,90.684 87.819,90.015 86.604,88.8L70.937,73.132C70.936,73.132 70.935,73.131 70.934,73.131L58.425,60.62C58.424,60.62 58.423,60.619 58.422,60.619L12.114,14.311C11.706,13.902 11.833,13.444 11.907,13.266C11.981,13.088 12.214,12.674 12.793,12.674L19.671,12.674C21.389,12.674 23.004,13.343 24.218,14.557L98.708,89.047C99.116,89.456 98.99,89.914 98.916,90.092ZM42.07,54.13L42.07,52.375C42.07,51.542 41.395,50.867 40.561,50.867C39.728,50.867 39.053,51.542 39.053,52.375L39.053,54.13C39.053,54.964 39.728,55.639 40.561,55.639C41.395,55.639 42.07,54.964 42.07,54.13Z" style="fill-rule:nonzero;"/>
    </g>
</svg>
