<?xml version="1.0" encoding="UTF-8" standalone="no"?>
<!DOCTYPE svg PUBLIC "-//W3C//DTD SVG 1.1//EN" "http://www.w3.org/Graphics/SVG/1.1/DTD/svg11.dtd">
<svg width="100%" height="100%" viewBox="0 0 101 101" version="1.1" xmlns="http://www.w3.org/2000/svg" xmlns:xlink="http://www.w3.org/1999/xlink" xml:space="preserve" xmlns:serif="http://www.serif.com/" style="fill-rule:evenodd;clip-rule:evenodd;stroke-linejoin:round;stroke-miterlimit:2;">
    <path d="M10.82,39.974L4.956,39.974C3.036,39.974 1.479,41.53 1.479,43.449L1.479,58.547C1.479,60.467 3.036,62.023 4.956,62.023L10.82,62.023L10.82,39.974Z" style="fill:rgb(78,86,96);fill-rule:nonzero;"/>
    <path d="M40.149,30.498L57.825,17.05C62.208,13.715 68.512,16.841 68.512,22.347L68.512,78.99C68.512,84.497 62.208,87.622 57.825,84.288L40.149,70.839C37.603,68.903 34.493,67.854 31.295,67.854L14.951,67.854C12.669,67.854 10.82,66.005 10.82,63.722L10.82,37.615C10.82,35.334 12.669,33.484 14.951,33.484L31.295,33.484C34.493,33.484 37.604,32.436 40.149,30.498Z" style="fill:rgb(163,222,254);fill-rule:nonzero;"/>
    <path d="M40.149,70.839L43.045,73.043C35.912,61.755 33.47,44.963 33.636,33.295C32.865,33.42 32.083,33.484 31.295,33.484L14.951,33.484C12.669,33.484 10.82,35.334 10.82,37.615L10.82,63.723C10.82,66.005 12.669,67.854 14.951,67.854L31.295,67.854C34.493,67.854 37.604,68.903 40.149,70.839Z" style="fill:rgb(122,206,250);fill-rule:nonzero;"/>
    <path d="M25.144,53.114C25.144,50.881 22.871,49.071 20.067,49.071C17.263,49.071 14.99,50.881 14.99,53.114C14.99,55.347 17.263,57.157 20.067,57.157C22.871,57.157 25.144,55.347 25.144,53.114Z" style="fill:white;fill-rule:nonzero;"/>
    <path d="M52.66,53.114C52.66,50.881 50.388,49.071 47.584,49.071C44.78,49.071 42.507,50.881 42.507,53.114C42.507,55.347 44.78,57.157 47.584,57.157C50.388,57.157 52.66,55.347 52.66,53.114Z" style="fill:white;fill-rule:nonzero;"/>
    <path d="M37.918,50.008C37.918,47.478 36.086,47.24 33.825,47.24C31.565,47.24 29.732,47.479 29.732,50.008C29.732,52.537 31.565,54.588 33.825,54.588C36.086,54.588 37.918,52.537 37.918,50.008Z" style="fill:rgb(78,86,96);fill-rule:nonzero;"/>
    <path d="M57.825,17.05L56.243,18.253L56.243,83.084L57.825,84.288C62.207,87.622 68.512,84.497 68.512,78.99L68.512,22.347C68.512,16.841 62.207,13.716 57.825,17.05Z" style="fill:rgb(142,175,226);fill-rule:nonzero;"/>
    <path d="M88.087,74.621C87.36,74.621 86.633,74.344 86.078,73.789C84.968,72.679 84.968,70.88 86.078,69.77C91.092,64.756 93.854,58.089 93.854,50.999C93.854,43.907 91.092,37.24 86.078,32.226C84.968,31.116 84.968,29.317 86.078,28.207C87.188,27.099 88.986,27.099 90.097,28.207C102.663,40.775 102.663,61.222 90.097,73.789C89.541,74.344 88.814,74.621 88.087,74.621Z" style="fill:rgb(238,168,73);fill-rule:nonzero;"/>
    <path d="M93.5,55.341C92.61,60.782 90.053,65.796 86.078,69.77C84.968,70.88 84.968,72.679 86.078,73.789C86.633,74.344 87.36,74.621 88.087,74.621C88.814,74.621 89.541,74.344 90.097,73.789C94.097,69.787 96.823,64.987 98.276,59.896C96.03,59.154 94.453,57.346 93.5,55.341Z" style="fill:rgb(233,144,27);fill-rule:nonzero;"/>
    <path d="M78.645,65.179C77.918,65.179 77.191,64.902 76.636,64.347C75.526,63.238 75.526,61.438 76.636,60.329C81.78,55.184 81.78,46.813 76.636,41.668C75.526,40.558 75.526,38.759 76.636,37.649C77.746,36.54 79.544,36.541 80.654,37.649C88.014,45.011 88.014,56.987 80.654,64.347C80.099,64.902 79.372,65.179 78.645,65.179Z" style="fill:rgb(247,239,135);fill-rule:nonzero;"/>
    <path d="M80.388,52.648C80.037,55.458 78.788,58.176 76.636,60.329C75.526,61.438 75.526,63.238 76.636,64.347C77.191,64.902 77.918,65.179 78.645,65.179C79.372,65.179 80.099,64.902 80.654,64.347C83.379,61.621 85.093,58.262 85.8,54.739C83.524,54.832 81.73,53.965 80.388,52.648Z" style="fill:rgb(239,209,118);fill-rule:nonzero;"/>
    <path d="M81.7,36.603C80.015,34.919 77.274,34.919 75.59,36.604C73.905,38.288 73.905,41.03 75.59,42.714C80.158,47.282 80.158,54.715 75.59,59.282C74.774,60.099 74.324,61.184 74.324,62.338C74.324,63.492 74.774,64.577 75.59,65.394C76.407,66.21 77.492,66.659 78.645,66.659C79.799,66.659 80.884,66.21 81.7,65.393C89.637,57.456 89.637,44.541 81.7,36.603ZM79.608,63.301C79.351,63.558 79.009,63.7 78.645,63.7C78.281,63.7 77.939,63.558 77.682,63.301C77.425,63.043 77.283,62.702 77.283,62.338C77.283,61.974 77.425,61.633 77.682,61.375C83.403,55.653 83.403,46.344 77.682,40.622C77.151,40.091 77.151,39.227 77.682,38.696C77.948,38.43 78.296,38.297 78.645,38.297C78.993,38.297 79.342,38.43 79.608,38.696C86.392,45.479 86.392,56.518 79.608,63.301ZM20.916,49.82C21.732,49.82 22.395,49.158 22.395,48.34L22.395,46.162C22.395,45.344 21.732,44.682 20.916,44.682C20.098,44.682 19.436,45.344 19.436,46.162L19.436,48.34C19.436,49.158 20.098,49.82 20.916,49.82ZM65.469,15.058C62.679,13.675 59.407,13.987 56.929,15.872L39.253,29.322C36.979,31.052 34.152,32.004 31.295,32.004L23.445,32.004C22.628,32.004 21.966,32.667 21.966,33.484C21.966,34.301 22.628,34.963 23.445,34.963L31.295,34.963C34.796,34.963 38.258,33.796 41.044,31.677L54.764,21.238L54.764,80.099L41.044,69.662C38.258,67.542 34.796,66.375 31.295,66.375L14.951,66.375C13.489,66.375 12.299,65.185 12.299,63.722L12.299,37.615C12.299,36.153 13.489,34.963 14.951,34.963L16.368,34.963C17.185,34.963 17.847,34.301 17.847,33.484C17.847,32.667 17.185,32.004 16.368,32.004L14.951,32.004C11.857,32.004 9.34,34.522 9.34,37.615L9.34,38.495L4.956,38.495C2.223,38.495 0,40.717 0,43.449L0,58.547C0,61.28 2.223,63.503 4.956,63.503L9.34,63.503L9.34,63.722C9.34,66.817 11.857,69.334 14.951,69.334L31.295,69.334C34.152,69.334 36.979,70.286 39.253,72.017L56.929,85.466C58.381,86.57 60.105,87.135 61.846,87.135C63.076,87.135 64.314,86.853 65.469,86.28C68.259,84.897 69.992,82.104 69.992,78.99L69.992,77.074C69.992,76.256 69.329,75.595 68.512,75.595C67.695,75.595 67.033,76.256 67.033,77.074L67.033,78.99C67.033,81.001 65.957,82.735 64.155,83.629C62.352,84.522 60.321,84.328 58.721,83.111L57.723,82.351L57.723,18.987L58.721,18.227C60.322,17.01 62.353,16.815 64.155,17.709C65.957,18.602 67.033,20.336 67.033,22.347L67.033,70.096C67.033,70.913 67.695,71.575 68.512,71.575C69.329,71.575 69.992,70.913 69.992,70.096L69.992,22.347C69.992,19.234 68.259,16.441 65.469,15.058ZM9.34,45.676L6.675,45.676C5.858,45.676 5.196,46.338 5.196,47.155C5.196,47.972 5.858,48.635 6.675,48.635L9.34,48.635L9.34,53.363L6.675,53.363C5.858,53.363 5.196,54.025 5.196,54.842C5.196,55.659 5.858,56.322 6.675,56.322L9.34,56.322L9.34,60.544L4.956,60.544C3.854,60.544 2.959,59.648 2.959,58.547L2.959,43.449C2.959,42.349 3.854,41.454 4.956,41.454L9.34,41.454L9.34,45.676ZM48.215,48.34L48.215,46.162C48.215,45.344 47.552,44.682 46.735,44.682C45.917,44.682 45.256,45.344 45.256,46.162L45.256,48.34C45.256,49.158 45.917,49.82 46.735,49.82C47.552,49.82 48.215,49.158 48.215,48.34ZM91.142,27.162C89.458,25.478 86.716,25.477 85.032,27.162C83.347,28.846 83.347,31.588 85.032,33.273C89.766,38.008 92.374,44.302 92.374,50.999C92.374,57.694 89.766,63.99 85.032,68.725C83.347,70.409 83.347,73.15 85.032,74.835C85.848,75.652 86.933,76.101 88.087,76.101C89.24,76.101 90.325,75.652 91.142,74.835C104.286,61.692 104.286,40.306 91.142,27.162ZM89.05,72.743C88.793,73 88.451,73.142 88.087,73.142C87.723,73.142 87.381,73 87.124,72.743C86.593,72.212 86.593,71.348 87.124,70.817C92.418,65.523 95.333,58.485 95.333,50.999C95.333,43.512 92.418,36.473 87.124,31.18C86.593,30.649 86.593,29.785 87.124,29.254C87.39,28.989 87.739,28.856 88.087,28.856C88.436,28.856 88.785,28.989 89.05,29.254C101.04,41.244 101.04,60.753 89.05,72.743ZM39.398,50.008C39.398,45.761 35.493,45.761 33.825,45.761C32.157,45.761 28.253,45.761 28.253,50.008C28.253,53.349 30.753,56.068 33.825,56.068C36.898,56.068 39.398,53.349 39.398,50.008ZM31.212,50.008C31.212,49.124 31.212,48.72 33.826,48.72C36.439,48.72 36.439,49.124 36.439,50.008C36.439,51.718 35.267,53.109 33.826,53.109C32.384,53.109 31.212,51.718 31.212,50.008Z" style="fill-rule:nonzero;"/>
</svg>
