<?xml version="1.0" encoding="UTF-8" standalone="no"?>
<!DOCTYPE svg PUBLIC "-//W3C//DTD SVG 1.1//EN" "http://www.w3.org/Graphics/SVG/1.1/DTD/svg11.dtd">
<svg width="100%" height="100%" viewBox="0 0 103 103" version="1.1" xmlns="http://www.w3.org/2000/svg" xmlns:xlink="http://www.w3.org/1999/xlink" xml:space="preserve" xmlns:serif="http://www.serif.com/" style="fill-rule:evenodd;clip-rule:evenodd;stroke-linejoin:round;stroke-miterlimit:2;">
    <g>
        <path d="M85.468,87.491L48.67,100.885C43.489,102.771 37.76,100.1 35.874,94.918L11.629,28.306C9.744,23.125 12.415,17.397 17.596,15.511L54.395,2.117C59.576,0.231 65.305,2.902 67.19,8.084L91.435,74.696C93.32,79.877 90.649,85.606 85.468,87.491Z" style="fill:rgb(73,80,89);fill-rule:nonzero;"/>
        <path d="M48.67,100.884L72.598,92.176C36.966,77.374 29.737,34.776 25.895,12.49L17.596,15.511C12.415,17.397 9.744,23.125 11.629,28.306L35.874,94.918C37.76,100.099 43.489,102.77 48.67,100.884Z" style="fill:rgb(65,70,79);fill-rule:nonzero;"/>
        <path d="M55.877,8.26L47.642,11.258C46.848,11.546 46.306,12.283 46.266,13.126L46.154,15.487C46.106,16.487 45.463,17.361 44.522,17.703L35.178,21.104C34.237,21.447 33.183,21.191 32.504,20.455L30.9,18.719C30.327,18.099 29.438,17.883 28.645,18.172L20.41,21.17C18.12,22.002 16.94,24.534 17.773,26.824L41.533,92.105C42.367,94.394 44.899,95.575 47.189,94.742L82.655,81.833C84.945,80.999 86.125,78.467 85.292,76.177L61.532,10.897C60.698,8.607 58.167,7.427 55.877,8.26Z" style="fill:rgb(126,155,222);fill-rule:nonzero;"/>
        <path d="M47.187,94.742L64.885,88.3C38.624,72.6 30.863,40.061 26.997,18.771L20.409,21.17C18.12,22.002 16.938,24.534 17.772,26.824L41.532,92.105C42.365,94.394 44.897,95.575 47.187,94.742Z" style="fill:rgb(90,124,204);fill-rule:nonzero;"/>
        <path d="M45.756,71.171L42.292,72.431C41.139,72.852 39.864,72.257 39.443,71.103L38.183,67.639C37.763,66.486 38.358,65.21 39.512,64.791L42.975,63.53C44.128,63.11 45.404,63.705 45.823,64.858L47.085,68.322C47.504,69.476 46.909,70.751 45.756,71.171Z" style="fill:rgb(242,208,115);fill-rule:nonzero;"/>
        <path d="M46.24,70.922C44.62,68.677 43.133,66.351 41.768,63.97L39.512,64.791C38.358,65.21 37.763,66.486 38.183,67.639L39.443,71.103C39.864,72.257 41.139,72.852 42.292,72.431L45.756,71.171C45.931,71.107 46.092,71.022 46.24,70.922Z" style="fill:rgb(227,165,84);fill-rule:nonzero;"/>
        <path d="M58.91,66.384L55.447,67.644C54.293,68.064 53.018,67.469 52.597,66.315L51.337,62.852C50.917,61.699 51.512,60.423 52.666,60.003L56.129,58.742C57.282,58.323 58.558,58.917 58.978,60.071L60.239,63.534C60.658,64.688 60.063,65.963 58.91,66.384Z" style="fill:rgb(170,215,239);fill-rule:nonzero;"/>
        <path d="M72.065,61.596L68.601,62.856C67.447,63.276 66.172,62.681 65.752,61.528L64.492,58.064C64.071,56.91 64.666,55.635 65.82,55.215L69.284,53.954C70.437,53.535 71.713,54.129 72.132,55.283L73.393,58.747C73.813,59.9 73.218,61.176 72.065,61.596Z" style="fill:rgb(248,238,209);fill-rule:nonzero;"/>
        <path d="M50.496,84.194L47.032,85.454C45.878,85.874 44.603,85.28 44.183,84.126L42.923,80.662C42.502,79.509 43.097,78.233 44.251,77.814L47.715,76.553C48.868,76.133 50.144,76.728 50.563,77.881L51.824,81.345C52.244,82.499 51.649,83.774 50.496,84.194Z" style="fill:rgb(151,209,194);fill-rule:nonzero;"/>
        <path d="M63.65,79.406L60.186,80.667C59.033,81.086 57.757,80.492 57.337,79.338L56.077,75.875C55.657,74.721 56.252,73.446 57.405,73.025L60.869,71.765C62.022,71.345 63.298,71.94 63.717,73.094L64.978,76.557C65.398,77.711 64.803,78.986 63.65,79.406Z" style="fill:rgb(241,154,135);fill-rule:nonzero;"/>
        <path d="M76.804,74.618L73.341,75.879C72.187,76.298 70.912,75.704 70.491,74.551L69.231,71.087C68.811,69.933 69.406,68.658 70.56,68.238L74.023,66.977C75.176,66.557 76.452,67.152 76.872,68.306L78.133,71.769C78.552,72.923 77.957,74.198 76.804,74.618Z" style="fill:rgb(151,209,194);fill-rule:nonzero;"/>
        <path d="M39.6,46.74C38.757,44.424 35.717,43.404 32.809,44.463C29.901,45.522 28.226,48.256 29.07,50.572C29.912,52.888 32.953,53.907 35.861,52.849C38.769,51.791 40.443,49.055 39.6,46.74Z" style="fill:rgb(241,154,135);fill-rule:nonzero;"/>
        <path d="M57.611,40.182C58.454,42.498 61.494,43.517 64.402,42.459C67.31,41.401 68.985,38.665 68.141,36.349C67.299,34.033 64.258,33.014 61.35,34.073C58.442,35.131 56.768,37.866 57.611,40.182Z" style="fill:rgb(241,154,135);fill-rule:nonzero;"/>
        <path d="M65.135,72.578C64.431,70.644 62.285,69.644 60.352,70.347L56.889,71.608C54.956,72.312 53.955,74.457 54.659,76.39L55.919,79.854C56.47,81.368 57.905,82.309 59.43,82.309C59.852,82.309 60.282,82.237 60.702,82.084L64.166,80.823C65.103,80.483 65.85,79.798 66.271,78.894C66.693,77.991 66.736,76.977 66.396,76.041L65.135,72.578ZM63.536,77.619C63.49,77.719 63.375,77.9 63.134,77.988L63.133,77.988L59.67,79.249C59.3,79.384 58.89,79.193 58.755,78.822L57.494,75.359C57.406,75.117 57.471,74.913 57.518,74.812C57.564,74.713 57.679,74.531 57.921,74.444L61.384,73.183C61.471,73.151 61.554,73.139 61.628,73.139C61.76,73.139 61.866,73.176 61.93,73.206C62.031,73.253 62.212,73.367 62.3,73.609L63.56,77.073C63.649,77.314 63.584,77.519 63.536,77.619ZM73.507,65.559L70.043,66.821C69.106,67.161 68.359,67.846 67.938,68.75C67.516,69.653 67.472,70.666 67.813,71.603L69.074,75.067C69.624,76.581 71.059,77.522 72.584,77.522C73.006,77.522 73.436,77.45 73.857,77.297L77.32,76.036C79.254,75.333 80.254,73.187 79.55,71.253L78.29,67.789C77.949,66.854 77.263,66.105 76.36,65.684C75.457,65.263 74.443,65.218 73.507,65.559ZM75.454,68.821L76.715,72.285C76.849,72.655 76.658,73.066 76.288,73.201L72.824,74.461C72.454,74.596 72.044,74.405 71.909,74.034L70.648,70.571C70.56,70.329 70.625,70.125 70.673,70.024C70.719,69.925 70.834,69.744 71.075,69.656L74.539,68.394C74.626,68.363 74.708,68.351 74.782,68.351C74.914,68.351 75.021,68.389 75.085,68.419C75.185,68.465 75.366,68.58 75.454,68.821ZM84.291,39.577C85.097,41.793 85.354,44.092 85.054,46.412C84.947,47.238 85.531,47.994 86.357,48.101C86.423,48.11 86.488,48.114 86.553,48.114C87.3,48.114 87.948,47.559 88.047,46.798C88.404,44.035 88.086,41.181 87.127,38.546C86.167,35.91 84.577,33.52 82.527,31.632C81.914,31.068 80.96,31.108 80.395,31.72C79.831,32.334 79.87,33.288 80.483,33.852C82.204,35.436 83.485,37.362 84.291,39.577ZM51.982,77.365C51.278,75.432 49.131,74.431 47.198,75.135L43.735,76.396C41.802,77.099 40.801,79.244 41.505,81.178L42.765,84.641C43.106,85.578 43.792,86.326 44.695,86.748C45.197,86.982 45.732,87.099 46.269,87.099C46.7,87.099 47.131,87.023 47.548,86.872L51.011,85.611C52.945,84.908 53.945,82.763 53.242,80.829L51.982,77.365ZM50.382,82.407C50.336,82.507 50.221,82.688 49.979,82.776L46.516,84.036C46.274,84.125 46.07,84.059 45.97,84.013C45.87,83.967 45.689,83.852 45.601,83.61L44.34,80.147C44.206,79.776 44.397,79.365 44.767,79.231L48.23,77.971C48.311,77.941 48.393,77.927 48.474,77.927C48.766,77.927 49.04,78.107 49.146,78.397L50.406,81.861C50.494,82.103 50.429,82.307 50.382,82.407ZM18.773,63.424C17.966,61.209 17.71,58.91 18.01,56.59C18.116,55.764 17.533,55.007 16.706,54.9C15.879,54.794 15.124,55.377 15.017,56.203C14.66,58.967 14.978,61.821 15.937,64.457C16.897,67.092 18.487,69.482 20.538,71.37C20.827,71.637 21.194,71.768 21.559,71.768C21.966,71.768 22.372,71.605 22.669,71.282C23.234,70.669 23.194,69.714 22.581,69.15C20.86,67.566 19.579,65.639 18.773,63.424ZM35.739,90.136L13.047,27.79C12.272,25.663 12.373,23.362 13.33,21.31C14.286,19.258 15.984,17.702 18.112,16.928L54.91,3.535C57.038,2.76 59.339,2.86 61.39,3.818C63.441,4.774 64.998,6.472 65.772,8.599L66.651,11.014C66.936,11.797 67.801,12.2 68.585,11.916C69.368,11.631 69.771,10.765 69.486,9.982L68.607,7.568C67.558,4.683 65.447,2.38 62.665,1.083C59.883,-0.215 56.763,-0.35 53.878,0.699L17.08,14.093C14.195,15.143 11.892,17.253 10.595,20.035C9.298,22.817 9.162,25.938 10.212,28.822L32.903,91.169C33.126,91.781 33.705,92.161 34.321,92.161C34.492,92.161 34.667,92.132 34.837,92.07C35.62,91.785 36.024,90.919 35.739,90.136ZM12.876,65.57C11.585,62.023 11.174,58.34 11.655,54.624C11.761,53.798 11.178,53.041 10.352,52.934C9.524,52.827 8.769,53.411 8.662,54.237C8.127,58.378 8.604,62.653 10.041,66.603C11.478,70.552 13.862,74.133 16.933,76.961C17.223,77.228 17.589,77.359 17.954,77.359C18.362,77.359 18.767,77.196 19.065,76.873C19.629,76.26 19.59,75.305 18.977,74.741C16.22,72.203 14.168,69.118 12.876,65.57ZM93.022,36.4C91.585,32.451 89.202,28.869 86.131,26.042C85.518,25.477 84.563,25.517 83.999,26.13C83.434,26.743 83.474,27.697 84.087,28.262C86.843,30.799 88.896,33.885 90.187,37.432C91.478,40.978 91.889,44.662 91.409,48.378C91.302,49.205 91.885,49.961 92.712,50.067C92.778,50.076 92.842,50.08 92.908,50.08C93.654,50.08 94.303,49.525 94.401,48.765C94.937,44.624 94.46,40.347 93.022,36.4ZM33.611,19.432L32.007,17.695C31.02,16.626 29.497,16.256 28.129,16.754L19.893,19.751C16.825,20.868 15.238,24.273 16.355,27.34L40.114,92.621C40.655,94.107 41.742,95.293 43.176,95.961C43.972,96.333 44.822,96.519 45.675,96.519C46.357,96.519 47.043,96.4 47.703,96.159L83.17,83.251C86.238,82.133 87.826,78.729 86.71,75.661L62.949,10.382C62.409,8.895 61.321,7.708 59.888,7.04C58.454,6.371 56.847,6.302 55.36,6.842L47.125,9.84C45.756,10.338 44.827,11.6 44.758,13.055L44.646,15.415C44.627,15.809 44.376,16.15 44.005,16.285L34.661,19.687C34.291,19.821 33.879,19.721 33.611,19.432ZM45.037,19.121C46.554,18.569 47.583,17.171 47.66,15.559L47.773,13.198C47.784,12.961 47.935,12.756 48.157,12.675L56.392,9.678C57.121,9.413 57.909,9.446 58.612,9.775C59.315,10.103 59.849,10.684 60.113,11.413L83.874,76.694C84.421,78.198 83.643,79.868 82.138,80.415L46.671,93.324C45.943,93.59 45.154,93.555 44.451,93.227C43.748,92.9 43.215,92.318 42.95,91.589L19.19,26.308C18.642,24.804 19.421,23.135 20.925,22.587L29.16,19.59C29.226,19.566 29.294,19.554 29.361,19.554C29.522,19.554 29.677,19.62 29.791,19.742L31.395,21.479C32.489,22.665 34.177,23.074 35.693,22.522L45.037,19.121ZM38.82,16.574C39.558,16.305 39.938,15.489 39.669,14.751C39.401,14.013 38.585,13.632 37.847,13.9C37.108,14.169 36.728,14.986 36.997,15.724C37.265,16.462 38.081,16.843 38.82,16.574ZM33.786,42.012L34.464,43.871C34.687,44.483 35.265,44.865 35.882,44.865C36.053,44.865 36.227,44.835 36.397,44.773C37.181,44.488 37.584,43.622 37.299,42.839L36.623,40.979C36.337,40.197 35.471,39.794 34.689,40.078C33.906,40.363 33.502,41.228 33.786,42.012ZM71.892,16.592C71.607,15.809 70.741,15.405 69.958,15.691C69.176,15.975 68.772,16.841 69.057,17.625L90.017,75.212C90.791,77.339 90.691,79.641 89.734,81.692C88.777,83.743 87.079,85.299 84.953,86.073L48.153,99.467C44.493,100.799 40.417,99.48 38.238,96.26C37.771,95.57 36.833,95.388 36.143,95.855C35.453,96.322 35.272,97.26 35.739,97.95C37.924,101.18 41.514,103 45.244,103C46.559,103 47.891,102.774 49.186,102.302L85.984,88.909C88.868,87.86 91.172,85.749 92.469,82.967C93.766,80.185 93.902,77.065 92.853,74.18L71.892,16.592ZM43.43,41.756C44.282,42.226 45.229,42.465 46.18,42.465C46.834,42.465 47.491,42.352 48.118,42.124C49.66,41.562 50.884,40.361 51.474,38.828C51.774,38.051 51.387,37.178 50.609,36.878C49.832,36.578 48.959,36.965 48.658,37.743C48.382,38.462 47.809,39.026 47.087,39.288C46.365,39.551 45.565,39.488 44.89,39.115C44.16,38.711 43.242,38.976 42.839,39.706C42.436,40.435 42.701,41.353 43.43,41.756ZM49.919,63.368L51.179,66.832C51.731,68.345 53.165,69.287 54.69,69.287C55.113,69.287 55.543,69.214 55.963,69.062L59.426,67.801C60.362,67.46 61.111,66.775 61.532,65.871C61.953,64.968 61.997,63.955 61.656,63.018L60.395,59.555C59.692,57.621 57.546,56.621 55.613,57.324L52.149,58.585C50.216,59.289 49.216,61.434 49.919,63.368ZM53.181,61.42L56.645,60.16C56.732,60.128 56.814,60.117 56.888,60.117C57.02,60.117 57.126,60.154 57.191,60.183C57.291,60.23 57.471,60.344 57.56,60.587L58.821,64.051C58.909,64.292 58.843,64.496 58.797,64.596C58.75,64.696 58.636,64.877 58.394,64.965L54.931,66.226C54.561,66.361 54.15,66.169 54.015,65.799L52.754,62.336C52.62,61.966 52.811,61.555 53.181,61.42ZM56.867,35.717C57.09,36.33 57.669,36.71 58.285,36.71C58.456,36.71 58.631,36.681 58.801,36.619C59.584,36.334 59.988,35.468 59.702,34.685L59.026,32.826C58.74,32.043 57.875,31.639 57.092,31.924C56.309,32.209 55.905,33.075 56.191,33.858L56.867,35.717ZM36.765,68.156L38.025,71.619C38.576,73.133 40.01,74.075 41.536,74.075C41.958,74.075 42.388,74.002 42.808,73.85L46.272,72.589C47.208,72.248 47.956,71.563 48.377,70.659C48.798,69.756 48.843,68.743 48.502,67.806L47.242,64.342C46.537,62.409 44.391,61.408 42.459,62.112L38.995,63.372C37.061,64.076 36.061,66.222 36.765,68.156ZM39.624,66.578C39.671,66.477 39.786,66.296 40.027,66.208L43.491,64.948C43.571,64.919 43.653,64.905 43.734,64.905C44.026,64.905 44.3,65.085 44.405,65.375L45.667,68.838C45.755,69.08 45.689,69.284 45.642,69.384C45.596,69.484 45.481,69.665 45.239,69.753L41.776,71.014C41.407,71.149 40.996,70.957 40.861,70.587L39.6,67.124C39.512,66.882 39.577,66.678 39.624,66.578ZM64.334,62.043C64.674,62.98 65.359,63.728 66.263,64.15C66.765,64.383 67.301,64.501 67.838,64.501C68.269,64.501 68.7,64.425 69.117,64.274L72.58,63.013L72.581,63.013C74.513,62.309 75.514,60.164 74.811,58.231L73.549,54.767C73.208,53.83 72.523,53.083 71.62,52.661C70.717,52.24 69.704,52.196 68.767,52.536L65.303,53.797C64.366,54.138 63.619,54.823 63.198,55.727C62.776,56.63 62.732,57.644 63.073,58.58L64.334,62.043ZM65.932,57.002C65.979,56.902 66.094,56.721 66.336,56.633L69.799,55.373C69.886,55.34 69.968,55.329 70.042,55.329C70.174,55.329 70.28,55.366 70.345,55.396C70.445,55.443 70.626,55.557 70.714,55.799L71.975,59.262C72.11,59.633 71.918,60.043 71.548,60.178L68.085,61.438C67.842,61.526 67.638,61.461 67.539,61.415C67.439,61.368 67.257,61.254 67.169,61.012L65.909,57.548C65.821,57.306 65.886,57.102 65.932,57.002Z" style="fill-rule:nonzero;"/>
    </g>
</svg>
