<?xml version="1.0" encoding="UTF-8" standalone="no"?>
<!DOCTYPE svg PUBLIC "-//W3C//DTD SVG 1.1//EN" "http://www.w3.org/Graphics/SVG/1.1/DTD/svg11.dtd">
<svg width="100%" height="100%" viewBox="0 0 98 98" version="1.1" xmlns="http://www.w3.org/2000/svg" xmlns:xlink="http://www.w3.org/1999/xlink" xml:space="preserve" xmlns:serif="http://www.serif.com/" style="fill-rule:evenodd;clip-rule:evenodd;stroke-linejoin:round;stroke-miterlimit:2;">
    <g>
        <path d="M20.931,84.292L20.931,13.708C20.931,6.93 26.426,1.436 33.204,1.436L68.97,1.436C75.749,1.436 81.243,6.93 81.243,13.708L81.243,84.292C81.243,91.07 75.749,96.565 68.97,96.565L33.204,96.565C26.426,96.565 20.931,91.07 20.931,84.292Z" style="fill:rgb(78,86,96);fill-rule:nonzero;"/>
        <path d="M37.528,1.436L33.204,1.436C26.426,1.436 20.931,6.93 20.931,13.708L20.931,84.292C20.931,91.07 26.426,96.565 33.204,96.565L61.245,96.565C37.561,78.487 36.113,21.765 37.528,1.436Z" style="fill:rgb(56,60,67);fill-rule:nonzero;"/>
        <path d="M59.658,9.024L59.21,10.556C58.944,11.463 58.112,12.087 57.167,12.087L45.007,12.087C44.062,12.087 43.23,11.463 42.964,10.556L42.516,9.024C42.25,8.116 41.418,7.493 40.473,7.493L33.603,7.493C29.95,7.493 26.988,10.455 26.988,14.108L26.988,83.893C26.988,87.546 29.95,90.507 33.603,90.507L68.571,90.507C72.224,90.507 75.185,87.546 75.185,83.893L75.185,14.108C75.185,10.455 72.224,7.493 68.571,7.493L61.701,7.493C60.756,7.493 59.924,8.116 59.658,9.024Z" style="fill:rgb(142,226,207);fill-rule:nonzero;"/>
        <path d="M33.603,90.507L55.14,90.507C39.019,70.287 36.603,28.858 37.237,7.493L33.603,7.493C29.95,7.493 26.988,10.454 26.988,14.107L26.988,83.893C26.988,87.546 29.95,90.507 33.603,90.507Z" style="fill:rgb(111,206,145);fill-rule:nonzero;"/>
        <path d="M53.334,53.839C55.546,56.05 59.333,54.659 59.587,51.542L60.532,39.973C60.716,37.716 58.832,35.833 56.575,36.017L45.006,36.962C41.889,37.216 40.498,41.003 42.71,43.215L45.014,45.518C40.944,49.019 33.957,54.477 26.988,59.379L26.988,83.893C26.988,84.564 27.089,85.212 27.275,85.823C31.044,77.022 44.471,59.161 51.031,51.535L53.334,53.839Z" style="fill:white;fill-rule:nonzero;"/>
        <path d="M39.948,49.684C36.18,52.678 31.58,56.149 26.988,59.379L26.988,83.893C26.988,84.564 27.089,85.212 27.275,85.823C29.751,80.039 36.398,70.344 42.527,62.212C41.494,58.117 40.644,53.907 39.948,49.684Z" style="fill:rgb(252,242,208);fill-rule:nonzero;"/>
        <path d="M63.991,76.404L38.183,76.404C36.511,76.404 35.155,75.049 35.155,73.376L35.155,66.863C35.155,65.191 36.511,63.835 38.183,63.835L63.991,63.835C65.663,63.835 67.019,65.19 67.019,66.863L67.019,73.376C67.019,75.049 65.663,76.404 63.991,76.404Z" style="fill:rgb(247,239,135);fill-rule:nonzero;"/>
        <path d="M42.947,63.835L38.183,63.835C36.511,63.835 35.155,65.19 35.155,66.863L35.155,73.376C35.155,75.049 36.511,76.405 38.183,76.405L47.13,76.405C45.498,72.451 44.114,68.22 42.947,63.835Z" style="fill:rgb(239,209,118);fill-rule:nonzero;"/>
        <path d="M37.778,32.548C40.49,32.548 42.688,30.797 42.688,28.637C42.688,26.477 40.49,24.726 37.778,24.726C35.065,24.726 32.867,26.477 32.867,28.637C32.867,30.797 35.065,32.548 37.778,32.548Z" style="fill:white;fill-rule:nonzero;"/>
        <path d="M64.396,32.548C67.108,32.548 69.307,30.797 69.307,28.637C69.307,26.477 67.108,24.726 64.396,24.726C61.684,24.726 59.485,26.477 59.485,28.637C59.485,30.797 61.684,32.548 64.396,32.548Z" style="fill:white;fill-rule:nonzero;"/>
        <path d="M18.44,26.067L20.931,26.067L20.931,17.947L18.44,17.947C17.511,17.947 16.757,18.701 16.757,19.63L16.757,24.385C16.757,25.314 17.511,26.067 18.44,26.067Z" style="fill:rgb(163,222,254);fill-rule:nonzero;"/>
        <path d="M18.44,40.071L20.931,40.071L20.931,31.951L18.44,31.951C17.511,31.951 16.757,32.704 16.757,33.633L16.757,38.389C16.757,39.318 17.511,40.071 18.44,40.071Z" style="fill:rgb(163,222,254);fill-rule:nonzero;"/>
        <path d="M52.048,8.095L50.126,8.095C49.333,8.095 48.69,7.452 48.69,6.66C48.69,5.867 49.333,5.224 50.126,5.224L52.048,5.224C52.842,5.224 53.484,5.867 53.484,6.66C53.484,7.452 52.841,8.095 52.048,8.095Z" style="fill:rgb(106,150,215);fill-rule:nonzero;"/>
        <path d="M22.366,81.811L22.366,13.708C22.366,7.733 27.228,2.871 33.204,2.871L68.97,2.871C73.511,2.871 77.605,5.737 79.158,10.002C79.428,10.746 80.251,11.131 80.998,10.86C81.742,10.589 82.127,9.765 81.855,9.02C79.892,3.625 74.714,0 68.97,0L33.204,0C25.645,0 19.495,6.15 19.495,13.708L19.495,16.512L18.44,16.512C16.72,16.512 15.322,17.911 15.322,19.63L15.322,24.385C15.322,26.104 16.72,27.503 18.44,27.503L19.495,27.503L19.495,30.515L18.44,30.515C16.72,30.515 15.322,31.914 15.322,33.633L15.322,38.388C15.322,40.108 16.72,41.506 18.44,41.506L19.495,41.506L19.495,81.811C19.495,82.604 20.138,83.246 20.931,83.246C21.724,83.246 22.366,82.604 22.366,81.811ZM19.495,38.635L18.44,38.635C18.304,38.635 18.193,38.525 18.193,38.388L18.193,33.633C18.193,33.497 18.304,33.386 18.44,33.386L19.495,33.386L19.495,38.635ZM19.495,24.632L18.44,24.632C18.304,24.632 18.193,24.521 18.193,24.385L18.193,19.63C18.193,19.494 18.304,19.383 18.44,19.383L19.495,19.383L19.495,24.632ZM44.569,71.555L57.606,71.555C58.399,71.555 59.041,70.912 59.041,70.12C59.041,69.327 58.399,68.684 57.606,68.684L44.569,68.684C43.776,68.684 43.133,69.327 43.133,70.12C43.133,70.912 43.776,71.555 44.569,71.555ZM61.701,6.057C60.129,6.057 58.722,7.111 58.28,8.621L57.832,10.153C57.746,10.446 57.472,10.651 57.167,10.651L45.007,10.651C44.701,10.651 44.428,10.446 44.342,10.153L43.893,8.621C43.451,7.112 42.045,6.058 40.473,6.058L33.602,6.058C29.164,6.058 25.552,9.669 25.552,14.108L25.552,83.893C25.552,84.692 25.671,85.464 25.889,86.193C25.894,86.212 25.899,86.23 25.905,86.249C26.915,89.542 29.983,91.943 33.602,91.943L68.571,91.943C73.009,91.943 76.621,88.332 76.621,83.893L76.621,14.107C76.621,9.669 73.01,6.057 68.571,6.057L61.701,6.057ZM28.424,60.123C34.669,55.702 41.485,50.447 45.95,46.607C46.253,46.346 46.433,45.971 46.448,45.572C46.463,45.173 46.311,44.786 46.029,44.503L43.725,42.199C43.093,41.567 42.899,40.688 43.207,39.849C43.516,39.009 44.232,38.465 45.123,38.392L56.692,37.448C57.345,37.395 57.989,37.63 58.454,38.094C58.919,38.559 59.154,39.201 59.101,39.856L58.156,51.425C58.084,52.316 57.539,53.033 56.7,53.341C55.86,53.649 54.981,53.456 54.349,52.823L52.046,50.52C51.763,50.237 51.373,50.084 50.977,50.1C50.578,50.115 50.203,50.296 49.942,50.599C47.366,53.594 43.901,57.969 40.592,62.399L38.183,62.399C35.722,62.399 33.719,64.401 33.719,66.863L33.719,72.032C31.571,75.205 29.801,78.009 28.424,80.421L28.424,60.123ZM41.313,65.27L63.991,65.27C64.869,65.27 65.584,65.985 65.584,66.863L65.584,73.376C65.584,74.254 64.869,74.969 63.991,74.969L38.183,74.969C37.305,74.969 36.59,74.254 36.59,73.376L36.59,66.863C36.59,65.985 37.305,65.27 38.183,65.27L41.31,65.27L41.313,65.27ZM73.75,14.107L73.75,83.893C73.75,86.748 71.427,89.072 68.571,89.072L33.603,89.072C31.45,89.072 29.601,87.751 28.821,85.878C29.948,83.391 31.904,80.008 34.55,75.965C35.36,77.099 36.686,77.84 38.183,77.84L63.991,77.84C66.452,77.84 68.455,75.838 68.455,73.376L68.455,66.864C68.455,64.402 66.452,62.4 63.991,62.4L44.185,62.4C46.629,59.177 49.081,56.083 51.117,53.652L52.319,54.854C53.743,56.278 55.801,56.73 57.69,56.037C59.579,55.343 60.854,53.666 61.018,51.659L61.963,40.091C62.085,38.594 61.546,37.127 60.484,36.065C59.423,35.003 57.955,34.464 56.459,34.587L44.89,35.531C42.884,35.695 41.206,36.971 40.513,38.86C39.819,40.749 40.272,42.807 41.695,44.23L42.897,45.432C39.618,48.178 34.393,52.304 28.424,56.596L28.424,14.107C28.424,11.252 30.748,8.929 33.603,8.929L40.473,8.929C40.779,8.929 41.053,9.133 41.138,9.427L41.587,10.959C42.029,12.468 43.435,13.522 45.008,13.522L57.167,13.522C58.74,13.522 60.146,12.468 60.588,10.959L61.037,9.427C61.122,9.134 61.396,8.929 61.702,8.929L68.572,8.929C71.427,8.929 73.75,11.252 73.75,14.107ZM40.64,21.566C39.847,21.566 39.204,22.209 39.204,23.001L39.204,24.736C39.204,25.528 39.847,26.171 40.64,26.171C41.433,26.171 42.075,25.528 42.075,24.736L42.075,23.001C42.075,22.209 41.433,21.566 40.64,21.566ZM61.534,21.566C60.741,21.566 60.099,22.209 60.099,23.001L60.099,24.736C60.099,25.528 60.741,26.171 61.534,26.171C62.327,26.171 62.97,25.528 62.97,24.736L62.97,23.001C62.97,22.209 62.327,21.566 61.534,21.566ZM81.243,14.823C80.45,14.823 79.807,15.465 79.807,16.258L79.807,84.292C79.807,90.267 74.946,95.129 68.97,95.129L33.204,95.129C28.718,95.129 24.758,92.433 23.116,88.26C22.825,87.522 21.991,87.159 21.254,87.45C20.516,87.74 20.153,88.574 20.444,89.311C22.522,94.59 27.53,98 33.204,98L68.97,98C76.529,98 82.678,91.851 82.678,84.292L82.678,16.258C82.678,15.465 82.036,14.823 81.243,14.823ZM54.785,23.73C54.187,23.209 53.28,23.272 52.759,23.869C52.337,24.354 51.727,24.632 51.087,24.632C50.447,24.632 49.837,24.354 49.415,23.869C48.894,23.272 47.987,23.209 47.389,23.73C46.792,24.251 46.729,25.158 47.25,25.756C48.218,26.866 49.616,27.503 51.087,27.503C52.558,27.503 53.956,26.866 54.924,25.756C55.444,25.158 55.382,24.251 54.785,23.73Z" style="fill-rule:nonzero;"/>
    </g>
</svg>
