<?xml version="1.0" encoding="UTF-8" standalone="no"?>
<!DOCTYPE svg PUBLIC "-//W3C//DTD SVG 1.1//EN" "http://www.w3.org/Graphics/SVG/1.1/DTD/svg11.dtd">
<svg width="100%" height="100%" viewBox="0 0 103 103" version="1.1" xmlns="http://www.w3.org/2000/svg" xmlns:xlink="http://www.w3.org/1999/xlink" xml:space="preserve" xmlns:serif="http://www.serif.com/" style="fill-rule:evenodd;clip-rule:evenodd;stroke-linejoin:round;stroke-miterlimit:2;">
    <path d="M60.062,4.096C59.147,2.497 57.448,1.509 55.605,1.509L47.395,1.509C45.552,1.509 43.853,2.497 42.938,4.096C41.749,6.175 40.26,9.285 39.698,12.595L63.302,12.595C62.741,9.285 61.251,6.175 60.062,4.096Z" style="fill:rgb(133,131,132);fill-rule:nonzero;"/>
    <path d="M91.074,24.035C91.558,22.257 91.055,20.357 89.752,19.054L83.947,13.248C82.644,11.945 80.744,11.442 78.966,11.926C76.655,12.555 73.403,13.701 70.666,15.645L87.356,32.335C89.299,29.598 90.445,26.345 91.074,24.035Z" style="fill:rgb(133,131,132);fill-rule:nonzero;"/>
    <path d="M98.904,60.062C100.504,59.147 101.491,57.448 101.491,55.605L101.491,47.395C101.491,45.552 100.504,43.853 98.904,42.938C96.825,41.749 93.715,40.26 90.406,39.698L90.406,63.302C93.715,62.741 96.825,61.251 98.904,60.062Z" style="fill:rgb(133,131,132);fill-rule:nonzero;"/>
    <path d="M78.966,91.074C80.744,91.558 82.644,91.055 83.947,89.752L89.752,83.947C91.055,82.643 91.558,80.744 91.074,78.965C90.445,76.655 89.299,73.402 87.356,70.665L70.665,87.356C73.403,89.299 76.655,90.445 78.966,91.074Z" style="fill:rgb(133,131,132);fill-rule:nonzero;"/>
    <path d="M42.938,98.904C43.853,100.504 45.552,101.491 47.395,101.491L55.605,101.491C57.448,101.491 59.147,100.503 60.062,98.904C61.251,96.825 62.741,93.715 63.302,90.405L39.698,90.405C40.26,93.715 41.749,96.825 42.938,98.904Z" style="fill:rgb(133,131,132);fill-rule:nonzero;"/>
    <path d="M11.926,78.965C11.442,80.743 11.945,82.643 13.248,83.946L19.053,89.752C20.356,91.055 22.256,91.558 24.035,91.074C26.345,90.445 29.598,89.299 32.335,87.355L15.644,70.665C13.701,73.402 12.555,76.655 11.926,78.965Z" style="fill:rgb(133,131,132);fill-rule:nonzero;"/>
    <path d="M4.096,42.938C2.496,43.853 1.509,45.552 1.509,47.395L1.509,55.605C1.509,57.448 2.497,59.147 4.096,60.062C6.175,61.251 9.285,62.741 12.595,63.302L12.595,39.698C9.285,40.26 6.175,41.749 4.096,42.938Z" style="fill:rgb(133,131,132);fill-rule:nonzero;"/>
    <path d="M24.034,11.926C22.256,11.442 20.356,11.945 19.053,13.248L13.248,19.053C11.945,20.357 11.442,22.256 11.926,24.035C12.555,26.345 13.701,29.598 15.644,32.335L32.335,15.644C29.598,13.701 26.345,12.555 24.034,11.926Z" style="fill:rgb(133,131,132);fill-rule:nonzero;"/>
    <path d="M51.5,10.853C29.051,10.853 10.853,29.051 10.853,51.5C10.853,73.949 29.051,92.147 51.5,92.147C73.949,92.147 92.147,73.949 92.147,51.5C92.147,29.051 73.949,10.853 51.5,10.853ZM51.5,68.706C41.997,68.706 34.294,61.003 34.294,51.5C34.294,41.997 41.997,34.294 51.5,34.294C61.003,34.294 68.706,41.997 68.706,51.5C68.706,61.003 61.003,68.706 51.5,68.706Z" style="fill:rgb(186,184,185);fill-rule:nonzero;"/>
    <path d="M18.9,51.5C18.9,30.409 34.963,13.071 55.523,11.051C54.2,10.921 52.858,10.853 51.5,10.853C29.051,10.853 10.853,29.051 10.853,51.5C10.853,73.949 29.051,92.147 51.5,92.147C52.858,92.147 54.2,92.079 55.523,91.949C34.963,89.929 18.9,72.591 18.9,51.5Z" style="fill:rgb(158,156,157);fill-rule:nonzero;"/>
    <path d="M40.515,25.8C41.348,25.8 42.024,25.124 42.024,24.291L42.024,22.303C42.024,21.47 41.348,20.794 40.515,20.794C39.682,20.794 39.006,21.47 39.006,22.303L39.006,24.291C39.006,25.124 39.682,25.8 40.515,25.8Z" style="fill-rule:nonzero;"/>
    <path d="M62.485,25.8C63.318,25.8 63.994,25.124 63.994,24.291L63.994,22.303C63.994,21.47 63.318,20.794 62.485,20.794C61.652,20.794 60.976,21.47 60.976,22.303L60.976,24.291C60.976,25.124 61.652,25.8 62.485,25.8Z" style="fill-rule:nonzero;"/>
    <path d="M51.5,26.861C52.992,26.861 54.394,26.236 55.347,25.146C55.896,24.518 55.832,23.565 55.204,23.017C54.577,22.468 53.624,22.532 53.075,23.16C52.695,23.594 52.121,23.844 51.5,23.844C50.878,23.844 50.304,23.594 49.925,23.16C49.376,22.532 48.423,22.468 47.795,23.017C47.168,23.565 47.104,24.518 47.653,25.146C48.605,26.236 50.008,26.861 51.5,26.861Z" style="fill-rule:nonzero;"/>
    <path d="M99.653,41.628C97.693,40.507 94.765,39.086 91.566,38.389C90.892,36.335 90.066,34.349 89.098,32.446C90.869,29.691 91.936,26.612 92.53,24.431C93.154,22.136 92.499,19.667 90.819,17.986C90.819,17.986 85.017,12.185 85.013,12.181C83.345,10.513 80.844,9.85 78.569,10.47C76.388,11.064 73.31,12.13 70.554,13.902C68.652,12.934 66.666,12.108 64.612,11.434C63.916,8.236 62.493,5.308 61.372,3.347C60.191,1.282 57.981,0 55.605,0L47.395,0C45.019,0 42.809,1.282 41.628,3.347C40.506,5.308 39.085,8.236 38.389,11.434C36.334,12.108 34.349,12.935 32.446,13.903C29.69,12.131 26.612,11.064 24.431,10.47C22.148,9.849 19.659,10.509 17.986,12.181L12.181,17.987C10.501,19.667 9.846,22.136 10.47,24.431C11.064,26.612 12.131,29.691 13.903,32.446C12.935,34.349 12.108,36.335 11.434,38.389C8.236,39.086 5.308,40.507 3.347,41.628C1.282,42.809 0,45.019 0,47.395L0,55.605C0,57.981 1.282,60.191 3.347,61.372C5.308,62.493 8.236,63.915 11.434,64.611C12.108,66.665 12.935,68.651 13.903,70.554C12.131,73.309 11.064,76.388 10.471,78.569C9.846,80.864 10.501,83.333 12.182,85.013C12.182,85.013 17.981,90.813 17.987,90.819C19.654,92.486 22.158,93.149 24.431,92.53C26.612,91.936 29.691,90.869 32.446,89.098C34.349,90.066 36.335,90.892 38.389,91.566C39.085,94.764 40.507,97.692 41.628,99.653C42.809,101.718 45.019,103 47.395,103L55.605,103C57.981,103 60.191,101.718 61.372,99.653C62.493,97.692 63.915,94.764 64.611,91.566C66.666,90.892 68.652,90.066 70.554,89.097C73.309,90.869 76.388,91.936 78.569,92.529C80.852,93.151 83.341,92.491 85.014,90.818L90.819,85.013C92.499,83.333 93.155,80.864 92.53,78.569C91.936,76.388 90.869,73.309 89.098,70.554C90.066,68.651 90.892,66.665 91.566,64.611C94.764,63.915 97.692,62.493 99.653,61.372C101.718,60.191 103,57.981 103,55.605L103,47.395C103,45.019 101.718,42.809 99.653,41.628ZM90.628,52.401C90.582,54.4 90.382,56.396 90.035,58.364C90.03,58.394 90.025,58.423 90.02,58.452C87.136,74.471 74.472,87.136 58.453,90.019C58.423,90.025 58.393,90.03 58.363,90.035C53.833,90.84 49.164,90.838 44.635,90.035C44.606,90.03 44.577,90.025 44.548,90.02C28.528,87.136 15.863,74.47 12.98,58.45C12.568,56.158 12.362,53.829 12.362,51.5C12.362,49.172 12.569,46.842 12.98,44.55C15.863,28.53 28.528,15.864 44.548,12.981C44.577,12.975 44.606,12.97 44.636,12.965C49.165,12.165 53.832,12.16 58.362,12.964C58.392,12.97 58.423,12.975 58.454,12.981C74.473,15.865 87.136,28.529 90.02,44.548C90.025,44.577 90.03,44.607 90.035,44.636C90.486,47.196 90.688,49.801 90.628,52.401ZM79.362,13.382C80.608,13.043 81.966,13.402 82.88,14.315L88.685,20.12C89.602,21.037 89.959,22.385 89.618,23.638C89.184,25.232 88.478,27.35 87.396,29.387C83.934,23.769 79.232,19.066 73.613,15.604C75.651,14.522 77.768,13.816 79.362,13.382ZM41.755,10.479C42.431,8.275 43.428,6.278 44.248,4.845C44.892,3.718 46.099,3.018 47.395,3.018L55.605,3.018C56.902,3.018 58.108,3.718 58.752,4.845C59.572,6.278 60.569,8.274 61.246,10.479C61.183,10.464 61.121,10.452 61.059,10.438C57.925,9.715 54.717,9.344 51.5,9.344C48.225,9.344 44.942,9.722 41.755,10.479ZM14.315,20.12C14.315,20.12 20.119,14.316 20.12,14.315C21.021,13.414 22.392,13.043 23.638,13.382C25.232,13.816 27.349,14.523 29.387,15.604C23.768,19.066 19.066,23.768 15.604,29.387C14.522,27.349 13.816,25.232 13.382,23.638C13.041,22.385 13.398,21.037 14.315,20.12ZM10.479,61.245C8.274,60.569 6.278,59.572 4.845,58.752C3.718,58.108 3.018,56.902 3.018,55.605L3.018,47.395C3.018,46.098 3.718,44.893 4.845,44.248C6.278,43.428 8.274,42.431 10.479,41.754C10.464,41.818 10.451,41.882 10.437,41.946C9.712,45.073 9.344,48.29 9.344,51.5C9.344,54.703 9.71,57.933 10.436,61.054C10.451,61.118 10.464,61.182 10.479,61.245ZM23.638,89.618C22.393,89.957 21.033,89.6 20.12,88.685L14.315,82.88C13.398,81.963 13.041,80.615 13.382,79.362C13.816,77.768 14.522,75.65 15.604,73.613C19.066,79.232 23.768,83.934 29.387,87.396C27.349,88.478 25.232,89.184 23.638,89.618ZM61.245,92.521C60.569,94.726 59.572,96.722 58.752,98.155C58.108,99.282 56.902,99.982 55.605,99.982L47.395,99.982C46.098,99.982 44.892,99.282 44.247,98.155C43.428,96.721 42.43,94.725 41.754,92.521C41.818,92.536 41.881,92.548 41.945,92.563C45.072,93.286 48.289,93.656 51.5,93.656C54.679,93.656 57.935,93.288 61.057,92.563C61.119,92.548 61.183,92.536 61.245,92.521ZM88.685,82.88C88.685,82.88 82.883,88.681 82.88,88.685C81.969,89.595 80.603,89.956 79.362,89.618C77.768,89.184 75.651,88.478 73.613,87.396C79.232,83.934 83.934,79.232 87.396,73.613C88.477,75.65 89.184,77.768 89.618,79.362C89.959,80.615 89.602,81.963 88.685,82.88ZM99.982,55.605C99.982,56.902 99.282,58.108 98.155,58.752C96.722,59.572 94.726,60.569 92.521,61.245C92.536,61.183 92.548,61.12 92.562,61.058C93.913,55.236 94.013,49.133 92.847,43.271C92.747,42.765 92.641,42.257 92.521,41.755C94.726,42.431 96.722,43.428 98.155,44.248C99.282,44.893 99.982,46.099 99.982,47.395L99.982,55.605Z" style="fill-rule:nonzero;"/>
    <path d="M51.5,32.785C41.181,32.785 32.785,41.181 32.785,51.5C32.785,54.866 33.692,58.17 35.408,61.054C35.834,61.771 36.76,62.006 37.476,61.58C38.193,61.154 38.428,60.228 38.002,59.512C36.563,57.093 35.803,54.323 35.803,51.5C35.803,42.844 42.845,35.803 51.5,35.803C60.156,35.803 67.197,42.844 67.197,51.5C67.197,60.156 60.156,67.198 51.5,67.198C47.909,67.198 44.397,65.951 41.612,63.689C40.965,63.163 40.015,63.262 39.489,63.908C38.964,64.555 39.062,65.505 39.709,66.031C43.03,68.729 47.218,70.215 51.5,70.215C61.82,70.215 70.215,61.82 70.215,51.5C70.215,41.181 61.82,32.785 51.5,32.785Z" style="fill-rule:nonzero;"/>
</svg>
