<?xml version="1.0" encoding="UTF-8" standalone="no"?>
<!DOCTYPE svg PUBLIC "-//W3C//DTD SVG 1.1//EN" "http://www.w3.org/Graphics/SVG/1.1/DTD/svg11.dtd">
<svg width="100%" height="100%" viewBox="0 0 108 108" version="1.1" xmlns="http://www.w3.org/2000/svg" xmlns:xlink="http://www.w3.org/1999/xlink" xml:space="preserve" xmlns:serif="http://www.serif.com/" style="fill-rule:evenodd;clip-rule:evenodd;stroke-linejoin:round;stroke-miterlimit:2;">
    <g>
        <path d="M27.468,8.786C19.761,13.317 13.316,19.761 8.785,27.468L14.614,39.445L27.645,37.456C30.137,33.495 33.495,30.137 37.456,27.645L42.187,14.614L27.468,8.786Z" style="fill:rgb(253,111,113);fill-rule:nonzero;"/>
        <path d="M37.456,80.355C33.495,77.864 30.137,74.505 27.645,70.544L17.508,66.445L8.785,80.532C13.316,88.24 19.761,94.684 27.468,99.215L40.289,95.133L37.456,80.355Z" style="fill:rgb(253,111,113);fill-rule:nonzero;"/>
        <path d="M80.532,8.786C88.24,13.317 94.684,19.761 99.215,27.468L93.386,39.445L80.355,37.456C77.864,33.495 74.505,30.137 70.544,27.645L65.813,14.614L80.532,8.786Z" style="fill:rgb(253,111,113);fill-rule:nonzero;"/>
        <path d="M70.544,80.355C74.505,77.864 77.864,74.505 80.355,70.544L90.492,66.445L99.215,80.532C94.684,88.24 88.24,94.684 80.532,99.215L67.711,95.133L70.544,80.355Z" style="fill:rgb(253,111,113);fill-rule:nonzero;"/>
        <path d="M15.114,27.468C19.156,20.592 24.723,14.726 31.35,10.322L27.468,8.786C20.242,13.033 14.127,18.963 9.657,26.038C9.359,26.51 9.068,26.986 8.785,27.468L11.91,33.889C12.834,31.668 13.905,29.523 15.114,27.468Z" style="fill:rgb(227,75,76);fill-rule:nonzero;"/>
        <path d="M80.532,8.786L70.544,27.645C65.752,24.631 60.08,22.887 54,22.887C47.921,22.887 42.249,24.631 37.457,27.645L27.469,8.786C35.25,4.208 44.318,1.582 54,1.582C63.682,1.582 72.751,4.208 80.532,8.786Z" style="fill:rgb(239,237,238);fill-rule:nonzero;"/>
        <path d="M106.418,54C106.418,63.682 103.792,72.75 99.215,80.532L80.355,70.544C83.369,65.751 85.114,60.079 85.114,54C85.114,47.921 83.369,42.249 80.355,37.456L99.215,27.469C103.792,35.25 106.418,44.318 106.418,54Z" style="fill:rgb(239,237,238);fill-rule:nonzero;"/>
        <path d="M15.114,80.532C14.053,78.729 13.099,76.857 12.257,74.925L8.785,80.532C11.617,85.349 15.196,89.673 19.364,93.344C21.865,95.547 24.578,97.515 27.468,99.214L31.659,97.88C24.897,93.455 19.218,87.514 15.114,80.532Z" style="fill:rgb(227,75,76);fill-rule:nonzero;"/>
        <path d="M80.532,99.214C72.751,103.792 63.682,106.418 54,106.418C44.318,106.418 35.25,103.792 27.469,99.214L37.457,80.355C42.249,83.369 47.921,85.113 54,85.113C60.08,85.113 65.752,83.369 70.544,80.355L80.532,99.214Z" style="fill:rgb(239,237,238);fill-rule:nonzero;"/>
        <path d="M22.887,54C22.887,60.079 24.631,65.751 27.646,70.544L8.786,80.532C4.208,72.75 1.582,63.682 1.582,54C1.582,44.318 4.208,35.25 8.786,27.469L27.646,37.456C24.631,42.249 22.887,47.921 22.887,54Z" style="fill:rgb(239,237,238);fill-rule:nonzero;"/>
        <path d="M8.786,80.532L13.687,77.936C9.996,70.761 7.91,62.624 7.91,54C7.91,45.375 9.996,37.238 13.687,30.064L8.786,27.468C4.208,35.25 1.582,44.318 1.582,54C1.582,57.263 1.883,60.533 2.486,63.74C3.596,69.647 5.738,75.351 8.786,80.532Z" style="fill:rgb(210,210,210);fill-rule:nonzero;"/>
        <path d="M29.115,11.894C30.617,10.779 32.177,9.738 33.797,8.786C40.724,4.711 48.672,2.184 57.164,1.678C56.908,1.663 56.652,1.649 56.395,1.638C55.874,1.614 55.353,1.597 54.832,1.589C54.555,1.585 54.278,1.582 54,1.582C50.369,1.582 46.825,1.952 43.402,2.655C37.8,3.805 32.398,5.886 27.469,8.786L29.115,11.894Z" style="fill:rgb(210,210,210);fill-rule:nonzero;"/>
        <path d="M55.384,106.395C55.464,106.393 55.545,106.392 55.625,106.392C56.139,106.375 56.652,106.352 57.164,106.322C48.672,105.816 40.724,103.289 33.797,99.214C32.177,98.262 30.617,97.221 29.115,96.106L27.469,99.214C27.712,99.357 27.956,99.498 28.202,99.638C29.186,100.196 30.189,100.722 31.208,101.214C35.036,103.066 39.124,104.467 43.403,105.345C46.825,106.048 50.37,106.418 54.001,106.418C54.462,106.418 54.923,106.395 55.384,106.395Z" style="fill:rgb(210,210,210);fill-rule:nonzero;"/>
        <path d="M40.978,15.185C41.852,15.185 42.56,14.477 42.56,13.603L42.56,11.246C42.56,10.373 41.852,9.664 40.978,9.664C40.104,9.664 39.396,10.373 39.396,11.246L39.396,13.603C39.396,14.477 40.104,15.185 40.978,15.185Z" style="fill-rule:nonzero;"/>
        <path d="M67.022,15.185C67.895,15.185 68.604,14.477 68.604,13.603L68.604,11.246C68.604,10.373 67.895,9.664 67.022,9.664C66.148,9.664 65.44,10.373 65.44,11.246L65.44,13.603C65.44,14.477 66.148,15.185 67.022,15.185Z" style="fill-rule:nonzero;"/>
        <path d="M54,16.443C55.709,16.443 57.314,15.728 58.405,14.48C58.98,13.823 58.913,12.823 58.255,12.248C57.597,11.673 56.598,11.74 56.023,12.398C55.533,12.958 54.796,13.279 54,13.279C53.203,13.279 52.466,12.958 51.977,12.398C51.401,11.74 50.402,11.673 49.744,12.248C49.086,12.823 49.019,13.823 49.594,14.48C50.685,15.728 52.29,16.443 54,16.443Z" style="fill-rule:nonzero;"/>
        <path d="M106.667,41.949C106.474,41.097 105.627,40.562 104.775,40.755C103.923,40.948 103.388,41.796 103.581,42.648C104.414,46.325 104.836,50.116 104.836,53.916C104.836,62.472 102.683,70.88 98.598,78.331L82.562,69.838C85.271,64.986 86.695,59.517 86.695,53.916C86.695,48.314 85.271,42.845 82.562,37.993L98.598,29.501C99.879,31.837 100.979,34.282 101.877,36.79C102.171,37.613 103.076,38.041 103.899,37.747C104.722,37.452 105.15,36.547 104.856,35.724C103.722,32.556 102.283,29.48 100.578,26.582C85.712,1.307 52.002,-7.565 26.667,7.337C10.302,16.963 0,34.923 0,53.916C0,58.357 0.543,62.779 1.613,67.057C1.825,67.905 2.684,68.42 3.532,68.208C4.379,67.996 4.895,67.137 4.683,66.289C3.675,62.262 3.164,58.099 3.164,53.916C3.164,45.359 5.317,36.951 9.402,29.501L25.438,37.993C22.729,42.845 21.305,48.315 21.305,53.916C21.305,59.516 22.729,64.986 25.438,69.838L17.629,73.974L9.402,78.331C8.303,76.326 7.336,74.24 6.519,72.111C6.206,71.295 5.291,70.887 4.475,71.2C3.66,71.513 3.252,72.428 3.565,73.244C7.925,84.612 16.175,94.323 26.668,100.495C34.922,105.35 44.373,107.916 54,107.916C82.462,107.916 106.73,84.658 107.95,56.241C108.156,51.449 107.727,46.628 106.667,41.949ZM96.988,26.772L89.679,30.643L80.882,35.302C78.65,32.088 75.828,29.266 72.613,27.033L77.413,17.97L81.143,10.927C87.521,14.963 92.953,20.395 96.988,26.772ZM78.415,9.318L69.923,25.354C65.07,22.645 59.601,21.22 54,21.22C48.399,21.22 42.93,22.645 38.078,25.354L29.585,9.318C37.035,5.232 45.443,3.08 54,3.08C62.557,3.08 70.965,5.232 78.415,9.318ZM26.857,10.927L30.587,17.97L35.387,27.034C32.172,29.266 29.35,32.088 27.118,35.302L18.321,30.644L11.012,26.773C15.047,20.395 20.48,14.963 26.857,10.927ZM29.017,38.234C34.373,29.682 43.901,24.384 54,24.384C69.954,24.384 83.531,37.843 83.531,53.915C83.531,69.978 70.05,83.447 54,83.447C37.948,83.447 24.469,69.955 24.469,53.916C24.469,48.326 26.105,42.886 29.017,38.234ZM11.012,81.059L18.321,77.188L27.118,72.529C29.35,75.743 32.172,78.565 35.386,80.798L30.728,89.595L26.857,96.904C20.48,92.869 15.047,87.436 11.012,81.059ZM54,104.751C45.443,104.751 37.035,102.599 29.585,98.513L38.078,82.477C42.93,85.187 48.399,86.611 54,86.611C59.601,86.611 65.07,85.187 69.923,82.477L74.058,90.286L78.415,98.513C70.965,102.599 62.557,104.751 54,104.751ZM81.143,96.904L77.272,89.595L72.613,80.798C75.828,78.566 78.65,75.743 80.882,72.529L89.679,77.188L96.988,81.059C92.953,87.436 87.521,92.869 81.143,96.904Z" style="fill-rule:nonzero;"/>
    </g>
</svg>
