<?xml version="1.0" encoding="UTF-8" standalone="no"?>
<!DOCTYPE svg PUBLIC "-//W3C//DTD SVG 1.1//EN" "http://www.w3.org/Graphics/SVG/1.1/DTD/svg11.dtd">
<svg width="100%" height="100%" viewBox="0 0 110 110" version="1.1" xmlns="http://www.w3.org/2000/svg" xmlns:xlink="http://www.w3.org/1999/xlink" xml:space="preserve" xmlns:serif="http://www.serif.com/" style="fill-rule:evenodd;clip-rule:evenodd;stroke-linejoin:round;stroke-miterlimit:2;">
    <g>
        <path d="M24.338,7.014L19.09,4.701L12.158,4.701C6.333,4.701 1.611,9.423 1.611,15.247L1.611,18.199C1.611,19.194 2.418,20.001 3.413,20.001L22.704,20.001L29.19,10.381L24.338,7.014Z" style="fill:rgb(245,158,24);fill-rule:nonzero;"/>
        <path d="M33.251,105.299C27.426,105.299 22.704,100.577 22.704,94.753L22.704,15.247C22.704,9.423 17.982,4.701 12.158,4.701L87.374,4.701C93.199,4.701 97.921,9.423 97.921,15.247L97.921,100.749L34.121,105.299L33.251,105.299Z" style="fill:rgb(250,182,89);fill-rule:nonzero;"/>
        <path d="M106.587,89.999L45.599,89.999C44.603,89.999 43.797,90.806 43.797,91.801L43.797,94.753C43.797,100.577 39.075,105.299 33.251,105.299L97.842,105.299C103.667,105.299 108.389,100.577 108.389,94.753L108.389,91.801C108.389,90.806 107.582,89.999 106.587,89.999Z" style="fill:rgb(248,232,106);fill-rule:nonzero;"/>
        <path d="M43.634,25.779L43.634,22.469C43.634,21.579 42.913,20.858 42.023,20.858C41.133,20.858 40.412,21.579 40.412,22.469L40.412,25.779C40.412,26.669 41.133,27.39 42.023,27.39C42.913,27.39 43.634,26.669 43.634,25.779Z" style="fill-rule:nonzero;"/>
        <path d="M80.213,25.779L80.213,22.469C80.213,21.579 79.492,20.858 78.602,20.858C77.712,20.858 76.991,21.579 76.991,22.469L76.991,25.779C76.991,26.669 77.712,27.39 78.602,27.39C79.492,27.39 80.213,26.669 80.213,25.779Z" style="fill-rule:nonzero;"/>
        <path d="M60.312,29.157C62.537,29.157 64.624,28.229 66.04,26.609C66.625,25.939 66.557,24.921 65.887,24.336C65.217,23.75 64.199,23.818 63.613,24.488C62.81,25.408 61.607,25.935 60.312,25.935C59.018,25.935 57.815,25.408 57.011,24.488C56.426,23.818 55.408,23.75 54.738,24.336C54.068,24.921 53.999,25.939 54.585,26.609C56.001,28.229 58.088,29.157 60.312,29.157Z" style="fill-rule:nonzero;"/>
        <path d="M36.447,43.951C36.447,44.842 37.169,45.563 38.059,45.563L82.566,45.563C83.456,45.563 84.178,44.842 84.178,43.951C84.178,43.062 83.456,42.34 82.566,42.34L38.059,42.34C37.169,42.34 36.447,43.062 36.447,43.951Z" style="fill-rule:nonzero;"/>
        <path d="M38.059,55.218L82.566,55.218C83.456,55.218 84.178,54.497 84.178,53.607C84.178,52.717 83.456,51.995 82.566,51.995L38.059,51.995C37.169,51.995 36.447,52.717 36.447,53.607C36.447,54.497 37.169,55.218 38.059,55.218Z" style="fill-rule:nonzero;"/>
        <path d="M38.059,64.873L82.566,64.873C83.456,64.873 84.178,64.152 84.178,63.262C84.178,62.372 83.456,61.65 82.566,61.65L38.059,61.65C37.169,61.65 36.447,62.372 36.447,63.262C36.447,64.152 37.169,64.873 38.059,64.873Z" style="fill-rule:nonzero;"/>
        <path d="M82.566,79.806L65.683,79.806C64.793,79.806 64.072,80.527 64.072,81.417C64.072,82.307 64.793,83.028 65.683,83.028L82.566,83.028C83.456,83.028 84.178,82.307 84.178,81.417C84.178,80.527 83.456,79.806 82.566,79.806Z" style="fill-rule:nonzero;"/>
        <path d="M3.413,21.612L21.093,21.612L21.093,70.987C21.093,71.876 21.814,72.598 22.704,72.598C23.594,72.598 24.316,71.876 24.316,70.987L24.316,15.247C24.316,11.891 22.86,8.587 20.394,6.312L87.375,6.312C92.301,6.312 96.31,10.321 96.31,15.247L96.31,34.267C96.31,35.157 97.031,35.878 97.921,35.878C98.811,35.878 99.532,35.157 99.532,34.267L99.532,15.247C99.532,8.544 94.078,3.09 87.375,3.09L12.158,3.09C5.454,3.09 0,8.544 0,15.247L0,18.199C0,20.081 1.531,21.612 3.413,21.612ZM3.223,15.247C3.223,10.321 7.231,6.312 12.158,6.312C16.757,6.312 20.776,10.105 21.075,14.692C21.087,14.877 21.093,15.062 21.093,15.247L21.093,18.39L3.413,18.39C3.308,18.39 3.223,18.304 3.223,18.199L3.223,15.247Z" style="fill-rule:nonzero;"/>
        <path d="M110,94.753L110,91.801C110,89.919 108.469,88.388 106.587,88.388L99.532,88.388L99.532,40.712C99.532,39.822 98.811,39.101 97.921,39.101C97.031,39.101 96.31,39.822 96.31,40.712L96.31,88.388L45.599,88.388C43.769,88.388 42.186,89.938 42.186,91.801L42.186,94.753C42.186,99.593 38.026,103.716 33.197,103.687C28.294,103.658 24.316,99.661 24.316,94.753L24.316,77.432C24.316,76.542 23.594,75.82 22.704,75.82C21.815,75.82 21.093,76.542 21.093,77.432L21.093,94.753C21.093,101.456 26.547,106.91 33.252,106.91L97.843,106.91C104.546,106.91 110,101.456 110,94.753ZM97.843,103.688L41.487,103.688C43.362,101.957 44.69,99.644 45.188,97.041C45.507,95.374 45.408,93.535 45.408,91.801C45.408,91.697 45.495,91.611 45.599,91.611L106.587,91.611C106.692,91.611 106.777,91.696 106.777,91.801L106.777,94.753C106.777,99.679 102.769,103.688 97.843,103.688Z" style="fill-rule:nonzero;"/>
    </g>
</svg>
