<?xml version="1.0" encoding="UTF-8" standalone="no"?>
<!DOCTYPE svg PUBLIC "-//W3C//DTD SVG 1.1//EN" "http://www.w3.org/Graphics/SVG/1.1/DTD/svg11.dtd">
<svg width="100%" height="100%" viewBox="0 0 101 101" version="1.1" xmlns="http://www.w3.org/2000/svg" xmlns:xlink="http://www.w3.org/1999/xlink" xml:space="preserve" xmlns:serif="http://www.serif.com/" style="fill-rule:evenodd;clip-rule:evenodd;stroke-linejoin:round;stroke-miterlimit:2;">
    <g>
        <path d="M71.41,52.695C68.675,52.695 66.459,50.478 66.459,47.742L66.459,24.268C66.459,17.055 60.59,11.187 53.377,11.187L47.936,11.187C40.724,11.187 34.855,17.055 34.855,24.268L34.855,47.742C34.855,50.478 32.638,52.695 29.903,52.695C27.168,52.695 24.95,50.478 24.95,47.742L24.95,24.268C24.95,11.594 35.262,1.282 47.936,1.282L53.377,1.282C66.052,1.282 76.363,11.594 76.363,24.268L76.363,47.742C76.363,50.478 74.146,52.695 71.41,52.695Z" style="fill:rgb(163,222,254);fill-rule:nonzero;"/>
        <path d="M24.95,29.994L24.95,47.742C24.95,50.478 27.167,52.695 29.903,52.695C32.637,52.695 34.855,50.478 34.855,47.742L34.855,28.11C31.529,28.587 28.224,29.217 24.95,29.994Z" style="fill:rgb(122,206,250);fill-rule:nonzero;"/>
        <path d="M71.41,52.695C74.146,52.695 76.363,50.478 76.363,47.742L76.363,29.994C73.089,29.217 69.784,28.587 66.458,28.11L66.458,47.742C66.458,50.478 68.675,52.695 71.41,52.695Z" style="fill:rgb(122,206,250);fill-rule:nonzero;"/>
        <path d="M79.995,81.279C60.819,86.757 40.493,86.757 21.318,81.279C18.333,80.426 16.274,77.697 16.274,74.593L16.274,42.277C16.274,39.172 18.333,36.443 21.318,35.59C40.493,30.112 60.819,30.112 79.995,35.59C82.98,36.443 85.039,39.172 85.039,42.277L85.039,74.593C85.039,77.697 82.98,80.426 79.995,81.279Z" style="fill:rgb(247,239,135);fill-rule:nonzero;"/>
        <path d="M40.473,31.973C34.019,32.59 27.606,33.794 21.318,35.59C18.333,36.443 16.274,39.172 16.274,42.277L16.274,74.593C16.274,77.697 18.333,80.426 21.318,81.279C31.704,84.247 42.429,85.603 53.125,85.355C36.973,69.576 33.606,49.376 40.473,31.973Z" style="fill:rgb(239,209,118);fill-rule:nonzero;"/>
        <path d="M79.995,81.279C82.98,80.426 85.039,77.697 85.039,74.593L85.039,66.406C71.601,69.711 60.588,70.208 50.656,70.208C40.726,70.208 29.712,69.711 16.274,66.406L16.274,74.593C16.274,77.697 18.333,80.426 21.318,81.279C40.493,86.757 60.819,86.757 79.995,81.279Z" style="fill:rgb(237,161,171);fill-rule:nonzero;"/>
        <path d="M41.914,70.035C34.283,69.7 25.9,68.773 16.274,66.406L16.274,74.593C16.274,77.697 18.333,80.426 21.318,81.279C31.704,84.247 42.429,85.603 53.125,85.355C48.243,80.586 44.531,75.413 41.914,70.035Z" style="fill:rgb(226,110,126);fill-rule:nonzero;"/>
        <path d="M66.194,99.323L35.119,99.323C29.044,99.323 24.12,94.399 24.12,88.324C24.12,82.25 29.044,77.326 35.119,77.326L66.194,77.326C72.269,77.326 77.193,82.25 77.193,88.324C77.193,94.399 72.269,99.323 66.194,99.323Z" style="fill:rgb(163,222,254);fill-rule:nonzero;"/>
        <path d="M35.119,77.326C29.044,77.326 24.12,82.25 24.12,88.324C24.12,94.399 29.044,99.323 35.119,99.323L49.069,99.323C42.525,95.676 37.854,84.67 43.168,77.326L35.119,77.326Z" style="fill:rgb(122,206,250);fill-rule:nonzero;"/>
        <path d="M41.477,95.142C40.659,95.142 39.997,94.479 39.997,93.662L39.997,82.988C39.997,82.171 40.659,81.509 41.477,81.509C42.293,81.509 42.956,82.171 42.956,82.988L42.956,93.662C42.956,94.479 42.293,95.142 41.477,95.142Z" style="fill:rgb(106,150,215);fill-rule:nonzero;"/>
        <path d="M45.25,93.578C44.871,93.578 44.493,93.433 44.204,93.145L36.657,85.597C36.079,85.019 36.079,84.082 36.657,83.504C37.234,82.927 38.171,82.927 38.749,83.504L46.296,91.052C46.874,91.63 46.874,92.567 46.296,93.145C46.008,93.433 45.628,93.578 45.25,93.578Z" style="fill:rgb(106,150,215);fill-rule:nonzero;"/>
        <path d="M46.814,89.804L36.14,89.804C35.322,89.804 34.66,89.142 34.66,88.324C34.66,87.507 35.322,86.845 36.14,86.845L46.814,86.845C47.63,86.845 48.293,87.507 48.293,88.324C48.293,89.142 47.63,89.804 46.814,89.804Z" style="fill:rgb(106,150,215);fill-rule:nonzero;"/>
        <path d="M37.702,93.578C37.324,93.578 36.946,93.433 36.657,93.145C36.079,92.566 36.079,91.63 36.657,91.052L44.204,83.504C44.782,82.927 45.719,82.927 46.296,83.504C46.874,84.082 46.874,85.019 46.296,85.597L38.749,93.145C38.46,93.433 38.081,93.578 37.702,93.578Z" style="fill:rgb(106,150,215);fill-rule:nonzero;"/>
        <path d="M59.837,95.142C59.019,95.142 58.357,94.479 58.357,93.662L58.357,82.988C58.357,82.171 59.019,81.509 59.837,81.509C60.654,81.509 61.316,82.171 61.316,82.988L61.316,93.662C61.316,94.479 60.654,95.142 59.837,95.142Z" style="fill:rgb(106,150,215);fill-rule:nonzero;"/>
        <path d="M63.61,93.578C63.232,93.578 62.853,93.433 62.565,93.145L55.017,85.597C54.439,85.019 54.439,84.082 55.017,83.504C55.595,82.927 56.531,82.927 57.109,83.504L64.657,91.052C65.235,91.63 65.235,92.567 64.657,93.145C64.368,93.433 63.989,93.578 63.61,93.578Z" style="fill:rgb(106,150,215);fill-rule:nonzero;"/>
        <path d="M65.174,89.804L54.5,89.804C53.682,89.804 53.021,89.142 53.021,88.324C53.021,87.507 53.682,86.845 54.5,86.845L65.174,86.845C65.991,86.845 66.653,87.507 66.653,88.324C66.653,89.142 65.991,89.804 65.174,89.804Z" style="fill:rgb(106,150,215);fill-rule:nonzero;"/>
        <path d="M56.063,93.578C55.684,93.578 55.306,93.433 55.017,93.145C54.439,92.566 54.439,91.63 55.017,91.052L62.565,83.504C63.142,82.927 64.079,82.927 64.657,83.504C65.235,84.082 65.235,85.019 64.657,85.597L57.109,93.145C56.82,93.433 56.442,93.578 56.063,93.578Z" style="fill:rgb(106,150,215);fill-rule:nonzero;"/>
        <path d="M39.495,54.477C39.495,51.607 36.574,49.28 32.969,49.28C29.366,49.28 26.444,51.607 26.444,54.477C26.444,57.347 29.366,59.675 32.969,59.675C36.574,59.675 39.495,57.347 39.495,54.477Z" style="fill:rgb(237,161,171);fill-rule:nonzero;"/>
        <path d="M74.869,54.477C74.869,51.607 71.947,49.28 68.343,49.28C64.739,49.28 61.817,51.607 61.817,54.477C61.817,57.347 64.739,59.675 68.343,59.675C71.947,59.675 74.869,57.347 74.869,54.477Z" style="fill:rgb(237,161,171);fill-rule:nonzero;"/>
        <path d="M36.773,44.236C34.245,44.236 32.187,46.294 32.187,48.822C32.187,49.639 32.85,50.301 33.667,50.301C34.484,50.301 35.146,49.639 35.146,48.822C35.146,47.925 35.876,47.195 36.773,47.195C37.67,47.195 38.4,47.925 38.4,48.822C38.4,49.639 39.062,50.301 39.88,50.301C40.697,50.301 41.359,49.639 41.359,48.822C41.359,46.294 39.302,44.236 36.773,44.236ZM54.924,51.337C54.307,50.801 53.373,50.865 52.836,51.48C52.285,52.112 51.492,52.474 50.656,52.474C49.822,52.474 49.027,52.112 48.477,51.48C47.94,50.865 47.005,50.801 46.39,51.337C45.773,51.874 45.709,52.809 46.246,53.424C47.358,54.701 48.966,55.433 50.656,55.433C52.347,55.433 53.954,54.701 55.067,53.424C55.603,52.809 55.539,51.874 54.924,51.337ZM80.401,34.168C79.55,33.924 78.697,33.696 77.842,33.474L77.842,24.269C77.842,20.396 76.96,16.69 75.218,13.251C74.849,12.522 73.959,12.23 73.23,12.599C72.501,12.968 72.209,13.859 72.578,14.588C74.108,17.608 74.883,20.865 74.883,24.268L74.883,32.747C72.579,32.218 70.263,31.767 67.938,31.392L67.938,24.269C67.938,16.24 61.406,9.708 53.376,9.708L47.937,9.708C39.908,9.708 33.376,16.24 33.376,24.269L33.376,31.392C31.051,31.767 28.734,32.218 26.43,32.747L26.43,24.269C26.43,12.409 36.077,2.762 47.936,2.762L53.376,2.762C59.223,2.762 64.695,5.077 68.785,9.28C69.355,9.866 70.291,9.878 70.877,9.308C71.463,8.738 71.476,7.802 70.905,7.216C66.253,2.436 60.028,-0.197 53.376,-0.197L47.936,-0.197C34.446,-0.197 23.471,10.778 23.471,24.268L23.471,33.474C22.616,33.696 21.762,33.924 20.912,34.168C17.31,35.197 14.795,38.531 14.795,42.277L14.795,74.593C14.795,78.338 17.31,81.673 20.912,82.702C21.788,82.952 22.703,83.198 23.639,83.437C22.997,84.939 22.641,86.591 22.641,88.324C22.641,90.044 22.984,91.711 23.663,93.278C23.988,94.027 24.858,94.372 25.608,94.047C26.358,93.723 26.703,92.851 26.378,92.102C25.861,90.908 25.6,89.637 25.6,88.324C25.6,83.075 29.869,78.805 35.119,78.805L66.193,78.805C71.443,78.805 75.713,83.075 75.713,88.324C75.713,93.573 71.443,97.843 66.193,97.843L35.119,97.843C33.44,97.843 31.79,97.401 30.349,96.564C29.641,96.153 28.737,96.394 28.326,97.101C27.916,97.808 28.156,98.713 28.863,99.123C30.756,100.222 32.919,100.803 35.119,100.803L66.194,100.803C73.075,100.803 78.673,95.205 78.673,88.324C78.673,86.591 78.316,84.939 77.675,83.437C78.61,83.198 79.524,82.952 80.401,82.702C84.003,81.673 86.518,78.338 86.518,74.593L86.518,42.277C86.518,38.531 84.003,35.197 80.401,34.168ZM36.335,24.268C36.335,17.871 41.539,12.667 47.936,12.667L53.376,12.667C59.774,12.667 64.978,17.871 64.978,24.268L64.978,30.955C55.471,29.685 45.842,29.685 36.335,30.955L36.335,24.268ZM83.559,74.593C83.559,77.024 81.926,79.188 79.588,79.857C78.484,80.173 77.32,80.481 76.123,80.778C73.842,77.784 70.24,75.847 66.194,75.847L35.119,75.847C31.072,75.847 27.471,77.784 25.19,80.778C23.992,80.481 22.83,80.173 21.725,79.857C19.387,79.188 17.754,77.025 17.754,74.593L17.754,68.279C30.649,71.261 41.18,71.688 50.656,71.688C60.134,71.688 70.664,71.261 83.559,68.279L83.559,74.593ZM83.559,65.24C70.645,68.297 60.119,68.728 50.656,68.728C41.194,68.728 30.669,68.297 17.754,65.241L17.754,42.277C17.754,39.845 19.387,37.681 21.725,37.013C26.101,35.763 30.535,34.805 35.001,34.133C35.047,34.129 35.093,34.122 35.138,34.113C45.426,32.578 55.878,32.578 66.167,34.112C66.214,34.122 66.263,34.129 66.312,34.133C70.778,34.805 75.212,35.763 79.588,37.013C81.926,37.681 83.559,39.845 83.559,42.277L83.559,65.24ZM64.54,44.236C62.011,44.236 59.954,46.294 59.954,48.822C59.954,49.639 60.616,50.301 61.434,50.301C62.25,50.301 62.913,49.639 62.913,48.822C62.913,47.925 63.643,47.195 64.54,47.195C65.437,47.195 66.166,47.925 66.166,48.822C66.166,49.639 66.829,50.301 67.646,50.301C68.463,50.301 69.125,49.639 69.125,48.822C69.125,46.294 67.069,44.236 64.54,44.236Z" style="fill-rule:nonzero;"/>
    </g>
</svg>
