<?xml version="1.0" encoding="UTF-8" standalone="no"?>
<!DOCTYPE svg PUBLIC "-//W3C//DTD SVG 1.1//EN" "http://www.w3.org/Graphics/SVG/1.1/DTD/svg11.dtd">
<svg width="100%" height="100%" viewBox="0 0 101 101" version="1.1" xmlns="http://www.w3.org/2000/svg" xmlns:xlink="http://www.w3.org/1999/xlink" xml:space="preserve" xmlns:serif="http://www.serif.com/" style="fill-rule:evenodd;clip-rule:evenodd;stroke-linejoin:round;stroke-miterlimit:2;">
    <g>
        <path d="M27.037,47.715L29.744,53.344C30.592,55.106 32.253,56.339 34.185,56.641L40.357,57.602C44.063,58.179 45.497,62.754 42.786,65.344L38.269,69.659C36.855,71.009 36.195,72.97 36.506,74.901L37.5,81.067C38.096,84.769 34.188,87.549 30.886,85.77L25.388,82.808C23.666,81.88 21.597,81.858 19.857,82.751L14.299,85.601C10.962,87.312 7.112,84.454 7.783,80.765L8.902,74.62C9.251,72.696 8.633,70.722 7.246,69.343L2.818,64.937C0.159,62.293 1.687,57.747 5.404,57.246L11.594,56.41C13.532,56.149 15.218,54.95 16.101,53.206L18.922,47.633C20.616,44.287 25.412,44.335 27.037,47.715Z" style="fill:rgb(244,231,77);fill-rule:nonzero;"/>
        <path d="M40.357,57.602L34.185,56.641C32.253,56.339 30.592,55.106 29.744,53.344L27.037,47.715C25.412,44.335 20.616,44.287 18.922,47.633L16.549,52.321C17.485,53.802 18.74,55.576 20.331,57.388C22.84,60.245 23.937,64.065 23.349,67.821C22.755,71.614 22.447,76.771 23.646,82.194C24.247,82.305 24.835,82.509 25.388,82.808L30.887,85.77C34.188,87.549 38.096,84.769 37.5,81.067L36.506,74.901C36.196,72.97 36.855,71.009 38.269,69.659L42.786,65.344C45.497,62.754 44.063,58.179 40.357,57.602Z" style="fill:rgb(238,219,0);fill-rule:nonzero;"/>
        <path d="M82.368,48.355L85.075,53.983C85.923,55.746 87.584,56.979 89.516,57.279L95.688,58.241C99.393,58.818 100.829,63.393 98.117,65.984L93.6,70.297C92.186,71.648 91.527,73.609 91.837,75.54L92.83,81.706C93.427,85.409 89.519,88.188 86.217,86.409L80.719,83.446C78.996,82.519 76.928,82.498 75.188,83.39L69.63,86.241C66.293,87.952 62.442,85.094 63.114,81.404L64.232,75.259C64.583,73.335 63.963,71.362 62.576,69.982L58.149,65.577C55.49,62.932 57.018,58.387 60.735,57.885L66.925,57.05C68.863,56.789 70.549,55.59 71.433,53.844L74.254,48.272C75.947,44.926 80.743,44.975 82.368,48.355Z" style="fill:rgb(244,231,77);fill-rule:nonzero;"/>
        <path d="M84.628,53.053L82.368,48.355C80.743,44.975 75.947,44.926 74.254,48.272L71.433,53.844C70.549,55.59 68.863,56.788 66.925,57.05L60.735,57.885C57.018,58.386 55.49,62.932 58.149,65.577L62.577,69.982C63.963,71.361 64.583,73.335 64.232,75.259L63.114,81.404C62.442,85.094 66.293,87.951 69.63,86.241L75.188,83.39C76.049,82.949 76.99,82.731 77.929,82.736C78.868,77.598 78.497,72.094 77.942,68.543C77.354,64.787 78.451,60.967 80.959,58.11C82.137,56.769 83.578,54.66 84.628,53.053Z" style="fill:rgb(238,219,0);fill-rule:nonzero;"/>
        <path d="M55.856,27.898L59.306,35.072C60.386,37.319 62.503,38.89 64.967,39.274L72.833,40.498C77.556,41.234 79.385,47.066 75.929,50.367L70.172,55.865C68.369,57.587 67.529,60.086 67.926,62.547L69.191,70.406C69.951,75.125 64.97,78.667 60.762,76.4L53.754,72.624C51.56,71.442 48.923,71.415 46.705,72.552L39.621,76.185C35.368,78.366 30.461,74.723 31.316,70.021L32.742,62.189C33.188,59.736 32.399,57.221 30.632,55.462L24.988,49.848C21.599,46.477 23.547,40.684 28.284,40.045L36.173,38.98C38.643,38.647 40.792,37.119 41.918,34.895L45.514,27.793C47.673,23.529 53.785,23.59 55.856,27.898Z" style="fill:rgb(249,238,128);fill-rule:nonzero;"/>
        <path d="M39.489,51.113C39.489,49.323 37.666,47.871 35.418,47.871C33.168,47.871 31.346,49.323 31.346,51.113C31.346,52.904 33.168,54.356 35.418,54.356C37.666,54.356 39.489,52.904 39.489,51.113Z" style="fill:rgb(255,131,180);fill-rule:nonzero;"/>
        <path d="M69.654,51.113C69.654,49.323 67.832,47.871 65.582,47.871C63.334,47.871 61.511,49.323 61.511,51.113C61.511,52.904 63.334,54.356 65.582,54.356C67.832,54.356 69.654,52.904 69.654,51.113Z" style="fill:rgb(255,131,180);fill-rule:nonzero;"/>
        <path d="M20.199,15.458L21.163,17.22C22.125,18.978 23.569,20.424 25.328,21.385L27.09,22.349C28.894,23.336 28.894,25.926 27.09,26.913L25.328,27.877C23.569,28.838 22.125,30.283 21.163,32.042L20.199,33.804C19.212,35.608 16.622,35.608 15.635,33.804L14.672,32.042C13.71,30.283 12.264,28.838 10.506,27.877L8.744,26.913C6.94,25.926 6.94,23.336 8.744,22.349L10.506,21.385C12.264,20.424 13.71,18.978 14.672,17.22L15.635,15.458C16.622,13.654 19.212,13.654 20.199,15.458Z" style="fill:rgb(176,240,239);fill-rule:nonzero;"/>
        <path d="M86.039,25.572L86.711,26.799C87.379,28.023 88.386,29.029 89.609,29.699L90.836,30.37C92.092,31.056 92.092,32.859 90.836,33.546L89.609,34.217C88.386,34.886 87.379,35.892 86.711,37.116L86.039,38.343C85.353,39.598 83.55,39.598 82.862,38.343L82.192,37.116C81.522,35.892 80.517,34.886 79.292,34.217L78.066,33.546C76.81,32.859 76.81,31.056 78.066,30.37L79.292,29.699C80.517,29.029 81.522,28.023 82.192,26.799L82.862,25.572C83.55,24.317 85.353,24.317 86.039,25.572Z" style="fill:rgb(176,240,239);fill-rule:nonzero;"/>
        <path d="M62.693,45.152C61.875,45.152 61.213,45.814 61.213,46.631L61.213,49.088C61.213,49.904 61.875,50.567 62.693,50.567C63.509,50.567 64.172,49.904 64.172,49.088L64.172,46.631C64.172,45.814 63.509,45.152 62.693,45.152Z" style="fill-rule:nonzero;"/>
        <path d="M38.308,45.152C37.491,45.152 36.829,45.814 36.829,46.631L36.829,49.088C36.829,49.904 37.491,50.567 38.308,50.567C39.125,50.567 39.788,49.904 39.788,49.088L39.788,46.631C39.788,45.814 39.125,45.152 38.308,45.152Z" style="fill-rule:nonzero;"/>
        <path d="M53.559,47.185C53.309,47.021 52.201,46.595 51.51,47.61C51.179,48.096 50.696,48.154 50.5,48.154C50.303,48.154 49.813,48.101 49.489,47.61C49.04,46.926 48.124,46.737 47.441,47.185C46.757,47.633 46.568,48.551 47.016,49.234C47.789,50.411 49.091,51.113 50.5,51.113C51.908,51.113 53.21,50.411 53.984,49.234C54.432,48.551 54.242,47.633 53.559,47.185Z" style="fill-rule:nonzero;"/>
        <path d="M8.034,28.211L9.796,29.174C11.309,30.001 12.546,31.239 13.373,32.752L14.337,34.514C15.053,35.823 16.425,36.637 17.917,36.636C19.409,36.636 20.781,35.823 21.497,34.514L22.461,32.752C23.288,31.239 24.525,30.002 26.038,29.174L27.801,28.211C29.109,27.495 29.923,26.123 29.923,24.631C29.923,23.139 29.109,21.767 27.801,21.051C27.083,20.659 26.185,20.923 25.792,21.639C25.4,22.356 25.664,23.255 26.38,23.647C26.907,23.935 26.964,24.431 26.964,24.631C26.964,24.831 26.907,25.326 26.38,25.615L24.618,26.578C22.608,27.678 20.964,29.322 19.865,31.331L18.901,33.094C18.613,33.62 18.117,33.677 17.917,33.677C17.718,33.677 17.221,33.62 16.933,33.094L15.97,31.331C14.87,29.322 13.227,27.677 11.216,26.578L9.454,25.615C8.928,25.326 8.871,24.83 8.871,24.631C8.871,24.431 8.928,23.935 9.454,23.647L11.216,22.683C13.227,21.584 14.87,19.94 15.97,17.93L16.933,16.167C17.221,15.641 17.718,15.584 17.917,15.584C18.117,15.584 18.613,15.641 18.901,16.167C18.901,16.167 20.225,18.926 21.188,19.868C21.772,20.439 22.645,20.577 23.272,20.052C23.898,19.529 24.009,18.571 23.457,17.969C22.666,17.106 21.497,14.747 21.497,14.747C20.781,13.439 19.41,12.625 17.917,12.625C16.425,12.625 15.053,13.439 14.337,14.747L13.373,16.509C12.546,18.022 11.31,19.26 9.796,20.087L8.034,21.051C6.725,21.767 5.912,23.139 5.912,24.631C5.911,26.122 6.725,27.495 8.034,28.211Z" style="fill-rule:nonzero;"/>
        <path d="M77.356,34.844L78.583,35.515C79.56,36.05 80.359,36.849 80.894,37.826L81.564,39.053C82.142,40.109 83.248,40.764 84.451,40.764C85.654,40.764 86.76,40.109 87.337,39.053L88.008,37.827C88.543,36.849 89.342,36.05 90.319,35.515L91.546,34.844C92.602,34.267 93.257,33.161 93.257,31.958C93.257,30.754 92.602,29.648 91.546,29.071L90.319,28.4C89.342,27.866 88.542,27.067 88.008,26.089L87.337,24.862C86.76,23.807 85.654,23.151 84.451,23.151C83.248,23.151 82.142,23.807 81.565,24.862L80.894,26.089C80.359,27.067 79.56,27.866 78.583,28.4L77.356,29.071C76.3,29.648 75.644,30.754 75.644,31.958C75.644,33.161 76.3,34.267 77.356,34.844ZM80.002,30.996C81.478,30.19 82.683,28.983 83.49,27.509C83.49,27.509 84.362,26.11 84.451,26.11C84.54,26.11 85.412,27.509 85.412,27.509C86.219,28.984 87.425,30.19 88.9,30.996C88.9,30.996 90.298,31.868 90.298,31.958C90.298,32.047 88.9,32.919 88.9,32.919C87.425,33.725 86.219,34.932 85.412,36.406C85.412,36.406 84.541,37.805 84.451,37.805C84.361,37.805 83.49,36.406 83.49,36.406C82.683,34.932 81.477,33.725 80.002,32.919C80.002,32.919 78.603,32.047 78.603,31.958C78.603,31.868 80.002,30.996 80.002,30.996Z" style="fill-rule:nonzero;"/>
        <path d="M100.72,60.914C100.031,58.718 98.191,57.133 95.915,56.779L89.744,55.818C88.293,55.592 87.045,54.667 86.409,53.342L83.701,47.714C82.774,45.786 80.991,44.554 78.947,44.343C78.919,44.238 78.166,39.653 73.061,39.036L65.195,37.812C63.212,37.503 61.509,36.239 60.64,34.431L57.189,27.257C55.985,24.753 53.511,23.18 50.733,23.152C47.949,23.116 45.449,24.646 44.194,27.125L40.598,34.227C39.692,36.017 37.964,37.246 35.976,37.514L28.087,38.579C22.835,39.341 22.13,43.638 22.103,43.732C20.177,44.005 18.502,45.188 17.602,46.965L14.781,52.537C14.118,53.848 12.852,54.748 11.396,54.944L5.206,55.779C2.924,56.087 1.051,57.634 0.317,59.816C-0.416,61.998 0.142,64.362 1.775,65.986L6.202,70.391C7.244,71.428 7.709,72.909 7.445,74.355L6.327,80.5C5.915,82.765 6.807,85.024 8.656,86.396C10.504,87.768 12.926,87.968 14.975,86.917L20.532,84.068C21.84,83.397 23.392,83.413 24.686,84.11L30.184,87.072C31.085,87.557 33.659,88.646 36.512,86.68C38.408,85.374 39.326,83.104 38.96,80.832L38.526,78.135C39.868,77.875 47.38,73.868 47.38,73.868C49.165,72.953 51.286,72.974 53.052,73.926L60.06,77.702C63.453,79.542 66.438,78.123 67.697,77.229C69.962,75.618 71.094,72.914 70.652,70.171L69.386,62.311C69.067,60.33 69.743,58.321 71.194,56.935L76.951,51.436C78.117,50.323 78.849,48.898 79.099,47.381C79.842,47.579 80.587,48.064 81.035,48.996L83.742,54.624C84.801,56.826 86.875,58.365 89.289,58.741L95.46,59.702C96.632,59.885 97.543,60.669 97.898,61.8C98.252,62.931 97.952,64.095 97.096,64.914L92.579,69.228C90.812,70.916 89.989,73.363 90.377,75.775L91.37,81.942C91.558,83.112 91.094,84.221 90.128,84.908C89.162,85.594 87.963,85.669 86.919,85.106L81.421,82.144C79.27,80.985 76.687,80.959 74.513,82.073L68.955,84.924C67.783,85.525 66.768,85.211 66.266,84.97C65.396,84.553 64.764,83.757 64.577,82.843C64.413,82.043 63.631,81.527 62.83,81.69C62.03,81.855 61.514,82.637 61.678,83.437C62.05,85.252 63.287,86.822 64.985,87.638C66.68,88.451 68.619,88.421 70.306,87.557L75.863,84.706C77.171,84.036 78.724,84.052 80.017,84.749L85.515,87.711C86.416,88.196 89.122,89.288 91.843,87.319C93.708,85.969 94.657,83.743 94.291,81.471L93.299,75.305C93.065,73.854 93.56,72.382 94.623,71.367L99.139,67.053C100.804,65.464 101.41,63.111 100.72,60.914ZM34.797,84.268C33.831,84.955 32.631,85.029 31.588,84.468L26.089,81.505C23.939,80.346 21.356,80.32 19.182,81.435L13.624,84.284C12.569,84.825 11.371,84.726 10.42,84.02C9.468,83.314 9.026,82.196 9.238,81.029L10.357,74.885C10.794,72.481 10.021,70.016 8.289,68.293L3.861,63.889C3.021,63.053 2.745,61.883 3.122,60.759C3.5,59.636 4.427,58.87 5.602,58.712L11.792,57.877C14.213,57.55 16.318,56.054 17.421,53.873L20.243,48.301C20.602,47.591 21.181,47.077 21.882,46.819C22.104,48.333 22.807,49.765 23.945,50.897L29.588,56.511C31.011,57.927 31.646,59.95 31.286,61.924L29.86,69.756C29.363,72.489 30.111,77.103 35.533,78.156L36.039,81.303C36.228,82.473 35.763,83.581 34.797,84.268ZM74.907,49.297L69.15,54.795C66.995,56.854 65.991,59.839 66.465,62.782L67.73,70.642C67.996,72.289 67.342,73.851 65.982,74.817C64.622,75.784 62.933,75.89 61.464,75.097L54.455,71.322C53.115,70.6 51.639,70.238 50.161,70.238C48.745,70.238 47.328,70.57 46.03,71.236L38.946,74.869C37.461,75.63 35.774,75.49 34.434,74.496C33.094,73.501 32.472,71.927 32.772,70.286L34.197,62.454C34.731,59.521 33.788,56.516 31.675,54.414L26.031,48.799C24.848,47.623 24.459,45.975 24.991,44.393C25.523,42.811 26.828,41.734 28.482,41.511L36.371,40.446C39.324,40.048 41.892,38.222 43.238,35.563L46.834,28.461C47.587,26.972 49.03,26.098 50.703,26.11C52.372,26.128 53.8,27.035 54.522,28.54L57.973,35.714C59.265,38.4 61.794,40.277 64.739,40.735L72.605,41.96C74.254,42.217 75.537,43.321 76.037,44.913C76.536,46.505 76.114,48.144 74.907,49.297Z" style="fill-rule:nonzero;"/>
    </g>
</svg>
