<?xml version="1.0" encoding="UTF-8" standalone="no"?>
<!DOCTYPE svg PUBLIC "-//W3C//DTD SVG 1.1//EN" "http://www.w3.org/Graphics/SVG/1.1/DTD/svg11.dtd">
<svg width="100%" height="100%" viewBox="0 0 100 100" version="1.1" xmlns="http://www.w3.org/2000/svg" xmlns:xlink="http://www.w3.org/1999/xlink" xml:space="preserve" xmlns:serif="http://www.serif.com/" style="fill-rule:evenodd;clip-rule:evenodd;stroke-linejoin:round;stroke-miterlimit:2;">
    <g>
        <path d="M52.729,3.985L55.308,9.267L61.075,10.114C64.744,10.652 66.209,15.21 63.554,17.825L59.381,21.937L60.366,27.741C60.993,31.435 57.157,34.251 53.875,32.507L48.717,29.767L43.56,32.507C40.278,34.251 36.442,31.435 37.069,27.741L38.054,21.937L33.881,17.825C31.226,15.21 32.691,10.652 36.36,10.114L42.127,9.267L44.706,3.985C46.347,0.625 51.088,0.625 52.729,3.985Z" style="fill:rgb(249,238,128);fill-rule:nonzero;"/>
        <path d="M45.923,27.034C46.111,25.315 45.502,23.605 44.27,22.391L42.411,20.559C39.986,18.17 41.324,14.008 44.675,13.517L47.278,13.135C48.962,12.887 50.446,11.894 51.316,10.431L53.821,6.221L52.729,3.985C51.098,0.645 46.337,0.645 44.706,3.985L42.127,9.267L36.36,10.114C32.691,10.652 31.226,15.21 33.881,17.825L38.054,21.937L37.069,27.741C36.442,31.435 40.278,34.251 43.56,32.507L45.432,31.513L45.923,27.034Z" style="fill:rgb(244,231,77);fill-rule:nonzero;"/>
        <path d="M21.669,57.526L24.248,62.807L30.014,63.654C33.684,64.194 35.149,68.751 32.494,71.367L28.321,75.478L29.306,81.283C29.932,84.976 26.097,87.793 22.815,86.049L17.657,83.308L12.499,86.049C9.217,87.793 5.382,84.976 6.008,81.283L6.993,75.478L2.821,71.367C0.166,68.751 1.63,64.194 5.3,63.654L11.066,62.807L13.645,57.526C15.286,54.166 20.028,54.166 21.669,57.526Z" style="fill:rgb(249,238,128);fill-rule:nonzero;"/>
        <path d="M14.862,80.561C15.051,78.841 14.442,77.131 13.21,75.917L11.35,74.085C8.926,71.697 10.264,67.535 13.614,67.043L16.217,66.661C17.902,66.413 19.385,65.421 20.255,63.958L22.76,59.747L21.668,57.512C20.037,54.171 15.276,54.171 13.645,57.512L11.067,62.793L5.299,63.64C1.631,64.179 0.165,68.736 2.821,71.352L6.993,75.463L6.008,81.268C5.381,84.962 9.217,87.778 12.499,86.034L14.372,85.039L14.862,80.561Z" style="fill:rgb(244,231,77);fill-rule:nonzero;"/>
        <path d="M86.354,57.526L88.933,62.807L94.7,63.654C98.369,64.194 99.834,68.751 97.179,71.367L93.006,75.478L93.991,81.283C94.618,84.976 90.782,87.793 87.5,86.049L82.343,83.308L77.184,86.049C73.902,87.793 70.067,84.976 70.693,81.283L71.678,75.478L67.506,71.367C64.851,68.751 66.315,64.194 69.985,63.654L75.751,62.807L78.33,57.526C79.972,54.166 84.713,54.166 86.354,57.526Z" style="fill:rgb(249,238,128);fill-rule:nonzero;"/>
        <path d="M79.548,80.561C79.736,78.841 79.127,77.131 77.895,75.917L76.035,74.085C73.611,71.697 74.949,67.535 78.3,67.043L80.903,66.661C82.587,66.413 84.071,65.421 84.941,63.957L87.446,59.747L86.354,57.512C84.723,54.171 79.962,54.171 78.331,57.512L75.752,62.793L69.985,63.64C66.316,64.179 64.85,68.736 67.506,71.352L71.679,75.463L70.694,81.268C70.067,84.962 73.903,87.778 77.185,86.034L79.057,85.039L79.548,80.561Z" style="fill:rgb(244,231,77);fill-rule:nonzero;"/>
        <path d="M25.481,22.298L17.952,21.577C16.233,21.416 14.71,22.687 14.546,24.423C14.388,26.112 15.577,27.616 17.223,27.849C11.759,33.366 8.151,40.544 7.035,48.4C6.789,50.127 7.964,51.828 9.683,51.975C11.852,52.161 12.997,50.872 13.221,49.298C14.148,42.775 17.156,36.817 21.712,32.247C21.712,32.247 21.466,35.724 24.827,35.724C26.479,35.724 27.86,34.414 27.945,32.728L28.307,25.604C28.413,23.061 26.812,22.425 25.481,22.298Z" style="fill:rgb(118,231,231);fill-rule:nonzero;"/>
        <path d="M33.663,89.739L36.81,96.69C37.531,98.274 39.382,98.972 40.952,98.247C42.478,97.541 43.173,95.748 42.548,94.191C50.008,96.216 57.962,95.784 65.252,92.833C66.854,92.185 67.725,90.306 66.991,88.727C66.066,86.736 64.389,86.379 62.929,86.97C56.876,89.42 50.266,89.766 44.073,88.063C44.073,88.063 47.175,86.54 45.494,83.598C44.669,82.152 42.856,81.599 41.368,82.367L35.083,85.613C32.851,86.79 33.106,88.51 33.663,89.739Z" style="fill:rgb(118,231,231);fill-rule:nonzero;"/>
        <path d="M88.982,49.236L93.365,43.007C94.362,41.583 94.035,39.613 92.629,38.603C91.26,37.62 89.378,37.908 88.355,39.233C86.36,31.692 82.013,24.945 75.839,20.039C74.483,18.962 72.438,19.139 71.452,20.57C70.208,22.376 70.741,24.022 71.977,25.005C77.103,29.078 80.705,34.69 82.343,40.962C82.343,40.962 79.486,39.009 77.805,41.951C76.979,43.397 77.411,45.26 78.814,46.178L84.737,50.057C86.862,51.421 88.208,50.338 88.982,49.236Z" style="fill:rgb(118,231,231);fill-rule:nonzero;"/>
        <path d="M53.188,33.801L48.718,31.426L44.247,33.801C42.246,34.864 39.86,34.7 38.021,33.373C36.156,32.027 35.238,29.775 35.625,27.496L36.482,22.444L32.853,18.869C31.219,17.259 30.649,14.901 31.364,12.714C32.073,10.545 33.906,8.994 36.147,8.664L41.15,7.929L43.389,3.342C44.396,1.281 46.438,0 48.718,0C50.997,0 53.039,1.281 54.045,3.342L56.285,7.929L61.287,8.664C63.529,8.994 65.362,10.545 66.071,12.713C66.786,14.901 66.216,17.259 64.582,18.869L60.953,22.444L61.81,27.496C62.197,29.775 61.232,31.965 59.414,33.373C56.933,35.294 54.065,34.267 53.188,33.801ZM49.405,28.473L54.563,31.214C55.586,31.757 56.758,31.677 57.699,30.997C58.666,30.299 59.124,29.173 58.923,27.986L57.937,22.182C57.858,21.71 58.013,21.229 58.353,20.893L62.526,16.782C63.375,15.945 63.66,14.764 63.287,13.624C62.92,12.502 62.013,11.732 60.862,11.562L55.096,10.716C54.617,10.645 54.205,10.343 53.993,9.909L51.413,4.627C50.894,3.564 49.886,2.93 48.718,2.93C47.55,2.93 46.542,3.564 46.022,4.627L43.443,9.909C43.231,10.343 42.819,10.645 42.34,10.716L36.574,11.562C35.422,11.731 34.516,12.502 34.149,13.624C33.776,14.764 34.06,15.945 34.91,16.782L39.083,20.893C39.423,21.229 39.578,21.71 39.498,22.182L38.513,27.986C38.312,29.173 38.77,30.299 39.737,30.997C40.678,31.677 41.85,31.757 42.873,31.214L48.031,28.473C48.718,28.063 49.19,28.359 49.405,28.473Z" style="fill-rule:nonzero;"/>
        <path d="M6.961,86.915C5.057,85.625 4.177,83.317 4.564,81.037L5.421,75.986L1.792,72.411C0.159,70.801 -0.412,68.442 0.304,66.254C1.012,64.086 2.846,62.534 5.087,62.205L10.089,61.471L12.329,56.884C13.335,54.823 15.377,53.542 17.657,53.542C19.936,53.542 21.978,54.822 22.985,56.884L25.225,61.471L30.227,62.205C32.468,62.535 34.301,64.086 35.011,66.254C35.725,68.442 35.155,70.801 33.521,72.411L29.893,75.986L30.75,81.037C31.136,83.317 30.218,85.568 28.353,86.915C26.514,88.242 24.129,88.406 22.128,87.342L17.657,84.967L13.187,87.342C12.309,87.808 9.766,88.815 6.961,86.915ZM17.657,56.471C16.489,56.471 15.481,57.106 14.961,58.17L12.383,63.451C12.17,63.885 11.758,64.187 11.279,64.257L5.513,65.104C4.361,65.273 3.455,66.044 3.088,67.165C2.715,68.306 2.999,69.487 3.848,70.324L8.021,74.435C8.362,74.77 8.517,75.252 8.437,75.723L7.452,81.528C7.251,82.716 7.708,83.842 8.675,84.54C9.616,85.219 10.789,85.3 11.812,84.756L16.97,82.015C17.4,81.786 17.915,81.787 18.344,82.015L23.502,84.756C24.525,85.299 25.697,85.218 26.639,84.54C27.605,83.842 28.063,82.716 27.862,81.528L26.877,75.723C26.797,75.252 26.952,74.77 27.293,74.435L31.465,70.324C32.315,69.487 32.599,68.306 32.226,67.165C31.86,66.044 30.953,65.273 29.801,65.105L24.035,64.257C23.557,64.187 23.144,63.885 22.932,63.451L20.353,58.17C19.833,57.106 18.826,56.471 17.657,56.471Z" style="fill-rule:nonzero;"/>
        <path d="M71.647,86.915C69.796,85.548 68.863,83.317 69.25,81.037L70.107,75.986L66.478,72.411C64.845,70.801 64.274,68.442 64.99,66.254C65.698,64.086 67.532,62.534 69.773,62.205L74.775,61.471L77.015,56.884C78.021,54.823 80.063,53.542 82.343,53.542C84.622,53.542 86.664,54.822 87.67,56.884L89.91,61.471L94.913,62.205C96.852,62.49 98.469,63.658 99.349,65.41C100.237,67.178 100.216,69.256 99.294,70.967C98.91,71.68 98.022,71.946 97.309,71.562C96.597,71.178 96.331,70.29 96.715,69.578C97.184,68.707 97.19,67.64 96.73,66.724C96.468,66.204 95.83,65.302 94.487,65.105L88.721,64.257C88.242,64.187 87.829,63.885 87.618,63.451L85.038,58.17C84.519,57.106 83.511,56.471 82.343,56.471C81.175,56.471 80.167,57.106 79.647,58.17L77.068,63.451C76.856,63.885 76.444,64.187 75.965,64.257L70.199,65.104C69.048,65.273 68.141,66.044 67.774,67.165C67.401,68.306 67.685,69.487 68.535,70.324L72.707,74.435C73.048,74.77 73.203,75.252 73.123,75.723L72.138,81.528C71.937,82.716 72.394,83.842 73.361,84.54C74.302,85.219 75.475,85.3 76.498,84.756L81.655,82.015C82.086,81.787 82.6,81.787 83.03,82.015L88.188,84.756C89.211,85.299 90.383,85.218 91.325,84.54C92.292,83.842 92.749,82.716 92.548,81.528L91.563,75.723C91.483,75.252 91.638,74.77 91.979,74.435C91.979,74.435 93.492,72.692 94.643,73.866C95.658,74.903 94.579,75.986 94.579,75.986L95.436,81.038C95.823,83.317 94.904,85.569 93.039,86.915C91.2,88.242 88.815,88.406 86.813,87.343L82.343,84.968L77.873,87.343C76.995,87.808 74.144,88.76 71.647,86.915Z" style="fill-rule:nonzero;"/>
        <path d="M9.559,53.435C5.576,53.034 5.402,49.478 5.585,48.194C5.909,45.91 6.444,43.646 7.173,41.464C7.429,40.696 8.26,40.282 9.027,40.539C9.795,40.796 10.208,41.625 9.952,42.393C9.278,44.407 8.784,46.497 8.485,48.606C8.416,49.09 8.405,50.369 9.808,50.516C10.96,50.636 11.622,50.135 11.77,49.091C12.74,42.264 15.82,36.082 20.674,31.213C21.106,30.779 21.761,30.66 22.318,30.914C22.875,31.167 23.216,31.74 23.173,32.35C23.159,32.612 23.308,34.258 24.827,34.258C25.709,34.258 26.436,33.553 26.482,32.653L26.843,25.529C26.894,24.319 26.514,23.868 25.341,23.756L17.812,23.035C16.904,22.949 16.091,23.634 16.004,24.559C15.919,25.466 16.544,26.273 17.427,26.398C17.976,26.475 18.434,26.856 18.611,27.38C18.788,27.905 18.654,28.485 18.263,28.879C15.916,31.249 13.922,33.941 12.338,36.88C11.954,37.592 11.066,37.858 10.353,37.474C9.641,37.09 9.375,36.202 9.759,35.49C11.15,32.91 12.831,30.506 14.772,28.321C13.613,27.379 12.937,25.888 13.087,24.286C13.326,21.751 15.57,19.88 18.089,20.118L25.62,20.839C28.334,21.098 29.885,22.903 29.77,25.664L29.408,32.802C29.282,35.262 27.27,37.188 24.827,37.188C22.168,37.188 21.131,35.431 20.992,35.207C17.6,39.282 15.428,44.176 14.671,49.503C14.328,51.919 12.886,53.769 9.559,53.435Z" style="fill-rule:nonzero;"/>
        <path d="M39.655,100C37.341,100 35.99,98.425 35.476,97.295L32.328,90.343C31.2,87.85 31.974,85.598 34.399,84.317L40.696,81.065C42.877,79.939 45.493,80.763 46.766,82.871C48.12,85.114 47.09,86.989 46.966,87.221C52.155,88.157 57.435,87.613 62.379,85.612C65.158,84.486 67.365,86.056 68.32,88.11C68.823,89.195 69.318,92.799 65.801,94.191C58.85,96.941 51.442,97.644 44.188,96.095C43.957,97.575 42.464,100 39.655,100ZM34.997,89.134L38.144,96.085C38.331,96.497 39.184,97.42 40.337,96.918C41.161,96.558 41.528,95.582 41.188,94.737C40.981,94.221 41.084,93.632 41.454,93.218C41.823,92.803 42.396,92.632 42.931,92.778C50.197,94.75 57.725,94.299 64.702,91.475C65.145,91.296 66.224,90.59 65.662,89.345C65.181,88.278 64.433,87.94 63.478,88.328C57.134,90.895 50.289,91.292 43.684,89.476C43.097,89.314 42.671,88.807 42.614,88.201C42.557,87.595 42.879,87.017 43.426,86.749C43.652,86.632 45.152,85.795 44.222,84.325C43.746,83.573 42.822,83.264 42.039,83.669L35.754,86.914C34.693,87.474 34.499,88.036 34.997,89.135L34.997,89.134Z" style="fill-rule:nonzero;"/>
        <path d="M86.617,52.155C85.755,52.155 84.85,51.869 83.945,51.289L78.01,47.404C75.967,46.066 75.397,43.394 76.533,41.224C77.712,38.972 79.906,38.872 80.164,38.864C78.37,33.843 75.259,29.484 71.065,26.152C68.728,24.294 68.9,21.543 70.245,19.74C72.346,16.922 75.743,18.092 76.751,18.893C82.616,23.554 86.885,29.731 89.183,36.852C90.57,36.318 92.184,36.479 93.484,37.413C95.533,38.886 96.018,41.773 94.565,43.847L90.181,50.079C89.214,51.452 87.969,52.155 86.617,52.155ZM79.077,42.677C78.667,43.483 78.866,44.461 79.616,44.952L85.539,48.831C86.535,49.47 87.104,49.362 87.784,48.393L92.167,42.164C92.703,41.399 92.527,40.334 91.774,39.792C91.052,39.274 90.06,39.421 89.516,40.128C89.175,40.569 88.612,40.779 88.065,40.669C87.518,40.559 87.082,40.147 86.939,39.608C84.994,32.255 80.84,25.885 74.927,21.187C74.554,20.889 73.491,20.358 72.658,21.401C71.919,22.327 72.063,23.203 72.888,23.859C78.255,28.124 82.014,33.91 83.759,40.593C83.913,41.184 83.685,41.809 83.185,42.161C82.685,42.513 82.02,42.517 81.515,42.172C81.338,42.056 79.781,41.295 79.077,42.677Z" style="fill-rule:nonzero;"/>
    </g>
</svg>
