<?xml version="1.0" encoding="UTF-8" standalone="no"?>
<!DOCTYPE svg PUBLIC "-//W3C//DTD SVG 1.1//EN" "http://www.w3.org/Graphics/SVG/1.1/DTD/svg11.dtd">
<svg width="100%" height="100%" viewBox="0 0 101 101" version="1.1" xmlns="http://www.w3.org/2000/svg" xmlns:xlink="http://www.w3.org/1999/xlink" xml:space="preserve" xmlns:serif="http://www.serif.com/" style="fill-rule:evenodd;clip-rule:evenodd;stroke-linejoin:round;stroke-miterlimit:2;">
    <path d="M42.475,26.727C42.475,22.524 37.69,20.11 34.31,22.609L4.424,44.705C0.498,47.606 0.498,53.478 4.424,56.38L34.31,78.475C37.69,80.974 42.475,78.561 42.475,74.357C42.475,74.357 41.683,68.374 46.552,67.426C57.955,65.208 78.621,64.063 92.577,78.222C95.303,80.988 99.966,78.761 99.487,74.908C97.572,59.506 87.964,35.3 47.042,31.676C41.994,31.228 42.475,26.727 42.475,26.727Z" style="fill:rgb(171,235,244);fill-rule:nonzero;"/>
    <path d="M42.475,58.075L42.475,72.478C42.659,70.638 43.472,68.026 46.552,67.426C57.955,65.208 78.621,64.063 92.577,78.222C95.303,80.988 99.966,78.761 99.487,74.908C85.97,52.45 60.527,50.87 48.75,51.465C45.232,51.643 42.475,54.554 42.475,58.075Z" style="fill:rgb(142,215,232);fill-rule:nonzero;"/>
    <path d="M100.955,74.725C100.048,67.426 97.234,56.843 88.981,47.873C79.696,37.782 65.629,31.837 47.173,30.202C45.679,30.069 44.11,29.444 43.955,26.728C43.813,24.225 42.565,21.963 40.327,20.834C38.088,19.705 35.446,19.929 33.43,21.42L26.96,26.204C26.303,26.689 26.164,27.616 26.649,28.273C27.136,28.929 28.061,29.069 28.719,28.584L35.19,23.799C36.319,22.965 37.741,22.844 38.995,23.475C40.231,24.1 40.976,25.29 40.996,26.67C40.958,27.188 40.91,29.243 42.323,30.962C43.37,32.236 44.913,32.973 46.911,33.149C64.611,34.716 78.033,40.345 86.804,49.877C94.527,58.269 97.165,68.22 98.019,75.09C98.186,76.434 97.398,77.324 96.606,77.707C95.801,78.097 94.597,78.163 93.631,77.183C87.242,70.702 78.894,66.677 68.82,65.219C59.973,63.938 51.674,64.924 46.27,65.975C45.359,66.152 44.595,66.469 43.956,66.884L43.956,59.946C43.956,59.128 43.293,58.466 42.476,58.466C41.658,58.466 40.997,59.128 40.997,59.946C40.997,59.946 40.923,73.824 40.995,74.442C40.966,75.809 40.223,76.989 38.995,77.609C37.741,78.241 36.319,78.12 35.19,77.285L5.303,55.19C3.814,54.089 2.959,52.395 2.959,50.542C2.959,48.689 3.814,46.995 5.303,45.894L23.382,32.528C24.039,32.042 24.178,31.116 23.692,30.459C23.206,29.802 22.28,29.663 21.623,30.148L3.545,43.515C1.292,45.18 0,47.741 0,50.542C0,53.343 1.292,55.905 3.544,57.57L33.43,79.665C34.594,80.524 37.272,81.818 40.327,80.25C42.557,79.106 43.955,76.863 43.955,74.357C43.955,74.295 43.525,69.572 46.835,68.879C51.999,67.798 59.959,66.926 68.396,68.147C77.817,69.51 85.598,73.25 91.524,79.261C93.224,80.986 95.725,81.422 97.896,80.37C100.051,79.327 101.252,77.111 100.955,74.725Z" style="fill-rule:nonzero;"/>
</svg>
