<?xml version="1.0" encoding="UTF-8" standalone="no"?>
<!DOCTYPE svg PUBLIC "-//W3C//DTD SVG 1.1//EN" "http://www.w3.org/Graphics/SVG/1.1/DTD/svg11.dtd">
<svg width="100%" height="100%" viewBox="0 0 96 96" version="1.1" xmlns="http://www.w3.org/2000/svg" xmlns:xlink="http://www.w3.org/1999/xlink" xml:space="preserve" xmlns:serif="http://www.serif.com/" style="fill-rule:evenodd;clip-rule:evenodd;stroke-linejoin:round;stroke-miterlimit:2;">
    <g>
        <path d="M10.435,56.348C15.045,56.348 18.783,52.611 18.783,48C18.783,43.39 15.045,39.653 10.435,39.653C5.825,39.653 2.087,43.39 2.087,48C2.087,52.611 5.825,56.348 10.435,56.348Z" style="fill:rgb(135,214,70);fill-rule:nonzero;"/>
        <path d="M10.435,58.435C4.681,58.435 0,53.754 0,48C0,42.247 4.681,37.565 10.435,37.565C16.189,37.565 20.87,42.246 20.87,48C20.87,53.754 16.188,58.435 10.435,58.435ZM10.435,41.739C6.982,41.739 4.174,44.548 4.174,48C4.174,51.453 6.982,54.261 10.435,54.261C13.888,54.261 16.696,51.453 16.696,48C16.696,44.548 13.888,41.739 10.435,41.739Z" style="fill-rule:nonzero;"/>
        <path d="M48,56.348C52.611,56.348 56.348,52.611 56.348,48C56.348,43.39 52.611,39.653 48,39.653C43.39,39.653 39.653,43.39 39.653,48C39.653,52.611 43.39,56.348 48,56.348Z" style="fill:rgb(135,214,70);fill-rule:nonzero;"/>
        <path d="M48,58.435C42.246,58.435 37.565,53.754 37.565,48C37.565,42.246 42.246,37.565 48,37.565C53.754,37.565 58.435,42.246 58.435,48C58.435,53.754 53.754,58.435 48,58.435ZM48,41.739C44.548,41.739 41.739,44.548 41.739,48C41.739,51.453 44.548,54.261 48,54.261C51.453,54.261 54.261,51.453 54.261,48C54.261,44.548 51.453,41.739 48,41.739Z" style="fill-rule:nonzero;"/>
        <path d="M85.566,56.348C90.176,56.348 93.913,52.611 93.913,48C93.913,43.39 90.176,39.653 85.566,39.653C80.955,39.653 77.218,43.39 77.218,48C77.218,52.611 80.955,56.348 85.566,56.348Z" style="fill:rgb(135,214,70);fill-rule:nonzero;"/>
        <path d="M85.566,58.435C79.812,58.435 75.131,53.754 75.131,48C75.131,42.246 79.812,37.565 85.566,37.565C91.32,37.565 96.001,42.246 96.001,48C96.001,53.754 91.319,58.435 85.566,58.435ZM85.566,41.739C82.113,41.739 79.305,44.548 79.305,48C79.305,51.453 82.113,54.261 85.566,54.261C89.018,54.261 91.827,51.453 91.827,48C91.827,44.548 89.018,41.739 85.566,41.739Z" style="fill-rule:nonzero;"/>
    </g>
</svg>
