<?xml version="1.0" encoding="UTF-8" standalone="no"?>
<!DOCTYPE svg PUBLIC "-//W3C//DTD SVG 1.1//EN" "http://www.w3.org/Graphics/SVG/1.1/DTD/svg11.dtd">
<svg width="100%" height="100%" viewBox="0 0 102 102" version="1.1" xmlns="http://www.w3.org/2000/svg" xmlns:xlink="http://www.w3.org/1999/xlink" xml:space="preserve" xmlns:serif="http://www.serif.com/" style="fill-rule:evenodd;clip-rule:evenodd;stroke-linejoin:round;stroke-miterlimit:2;">
    <path d="M100.506,51C100.506,78.341 78.341,100.506 51,100.506C23.659,100.506 1.494,78.341 1.494,51C1.494,23.659 23.659,1.494 51,1.494C78.341,1.494 100.506,23.659 100.506,51Z" style="fill:rgb(255,146,159);fill-rule:nonzero;"/>
    <path d="M45.816,28.95C56.002,21.09 61.107,9.906 63.43,3.068C59.458,2.04 55.293,1.494 51,1.494C23.659,1.494 1.494,23.659 1.494,51C1.494,78.341 23.659,100.506 51,100.506C53.049,100.506 55.07,100.381 57.054,100.139C35.537,82.079 32.317,63.534 33.726,50.568C34.654,42.024 39.013,34.201 45.816,28.95Z" style="fill:rgb(255,115,125);fill-rule:nonzero;"/>
    <path d="M66.079,48.392L77.554,36.917C80.983,33.488 80.983,27.876 77.554,24.447C74.124,21.018 68.513,21.018 65.083,24.447L53.609,35.922C52.168,37.362 49.833,37.362 48.392,35.922L36.917,24.447C33.488,21.018 27.877,21.018 24.447,24.447C21.018,27.876 21.018,33.488 24.447,36.917L35.922,48.392C37.362,49.832 37.362,52.168 35.922,53.609L24.447,65.083C21.018,68.513 21.018,74.124 24.447,77.553C27.877,80.983 33.488,80.983 36.917,77.553L48.392,66.078C49.833,64.638 52.168,64.638 53.609,66.078L65.083,77.553C68.513,80.983 74.124,80.983 77.554,77.553C80.983,74.124 80.983,68.513 77.554,65.083L66.079,53.609C64.638,52.168 64.638,49.832 66.079,48.392Z" style="fill:white;fill-rule:nonzero;"/>
    <path d="M43.446,30.975L36.917,24.446C33.488,21.017 27.877,21.017 24.447,24.446C21.018,27.876 21.018,33.487 24.447,36.917L34.36,46.83C35.763,40.773 38.92,35.249 43.446,30.975Z" style="fill:rgb(189,250,255);fill-rule:nonzero;"/>
    <path d="M36.917,77.553L38.058,76.413C34.671,69.091 33.477,62.163 33.442,56.088L24.446,65.083C21.017,68.513 21.017,74.124 24.446,77.553C27.876,80.983 33.487,80.983 36.917,77.553Z" style="fill:rgb(204,248,255);fill-rule:nonzero;"/>
    <path d="M51,102C37.378,102 24.57,96.695 14.938,87.063C5.305,77.43 0,64.622 0,51C0,37.378 5.305,24.57 14.938,14.938C24.57,5.305 37.378,0 51,0C60.096,0 69.025,2.425 76.823,7.012C84.391,11.464 90.722,17.83 95.132,25.421C95.546,26.135 95.304,27.049 94.59,27.464C93.876,27.879 92.962,27.636 92.547,26.923C88.396,19.774 82.435,13.78 75.309,9.587C67.969,5.27 59.564,2.988 51,2.988C38.175,2.988 26.119,7.982 17.05,17.05C7.982,26.119 2.988,38.175 2.988,51C2.988,63.825 7.982,75.881 17.05,84.95C26.119,94.018 38.175,99.012 51,99.012C63.825,99.012 75.881,94.018 84.95,84.95C94.018,75.881 99.012,63.825 99.012,51C99.012,44.698 97.81,38.573 95.44,32.794C95.127,32.031 95.492,31.158 96.255,30.845C97.019,30.531 97.892,30.897 98.205,31.66C100.723,37.8 102,44.308 102,51C102,64.622 96.695,77.43 87.063,87.063C77.43,96.695 64.622,102 51,102Z" style="fill-rule:nonzero;"/>
    <path d="M64.026,78.61L52.552,67.135C51.697,66.28 50.304,66.279 49.448,67.135L37.974,78.61C33.953,82.631 27.411,82.631 23.39,78.61C19.369,74.589 19.369,68.046 23.39,64.026C23.974,63.443 24.92,63.443 25.503,64.026C26.087,64.61 26.087,65.555 25.503,66.139C24.127,67.516 21.684,72.868 25.503,76.496C29.323,80.125 34.484,77.873 35.86,76.496L47.335,65.022C49.356,63.001 52.644,63.001 54.665,65.022L66.139,76.496C67.516,77.873 72.571,80.627 76.497,76.496C80.923,71.841 77.874,67.516 76.497,66.139L65.022,54.664C63.001,52.644 63.001,49.356 65.022,47.335L76.497,35.86C77.874,34.484 80.343,29.33 76.497,25.502C71.945,20.971 67.516,24.126 66.139,25.502L54.665,36.977C52.644,38.998 49.356,38.998 47.335,36.977L35.86,25.502C34.484,24.126 29.815,21.609 25.503,25.502C21.19,29.396 24.127,34.484 25.503,35.86L36.978,47.335C38.999,49.356 38.999,52.644 36.978,54.664L29.912,61.729C29.329,62.313 28.383,62.313 27.8,61.729C27.216,61.145 27.216,60.2 27.8,59.616L34.865,52.552C35.72,51.696 35.72,50.304 34.865,49.448L23.39,37.973C19.369,33.953 19.369,27.41 23.39,23.39C27.411,19.369 33.953,19.369 37.974,23.39L49.448,34.864C50.304,35.72 51.697,35.72 52.552,34.864L64.027,23.39C68.047,19.369 74.59,19.369 78.611,23.39C82.631,27.41 82.631,33.953 78.611,37.973L67.135,49.448C66.28,50.304 66.28,51.696 67.135,52.552L78.61,64.026C82.631,68.047 82.631,74.589 78.61,78.61C76.6,80.621 70.041,84.558 64.026,78.61Z" style="fill-rule:nonzero;"/>
</svg>
