<?xml version="1.0" encoding="UTF-8" standalone="no"?>
<!DOCTYPE svg PUBLIC "-//W3C//DTD SVG 1.1//EN" "http://www.w3.org/Graphics/SVG/1.1/DTD/svg11.dtd">
<svg width="100%" height="100%" viewBox="0 0 98 98" version="1.1" xmlns="http://www.w3.org/2000/svg" xmlns:xlink="http://www.w3.org/1999/xlink" xml:space="preserve" xmlns:serif="http://www.serif.com/" style="fill-rule:evenodd;clip-rule:evenodd;stroke-linejoin:round;stroke-miterlimit:2;">
    <g>
        <path d="M84.312,76.539C90.862,68.641 94.813,58.511 94.853,47.458C94.944,22.258 74.199,1.435 48.999,1.436C23.786,1.436 3.326,21.787 3.148,46.958C2.97,72.13 23.349,92.881 48.52,93.14C52.699,93.183 56.75,92.665 60.603,91.659C62.778,91.091 65.084,91.386 67.028,92.514C69.76,94.098 72.9,95.476 76.053,96.388C79.373,97.349 82.397,94.171 81.343,90.88C80.504,88.258 80.693,85.632 81.156,83.167C81.615,80.723 82.725,78.453 84.312,76.539Z" style="fill:rgb(240,242,255);fill-rule:nonzero;"/>
        <path d="M81.343,90.88C80.504,88.258 80.693,85.632 81.156,83.167C81.615,80.723 82.725,78.453 84.312,76.539C87.014,73.281 89.272,69.642 90.998,65.716C55.519,83.979 12.662,51.122 34.73,3.703C16.493,9.67 3.29,26.761 3.148,46.958C2.97,72.13 23.349,92.882 48.52,93.14C52.699,93.183 56.75,92.665 60.603,91.659C62.778,91.091 65.084,91.386 67.028,92.514C69.76,94.098 72.9,95.476 76.053,96.388C79.373,97.349 82.397,94.171 81.343,90.88Z" style="fill:rgb(219,225,255);fill-rule:nonzero;"/>
        <path d="M55.814,65.696L55.814,36.688C55.814,34.208 53.279,32.534 50.998,33.509C48.471,34.589 45.773,35.212 43.029,35.348L38.505,35.572C37.447,35.625 36.616,36.498 36.616,37.557L36.616,40.387C36.616,41.484 37.506,42.374 38.603,42.374L42.573,42.374C43.483,42.374 44.22,43.111 44.22,44.021L44.22,65.696L40.155,65.696C38.201,65.696 36.616,67.281 36.616,69.236L36.616,70.677C36.616,72.631 38.201,74.216 40.155,74.216L59.879,74.216C61.833,74.216 63.418,72.631 63.418,70.677L63.418,69.236C63.418,67.281 61.833,65.696 59.879,65.696L55.814,65.696Z" style="fill:rgb(127,154,230);fill-rule:nonzero;"/>
        <path d="M50.017,26.754C53.219,26.754 55.815,24.159 55.815,20.957C55.815,17.755 53.219,15.159 50.017,15.159C46.815,15.159 44.22,17.755 44.22,20.957C44.22,24.159 46.815,26.754 50.017,26.754Z" style="fill:rgb(127,154,230);fill-rule:nonzero;"/>
        <path d="M22.756,83.075C17.207,78.987 12.612,73.596 9.469,67.486C6.223,61.174 4.533,54.079 4.583,46.968C4.667,35.172 9.324,24.094 17.697,15.776C26.074,7.455 37.19,2.871 48.999,2.871C55.965,2.871 62.655,4.474 68.883,7.635C69.591,7.994 70.454,7.712 70.813,7.005C71.172,6.298 70.89,5.434 70.183,5.075C63.548,1.707 56.421,0 48.999,0C36.427,0 24.592,4.88 15.673,13.739C6.759,22.595 1.801,34.388 1.713,46.948C1.659,54.521 3.459,62.077 6.916,68.799C10.261,75.301 15.15,81.037 21.053,85.386C21.31,85.575 21.608,85.666 21.904,85.666C22.344,85.666 22.779,85.464 23.06,85.082C23.531,84.443 23.395,83.545 22.756,83.075ZM40.155,64.26C37.412,64.26 35.181,66.492 35.181,69.235L35.181,70.676C35.181,73.419 37.412,75.651 40.155,75.651L59.878,75.651C62.621,75.651 64.853,73.419 64.853,70.676L64.853,69.235C64.853,66.492 62.621,64.26 59.878,64.26L57.249,64.26L57.249,36.688C57.249,35.039 56.428,33.513 55.052,32.605C53.676,31.696 51.95,31.541 50.434,32.189C48.056,33.205 45.541,33.785 42.958,33.914L38.433,34.138C36.609,34.229 35.181,35.73 35.181,37.557L35.181,40.387C35.181,42.274 36.716,43.809 38.603,43.809L42.574,43.809C42.69,43.809 42.785,43.904 42.785,44.021L42.785,64.261L40.155,64.261L40.155,64.26ZM42.573,40.938L38.603,40.938C38.299,40.938 38.052,40.691 38.052,40.387L38.052,37.556C38.052,37.262 38.282,37.02 38.576,37.006L43.1,36.781C46.023,36.636 48.87,35.979 51.562,34.829C52.197,34.557 52.893,34.62 53.47,35.001C54.047,35.381 54.378,35.996 54.378,36.688L54.378,65.696C54.378,66.489 55.021,67.131 55.814,67.131L59.878,67.131C61.038,67.131 61.982,68.075 61.982,69.235L61.982,70.676C61.982,71.836 61.038,72.78 59.878,72.78L40.155,72.78C38.995,72.78 38.052,71.836 38.052,70.676L38.052,69.235C38.052,68.075 38.995,67.131 40.155,67.131L44.22,67.131C45.013,67.131 45.655,66.489 45.655,65.696L45.655,44.02C45.656,42.321 44.273,40.938 42.573,40.938ZM85.417,77.455C92.388,69.049 96.249,58.398 96.289,47.464C96.344,32.257 88.901,17.818 76.38,8.84C75.736,8.379 74.839,8.526 74.377,9.171C73.915,9.815 74.062,10.712 74.707,11.174C86.475,19.611 93.469,33.174 93.417,47.453C93.38,57.723 89.754,67.728 83.207,75.622C81.435,77.759 80.237,80.276 79.745,82.902C79.354,84.984 78.953,88.121 79.976,91.317C80.311,92.365 80.053,93.463 79.284,94.253C78.536,95.023 77.477,95.306 76.452,95.009C73.501,94.155 70.492,92.863 67.747,91.272C65.476,89.954 62.81,89.598 60.24,90.269C56.437,91.262 52.497,91.743 48.535,91.704C41.46,91.631 34.703,89.928 28.454,86.643C27.751,86.274 26.884,86.544 26.515,87.245C26.146,87.947 26.416,88.815 27.118,89.184C33.774,92.684 40.97,94.497 48.505,94.575C52.727,94.616 56.916,94.104 60.965,93.047C62.798,92.569 64.695,92.82 66.307,93.755C69.25,95.462 72.482,96.85 75.654,97.767C76.194,97.924 76.739,98 77.276,98C78.787,98 80.235,97.393 81.343,96.254C82.841,94.714 83.365,92.487 82.71,90.442C82.074,88.454 82.029,86.292 82.566,83.432C82.969,81.285 83.955,79.218 85.417,77.455ZM50.017,28.189C54.005,28.189 57.249,24.945 57.249,20.957C57.249,16.969 54.005,13.725 50.017,13.725C46.029,13.725 42.785,16.969 42.785,20.957C42.785,24.945 46.029,28.189 50.017,28.189ZM50.017,16.595C52.422,16.595 54.378,18.552 54.378,20.957C54.378,23.362 52.422,25.318 50.017,25.318C47.612,25.318 45.655,23.362 45.655,20.957C45.656,18.552 47.612,16.595 50.017,16.595Z" style="fill-rule:nonzero;"/>
    </g>
</svg>
