<?xml version="1.0" encoding="UTF-8" standalone="no"?>
<!DOCTYPE svg PUBLIC "-//W3C//DTD SVG 1.1//EN" "http://www.w3.org/Graphics/SVG/1.1/DTD/svg11.dtd">
<svg width="100%" height="100%" viewBox="0 0 101 101" version="1.1" xmlns="http://www.w3.org/2000/svg" xmlns:xlink="http://www.w3.org/1999/xlink" xml:space="preserve" xmlns:serif="http://www.serif.com/" style="fill-rule:evenodd;clip-rule:evenodd;stroke-linejoin:round;stroke-miterlimit:2;">
    <g>
        <path d="M31.987,39.583L23.845,93.684C23.427,96.458 25.337,99.046 28.112,99.464C30.887,99.881 33.474,97.97 33.892,95.195L42.263,39.583L31.987,39.583Z" style="fill:rgb(231,137,110);fill-rule:nonzero;"/>
        <path d="M42.263,39.583L31.987,39.583L27.051,72.378C30.362,71.522 33.907,70.842 37.629,70.365L42.263,39.583Z" style="fill:rgb(221,102,66);fill-rule:nonzero;"/>
        <path d="M69.081,39.583L77.224,93.684C77.642,96.458 75.732,99.046 72.957,99.464C70.182,99.881 67.594,97.97 67.177,95.195L58.806,39.583L69.081,39.583Z" style="fill:rgb(231,137,110);fill-rule:nonzero;"/>
        <path d="M69.081,39.583L58.806,39.583L63.439,70.365C67.161,70.842 70.706,71.523 74.018,72.378L69.081,39.583Z" style="fill:rgb(221,102,66);fill-rule:nonzero;"/>
        <path d="M50.535,95.095C47.728,95.095 45.454,92.82 45.454,90.015L45.454,6.56C45.454,3.754 47.728,1.479 50.535,1.479C53.34,1.479 55.615,3.754 55.615,6.56L55.615,90.015C55.615,92.82 53.34,95.095 50.535,95.095Z" style="fill:rgb(221,102,66);fill-rule:nonzero;"/>
        <path d="M55.615,69.675L55.615,6.56C55.615,3.754 53.34,1.479 50.535,1.479C47.728,1.479 45.454,3.754 45.454,6.56L45.454,69.675C47.124,69.594 48.819,69.552 50.535,69.552C52.25,69.552 53.944,69.594 55.615,69.675Z" style="fill:rgb(178,78,47);fill-rule:nonzero;"/>
        <path d="M81.199,57.721L19.87,57.721L19.87,17.138C19.87,14.064 22.363,11.571 25.437,11.571L75.631,11.571C78.706,11.571 81.199,14.064 81.199,17.138L81.199,57.721Z" style="fill:rgb(194,234,251);fill-rule:nonzero;"/>
        <path d="M64.152,42.656C64.152,48.12 59.724,52.548 54.261,52.548C48.799,52.548 44.37,48.12 44.37,42.656C44.37,37.194 48.799,32.765 54.261,32.765C59.724,32.765 64.152,37.194 64.152,42.656Z" style="fill:rgb(249,238,128);fill-rule:nonzero;"/>
        <path d="M50.535,48.287L62.851,39.53C65.894,37.366 70.026,37.578 72.833,40.04L81.199,47.382L81.199,57.721L50.535,57.721L50.535,48.287Z" style="fill:rgb(41,206,105);fill-rule:nonzero;"/>
        <path d="M19.87,48.287L35.34,37.375C38.719,34.992 43.335,35.446 46.184,38.443L64.376,57.578L19.87,57.578L19.87,48.287Z" style="fill:rgb(115,218,140);fill-rule:nonzero;"/>
        <path d="M82.231,63.465L18.838,63.465C16.333,63.465 14.302,61.434 14.302,58.928C14.302,56.423 16.333,54.392 18.838,54.392L82.231,54.392C84.736,54.392 86.767,56.423 86.767,58.928C86.767,61.434 84.736,63.465 82.231,63.465Z" style="fill:rgb(242,173,154);fill-rule:nonzero;"/>
        <path d="M25.014,58.928C25.014,56.423 27.045,54.392 29.551,54.392L18.838,54.392C16.333,54.392 14.302,56.423 14.302,58.928C14.302,61.434 16.333,63.465 18.838,63.465L29.551,63.465C27.045,63.465 25.014,61.434 25.014,58.928Z" style="fill:rgb(231,137,110);fill-rule:nonzero;"/>
        <path d="M39.523,25.326C39.523,23.535 37.701,22.083 35.452,22.083C33.203,22.083 31.38,23.535 31.38,25.326C31.38,27.116 33.203,28.568 35.452,28.568C37.701,28.568 39.523,27.116 39.523,25.326Z" style="fill:rgb(255,179,194);fill-rule:nonzero;"/>
        <path d="M69.689,25.326C69.689,23.535 67.866,22.083 65.617,22.083C63.368,22.083 61.545,23.535 61.545,25.326C61.545,27.116 63.368,28.568 65.617,28.568C67.866,28.568 69.689,27.116 69.689,25.326Z" style="fill:rgb(255,179,194);fill-rule:nonzero;"/>
        <path d="M61.247,20.843L61.247,23.299C61.247,24.116 61.909,24.778 62.727,24.778C63.543,24.778 64.206,24.116 64.206,23.299L64.206,20.843C64.206,20.026 63.543,19.364 62.727,19.364C61.909,19.364 61.247,20.026 61.247,20.843Z" style="fill-rule:nonzero;"/>
        <path d="M36.862,20.843L36.862,23.299C36.862,24.116 37.525,24.778 38.342,24.778C39.16,24.778 39.821,24.116 39.821,23.299L39.821,20.843C39.821,20.026 39.16,19.364 38.342,19.364C37.525,19.364 36.862,20.026 36.862,20.843Z" style="fill-rule:nonzero;"/>
        <path d="M51.545,21.821C51.214,22.308 50.73,22.366 50.535,22.366C50.338,22.366 49.847,22.313 49.524,21.821C49.075,21.138 48.158,20.949 47.475,21.397C46.792,21.846 46.602,22.763 47.051,23.446C47.824,24.623 49.126,25.326 50.535,25.326C51.943,25.326 53.245,24.623 54.018,23.446C54.467,22.763 54.277,21.846 53.594,21.397C53.343,21.232 52.236,20.807 51.545,21.821Z" style="fill-rule:nonzero;"/>
        <path d="M82.678,52.931L82.678,27.337C82.678,26.519 82.016,25.857 81.199,25.857C80.381,25.857 79.719,26.519 79.719,27.337L79.719,44.115L73.808,38.928C71.115,36.565 67.431,35.949 64.208,37.15C62.225,33.589 58.405,31.286 54.261,31.286C50.686,31.286 47.337,32.977 45.203,35.783C41.942,33.835 37.704,33.897 34.487,36.166L21.349,45.433L21.349,17.138C21.349,14.884 23.183,13.05 25.437,13.05L75.631,13.05C77.885,13.05 79.719,14.884 79.719,17.138L79.719,21.154C79.719,21.971 80.382,22.633 81.199,22.633C82.016,22.633 82.678,21.971 82.678,21.154L82.678,17.138C82.678,13.253 79.517,10.091 75.631,10.091L57.094,10.091L57.094,6.56C57.094,2.943 54.152,0 50.535,0C46.917,0 43.974,2.943 43.974,6.56L43.974,10.091L25.437,10.091C21.552,10.091 18.39,13.253 18.39,17.138L18.39,52.931C15.282,53.161 12.822,55.762 12.822,58.929C12.822,62.246 15.521,64.944 18.838,64.944L26.674,64.944L23.686,84.797C23.564,85.606 24.116,86.393 24.928,86.481C25.876,86.583 26.501,85.972 26.612,85.238L29.666,64.944L36.95,64.944L32.429,94.976C32.133,96.939 30.294,98.304 28.332,98C25.292,97.53 25.164,94.855 25.307,93.903L25.715,91.192C25.836,90.385 25.28,89.631 24.473,89.509C23.664,89.385 22.911,89.944 22.789,90.752L22.381,93.463C21.843,97.04 24.015,101 28.872,101C32.061,101 34.866,98.663 35.355,95.416L39.942,64.944L43.974,64.944L43.974,90.015C43.974,93.632 46.917,96.575 50.535,96.575C54.152,96.575 57.094,93.632 57.094,90.015L57.094,64.944L61.127,64.944L65.714,95.416C66.203,98.663 69.007,101 72.196,101C78.634,101 78.949,95.195 78.687,93.463L74.395,64.944L82.231,64.944C85.548,64.944 88.246,62.246 88.246,58.929C88.246,55.762 85.787,53.161 82.678,52.931ZM46.933,6.56C46.933,4.575 48.549,2.959 50.535,2.959C52.52,2.959 54.136,4.575 54.136,6.56L54.136,10.091L46.933,10.091L46.933,6.56ZM71.857,41.152L79.719,48.052L79.719,52.913L61.981,52.913L55.771,46.38L63.709,40.736C66.205,38.962 69.555,39.133 71.857,41.152ZM54.261,34.245C57.329,34.245 60.157,35.951 61.623,38.589L53.711,44.214L47.49,37.67C49.065,35.537 51.576,34.245 54.261,34.245ZM36.193,38.584C38.952,36.638 42.786,37.016 45.112,39.462L57.899,52.913L21.349,52.913L21.349,49.054L36.193,38.584ZM54.136,90.015C54.136,92.001 52.52,93.616 50.535,93.616C48.549,93.616 46.933,92.001 46.933,90.015L46.933,64.944L54.136,64.944L54.136,90.015ZM75.762,93.903C76.058,95.867 74.701,97.705 72.736,98C70.774,98.295 68.935,96.939 68.64,94.976L64.119,64.944L71.403,64.944L75.762,93.903ZM82.231,61.985L18.838,61.985C17.152,61.985 15.781,60.614 15.781,58.929C15.781,57.243 17.152,55.872 18.838,55.872L82.231,55.872C83.916,55.872 85.287,57.243 85.287,58.929C85.287,60.614 83.917,61.985 82.231,61.985Z" style="fill-rule:nonzero;"/>
    </g>
</svg>
