<?xml version="1.0" encoding="UTF-8" standalone="no"?>
<!DOCTYPE svg PUBLIC "-//W3C//DTD SVG 1.1//EN" "http://www.w3.org/Graphics/SVG/1.1/DTD/svg11.dtd">
<svg width="100%" height="100%" viewBox="0 0 96 96" version="1.1" xmlns="http://www.w3.org/2000/svg" xmlns:xlink="http://www.w3.org/1999/xlink" xml:space="preserve" xmlns:serif="http://www.serif.com/" style="fill-rule:evenodd;clip-rule:evenodd;stroke-linejoin:round;stroke-miterlimit:2;">
    <g>
        <path d="M47.959,16.249C47.959,24.445 32.418,31.091 24.22,31.091C16.023,31.091 9.378,24.445 9.378,16.249C9.378,8.052 16.023,1.406 24.221,1.406C32.418,1.406 47.959,8.052 47.959,16.249Z" style="fill:rgb(255,205,0);fill-rule:nonzero;"/>
        <path d="M86.539,16.249C86.539,24.445 79.894,31.091 71.698,31.091C63.5,31.091 47.959,24.445 47.959,16.249C47.959,8.052 63.5,1.406 71.698,1.406C79.894,1.406 86.539,8.052 86.539,16.249Z" style="fill:rgb(255,205,0);fill-rule:nonzero;"/>
        <path d="M58.06,34.92L37.857,34.92L37.857,16.509C37.857,10.93 42.38,6.407 47.959,6.407C53.538,6.407 58.06,10.93 58.06,16.509L58.06,34.92Z" style="fill:rgb(255,235,153);fill-rule:nonzero;"/>
        <path d="M58.06,16.509C58.06,16.316 58.054,16.125 58.043,15.935L37.874,15.935C37.864,16.125 37.857,16.316 37.857,16.509L37.857,34.919L58.06,34.919L58.06,16.509Z" style="fill:rgb(255,222,85);fill-rule:nonzero;"/>
        <path d="M84.379,94.594L11.539,94.594C9.828,94.594 8.44,93.207 8.44,91.496L8.44,38.017C8.44,36.306 9.828,34.919 11.539,34.919L84.379,34.919C86.09,34.919 87.477,36.306 87.477,38.017L87.477,91.496C87.477,93.207 86.09,94.594 84.379,94.594Z" style="fill:rgb(255,121,86);fill-rule:nonzero;"/>
        <path d="M84.379,34.92L11.539,34.92C9.828,34.92 8.44,36.306 8.44,38.017L8.44,50.386L87.477,50.386L87.477,38.017C87.477,36.306 86.09,34.92 84.379,34.92Z" style="fill:rgb(255,98,67);fill-rule:nonzero;"/>
        <path d="M68.561,78.75C62.761,78.75 58.06,83.451 58.06,89.25C58.06,91.202 58.594,93.028 59.523,94.594L77.598,94.594C78.526,93.028 79.06,91.202 79.06,89.25C79.06,83.451 74.359,78.75 68.561,78.75Z" style="fill:rgb(215,243,255);fill-rule:nonzero;"/>
        <path d="M87.477,42.769C85.998,41.974 84.308,41.522 82.512,41.522C76.712,41.522 72.012,46.223 72.012,52.022C72.012,57.821 76.712,62.522 82.512,62.522C84.308,62.522 85.998,62.07 87.477,61.275L87.477,42.769Z" style="fill:rgb(215,243,255);fill-rule:nonzero;"/>
        <path d="M72.139,50.386L87.477,50.386L87.477,42.769C85.998,41.974 84.308,41.522 82.512,41.522C77.269,41.522 72.924,45.365 72.139,50.386Z" style="fill:rgb(189,235,255);fill-rule:nonzero;"/>
        <rect x="33.129" y="34.92" width="29.66" height="59.674" style="fill:rgb(255,235,153);fill-rule:nonzero;"/>
        <rect x="33.129" y="34.92" width="29.66" height="15.467" style="fill:rgb(255,222,85);fill-rule:nonzero;"/>
        <rect x="33.129" y="34.92" width="9.375" height="59.674" style="fill:rgb(255,222,85);fill-rule:nonzero;"/>
        <path d="M17.815,91.496L17.815,38.017C17.815,36.306 19.203,34.919 20.914,34.919L11.539,34.919C9.828,34.919 8.44,36.306 8.44,38.017L8.44,91.496C8.44,93.207 9.828,94.594 11.539,94.594L20.914,94.594C19.203,94.594 17.815,93.207 17.815,91.496Z" style="fill:rgb(255,98,67);fill-rule:nonzero;"/>
        <path d="M89.914,44.761L6.004,44.761C4.293,44.761 2.906,43.375 2.906,41.663L2.906,28.187C2.906,26.476 4.293,25.088 6.004,25.088L89.914,25.088C91.625,25.088 93.012,26.475 93.012,28.187L93.012,41.663C93.012,43.375 91.625,44.761 89.914,44.761Z" style="fill:rgb(255,148,120);fill-rule:nonzero;"/>
        <path d="M12.281,41.664L12.281,28.187C12.281,26.476 13.668,25.088 15.379,25.088L6.004,25.088C4.293,25.088 2.906,26.476 2.906,28.187L2.906,41.664C2.906,43.375 4.293,44.761 6.004,44.761L15.379,44.761C13.669,44.761 12.281,43.375 12.281,41.664Z" style="fill:rgb(255,121,86);fill-rule:nonzero;"/>
        <path d="M71.522,44.761L24.396,44.761L24.396,24.968C24.396,23.085 25.922,21.56 27.804,21.56L68.114,21.56C69.995,21.56 71.522,23.085 71.522,24.968L71.522,44.761Z" style="fill:rgb(255,235,153);fill-rule:nonzero;"/>
        <path d="M47.959,37.611C46.178,37.611 44.734,36.166 44.734,34.386L44.734,32.525C44.734,32.216 44.984,31.967 45.292,31.967L50.626,31.967C50.934,31.967 51.183,32.216 51.183,32.525L51.183,34.386C51.183,36.166 49.74,37.611 47.959,37.611Z" style="fill:rgb(68,67,70);fill-rule:nonzero;"/>
        <path d="M36.549,21.56L27.174,21.56C25.64,21.56 24.396,22.803 24.396,24.338L24.396,44.761L33.771,44.761L33.771,24.338C33.771,22.803 35.015,21.56 36.549,21.56Z" style="fill:rgb(255,222,85);fill-rule:nonzero;"/>
        <path d="M15.379,57C12.719,57 10.291,57.991 8.441,59.622L8.441,75.377C10.291,77.008 12.719,78 15.379,78C21.178,78 25.879,73.299 25.879,67.5C25.879,61.701 21.178,57 15.379,57Z" style="fill:rgb(215,243,255);fill-rule:nonzero;"/>
        <path d="M17.815,77.713L17.815,57.287C17.033,57.101 16.218,57 15.379,57C12.719,57 10.291,57.991 8.441,59.622L8.441,75.377C10.291,77.008 12.719,78 15.379,78C16.218,78 17.033,77.899 17.815,77.713Z" style="fill:rgb(189,235,255);fill-rule:nonzero;"/>
        <path d="M59.9,27.305C58.21,27.305 56.636,28.216 55.793,29.682C55.406,30.356 55.639,31.215 56.312,31.603C56.985,31.99 57.844,31.758 58.231,31.084C58.574,30.488 59.213,30.117 59.9,30.117C60.587,30.117 61.227,30.488 61.57,31.084C61.83,31.537 62.303,31.79 62.79,31.79C63.028,31.79 63.269,31.73 63.489,31.603C64.163,31.216 64.395,30.356 64.008,29.683C63.165,28.216 61.591,27.305 59.9,27.305Z" style="fill-rule:nonzero;"/>
        <path d="M36.017,27.305C34.326,27.305 32.753,28.216 31.909,29.682C31.523,30.356 31.755,31.215 32.428,31.603C33.101,31.99 33.961,31.758 34.348,31.084C34.691,30.488 35.331,30.117 36.017,30.117C36.704,30.117 37.343,30.488 37.686,31.084C37.946,31.537 38.419,31.79 38.906,31.79C39.144,31.79 39.385,31.73 39.606,31.603C40.28,31.216 40.512,30.356 40.124,29.683C39.281,28.216 37.707,27.305 36.017,27.305Z" style="fill-rule:nonzero;"/>
        <path d="M50.626,30.561L45.292,30.561C44.209,30.561 43.328,31.441 43.328,32.525L43.328,34.386C43.328,36.939 45.405,39.017 47.959,39.017C50.512,39.017 52.59,36.939 52.59,34.386L52.59,32.525C52.589,31.441 51.709,30.561 50.626,30.561ZM49.777,34.386C49.777,35.388 48.962,36.204 47.959,36.204C46.956,36.204 46.14,35.388 46.14,34.386L46.14,33.374L49.777,33.374L49.777,34.386Z" style="fill-rule:nonzero;"/>
        <path d="M60.965,37.552L58.836,37.552C58.06,37.552 57.43,36.922 57.43,36.146C57.43,35.369 58.06,34.74 58.836,34.74L60.965,34.74C61.742,34.74 62.372,35.369 62.372,36.146C62.372,36.922 61.742,37.552 60.965,37.552Z" style="fill:rgb(244,98,98);fill-rule:nonzero;"/>
        <path d="M37.082,37.552L34.953,37.552C34.176,37.552 33.546,36.922 33.546,36.146C33.546,35.369 34.176,34.74 34.953,34.74L37.082,34.74C37.858,34.74 38.488,35.369 38.488,36.146C38.488,36.922 37.858,37.552 37.082,37.552Z" style="fill:rgb(244,98,98);fill-rule:nonzero;"/>
    </g>
</svg>
