<?xml version="1.0" encoding="UTF-8" standalone="no"?>
<!DOCTYPE svg PUBLIC "-//W3C//DTD SVG 1.1//EN" "http://www.w3.org/Graphics/SVG/1.1/DTD/svg11.dtd">
<svg width="100%" height="100%" viewBox="0 0 101 101" version="1.1" xmlns="http://www.w3.org/2000/svg" xmlns:xlink="http://www.w3.org/1999/xlink" xml:space="preserve" xmlns:serif="http://www.serif.com/" style="fill-rule:evenodd;clip-rule:evenodd;stroke-linejoin:round;stroke-miterlimit:2;">
    <g>
        <path d="M90.662,63.086C90.662,63.086 87.922,70.811 77.526,72.929C67.13,75.047 64.05,57.953 64.05,57.953L71.015,50.5L81.785,51.559L90.662,58.297L90.662,63.086Z" style="fill:rgb(58,72,74);fill-rule:nonzero;"/>
        <path d="M79.411,27.155L70.21,33.462L64.049,57.953L70.978,57.953C82.756,55.909 89.315,61.208 92.349,64.9C93.594,66.415 95.987,66.101 96.783,64.308C101.924,52.723 101.688,27.155 79.411,27.155Z" style="fill:rgb(80,99,102);fill-rule:nonzero;"/>
        <path d="M53.653,10.937C56.446,15.281 50.985,19.376 48.761,20.801L47.877,21.333L47.881,25.379L53.694,31.399L65.929,33.138L76.456,32.545C78.075,29.201 79.411,27.154 79.411,27.154C76.132,18.863 68.988,10.937 53.653,10.937Z" style="fill:rgb(124,183,119);fill-rule:nonzero;"/>
        <path d="M76.456,32.545C76.456,32.545 66.745,15.942 47.878,21.333L41.104,29.598L34.235,61.805L42.425,62.498C42.425,62.498 42.425,62.498 42.425,62.499L39.364,77.654L55.881,81.205L73.097,77.654L77.526,72.929C65.751,59.753 72.122,41.5 76.456,32.545Z" style="fill:rgb(239,237,238);fill-rule:nonzero;"/>
        <path d="M53.653,10.937C25.216,10.937 6.268,39.553 2.269,75.605L8.788,80.416L31.474,53.27L47.878,21.333C47.878,21.333 47.88,21.333 47.882,21.331C48.118,21.202 57.073,16.256 53.653,10.937Z" style="fill:rgb(133,231,255);fill-rule:nonzero;"/>
        <path d="M9.814,79.189C9.913,77.987 10.028,76.792 10.16,75.605C13.795,42.829 29.787,16.202 54.032,11.633C53.984,11.528 53.932,11.423 53.876,11.317C53.865,11.298 53.855,11.279 53.844,11.26C53.786,11.152 53.723,11.044 53.653,10.937C25.216,10.937 6.268,39.553 2.269,75.605L8.788,80.416L9.814,79.189Z" style="fill:rgb(87,208,230);fill-rule:nonzero;"/>
        <path d="M76.845,84.348L50.411,74.893L43.31,65.868L42.425,62.498L42.425,62.498C40.236,58.135 40.731,52.658 44.181,48.723C44.216,48.684 44.249,48.646 44.283,48.608C55.194,36.286 57.76,21.333 47.878,21.333C16.656,30.252 21.927,72.698 2.269,75.605C1.747,80.312 1.479,85.148 1.479,90.064L80.992,90.064L76.845,84.348Z" style="fill:rgb(250,220,96);fill-rule:nonzero;"/>
        <path d="M80.992,90.064C41.332,90.064 42.423,62.498 42.423,62.498L42.425,62.498C43.269,64.183 44.512,65.702 46.141,66.901C52.198,71.364 62.284,75.597 77.526,72.929C77.526,72.929 80.992,75.047 80.992,90.064Z" style="fill:rgb(80,99,102);fill-rule:nonzero;"/>
        <path d="M10.817,70.622C8.536,73.279 5.806,75.082 2.269,75.605C1.747,80.312 1.479,85.148 1.479,90.064L9.37,90.064C9.37,85.148 9.638,80.312 10.159,75.605C10.346,73.927 10.566,72.266 10.817,70.622Z" style="fill:rgb(242,196,44);fill-rule:nonzero;"/>
        <path d="M55.835,43.569C56.57,43.901 57.461,43.565 57.792,42.83C58.155,42.027 58.878,41.411 59.776,41.139C60.674,40.867 61.617,40.979 62.364,41.446C63.057,41.879 63.97,41.668 64.403,40.975C64.836,40.282 64.625,39.369 63.932,38.936C62.461,38.017 60.633,37.788 58.918,38.307C57.203,38.826 55.81,40.031 55.096,41.612C54.76,42.356 55.091,43.233 55.835,43.569Z" style="fill-rule:nonzero;"/>
        <path d="M80.408,25.694C78.432,21.106 75.583,17.425 71.928,14.743C67.148,11.236 61,9.457 53.653,9.457C47.842,9.457 42.245,10.621 37.019,12.917C32.025,15.11 27.352,18.342 23.131,22.524C15.093,30.486 8.736,41.878 4.748,55.469C4.518,56.253 4.967,57.075 5.751,57.305C6.524,57.532 7.36,57.077 7.587,56.302C11.435,43.19 17.53,32.237 25.214,24.626C33.164,16.751 42.427,12.649 52.759,12.426C52.82,12.425 52.914,13.001 52.923,13.065C53.205,15.124 51.342,16.862 49.957,18.093C49.955,18.095 49.954,18.096 49.952,18.097C49.027,18.878 48.086,19.504 47.45,19.876C47.259,19.987 47.047,20.038 46.836,20.102C44.978,20.668 43.167,21.381 41.422,22.234C40.783,22.546 40.153,22.879 39.536,23.232C38.826,23.638 38.58,24.542 38.986,25.251C39.386,25.949 40.307,26.198 41.005,25.8C41.672,25.42 42.35,25.064 43.044,24.736C44.671,23.969 46.353,23.322 48.08,22.817C48.654,22.832 49.232,22.902 49.778,23.087C51.886,23.801 52.545,26.002 52.565,28.02C52.584,29.894 52.131,32.172 51.225,34.634C49.295,39.88 45.968,44.015 42.57,48.353C39.335,52.484 38.696,58.047 40.941,62.827C40.941,62.833 40.941,62.842 40.941,62.848C40.98,68.163 42.993,73.54 46.1,77.81C49.774,82.857 55.198,86.425 61.026,88.518C61.086,88.54 61.145,88.563 61.205,88.584L2.967,88.584C3.011,84.638 3.231,80.703 3.624,76.855C3.633,76.853 3.643,76.85 3.652,76.848C7.897,75.865 11.278,72.824 13.677,69.3C16.363,65.346 18.437,60.259 20.632,54.874C24.306,45.864 28.469,35.652 36.477,28.955C37.084,28.448 37.18,27.489 36.663,26.871C36.138,26.244 35.205,26.161 34.579,26.685C26.007,33.854 21.696,44.428 17.892,53.757C15.866,58.727 13.959,63.89 10.778,68.266C10.765,68.283 10.753,68.3 10.741,68.317C9.036,70.655 6.823,72.716 4.041,73.662C4.024,73.668 4.007,73.673 3.99,73.679C4.459,70.024 5.09,66.421 5.871,62.944C6.05,62.146 5.549,61.355 4.751,61.176C3.954,60.997 3.163,61.498 2.984,62.295C2.031,66.54 1.296,70.962 0.799,75.442C0.269,80.221 0,85.141 0,90.064C0,90.881 0.662,91.543 1.479,91.543L80.996,91.543C81.813,91.543 82.475,90.881 82.475,90.064C82.475,90.027 82.474,89.99 82.471,89.954C82.461,80.781 81.16,76.146 79.993,73.832C86.311,71.93 89.559,68.033 91.028,65.627C91.088,65.698 91.148,65.769 91.206,65.839C93.114,68.161 96.916,67.657 98.135,64.908C99.963,60.789 101.007,55.409 101,50.147C100.994,45.837 100.274,39.604 96.879,34.383C93.336,28.934 87.654,25.944 80.408,25.694ZM77.161,88.493C71.458,88.216 65.682,87.299 60.382,85.105C57.497,83.911 54.748,82.328 52.387,80.274C48.592,76.972 45.876,72.645 44.621,67.766C44.614,67.739 44.578,67.592 44.567,67.545C44.587,67.563 45.047,67.934 45.263,68.093C47.34,69.623 49.557,70.908 51.905,71.949C56.833,74.134 62.342,75.239 68.367,75.239C70.623,75.239 72.878,75.078 75.115,74.79C75.742,74.709 76.367,74.62 76.991,74.519C77.205,74.852 77.537,75.449 77.867,76.366C78.566,78.309 79.391,81.974 79.5,88.57C79.299,88.566 77.739,88.522 77.161,88.493ZM44.935,50.14C46.878,47.628 48.933,45.297 50.601,42.572C53.182,38.354 55.439,33.408 55.521,28.375C55.548,26.696 55.288,25.185 54.715,23.912C54.367,23.139 53.88,22.417 53.272,21.824C53.928,21.768 54.587,21.735 55.246,21.735C58.585,21.735 61.761,22.468 64.741,23.918C66.594,24.82 68.371,25.999 70.064,27.453C71.821,28.963 73.408,30.689 74.724,32.597C74.737,32.617 74.751,32.637 74.764,32.656C74.678,32.839 74.594,33.023 74.509,33.207C72.08,38.499 69.618,45.614 69.345,53.093C69.327,53.571 69.316,54.05 69.317,54.529C69.32,61.163 71.138,66.97 74.746,71.854C72.631,72.126 70.501,72.279 68.368,72.279C62.856,72.279 57.822,71.291 53.322,69.337C49.586,67.714 45.649,65.634 43.748,61.834C41.858,58.059 42.36,53.47 44.935,50.14ZM77.755,27.015C77.413,27.58 76.884,28.487 76.252,29.677C75.309,28.465 73.918,26.875 72.078,25.282C70.08,23.553 67.933,22.155 65.679,21.105C62.386,19.569 58.864,18.776 55.245,18.776C54.66,18.776 54.051,18.797 53.46,18.838C53.541,18.749 53.62,18.659 53.699,18.567C53.701,18.565 53.703,18.562 53.706,18.559C54.426,17.708 55.051,16.79 55.46,15.747C55.87,14.7 55.997,13.583 55.824,12.473C66.537,13.044 73.905,17.928 77.755,27.015ZM78.069,71.292C78.025,71.3 77.791,70.95 77.765,70.918C75.696,68.319 73.524,64.476 72.651,59.199C74.357,58.984 76.091,58.915 77.806,59.045C82.945,59.436 86.546,61.493 88.866,63.46C87.885,65.322 84.945,69.612 78.069,71.292ZM95.431,63.709C95.086,64.486 94.025,64.609 93.492,63.96C90.759,60.634 85.943,56.724 78.185,56.106C76.279,55.954 74.362,56.01 72.465,56.241C72.418,56.247 72.373,56.251 72.326,56.256C72.049,51.177 72.885,43.507 77.571,33.645C78.381,31.941 79.256,30.265 80.228,28.647C86.586,28.84 91.351,31.31 94.399,35.997C99.358,43.622 98.818,56.075 95.431,63.709Z" style="fill-rule:nonzero;"/>
    </g>
</svg>
