<?xml version="1.0" encoding="UTF-8" standalone="no"?>
<!DOCTYPE svg PUBLIC "-//W3C//DTD SVG 1.1//EN" "http://www.w3.org/Graphics/SVG/1.1/DTD/svg11.dtd">
<svg width="100%" height="100%" viewBox="0 0 100 100" version="1.1" xmlns="http://www.w3.org/2000/svg" xmlns:xlink="http://www.w3.org/1999/xlink" xml:space="preserve" xmlns:serif="http://www.serif.com/" style="fill-rule:evenodd;clip-rule:evenodd;stroke-linejoin:round;stroke-miterlimit:2;">
    <path d="M62.416,97.478C60.882,97.478 59.506,96.406 59.179,94.844C57.669,87.617 59.538,75.497 59.945,73.567C60.322,71.778 62.079,70.633 63.868,71.01C65.657,71.387 66.801,73.144 66.424,74.933C65.95,77.183 64.503,87.947 65.661,93.49C66.035,95.28 64.887,97.034 63.097,97.408C62.869,97.455 62.641,97.478 62.416,97.478Z" style="fill:rgb(239,209,118);fill-rule:nonzero;"/>
    <path d="M80.316,97.478C78.781,97.478 77.404,96.406 77.078,94.844C75.568,87.616 77.437,75.496 77.844,73.566C78.221,71.777 79.977,70.632 81.767,71.01C83.556,71.386 84.7,73.143 84.323,74.932C83.849,77.183 82.401,87.946 83.56,93.49C83.933,95.279 82.786,97.033 80.996,97.407C80.768,97.455 80.54,97.478 80.316,97.478Z" style="fill:rgb(239,209,118);fill-rule:nonzero;"/>
    <path d="M37.631,82.79C37.601,82.79 37.57,82.79 37.54,82.789C35.711,82.783 34.234,81.295 34.241,79.466C34.248,77.642 35.728,76.167 37.551,76.167C37.582,76.167 37.612,76.167 37.643,76.167C44.63,76.167 45.72,72.827 47.259,62.566C47.44,61.357 47.628,60.107 47.844,58.832C48.15,57.029 49.86,55.815 51.662,56.121C53.464,56.427 54.678,58.136 54.372,59.939C54.167,61.152 53.984,62.37 53.808,63.548C53.091,68.324 52.415,72.836 50.324,76.368C47.768,80.689 43.615,82.79 37.631,82.79Z" style="fill:rgb(239,209,118);fill-rule:nonzero;"/>
    <path d="M53.084,16.22C58.48,19.999 60.526,27.003 61.251,30.654C61.514,31.981 60.617,33.262 59.28,33.469C55.6,34.036 48.32,34.509 42.923,30.731C37.527,26.952 35.482,19.949 34.757,16.297C34.494,14.97 35.391,13.689 36.728,13.483C40.406,12.915 47.687,12.441 53.084,16.22Z" style="fill:rgb(142,226,207);fill-rule:nonzero;"/>
    <path d="M51.238,27.206C50.948,27.206 50.655,27.12 50.399,26.942L43.927,22.41C43.265,21.946 43.103,21.032 43.568,20.37C44.032,19.707 44.945,19.546 45.608,20.01L52.08,24.542C52.742,25.005 52.904,25.919 52.439,26.582C52.155,26.989 51.7,27.206 51.238,27.206Z" style="fill:rgb(111,206,145);fill-rule:nonzero;"/>
    <path d="M71.011,13.059C67.232,18.456 67.706,25.736 68.274,29.416C68.481,30.753 69.761,31.65 71.088,31.386C74.74,30.662 81.743,28.616 85.522,23.219C89.3,17.823 88.827,10.542 88.259,6.863C88.053,5.526 86.772,4.63 85.445,4.893C81.793,5.618 74.79,7.663 71.011,13.059Z" style="fill:rgb(142,226,207);fill-rule:nonzero;"/>
    <path d="M76,22.84C75.71,22.84 75.417,22.755 75.161,22.575C74.498,22.112 74.337,21.198 74.801,20.535L79.333,14.063C79.797,13.4 80.71,13.239 81.373,13.703C82.035,14.167 82.197,15.08 81.732,15.743L77.2,22.215C76.916,22.623 76.461,22.84 76,22.84Z" style="fill:rgb(111,206,145);fill-rule:nonzero;"/>
    <path d="M71.18,15.427C72.323,21.915 68.818,28.314 66.748,31.408C65.996,32.533 64.456,32.804 63.365,32.005C60.361,29.805 54.879,24.992 53.734,18.504C52.591,12.016 56.097,5.617 58.166,2.522C58.919,1.398 60.458,1.127 61.55,1.926C64.553,4.126 70.036,8.939 71.18,15.427Z" style="fill:rgb(142,226,207);fill-rule:nonzero;"/>
    <path d="M63.142,22.321C62.445,22.321 61.827,21.821 61.701,21.11L60.329,13.329C60.189,12.532 60.721,11.773 61.518,11.633C62.315,11.492 63.074,12.024 63.214,12.82L64.586,20.602C64.726,21.398 64.195,22.158 63.398,22.299C63.312,22.314 63.227,22.321 63.142,22.321Z" style="fill:rgb(111,206,145);fill-rule:nonzero;"/>
    <path d="M64.122,26.404C77.58,24.031 89.069,32.934 93.189,48.758C97.475,65.218 93.391,78.78 73.961,82.205C54.532,85.631 46.056,74.284 44.453,57.351C42.912,41.073 50.664,28.777 64.122,26.404Z" style="fill:rgb(247,239,135);fill-rule:nonzero;"/>
    <path d="M56.324,29.221C47.78,34.206 43.241,44.546 44.453,57.351C46.051,74.237 54.486,85.566 73.801,82.232C47.845,72.028 49.567,45.058 56.324,29.221Z" style="fill:rgb(239,209,118);fill-rule:nonzero;"/>
    <path d="M65.123,47.389C64.832,47.389 64.539,47.303 64.284,47.124C63.621,46.66 63.46,45.747 63.924,45.084L65.873,42.301C66.096,41.982 66.436,41.766 66.818,41.699C67.201,41.631 67.595,41.718 67.913,41.941L70.696,43.89C71.359,44.354 71.52,45.268 71.056,45.93C70.592,46.593 69.678,46.754 69.016,46.29L67.432,45.181L66.324,46.764C66.039,47.171 65.584,47.389 65.123,47.389Z" style="fill:rgb(239,209,118);fill-rule:nonzero;"/>
    <path d="M78.65,45.004C78.36,45.004 78.067,44.918 77.811,44.739C77.148,44.275 76.988,43.362 77.451,42.699L79.401,39.915C79.865,39.252 80.778,39.092 81.441,39.555L84.224,41.505C84.886,41.969 85.047,42.882 84.583,43.544C84.119,44.207 83.206,44.368 82.543,43.904L80.96,42.795L79.852,44.379C79.566,44.786 79.112,45.004 78.65,45.004Z" style="fill:rgb(239,209,118);fill-rule:nonzero;"/>
    <path d="M51.595,49.774C51.305,49.774 51.013,49.689 50.757,49.509C50.094,49.045 49.933,48.132 50.397,47.469L52.346,44.686C52.569,44.368 52.909,44.151 53.291,44.083C53.674,44.015 54.068,44.103 54.386,44.326L57.169,46.275C57.832,46.739 57.993,47.652 57.529,48.315C57.065,48.978 56.152,49.139 55.489,48.675L53.906,47.566L52.797,49.15C52.512,49.557 52.058,49.774 51.595,49.774Z" style="fill:rgb(239,209,118);fill-rule:nonzero;"/>
    <path d="M76.777,73.928C76.487,73.928 76.194,73.842 75.938,73.662C75.275,73.198 75.114,72.285 75.578,71.623L77.527,68.84C77.991,68.177 78.904,68.016 79.567,68.48L82.351,70.428C83.013,70.893 83.174,71.806 82.71,72.468C82.246,73.131 81.332,73.292 80.67,72.828L79.087,71.72L77.978,73.303C77.693,73.71 77.239,73.928 76.777,73.928Z" style="fill:rgb(239,209,118);fill-rule:nonzero;"/>
    <path d="M63.249,76.313C62.958,76.313 62.665,76.227 62.41,76.048C61.748,75.584 61.586,74.671 62.051,74.008L63.999,71.225C64.464,70.563 65.376,70.401 66.039,70.865L68.822,72.814C69.485,73.278 69.646,74.191 69.182,74.854C68.719,75.516 67.805,75.677 67.142,75.213L65.559,74.105L64.45,75.689C64.165,76.095 63.711,76.313 63.249,76.313Z" style="fill:rgb(239,209,118);fill-rule:nonzero;"/>
    <path d="M59.229,65.443C58.781,62.898 55.826,61.292 52.63,61.855C49.435,62.418 47.208,64.938 47.657,67.483C48.105,70.028 51.06,71.635 54.255,71.072C57.451,70.508 59.678,67.988 59.229,65.443Z" style="fill:rgb(237,161,171);fill-rule:nonzero;"/>
    <path d="M79.027,61.948C79.476,64.492 82.43,66.099 85.626,65.536C88.822,64.972 91.048,62.453 90.6,59.908C90.151,57.362 87.197,55.756 84.002,56.319C80.806,56.883 78.579,59.402 79.027,61.948Z" style="fill:rgb(237,161,171);fill-rule:nonzero;"/>
    <path d="M37.238,83.081C36.534,83.081 35.831,82.812 35.294,82.275L26.883,73.865C25.81,72.791 25.81,71.051 26.883,69.977C27.957,68.903 29.698,68.903 30.771,69.977L39.182,78.388C40.255,79.462 40.255,81.202 39.182,82.275C38.645,82.812 37.941,83.081 37.238,83.081Z" style="fill:rgb(225,184,154);fill-rule:nonzero;"/>
    <path d="M33.515,68.957C33.515,73.183 30.089,76.609 25.863,76.609C21.637,76.609 18.211,73.183 18.211,68.957C18.211,64.731 21.637,61.306 25.863,61.306C30.089,61.306 33.515,64.731 33.515,68.957Z" style="fill:rgb(122,206,250);fill-rule:nonzero;"/>
    <path d="M23.391,61.715C22.112,62.15 20.933,62.929 20.002,64.039C19.845,64.226 19.7,64.419 19.563,64.615L30.205,75.257C30.758,74.875 31.271,74.415 31.724,73.876C32.351,73.13 32.808,72.298 33.104,71.429L23.391,61.715Z" style="fill:rgb(163,222,254);fill-rule:nonzero;"/>
    <path d="M84.249,70.273C81.205,70.273 78.012,69.43 75.01,67.782C73.406,66.902 72.82,64.889 73.7,63.286C74.579,61.683 76.593,61.097 78.196,61.977C81.273,63.666 84.511,64.107 87.079,63.186C89.313,62.385 91.019,60.545 92.148,57.719C92.827,56.022 94.754,55.196 96.452,55.875C98.149,56.553 98.976,58.48 98.297,60.178C95.975,65.986 92.131,68.409 89.314,69.419C87.719,69.99 86.009,70.273 84.249,70.273Z" style="fill:rgb(239,209,118);fill-rule:nonzero;"/>
    <path d="M42.773,94.898C42.773,92.89 38.798,91.261 33.895,91.261C28.991,91.261 25.017,92.89 25.017,94.898C25.017,96.907 28.991,98.535 33.895,98.535C38.798,98.535 42.773,96.907 42.773,94.898Z" style="fill:rgb(225,184,154);fill-rule:nonzero;"/>
    <path d="M19.222,86.453C19.222,84.444 15.247,82.816 10.343,82.816C5.44,82.816 1.465,84.444 1.465,86.453C1.465,88.461 5.44,90.09 10.343,90.09C15.247,90.09 19.222,88.461 19.222,86.453Z" style="fill:rgb(225,184,154);fill-rule:nonzero;"/>
    <path d="M81.71,54.631C81.569,53.835 80.81,53.303 80.013,53.443C79.216,53.584 78.684,54.344 78.824,55.14L79.185,57.183C79.31,57.894 79.928,58.394 80.626,58.394C80.71,58.394 80.796,58.387 80.881,58.372C81.679,58.231 82.21,57.472 82.07,56.675L81.71,54.631ZM33.894,89.797C28.754,89.797 23.551,91.549 23.551,94.899C23.551,98.248 28.754,100 33.894,100C39.034,100 44.237,98.248 44.237,94.899C44.237,91.55 39.034,89.797 33.894,89.797ZM33.894,97.07C28.779,97.07 26.481,95.344 26.481,94.898C26.481,94.453 28.779,92.726 33.894,92.726C39.009,92.726 41.308,94.453 41.308,94.898C41.308,95.344 39.009,97.07 33.894,97.07ZM96.995,54.514C96.598,54.355 96.192,54.255 95.786,54.207C95.521,52.336 95.127,50.385 94.607,48.389C92.5,40.298 88.504,33.799 83.051,29.597C82.652,29.29 82.247,28.997 81.836,28.717C83.845,27.389 85.483,25.829 86.722,24.06C88.262,21.861 89.29,19.187 89.779,16.113C89.906,15.315 89.361,14.564 88.562,14.437C87.765,14.312 87.012,14.855 86.886,15.654C86.468,18.284 85.605,20.547 84.322,22.38C83.056,24.188 81.257,25.749 78.972,27.033C76.666,25.88 74.224,25.125 71.686,24.778C72.832,21.383 73.149,18.159 72.622,15.173C72.539,14.695 72.431,14.227 72.307,13.767C73.852,11.624 77.595,7.944 85.731,6.33C85.976,6.281 86.226,6.333 86.432,6.478C86.638,6.623 86.773,6.839 86.812,7.086C86.915,7.754 86.998,8.435 87.058,9.112C87.13,9.918 87.841,10.513 88.646,10.442C89.452,10.37 90.048,9.658 89.975,8.853C89.91,8.113 89.82,7.369 89.707,6.64C89.546,5.595 88.98,4.685 88.112,4.078C87.246,3.471 86.197,3.25 85.16,3.456C81.561,4.17 75.277,6.021 71.108,10.603C68.854,5.993 64.93,2.587 62.416,0.744C61.563,0.119 60.519,-0.124 59.477,0.061C58.435,0.244 57.537,0.83 56.949,1.709C55.216,4.299 52.694,8.843 52.153,13.945C46.668,11.066 40.13,11.476 36.504,12.036C35.458,12.197 34.549,12.763 33.942,13.63C33.335,14.497 33.114,15.545 33.32,16.583C34.112,20.578 36.305,27.886 42.083,31.931C43.851,33.17 45.924,34.075 48.266,34.637C47.977,35.04 47.696,35.453 47.426,35.879C43.738,41.693 42.206,49.166 42.995,57.489C43.342,61.17 43.994,64.487 44.942,67.436C43.725,73.329 42.306,74.703 37.647,74.703L37.568,74.703L34.558,71.694C35.626,68.284 34.626,64.41 31.723,61.974C27.872,58.743 22.111,59.247 18.88,63.097C17.314,64.963 16.569,67.326 16.782,69.752C16.994,72.177 18.138,74.375 20.003,75.941C21.661,77.331 23.71,78.074 25.848,78.074C26.116,78.074 26.387,78.063 26.658,78.039C27.325,77.981 27.975,77.849 28.6,77.653L34.257,83.311C35.054,84.107 36.112,84.545 37.237,84.545C37.804,84.545 38.354,84.433 38.862,84.221C44.283,83.956 48.369,81.863 51.023,77.992C51.71,78.689 52.436,79.332 53.205,79.919C54.484,80.893 55.874,81.701 57.365,82.349C57.068,86.247 56.941,91.297 57.744,95.143C58.205,97.345 60.169,98.943 62.416,98.943C62.743,98.943 63.073,98.908 63.396,98.841C65.974,98.302 67.633,95.767 67.094,93.189C66.672,91.169 66.576,88.103 66.81,84.269C67.012,84.273 67.212,84.279 67.415,84.279C69.557,84.279 71.825,84.068 74.215,83.647C74.543,83.589 74.866,83.527 75.186,83.464C74.954,87.15 74.913,91.645 75.644,95.143C76.104,97.345 78.068,98.943 80.315,98.943C80.642,98.943 80.972,98.908 81.296,98.841C82.544,98.58 83.616,97.849 84.315,96.781C85.013,95.714 85.254,94.438 84.994,93.189C84.207,89.424 84.73,83.154 85.08,79.971C86.276,79.299 87.382,78.557 88.386,77.74C91.649,75.086 93.916,71.654 95.134,67.537C96.826,65.958 98.44,63.767 99.656,60.72C100.634,58.276 99.44,55.492 96.995,54.514ZM21.886,73.697C20.621,72.635 19.844,71.143 19.7,69.497C19.556,67.851 20.061,66.247 21.123,64.981C22.346,63.525 24.101,62.773 25.868,62.773C27.272,62.773 28.683,63.248 29.84,64.218C32.453,66.411 32.795,70.321 30.602,72.935C28.41,75.548 24.499,75.89 21.886,73.697ZM38.145,81.24C37.903,81.483 37.581,81.616 37.237,81.616C36.895,81.616 36.572,81.483 36.33,81.24L31.338,76.248C31.887,75.834 32.394,75.357 32.847,74.818C32.954,74.691 33.055,74.562 33.153,74.431L35.969,77.248C35.972,77.25 35.974,77.251 35.976,77.254L38.145,79.424C38.646,79.924 38.646,80.739 38.145,81.24ZM59.384,3.337C59.524,3.128 59.737,2.989 59.985,2.945C60.233,2.901 60.482,2.959 60.684,3.108C63.616,5.255 68.69,9.745 69.737,15.682C70.213,18.382 69.847,21.364 68.655,24.559C67.085,24.544 65.486,24.676 63.868,24.961C62.248,25.247 60.701,25.669 59.231,26.221C57.017,23.626 55.653,20.949 55.177,18.249C54.13,12.312 57.364,6.358 59.384,3.337ZM43.763,29.531C41.643,28.047 37.841,24.317 36.194,16.012C36.145,15.766 36.197,15.516 36.342,15.31C36.486,15.103 36.703,14.969 36.951,14.931C45.148,13.665 49.924,15.844 52.109,17.328C52.149,17.803 52.209,18.28 52.292,18.758C52.819,21.744 54.22,24.665 56.458,27.463C54.191,28.657 52.154,30.202 50.381,32.074C47.795,31.65 45.571,30.797 43.763,29.531ZM41.397,80.966C41.585,79.72 41.217,78.408 40.289,77.432C43.772,76.853 45.584,75.004 46.747,71.908C47.426,73.268 48.189,74.521 49.036,75.665C47.333,78.518 44.816,80.266 41.397,80.966ZM62.798,95.974C62.672,96 62.542,96.014 62.416,96.014C61.549,96.014 60.791,95.396 60.612,94.544C59.929,91.27 59.99,86.928 60.229,83.36C61.396,83.682 62.616,83.92 63.888,84.071C63.698,87.205 63.65,91.031 64.227,93.79C64.435,94.786 63.793,95.766 62.798,95.974ZM81.863,95.177C81.593,95.59 81.179,95.873 80.697,95.974C80.57,96 80.442,96.014 80.315,96.014C79.448,96.014 78.689,95.396 78.512,94.545C77.786,91.072 77.901,86.394 78.171,82.757C79.514,82.385 80.787,81.953 81.987,81.461C81.664,85.031 81.394,90.287 82.126,93.79C82.226,94.272 82.133,94.765 81.863,95.177ZM76.481,80.176C76.477,80.177 76.473,80.177 76.469,80.178C75.583,80.399 74.662,80.594 73.707,80.763C65.862,82.146 59.562,81.078 54.98,77.588C53.886,76.754 52.886,75.783 51.981,74.678C51.946,74.629 51.907,74.582 51.867,74.537C50.215,72.482 48.887,69.972 47.887,67.018C47.865,66.92 47.833,66.824 47.792,66.733C46.876,63.944 46.247,60.768 45.911,57.213C45.185,49.542 46.564,42.708 49.9,37.448C50.534,36.447 51.233,35.517 51.99,34.658C52.009,34.639 52.026,34.619 52.045,34.599C55.213,31.034 59.416,28.721 64.376,27.847C66.115,27.54 67.827,27.432 69.498,27.517C69.504,27.518 69.511,27.518 69.518,27.519C73.777,27.741 77.77,29.225 81.263,31.918C86.197,35.719 89.83,41.67 91.771,49.127C92.278,51.073 92.658,52.966 92.907,54.775C91.977,55.289 91.212,56.114 90.787,57.176C89.821,59.596 88.406,61.154 86.584,61.807C84.411,62.586 81.61,62.18 78.899,60.693C77.781,60.079 76.491,59.937 75.266,60.294C74.041,60.651 73.028,61.463 72.415,62.582C71.801,63.7 71.66,64.99 72.017,66.215C72.373,67.44 73.186,68.453 74.304,69.066C77.489,70.814 80.928,71.738 84.248,71.738C86.197,71.738 88.068,71.422 89.808,70.798C90.124,70.685 90.451,70.555 90.787,70.407C88.131,75.192 83.34,78.465 76.481,80.176ZM96.937,59.634C94.817,64.936 91.353,67.132 88.819,68.04C87.397,68.549 85.86,68.808 84.248,68.808C81.419,68.808 78.468,68.009 75.714,66.497C75.281,66.26 74.968,65.869 74.83,65.395C74.692,64.922 74.747,64.424 74.984,63.991C75.221,63.558 75.612,63.245 76.085,63.107C76.256,63.057 76.431,63.033 76.604,63.033C76.911,63.033 77.214,63.11 77.49,63.261C80.935,65.151 84.611,65.627 87.573,64.565C90.22,63.615 92.216,61.496 93.508,58.264C93.886,57.318 94.963,56.857 95.907,57.234C96.853,57.612 97.314,58.689 96.937,59.634ZM10.343,81.352C5.203,81.352 0,83.104 0,86.453C0,89.803 5.203,91.555 10.343,91.555C10.603,91.555 10.86,91.55 11.115,91.542C11.923,91.515 12.557,90.838 12.531,90.029C12.504,89.22 11.823,88.586 11.018,88.614C10.796,88.622 10.57,88.625 10.343,88.625C5.228,88.625 2.93,86.899 2.93,86.453C2.93,86.008 5.228,84.281 10.343,84.281C15.458,84.281 17.757,86.008 17.757,86.453C17.757,86.51 17.629,86.805 17.007,87.196C16.323,87.626 16.117,88.531 16.547,89.215C16.978,89.9 17.883,90.106 18.567,89.676C20.319,88.574 20.686,87.315 20.686,86.453C20.686,83.104 15.483,81.352 10.343,81.352ZM57.091,58.972C56.95,58.176 56.191,57.644 55.394,57.784C54.597,57.925 54.065,58.685 54.205,59.481L54.566,61.524C54.691,62.235 55.309,62.735 56.006,62.735C56.091,62.735 56.177,62.728 56.263,62.713C57.059,62.573 57.591,61.813 57.451,61.015L57.091,58.972ZM77.603,52.226C77.769,52.226 77.939,52.197 78.103,52.137L81.744,50.812C82.504,50.535 82.896,49.694 82.62,48.934C82.343,48.174 81.502,47.782 80.742,48.059L77.102,49.384C76.341,49.661 75.95,50.501 76.226,51.261C76.443,51.856 77.004,52.226 77.603,52.226ZM70.785,57.91C69.915,57.645 68.979,57.589 68.079,57.748C67.18,57.907 66.32,58.279 65.593,58.824C64.946,59.31 64.815,60.229 65.301,60.876C65.589,61.259 66.028,61.461 66.473,61.461C66.779,61.461 67.088,61.365 67.352,61.167C67.718,60.893 68.133,60.713 68.588,60.632C69.044,60.553 69.495,60.58 69.932,60.713C70.706,60.948 71.525,60.511 71.76,59.737C71.995,58.963 71.559,58.145 70.785,57.91ZM56.951,54.169L53.078,54.169C52.268,54.169 51.613,54.825 51.613,55.634C51.613,56.442 52.268,57.099 53.078,57.099L56.951,57.099C57.76,57.099 58.416,56.442 58.416,55.634C58.416,54.825 57.76,54.169 56.951,54.169Z" style="fill-rule:nonzero;"/>
</svg>
