<?xml version="1.0" encoding="UTF-8" standalone="no"?>
<!DOCTYPE svg PUBLIC "-//W3C//DTD SVG 1.1//EN" "http://www.w3.org/Graphics/SVG/1.1/DTD/svg11.dtd">
<svg width="100%" height="100%" viewBox="0 0 96 96" version="1.1" xmlns="http://www.w3.org/2000/svg" xmlns:xlink="http://www.w3.org/1999/xlink" xml:space="preserve" xmlns:serif="http://www.serif.com/" style="fill-rule:evenodd;clip-rule:evenodd;stroke-linejoin:round;stroke-miterlimit:2;">
    <path d="M32.63,83.856L34.525,83.856L34.525,74.297C34.525,72.727 35.798,71.453 37.369,71.453C38.939,71.453 40.212,72.727 40.212,74.297L40.212,83.856L46.468,83.856C49.917,83.856 52.723,86.662 52.723,90.111C52.723,91.682 51.45,92.955 49.88,92.955C48.309,92.955 47.036,91.682 47.036,90.111C47.036,89.798 46.781,89.543 46.468,89.543L32.63,89.543C32.317,89.543 32.061,89.798 32.061,90.111C32.061,91.682 30.788,92.955 29.218,92.955C27.647,92.955 26.374,91.682 26.374,90.111C26.375,86.662 29.18,83.856 32.63,83.856Z" style="fill:rgb(80,224,224);fill-rule:nonzero;"/>
    <path d="M4.903,91.021L21.2,69.598C23.083,72.203 24.166,75.424 24.089,78.904C23.909,87.051 17.257,93.69 9.109,93.856C8,93.879 6.915,93.784 5.869,93.582C4.699,93.355 4.181,91.97 4.903,91.021Z" style="fill:rgb(74,86,96);fill-rule:nonzero;"/>
    <path d="M21.2,69.598L4.903,91.021C4.181,91.97 4.699,93.355 5.869,93.582C6.683,93.738 7.521,93.831 8.375,93.853L23.423,74.071C22.927,72.45 22.171,70.942 21.2,69.598Z" style="fill:rgb(61,72,81);fill-rule:nonzero;"/>
    <path d="M37.369,71.454C35.798,71.454 34.525,72.727 34.525,74.297L34.525,81.857L36.371,81.857C37.666,81.857 38.947,81.772 40.212,81.616L40.212,74.297C40.212,72.727 38.939,71.454 37.369,71.454Z" style="fill:rgb(0,188,185);fill-rule:nonzero;"/>
    <path d="M62.084,14.756C61.019,12.459 59.559,10.382 57.791,8.615C53.914,4.739 48.56,2.341 42.644,2.341C30.815,2.341 21.223,11.931 21.223,23.762L21.223,58.264L13.767,58.264C13.767,69.223 22.65,78.106 33.609,78.106L36.371,78.106C47.592,78.106 57.253,71.433 61.605,61.841L62.084,14.756Z" style="fill:rgb(61,72,81);fill-rule:nonzero;"/>
    <path d="M26.849,23.762C26.849,12.885 34.957,3.902 45.458,2.525C44.537,2.404 43.598,2.341 42.645,2.341C30.815,2.341 21.223,11.931 21.223,23.762L21.223,58.264L26.849,58.264L26.849,23.762Z" style="fill:rgb(51,58,65);fill-rule:nonzero;"/>
    <path d="M19.393,58.264L13.767,58.264C13.767,69.223 22.65,78.106 33.609,78.106L36.371,78.106C36.883,78.106 37.39,78.087 37.896,78.06C27.562,77.371 19.393,68.773 19.393,58.264Z" style="fill:rgb(51,58,65);fill-rule:nonzero;"/>
    <path d="M36.589,29.076C37.183,35.169 41.027,38.778 45.607,42.293C52.591,47.65 61.124,52.162 61.605,61.841C63.186,58.356 64.066,54.486 64.066,50.41L64.066,23.762C64.066,20.545 63.357,17.493 62.084,14.756C59.413,12.754 56.096,11.567 52.501,11.567C43.187,11.567 35.691,19.868 36.589,29.076Z" style="fill:rgb(232,232,232);fill-rule:nonzero;"/>
    <path d="M84.772,23.652C78.817,18.179 70.723,14.756 62.085,14.756C63.182,24.637 58.03,27.677 56.773,32.426L63.307,37.032L75.188,38.907L84.772,23.652Z" style="fill:rgb(255,143,113);fill-rule:nonzero;"/>
    <path d="M75.188,34.473L75.188,38.907L83.528,40.222L93.739,44.744C94.169,44.894 94.616,44.562 94.601,44.107C94.311,36.198 90.55,28.96 84.772,23.652C79.371,24.301 75.188,28.898 75.188,34.473Z" style="fill:rgb(74,86,96);fill-rule:nonzero;"/>
    <path d="M56.5,34.412C56.452,39.043 60.41,42.712 65.036,42.516C83.104,41.755 91.246,43.883 93.739,44.744C79.591,29.804 56.773,32.426 56.773,32.426C56.606,33.051 56.507,33.707 56.5,34.412Z" style="fill:rgb(247,87,71);fill-rule:nonzero;"/>
    <path d="M47.939,29.438L51.297,29.438C52.074,29.438 52.704,28.808 52.704,28.032C52.704,27.255 52.074,26.625 51.297,26.625L47.939,26.625C47.163,26.625 46.533,27.255 46.533,28.032C46.533,28.808 47.163,29.438 47.939,29.438Z" style="fill:rgb(255,137,151);fill-rule:nonzero;"/>
    <path d="M1.746,68.616L18.976,44.039C22.391,39.168 28.895,37.601 34.154,40.381C40.65,43.815 42.483,52.303 37.94,58.077C31.688,66.021 20.681,74.466 3.011,71.601C1.617,71.375 0.935,69.773 1.746,68.616Z" style="fill:rgb(74,86,96);fill-rule:nonzero;"/>
    <path d="M8.637,71.601C7.243,71.375 6.561,69.773 7.372,68.616L24.602,44.039C26.299,41.619 28.76,40.015 31.452,39.354C26.821,38.215 21.824,39.977 18.976,44.039L1.746,68.616C0.935,69.773 1.617,71.375 3.011,71.601C6.472,72.163 9.677,72.288 12.642,72.07C11.346,71.978 10.012,71.824 8.637,71.601Z" style="fill:rgb(61,72,81);fill-rule:nonzero;"/>
    <path d="M52.912,20.808L52.912,23.463C52.912,24.24 52.282,24.869 51.505,24.869C50.729,24.869 50.099,24.24 50.099,23.463L50.099,20.808C50.099,20.031 50.729,19.402 51.505,19.402C52.282,19.402 52.912,20.031 52.912,20.808Z" style="fill-rule:nonzero;"/>
    <path d="M93.272,46.077C94.609,46.537 96.051,45.48 95.999,44.063C95.705,36.056 92.053,28.442 85.716,22.62C79.526,16.931 71.277,13.587 62.958,13.365C61.873,11.244 60.47,9.316 58.776,7.624C54.465,3.312 48.733,0.938 42.636,0.938C30.048,0.938 19.808,11.178 19.808,23.766L19.808,40.989C19.073,41.648 18.403,42.398 17.816,43.235L8.69,56.253C8.243,56.889 8.398,57.765 9.034,58.211C9.67,58.658 10.547,58.504 10.993,57.867L20.12,44.85C24.085,39.193 32.776,39.047 36.935,44.558C39.734,48.267 39.701,53.558 36.826,57.21C32.341,62.91 26.279,67.455 19.263,69.478C14.331,70.895 8.958,71.145 3.228,70.216C2.866,70.157 2.674,69.733 2.889,69.427L7.799,62.424C8.245,61.788 8.09,60.91 7.455,60.465C6.818,60.019 5.941,60.173 5.495,60.809L0.586,67.812C-0.798,69.785 0.404,72.608 2.777,72.992C5.268,73.396 7.635,73.582 9.875,73.583C12.362,73.583 14.696,73.353 16.886,72.938L3.775,90.172C2.446,91.92 3.435,94.546 5.594,94.965C10.991,96.012 16.684,94.252 20.572,90.371C23.645,87.303 25.392,83.242 25.487,78.938C25.494,78.593 25.491,78.247 25.477,77.901C27.875,78.894 30.458,79.448 33.111,79.509L33.111,82.452L32.622,82.452C28.397,82.452 24.959,85.89 24.959,90.115C24.959,92.458 26.866,94.365 29.21,94.365C31.266,94.365 32.987,92.896 33.377,90.953L45.705,90.953C46.095,92.897 47.816,94.365 49.872,94.365C52.215,94.365 54.122,92.458 54.122,90.115C54.122,85.89 50.685,82.452 46.46,82.452L41.611,82.452L41.611,79.047C46.264,78.207 50.617,76.242 54.407,73.243C55.016,72.761 55.118,71.876 54.637,71.267C54.155,70.658 53.27,70.555 52.661,71.037C48.972,73.956 44.692,75.791 40.119,76.439C37.959,76.748 35.758,76.703 33.601,76.703C30.117,76.703 26.753,75.721 23.862,73.92C22.892,73.318 21.985,72.62 21.143,71.849C21.791,71.639 23.717,70.901 24.02,70.771C30.145,68.144 36.313,63.481 39.872,57.759C44.233,50.75 40.832,41.168 33.089,38.385C29.646,37.146 25.856,37.398 22.622,39.052L22.622,23.766C22.622,12.729 31.6,3.75 42.637,3.75C47.982,3.75 53.008,5.832 56.788,9.613C57.262,10.086 57.71,10.58 58.131,11.094C56.324,10.474 54.404,10.164 52.494,10.164C42.505,10.164 34.212,19.261 35.182,29.216C35.939,36.987 42.169,41.595 48.026,45.836C51.71,48.502 55.66,51.202 58.079,55.157C59.267,57.101 60.007,59.309 60.169,61.584C59.2,63.643 57.96,65.577 56.477,67.337C55.977,67.931 56.053,68.818 56.647,69.319C57.241,69.819 58.129,69.743 58.629,69.149C60.353,67.102 61.783,64.84 62.879,62.426C64.594,58.644 65.465,54.602 65.465,50.413L65.465,43.909C67.859,43.814 70.186,43.764 72.387,43.764C85.192,43.764 91.258,45.381 93.272,46.077ZM34.517,85.266C35.293,85.266 35.923,84.636 35.923,83.859L35.923,79.516C35.923,79.516 37.992,79.482 38.797,79.417L38.797,83.859C38.797,84.636 39.427,85.266 40.204,85.266L46.459,85.266C49.133,85.266 51.308,87.441 51.308,90.115C51.308,90.907 50.664,91.552 49.871,91.552C49.079,91.552 48.434,90.907 48.434,90.115C48.434,89.026 47.548,88.14 46.459,88.14L32.621,88.14C31.532,88.14 30.646,89.026 30.646,90.115C30.646,90.907 30.002,91.552 29.209,91.552C28.417,91.552 27.772,90.907 27.772,90.115C27.772,87.441 29.947,85.266 32.621,85.266L34.517,85.266ZM6.014,91.876C6.028,91.857 19.494,74.156 19.494,74.156C20.398,74.959 22.472,76.37 22.507,76.392C22.637,77.214 22.693,78.047 22.674,78.875C22.595,82.451 21.143,85.827 18.584,88.38C15.341,91.617 10.632,93.077 6.127,92.203C6.058,92.19 6.009,92.141 5.986,92.081C5.961,92.015 5.969,91.936 6.014,91.876ZM72.386,40.951C70.031,40.951 67.535,41.006 64.969,41.115C61.223,41.272 57.861,38.212 57.898,34.434C57.9,34.203 57.917,33.973 57.943,33.744C58.618,33.702 59.602,33.659 60.824,33.659C65.722,33.659 70.646,34.288 75.363,35.619C79.906,36.901 84.278,38.875 88.099,41.665C88.294,41.809 88.486,41.955 88.679,42.102C85.094,41.495 79.812,40.951 72.386,40.951ZM60.739,15.53C60.749,15.645 60.757,15.759 60.765,15.872C60.9,17.758 60.806,19.671 60.34,21.508C59.041,26.634 54.019,30.767 55.294,36.453C55.295,36.459 55.296,36.464 55.297,36.469C56.106,40.079 59.035,42.949 62.651,43.718L62.651,50.413C62.651,52.434 62.504,54.605 61.929,56.552C61.318,55.272 60.737,53.993 59.931,52.83C57.533,49.367 54.121,46.797 50.755,44.342C48.281,42.536 45.754,40.784 43.476,38.729C40.397,35.951 38.161,32.576 37.935,28.336C37.536,20.829 43.529,13.869 50.987,13.059C54.401,12.688 57.912,13.586 60.739,15.53ZM81.752,22.954C80.164,23.551 78.7,24.489 77.484,25.671C76.281,26.841 75.325,28.265 74.69,29.818C74.357,30.632 74.111,31.484 73.959,32.35C68.767,31.125 64.05,30.845 60.832,30.845C60.095,30.845 59.443,30.86 58.88,30.881C58.886,30.871 58.89,30.861 58.896,30.85C60.342,28.008 62.242,25.377 63.046,22.247C63.536,20.339 63.693,18.352 63.611,16.387C63.608,16.326 63.606,16.266 63.604,16.204C70.118,16.53 76.545,18.929 81.752,22.954ZM93.026,42.075C90.753,39.978 88.186,38.163 85.489,36.689C82.704,35.166 79.738,33.972 76.695,33.075C76.881,31.834 77.321,30.632 77.976,29.563C79.028,27.842 80.625,26.458 82.492,25.69C83.079,25.448 83.679,25.27 84.303,25.152C89.237,29.876 92.281,35.802 93.026,42.075Z" style="fill-rule:nonzero;"/>
</svg>
