<?xml version="1.0" encoding="UTF-8" standalone="no"?>
<!DOCTYPE svg PUBLIC "-//W3C//DTD SVG 1.1//EN" "http://www.w3.org/Graphics/SVG/1.1/DTD/svg11.dtd">
<svg width="100%" height="100%" viewBox="0 0 96 96" version="1.1" xmlns="http://www.w3.org/2000/svg" xmlns:xlink="http://www.w3.org/1999/xlink" xml:space="preserve" xmlns:serif="http://www.serif.com/" style="fill-rule:evenodd;clip-rule:evenodd;stroke-linejoin:round;stroke-miterlimit:2;">
    <path d="M28.307,78.83C28.593,82.47 31.259,86.226 35.474,88.34C39.689,90.454 44.294,90.343 47.382,88.396C47.095,84.757 44.429,81 40.215,78.886C36,76.773 31.395,76.883 28.307,78.83Z" style="fill:rgb(47,200,180);fill-rule:nonzero;"/>
    <path d="M67.693,78.83C67.407,82.47 64.741,86.226 60.526,88.34C56.312,90.454 51.706,90.343 48.618,88.396C48.905,84.757 51.571,81 55.785,78.886C60,76.773 64.605,76.883 67.693,78.83Z" style="fill:rgb(47,200,180);fill-rule:nonzero;"/>
    <rect x="45.233" y="63.548" width="5.536" height="31.046" style="fill:rgb(0,174,149);fill-rule:nonzero;"/>
    <path d="M78.366,43.415C87.876,38.385 85.361,24.118 74.704,22.643C78.755,12.677 67.658,3.365 58.546,9.086C55.243,-1.154 40.757,-1.154 37.454,9.086C28.342,3.365 17.245,12.677 21.296,22.643C10.639,24.118 8.124,38.385 17.634,43.415C10.418,51.395 17.661,63.941 28.18,61.682C27.781,72.433 41.394,77.387 48,68.896C54.606,77.388 68.218,72.433 67.82,61.682C78.339,63.941 85.582,51.395 78.366,43.415Z" style="fill:rgb(255,94,107);fill-rule:nonzero;"/>
    <path d="M48,59.377C61.62,59.377 72.662,49.494 72.662,37.303C72.662,25.112 61.62,15.229 48,15.229C34.38,15.229 23.338,25.112 23.338,37.303C23.338,49.494 34.38,59.377 48,59.377Z" style="fill:rgb(255,206,28);fill-rule:nonzero;"/>
    <path d="M28.964,37.303C28.964,25.963 38.517,16.622 50.812,15.372C49.889,15.278 48.951,15.228 48,15.228C34.38,15.228 23.339,25.111 23.339,37.303C23.339,49.494 34.38,59.377 48,59.377C48.951,59.377 49.889,59.327 50.812,59.233C38.517,57.983 28.964,48.642 28.964,37.303Z" style="fill:rgb(250,163,48);fill-rule:nonzero;"/>
    <path d="M37.5,37.805L37.5,35.65C37.5,34.873 36.87,34.243 36.094,34.243C35.317,34.243 34.687,34.873 34.687,35.65L34.687,37.805C34.687,38.581 35.317,39.211 36.094,39.211C36.87,39.211 37.5,38.581 37.5,37.805Z" style="fill-rule:nonzero;"/>
    <path d="M61.313,37.805L61.313,35.65C61.313,34.873 60.683,34.243 59.906,34.243C59.13,34.243 58.5,34.873 58.5,35.65L58.5,37.805C58.5,38.581 59.13,39.211 59.906,39.211C60.683,39.211 61.313,38.581 61.313,37.805Z" style="fill-rule:nonzero;"/>
    <path d="M48,40.361C49.551,40.361 51.008,39.712 51.997,38.58C52.509,37.996 52.449,37.107 51.864,36.596C51.279,36.085 50.391,36.144 49.88,36.729C49.425,37.25 48.739,37.549 48,37.549C47.26,37.549 46.575,37.25 46.12,36.729C45.609,36.144 44.721,36.085 44.136,36.596C43.551,37.107 43.491,37.995 44.002,38.58C44.992,39.712 46.449,40.361 48,40.361Z" style="fill-rule:nonzero;"/>
    <path d="M19.79,34.625L22.048,35.092C21.972,35.823 21.932,36.56 21.932,37.303C21.932,41.654 23.255,45.732 25.555,49.23L23.302,50.555C22.632,50.949 22.409,51.811 22.802,52.481C23.179,53.121 24.055,53.375 24.727,52.98L27.249,51.497C30.065,54.828 33.845,57.464 38.212,59.063L37.438,61.616C37.213,62.36 37.633,63.145 38.376,63.37C39.126,63.597 39.887,63.16 40.13,62.432L40.898,59.897C43.156,60.474 45.539,60.783 48,60.783C50.461,60.783 52.843,60.474 55.102,59.897C55.102,59.897 55.869,62.428 55.87,62.432C56.092,63.164 56.895,63.591 57.624,63.37C58.367,63.145 58.787,62.36 58.562,61.616L57.789,59.063C62.155,57.464 65.935,54.828 68.751,51.496L71.273,52.98C71.935,53.369 72.808,53.143 73.198,52.48C73.592,51.811 73.368,50.949 72.699,50.555L70.445,49.23C72.745,45.732 74.068,41.654 74.068,37.302C74.068,36.557 74.027,35.82 73.951,35.092L76.21,34.625C76.971,34.468 77.46,33.724 77.303,32.963C77.145,32.203 76.401,31.714 75.641,31.871L73.475,32.318C72.275,27.341 69.32,22.947 65.222,19.692L66.596,17.748C67.044,17.113 66.893,16.236 66.259,15.788C65.625,15.34 64.747,15.491 64.299,16.125L62.928,18.065C59.057,15.62 54.417,14.097 49.406,13.856L49.406,10.751C49.406,9.974 48.777,9.345 48,9.345C47.223,9.345 46.594,9.974 46.594,10.751L46.594,13.856C41.675,14.091 37.012,15.556 33.062,18.05L31.701,16.125C31.253,15.491 30.375,15.34 29.741,15.788C29.107,16.236 28.956,17.113 29.404,17.748L30.769,19.678C29.636,20.58 28.579,21.576 27.616,22.664C27.101,23.245 27.155,24.134 27.736,24.649C28.317,25.164 29.206,25.11 29.721,24.529C34.304,19.358 41.148,16.634 48,16.634C60.823,16.634 71.255,25.906 71.255,37.302C71.255,48.699 60.823,57.97 48,57.97C35.177,57.97 24.745,48.699 24.745,37.303C24.745,34.34 25.436,31.48 26.799,28.801C27.151,28.109 26.876,27.262 26.183,26.91C25.491,26.558 24.645,26.834 24.292,27.526C23.505,29.073 22.913,30.674 22.519,32.317L20.359,31.871C19.599,31.714 18.855,32.203 18.697,32.964C18.54,33.724 19.029,34.468 19.79,34.625Z" style="fill-rule:nonzero;"/>
    <path d="M15.548,43.784C13.079,47.341 12.626,51.835 14.416,55.868C16.537,60.645 21.583,63.764 26.818,63.307C27.071,66.119 28.228,68.701 30.161,70.707C32.548,73.184 35.905,74.605 39.37,74.605C40.934,74.605 42.433,74.318 43.826,73.77L43.826,79.554C42.919,78.816 41.918,78.168 40.845,77.63C38.627,76.518 36.219,75.93 33.88,75.93C31.519,75.93 29.333,76.521 27.557,77.641C27.115,77.919 26.864,78.42 26.905,78.941C27.242,83.227 30.284,87.311 34.843,89.597C37.06,90.709 39.468,91.297 41.807,91.297C42.496,91.297 43.17,91.246 43.826,91.146L43.826,94.594C43.826,95.37 44.455,96 45.232,96L50.768,96C51.545,96 52.174,95.37 52.174,94.594L52.174,91.146C52.83,91.246 53.504,91.297 54.193,91.297C56.532,91.297 58.939,90.709 61.157,89.597C65.716,87.311 68.758,83.227 69.095,78.941C69.136,78.42 68.885,77.919 68.443,77.641C66.668,76.521 64.481,75.93 62.121,75.93C59.782,75.93 57.373,76.518 55.155,77.63C54.082,78.168 53.081,78.816 52.174,79.554L52.174,73.771C53.567,74.318 55.066,74.605 56.631,74.605C60.096,74.605 63.452,73.185 65.839,70.707C67.772,68.702 68.93,66.119 69.183,63.307C74.449,63.767 79.45,60.675 81.584,55.87C83.375,51.836 82.922,47.342 80.452,43.784C84.39,41.009 86.343,36.334 85.483,31.452C84.622,26.571 81.189,22.846 76.539,21.585C77.458,18.131 76.88,14.561 74.874,11.58C72.529,8.096 68.53,5.931 64.438,5.931C62.649,5.931 60.916,6.321 59.269,7.091C57.219,2.734 52.955,0 48,0C43.045,0 38.781,2.734 36.731,7.091C35.084,6.32 33.351,5.931 31.562,5.931C27.47,5.931 23.471,8.095 21.126,11.579C19.119,14.561 18.542,18.13 19.461,21.585C14.812,22.845 11.378,26.57 10.517,31.452C9.657,36.333 11.61,41.009 15.548,43.784ZM41.807,88.484L41.807,88.484C39.904,88.484 37.932,87.999 36.104,87.083C32.801,85.426 30.424,82.556 29.831,79.595C31.009,79.035 32.391,78.742 33.88,78.742C35.783,78.742 37.756,79.227 39.584,80.144C41.26,80.984 42.717,82.139 43.826,83.501L43.826,85.04L36.501,81.366C35.806,81.018 34.961,81.299 34.613,81.993C34.265,82.687 34.545,83.532 35.24,83.88L43.826,88.186L43.826,88.292C43.18,88.419 42.505,88.484 41.807,88.484ZM56.416,80.144C58.244,79.227 60.217,78.742 62.121,78.742C63.609,78.742 64.991,79.035 66.169,79.595C65.576,82.556 63.199,85.426 59.896,87.083C58.068,88 56.096,88.484 54.193,88.484C53.495,88.484 52.82,88.419 52.174,88.292L52.174,88.186L60.76,83.88C61.454,83.532 61.735,82.687 61.387,81.993C61.039,81.299 60.194,81.018 59.499,81.366L52.174,85.04L52.174,83.502C53.283,82.139 54.74,80.984 56.416,80.144ZM49.362,93.187L46.638,93.187L46.638,72.201C47.082,71.868 47.503,71.502 47.899,71.115C47.932,71.082 47.967,71.052 48,71.019C48.032,71.051 48.067,71.081 48.099,71.113C48.496,71.501 48.918,71.868 49.362,72.201L49.362,93.187ZM13.287,31.94C13.879,28.586 16.344,24.749 21.489,24.036C22.384,23.912 22.94,22.952 22.599,22.114C21.343,19.024 21.648,15.84 23.459,13.15C25.288,10.432 28.393,8.743 31.562,8.743C33.355,8.743 35.086,9.259 36.706,10.277C37.473,10.758 38.515,10.375 38.792,9.517C40.387,4.574 44.594,2.812 48,2.812C51.406,2.812 55.613,4.574 57.208,9.517C57.486,10.38 58.526,10.759 59.294,10.277C60.914,9.259 62.645,8.743 64.438,8.743C67.606,8.743 70.711,10.432 72.54,13.15C74.351,15.841 74.657,19.024 73.401,22.113C73.058,22.958 73.614,23.912 74.511,24.036C79.656,24.748 82.121,28.586 82.713,31.94C83.304,35.294 82.3,39.743 77.709,42.172C76.906,42.597 76.715,43.686 77.323,44.358C79.967,47.282 80.599,51.158 79.013,54.728C77.148,58.929 72.611,61.272 68.115,60.307C67.23,60.117 66.381,60.831 66.415,61.734C66.542,65.174 65.071,67.451 63.814,68.755C61.954,70.685 59.336,71.792 56.63,71.792C54.595,71.792 52.699,71.162 51.099,69.983C51.094,69.979 51.088,69.975 51.083,69.971C50.341,69.417 49.678,68.762 49.11,68.032C48.569,67.336 47.451,67.311 46.89,68.032C46.321,68.763 45.657,69.416 44.916,69.971C44.911,69.975 44.906,69.979 44.901,69.983C43.301,71.162 41.405,71.792 39.37,71.792C36.664,71.792 34.046,70.685 32.186,68.755C30.929,67.45 29.458,65.173 29.585,61.734C29.618,60.83 28.769,60.117 27.884,60.307C23.351,61.28 18.864,58.957 16.987,54.727C15.402,51.157 16.034,47.281 18.677,44.358C19.286,43.685 19.091,42.595 18.291,42.172C13.7,39.743 12.696,35.294 13.287,31.94Z" style="fill-rule:nonzero;"/>
</svg>
