<?xml version="1.0" encoding="UTF-8" standalone="no"?>
<!DOCTYPE svg PUBLIC "-//W3C//DTD SVG 1.1//EN" "http://www.w3.org/Graphics/SVG/1.1/DTD/svg11.dtd">
<svg width="100%" height="100%" viewBox="0 0 95 95" version="1.1" xmlns="http://www.w3.org/2000/svg" xmlns:xlink="http://www.w3.org/1999/xlink" xml:space="preserve" xmlns:serif="http://www.serif.com/" style="fill-rule:evenodd;clip-rule:evenodd;stroke-linejoin:round;stroke-miterlimit:2;">
    <g>
        <path d="M91.642,7.222C91.231,6.359 90.455,5.724 89.531,5.482C85.962,4.545 76.471,2.901 69.958,9.577L88.741,31.887C88.741,31.887 97.397,19.298 91.642,7.222Z" style="fill:rgb(255,178,90);fill-rule:nonzero;"/>
        <path d="M82.642,29.127L82.623,29.156C82.687,29.061 88.43,20.353 85.594,12.166C84.635,11.987 83.451,11.834 82.162,11.816C79.057,11.773 75.891,12.596 73.669,14.875L82.642,29.127Z" style="fill:rgb(255,143,113);fill-rule:nonzero;"/>
        <path d="M3.358,7.222C3.769,6.359 4.545,5.724 5.469,5.482C9.038,4.545 18.529,2.901 25.042,9.577L6.259,31.887C6.259,31.887 -2.398,19.298 3.358,7.222Z" style="fill:rgb(255,178,90);fill-rule:nonzero;"/>
        <path d="M12.358,29.127L12.377,29.156C12.313,29.061 6.57,20.353 9.406,12.166C10.365,11.987 11.549,11.834 12.838,11.816C15.943,11.773 19.108,12.596 21.331,14.875L12.358,29.127Z" style="fill:rgb(255,143,113);fill-rule:nonzero;"/>
        <path d="M18.291,80.56C9.16,72.483 3.404,60.679 3.404,47.529C3.404,23.176 23.147,3.433 47.5,3.433C71.853,3.433 91.596,23.176 91.596,47.529C91.596,60.679 85.839,72.483 76.709,80.56L18.291,80.56Z" style="fill:rgb(248,208,112);fill-rule:nonzero;"/>
        <path d="M18.291,80.56L23.858,80.56C14.728,72.483 8.971,60.68 8.971,47.529C8.971,24.112 27.228,4.96 50.284,3.523C50.099,3.535 49.9,3.501 49.714,3.491C48.979,3.457 48.244,3.433 47.509,3.433L47.5,3.433C23.147,3.433 3.404,23.177 3.404,47.53C3.404,53.868 4.772,60.189 7.423,65.948C10.004,71.552 13.725,76.522 18.291,80.56Z" style="fill:rgb(255,178,90);fill-rule:nonzero;"/>
        <path d="M53.311,50.391C66.68,53.086 76.748,64.898 76.748,79.061C76.748,79.565 76.735,80.063 76.709,80.56C68.931,87.446 58.703,91.625 47.5,91.625C36.297,91.625 26.069,87.446 18.291,80.56C18.265,80.063 18.252,79.565 18.252,79.061C18.252,64.898 28.32,53.086 41.688,50.391L53.311,50.391Z" style="fill:rgb(232,232,232);fill-rule:nonzero;"/>
        <path d="M49.166,91.591C49.539,91.577 49.912,91.559 50.284,91.536C40.175,90.906 30.987,86.871 23.859,80.56C21.926,78.851 20.148,76.974 18.54,74.954C18.352,76.296 18.252,77.667 18.252,79.061C18.252,79.564 18.265,80.063 18.291,80.56C20.722,82.712 23.391,84.6 26.256,86.178C27.688,86.967 29.169,87.679 30.692,88.307C35.872,90.445 41.549,91.625 47.5,91.625C47.794,91.625 48.903,91.601 49.166,91.591Z" style="fill:rgb(210,209,215);fill-rule:nonzero;"/>
        <path d="M53.311,50.391C53.021,53.345 50.53,55.653 47.5,55.653C44.47,55.653 41.979,53.345 41.689,50.391C43.567,50.014 45.51,49.814 47.5,49.814C49.49,49.814 51.433,50.014 53.311,50.391Z" style="fill:rgb(51,58,65);fill-rule:nonzero;"/>
        <path d="M32.195,13.321L30.654,13.885C29.282,14.387 28.248,15.537 27.894,16.954L27.826,17.225C27.185,19.79 28.931,22.337 31.554,22.666L35.134,23.113C36.846,23.327 38.526,22.522 39.431,21.053C40.686,19.017 40.088,16.351 38.083,15.048L36.111,13.765C34.949,13.009 33.498,12.845 32.195,13.321Z" style="fill:rgb(222,137,87);fill-rule:nonzero;"/>
        <path d="M35.454,32.392L35.366,32.053C34.836,29.988 32.676,28.793 30.645,29.442C29.283,29.876 28.292,31.054 28.097,32.469L28.051,32.798C27.761,34.9 29.291,36.817 31.406,37.001L31.539,37.013C34.088,37.234 36.09,34.871 35.454,32.392Z" style="fill:rgb(222,137,87);fill-rule:nonzero;"/>
        <path d="M13.552,34.917C12.298,35.864 11.751,37.483 12.174,38.997L12.36,39.662C12.854,41.434 14.54,42.602 16.372,42.444L16.447,42.437C19,42.218 20.618,39.599 19.674,37.217L19.412,36.558C18.482,34.209 15.568,33.393 13.552,34.917Z" style="fill:rgb(222,137,87);fill-rule:nonzero;"/>
        <path d="M15.764,50.848L14.18,51.138C12.565,51.434 11.323,52.734 11.1,54.36L10.986,55.186C10.706,57.227 12.103,59.119 14.136,59.453L14.618,59.532C15.814,59.729 17.033,59.342 17.897,58.492L19.113,57.298C20.403,56.029 20.621,54.028 19.634,52.512C18.798,51.228 17.271,50.571 15.764,50.848Z" style="fill:rgb(222,137,87);fill-rule:nonzero;"/>
        <path d="M62.805,13.321L64.346,13.885C65.718,14.387 66.752,15.537 67.107,16.954L67.174,17.225C67.815,19.79 66.069,22.337 63.446,22.666L59.866,23.113C58.154,23.327 56.475,22.522 55.569,21.053C54.313,19.017 54.912,16.351 56.917,15.048L58.889,13.765C60.051,13.009 61.502,12.845 62.805,13.321Z" style="fill:rgb(222,137,87);fill-rule:nonzero;"/>
        <path d="M59.546,32.392L59.634,32.053C60.164,29.988 62.323,28.793 64.355,29.442C65.717,29.876 66.708,31.054 66.904,32.469L66.949,32.798C67.239,34.9 65.709,36.817 63.594,37.001L63.462,37.013C60.912,37.234 58.91,34.871 59.546,32.392Z" style="fill:rgb(222,137,87);fill-rule:nonzero;"/>
        <path d="M81.448,34.917C82.703,35.864 83.248,37.483 82.826,38.997L82.64,39.662C82.146,41.434 80.461,42.602 78.629,42.444L78.553,42.437C76,42.218 74.381,39.599 75.326,37.217L75.587,36.558C76.519,34.209 79.432,33.393 81.448,34.917Z" style="fill:rgb(222,137,87);fill-rule:nonzero;"/>
        <path d="M79.237,50.848L80.82,51.138C82.435,51.434 83.677,52.734 83.901,54.36L84.014,55.186C84.294,57.227 82.897,59.119 80.864,59.453L80.382,59.532C79.186,59.729 77.968,59.342 77.103,58.492L75.887,57.298C74.597,56.029 74.379,54.028 75.366,52.512C76.203,51.228 77.729,50.571 79.237,50.848Z" style="fill:rgb(222,137,87);fill-rule:nonzero;"/>
        <path d="M65.761,45.191C64.992,45.191 64.369,45.814 64.369,46.582L64.369,50.133C64.369,50.902 64.992,51.525 65.761,51.525C66.529,51.525 67.153,50.902 67.153,50.133L67.153,46.582C67.153,45.813 66.529,45.191 65.761,45.191Z" style="fill-rule:nonzero;"/>
        <path d="M27.847,46.582L27.847,50.133C27.847,50.902 28.47,51.525 29.239,51.525C30.008,51.525 30.631,50.902 30.631,50.133L30.631,46.582C30.631,45.814 30.008,45.191 29.239,45.191C28.47,45.191 27.847,45.813 27.847,46.582Z" style="fill-rule:nonzero;"/>
        <path d="M40.616,21.784C42.281,19.082 41.502,15.611 38.842,13.881C37.23,12.833 35.722,11.661 33.709,11.661C32.461,11.661 31.327,12.157 30.176,12.578C28.368,13.239 27.01,14.749 26.543,16.617C25.69,20.032 27.781,23.596 31.381,24.047L34.962,24.494C37.183,24.772 39.44,23.69 40.616,21.784ZM38.247,20.323C37.636,21.312 36.459,21.877 35.307,21.732C35.307,21.732 31.738,21.286 31.727,21.284C29.768,21.039 28.797,19.077 29.245,17.292C29.665,15.612 31.236,15.154 32.674,14.629C33.559,14.305 34.562,14.418 35.352,14.932L37.324,16.214C38.707,17.113 39.112,18.918 38.247,20.323Z" style="fill-rule:nonzero;"/>
        <path d="M31.419,38.381C33.086,38.497 34.802,37.849 35.893,36.442C36.866,35.187 37.197,33.586 36.801,32.046C36.194,29.678 34.317,27.873 31.774,27.873C29.261,27.873 27.062,29.791 26.718,32.279C26.298,35.324 28.253,38.16 31.419,38.381ZM29.922,34.745C29.539,34.265 29.341,33.636 29.43,32.988C29.598,31.77 30.397,30.657 31.774,30.657C33.045,30.657 33.814,31.606 34.106,32.739C34.526,34.375 33.129,35.754 31.527,35.615C30.874,35.558 30.305,35.226 29.922,34.745Z" style="fill-rule:nonzero;"/>
        <path d="M16.043,43.85C19.684,43.85 22.325,40.126 20.968,36.704C20.077,34.459 18.423,32.751 15.85,32.751C12.444,32.751 9.922,36.103 10.833,39.371C11.527,41.855 13.275,43.85 16.043,43.85ZM14.397,36.036C14.8,35.724 15.3,35.534 15.849,35.534C17.253,35.534 17.92,36.569 18.38,37.731C19.027,39.362 17.748,41.067 16.041,41.067C14.536,41.067 13.869,39.89 13.514,38.622C13.238,37.633 13.644,36.62 14.397,36.036Z" style="fill-rule:nonzero;"/>
        <path d="M9.607,54.996C9.221,57.807 11.112,60.367 13.911,60.827C15.74,61.127 17.504,60.83 18.873,59.485L20.089,58.29C21.845,56.565 22.144,53.815 20.8,51.752C19.672,50.021 17.544,49.106 15.512,49.479C15.512,49.479 13.93,49.769 13.929,49.769C11.236,50.262 9.951,52.488 9.607,54.996ZM12.365,55.375C12.543,54.083 12.925,52.748 14.431,52.507C14.431,52.507 16.013,52.217 16.014,52.217C18.297,51.798 19.789,54.681 18.137,56.305C18.137,56.305 16.923,57.499 16.922,57.5C16.38,58.033 15.592,58.282 14.843,58.159C13.403,57.923 12.14,57.014 12.365,55.375Z" style="fill-rule:nonzero;"/>
        <path d="M68.524,16.887C68.032,14.919 66.767,13.289 64.824,12.578C63.668,12.155 62.544,11.661 61.291,11.661C59.286,11.661 57.759,12.84 56.158,13.881C53.498,15.611 52.718,19.082 54.384,21.784C55.557,23.686 57.823,24.771 60.038,24.494C60.038,24.494 63.617,24.047 63.619,24.047C67.019,23.621 69.355,20.213 68.524,16.887ZM65.386,19.997C64.891,20.719 64.141,21.176 63.273,21.284L59.693,21.732C58.538,21.877 57.364,21.314 56.753,20.323C55.887,18.918 56.292,17.114 57.676,16.214C58.763,15.507 59.923,14.445 61.291,14.445C62.173,14.445 63.052,14.894 63.867,15.192C64.807,15.536 65.513,16.321 65.756,17.292C65.993,18.24 65.956,19.165 65.386,19.997Z" style="fill-rule:nonzero;"/>
        <path d="M68.328,32.607C67.974,30.043 65.96,27.873 63.226,27.873C60.707,27.873 58.801,29.698 58.198,32.046C57.382,35.221 59.855,38.419 63.13,38.419C64.731,38.419 66.255,37.748 67.261,36.488C68.141,35.384 68.52,34.006 68.328,32.607ZM65.085,34.751C64.651,35.295 64.019,35.567 63.341,35.627C62.547,35.695 61.793,35.363 61.306,34.736C60.757,34.027 60.77,33.223 60.981,32.4C61.245,31.373 62.168,30.657 63.226,30.657C64.367,30.657 65.368,31.529 65.524,32.66C65.629,33.42 65.584,34.125 65.085,34.751Z" style="fill-rule:nonzero;"/>
        <path d="M78.433,43.825L78.509,43.831C81.431,44.081 83.437,41.987 84.166,39.371C85.075,36.117 82.533,32.751 79.151,32.751C76.606,32.751 74.914,34.481 74.032,36.704C72.761,39.909 75.013,43.53 78.433,43.825ZM76.62,37.731C77.084,36.559 77.736,35.534 79.15,35.534C80.737,35.534 81.909,37.104 81.485,38.622C81.485,38.622 81.3,39.287 81.3,39.288C80.408,42.482 75.401,40.804 76.62,37.731Z" style="fill-rule:nonzero;"/>
        <path d="M74.912,58.29C74.912,58.29 76.126,59.484 76.127,59.485C79.635,62.933 86.07,59.931 85.393,54.997C85.046,52.467 83.783,50.269 81.071,49.769L79.488,49.479C77.446,49.104 75.333,50.014 74.2,51.752C72.856,53.815 73.155,56.565 74.912,58.29ZM76.532,53.272C77.501,51.784 79.12,52.242 80.569,52.507C81.595,52.695 82.38,53.516 82.522,54.549C82.522,54.549 82.631,55.346 82.635,55.374C82.953,57.694 79.663,59.058 78.078,57.499L76.863,56.305C76.048,55.505 75.909,54.229 76.532,53.272Z" style="fill-rule:nonzero;"/>
        <path d="M52.263,59.708C51.814,60.223 51.136,60.518 50.406,60.518C49.675,60.518 48.998,60.223 48.548,59.708C48.002,59.084 46.997,59.084 46.452,59.708C46.002,60.223 45.325,60.518 44.594,60.518C43.864,60.518 43.186,60.223 42.737,59.708C42.231,59.129 41.351,59.071 40.772,59.577C40.193,60.082 40.135,60.962 40.64,61.541C41.619,62.66 43.06,63.302 44.594,63.302C45.647,63.302 46.655,63 47.5,62.449C48.345,63 49.353,63.302 50.406,63.302C51.94,63.302 53.381,62.66 54.359,61.541C54.865,60.962 54.807,60.082 54.227,59.577C53.649,59.071 52.77,59.129 52.263,59.708Z" style="fill-rule:nonzero;"/>
        <path d="M4.708,32.045C2.93,36.957 2.012,42.171 2.012,47.529C2.012,60.549 7.609,72.968 17.368,81.602C25.682,88.963 36.384,93.017 47.5,93.017C58.617,93.017 69.318,88.963 77.632,81.601C87.391,72.968 92.988,60.549 92.988,47.529C92.988,42.164 92.064,36.941 90.294,32.042C91.018,30.862 92.553,28.125 93.679,24.495C95.675,18.062 95.405,11.882 92.899,6.623C92.312,5.391 91.213,4.484 89.884,4.136C88.264,3.71 85.714,3.204 82.77,3.204C77.603,3.204 73.131,4.803 69.761,7.839C63.039,4.055 55.425,2.041 47.5,2.041C44.704,2.041 41.895,2.3 39.15,2.809C38.394,2.949 37.896,3.676 38.036,4.432C38.176,5.187 38.902,5.686 39.658,5.546C42.237,5.067 44.875,4.825 47.501,4.825C55.22,4.825 62.627,6.862 69.11,10.679C69.154,10.713 69.2,10.745 69.249,10.774C77.558,15.702 84.016,23.373 87.434,32.375C87.45,32.417 87.472,32.456 87.492,32.495C89.272,37.238 90.205,42.312 90.205,47.529C90.205,58.688 85.825,69.376 78.092,77.321C78.091,77.309 78.09,77.296 78.089,77.284C77.859,73.1 76.74,69.02 74.867,65.274C74.867,65.273 74.866,65.27 74.865,65.269C74.514,64.601 73.674,64.311 72.995,64.654C72.309,65 72.033,65.837 72.38,66.524C74.355,70.434 75.356,74.652 75.356,79.061C75.356,79.322 75.351,79.584 75.344,79.846C75.344,79.866 75.343,79.887 75.342,79.907C67.602,86.571 57.739,90.234 47.501,90.234C37.262,90.234 27.399,86.571 19.659,79.907C19.659,79.887 19.657,79.866 19.657,79.846C19.287,67.085 28.258,55.204 40.622,52.063C41.346,54.3 43.221,56.112 45.48,56.761C46.134,56.95 46.82,57.045 47.501,57.045C48.181,57.045 48.866,56.951 49.521,56.762C49.522,56.761 49.524,56.761 49.526,56.761C51.782,56.116 53.651,54.302 54.378,52.063C58.738,53.169 62.8,55.352 66.14,58.362C67.209,59.325 68.208,60.376 69.115,61.493C69.367,61.803 69.594,62.192 69.926,62.426C70.413,62.77 71.102,62.756 71.575,62.393C72.17,61.937 72.289,61.036 71.833,60.442C70.845,59.151 69.762,57.949 68.598,56.843C64.447,52.898 59.201,50.158 53.587,49.027C49.578,48.221 45.419,48.226 41.414,49.027C29.877,51.335 20.556,60.404 17.738,71.794C17.291,73.606 17.017,75.46 16.911,77.322C9.177,69.379 4.797,58.689 4.797,47.529C4.797,42.319 5.719,37.253 7.507,32.499C7.528,32.458 7.55,32.419 7.566,32.375C12.161,20.277 22.329,10.667 34.678,6.785C35.411,6.554 35.819,5.773 35.588,5.04C35.358,4.306 34.576,3.899 33.843,4.129C30.864,5.066 27.986,6.323 25.26,7.858C21.888,4.81 17.408,3.204 12.23,3.204C9.287,3.204 6.736,3.711 5.116,4.136C3.788,4.485 2.689,5.391 2.102,6.623C-0.405,11.882 -0.675,18.062 1.321,24.495C2.448,28.129 3.986,30.867 4.708,32.045ZM82.77,5.987C85.417,5.987 87.715,6.445 89.178,6.828C89.712,6.968 90.152,7.33 90.386,7.821C94.3,16.035 91.005,24.672 88.944,28.73C88.227,27.151 87.42,25.611 86.522,24.119C87.626,20.847 88.476,16.233 86.908,11.71C86.745,11.237 86.34,10.889 85.848,10.797C82.455,10.166 78.781,10.233 75.63,11.777C74.54,10.916 73.417,10.111 72.264,9.359C75.046,7.12 78.572,5.987 82.77,5.987ZM84.501,21.058C83.581,19.778 82.591,18.54 81.532,17.349C80.426,16.105 79.254,14.917 78.021,13.799C79.251,13.389 80.645,13.188 82.144,13.208C82.916,13.219 83.712,13.283 84.519,13.399C85.244,16.054 85.03,18.756 84.501,21.058ZM44.238,51.397C45.404,51.262 46.579,51.202 47.752,51.212C49.044,51.222 50.337,51.32 51.615,51.509C50.943,53.154 49.272,54.26 47.498,54.261C45.737,54.262 44.052,53.14 43.385,51.509C43.669,51.468 43.953,51.43 44.238,51.397ZM10.481,13.399C11.338,13.275 12.203,13.207 13.068,13.207C14.486,13.207 15.809,13.409 16.981,13.799C15.674,14.983 14.441,16.241 13.283,17.563C12.3,18.685 11.37,19.852 10.501,21.064C9.97,18.761 9.755,16.057 10.481,13.399ZM4.615,7.821C4.848,7.33 5.289,6.968 5.823,6.828C7.285,6.444 9.583,5.987 12.23,5.987C16.433,5.987 19.962,7.122 22.745,9.365C21.585,10.12 20.462,10.927 19.38,11.781C17.566,10.891 15.407,10.423 13.069,10.423C11.755,10.423 10.443,10.558 9.152,10.797C8.661,10.889 8.255,11.237 8.092,11.71C6.523,16.238 7.376,20.857 8.482,24.13C7.582,25.624 6.775,27.161 6.058,28.735C3.997,24.679 0.698,16.038 4.615,7.821Z" style="fill-rule:nonzero;"/>
    </g>
</svg>
