<?xml version="1.0" encoding="UTF-8" standalone="no"?>
<!DOCTYPE svg PUBLIC "-//W3C//DTD SVG 1.1//EN" "http://www.w3.org/Graphics/SVG/1.1/DTD/svg11.dtd">
<svg width="100%" height="100%" viewBox="0 0 24 24" version="1.1" xmlns="http://www.w3.org/2000/svg" xmlns:xlink="http://www.w3.org/1999/xlink" xml:space="preserve" xmlns:serif="http://www.serif.com/" style="fill-rule:evenodd;clip-rule:evenodd;stroke-linejoin:round;stroke-miterlimit:2;">
    <g>
        <path d="M24,12C24,18.628 18.628,24 12,24C5.372,24 0,18.628 0,12C0,5.372 5.372,0 12,0C18.628,0 24,5.372 24,12Z" style="fill:rgb(112,36,212);fill-rule:nonzero;"/>
        <path d="M12.538,22.275C15.102,20.329 13.773,17.645 13.773,17.645C13.773,17.645 9.359,10.227 8.761,10.227C5.077,7.783 7.205,1.031 7.217,0.991C2.97,2.839 0,7.073 0,12C0,18.32 4.885,23.498 11.085,23.966C11.359,23.412 11.811,22.827 12.538,22.275Z" style="fill:rgb(101,32,191);fill-rule:nonzero;"/>
        <path d="M18.204,10.227L14.641,10.227C14.162,10.227 13.773,9.838 13.773,9.359L13.773,5.796C13.773,4.817 12.979,4.023 12,4.023C11.021,4.023 10.227,4.817 10.227,5.796L10.227,9.359C10.227,9.838 9.838,10.227 9.359,10.227L5.796,10.227C4.817,10.227 4.024,11.021 4.024,12C4.024,12.979 4.817,13.772 5.796,13.772L9.359,13.772C9.838,13.772 10.227,14.161 10.227,14.641L10.227,18.204C10.227,19.183 11.021,19.976 12,19.976C12.979,19.976 13.773,19.183 13.773,18.204L13.773,14.641C13.773,14.161 14.162,13.772 14.641,13.772L18.204,13.772C19.183,13.772 19.976,12.979 19.976,12C19.976,11.021 19.183,10.227 18.204,10.227Z" style="fill:white;fill-rule:nonzero;"/>
    </g>
</svg>
