<?xml version="1.0" encoding="UTF-8" standalone="no"?>
<!DOCTYPE svg PUBLIC "-//W3C//DTD SVG 1.1//EN" "http://www.w3.org/Graphics/SVG/1.1/DTD/svg11.dtd">
<svg width="100%" height="100%" viewBox="0 0 32 32" version="1.1" xmlns="http://www.w3.org/2000/svg" xmlns:xlink="http://www.w3.org/1999/xlink" xml:space="preserve" xmlns:serif="http://www.serif.com/" style="fill-rule:evenodd;clip-rule:evenodd;stroke-linejoin:round;stroke-miterlimit:2;">
    <g>
        <path d="M18.055,0.621C17.836,0.237 17.428,0 16.985,0L15.015,0C14.572,0 14.164,0.237 13.945,0.621C13.659,1.12 13.302,1.867 13.167,2.661L18.833,2.661C18.698,1.867 18.341,1.12 18.055,0.621Z" style="fill:rgb(133,131,132);fill-rule:nonzero;"/>
        <path d="M25.499,5.407C25.616,4.98 25.495,4.524 25.182,4.212L23.789,2.818C23.476,2.505 23.02,2.384 22.593,2.501C22.038,2.652 21.258,2.927 20.601,3.393L24.607,7.4C25.073,6.743 25.348,5.962 25.499,5.407Z" style="fill:rgb(133,131,132);fill-rule:nonzero;"/>
        <path d="M27.379,14.055C27.763,13.836 28,13.428 28,12.985L28,11.015C28,10.572 27.763,10.164 27.379,9.945C26.88,9.659 26.134,9.302 25.339,9.167L25.339,14.833C26.133,14.698 26.88,14.341 27.379,14.055Z" style="fill:rgb(133,131,132);fill-rule:nonzero;"/>
        <path d="M22.593,21.5C23.02,21.616 23.476,21.495 23.788,21.182L25.182,19.789C25.495,19.476 25.616,19.02 25.499,18.593C25.348,18.038 25.073,17.258 24.607,16.601L20.6,20.607C21.257,21.073 22.038,21.348 22.593,21.5Z" style="fill:rgb(133,131,132);fill-rule:nonzero;"/>
        <path d="M13.945,23.379C14.164,23.763 14.572,24 15.015,24L16.985,24C17.428,24 17.836,23.763 18.055,23.379C18.341,22.88 18.698,22.133 18.833,21.339L13.167,21.339C13.302,22.133 13.659,22.88 13.945,23.379Z" style="fill:rgb(133,131,132);fill-rule:nonzero;"/>
        <path d="M6.5,18.593C6.384,19.019 6.505,19.476 6.818,19.788L8.211,21.182C8.524,21.494 8.98,21.615 9.407,21.499C9.962,21.348 10.742,21.073 11.399,20.607L7.393,16.6C6.927,17.257 6.652,18.038 6.5,18.593Z" style="fill:rgb(133,131,132);fill-rule:nonzero;"/>
        <path d="M4.621,9.945C4.237,10.164 4,10.572 4,11.015L4,12.985C4,13.428 4.237,13.836 4.621,14.055C5.12,14.341 5.867,14.698 6.661,14.833L6.661,9.167C5.867,9.302 5.12,9.659 4.621,9.945Z" style="fill:rgb(133,131,132);fill-rule:nonzero;"/>
        <path d="M9.407,2.5C8.98,2.384 8.524,2.505 8.211,2.818L6.818,4.211C6.505,4.524 6.384,4.98 6.501,5.407C6.652,5.962 6.927,6.742 7.393,7.399L11.4,3.393C10.743,2.927 9.962,2.652 9.407,2.5Z" style="fill:rgb(133,131,132);fill-rule:nonzero;"/>
        <path d="M16,2.243C10.611,2.243 6.243,6.611 6.243,12C6.243,17.389 10.611,21.757 16,21.757C21.389,21.757 25.757,17.389 25.757,12C25.757,6.611 21.389,2.243 16,2.243ZM16,16.13C13.719,16.13 11.87,14.281 11.87,12C11.87,9.719 13.719,7.87 16,7.87C18.281,7.87 20.13,9.719 20.13,12C20.13,14.281 18.281,16.13 16,16.13Z" style="fill:rgb(186,184,185);fill-rule:nonzero;"/>
        <path d="M8.175,12C8.175,6.937 12.031,2.775 16.966,2.29C16.648,2.259 16.326,2.243 16,2.243C10.611,2.243 6.243,6.611 6.243,12C6.243,17.389 10.611,21.757 16,21.757C16.326,21.757 16.648,21.741 16.966,21.709C12.031,21.224 8.175,17.063 8.175,12Z" style="fill:rgb(158,156,157);fill-rule:nonzero;"/>
        <path d="M13.363,5.831C13.163,5.831 13.001,5.669 13.001,5.469L13.001,4.992C13.001,4.792 13.163,4.63 13.363,4.63C13.563,4.63 13.725,4.792 13.725,4.992L13.725,5.469C13.725,5.669 13.563,5.831 13.363,5.831Z" style="fill:rgb(58,72,74);fill-rule:nonzero;"/>
        <path d="M18.637,5.831C18.437,5.831 18.275,5.669 18.275,5.469L18.275,4.992C18.275,4.792 18.437,4.63 18.637,4.63C18.837,4.63 18.999,4.792 18.999,4.992L18.999,5.469C18.999,5.669 18.837,5.831 18.637,5.831Z" style="fill:rgb(58,72,74);fill-rule:nonzero;"/>
        <path d="M16,6.086C15.642,6.086 15.305,5.936 15.076,5.674C14.945,5.524 14.96,5.295 15.111,5.163C15.262,5.032 15.49,5.047 15.622,5.198C15.713,5.302 15.851,5.362 16,5.362C16.149,5.362 16.287,5.302 16.378,5.198C16.51,5.047 16.739,5.032 16.889,5.163C17.04,5.295 17.055,5.524 16.924,5.674C16.695,5.936 16.358,6.086 16,6.086Z" style="fill:rgb(58,72,74);fill-rule:nonzero;"/>
    </g>
</svg>
