<?xml version="1.0" encoding="UTF-8" standalone="no"?>
<!DOCTYPE svg PUBLIC "-//W3C//DTD SVG 1.1//EN" "http://www.w3.org/Graphics/SVG/1.1/DTD/svg11.dtd">
<svg width="100%" height="100%" viewBox="0 0 180 130" version="1.1" xmlns="http://www.w3.org/2000/svg" xmlns:xlink="http://www.w3.org/1999/xlink" xml:space="preserve" xmlns:serif="http://www.serif.com/" style="fill-rule:evenodd;clip-rule:evenodd;stroke-linejoin:round;stroke-miterlimit:2;">
    <g>
        <path d="M123,58C123,49.721 116.279,43 108,43L58,43C49.721,43 43,49.721 43,58C43,66.279 49.721,73 58,73L108,73C116.279,73 123,66.279 123,58Z" style="fill:rgb(112,36,212);"/>
    </g>
    <path d="M80.956,60.356L79.312,54.284C79.144,53.648 79.072,53.372 78.388,53.372C77.8,53.372 77.704,53.72 77.56,54.284L75.916,60.356L74.38,54.056C74.284,53.6 74.2,53.264 73.756,53.264C73.42,53.264 73.216,53.552 73.216,53.768C73.216,53.936 73.3,54.248 73.312,54.308L75.1,61.172C75.256,61.772 75.352,62.144 75.88,62.144C76.42,62.144 76.516,61.772 76.684,61.196L78.436,54.74L80.188,61.196C80.356,61.784 80.452,62.144 80.992,62.144C81.52,62.144 81.616,61.76 81.772,61.172L83.56,54.308C83.572,54.236 83.656,53.936 83.656,53.768C83.656,53.552 83.464,53.264 83.104,53.264C82.672,53.264 82.588,53.612 82.492,54.056L80.956,60.356ZM88.339,61.124C88.459,61.568 88.627,62.144 89.035,62.144C89.311,62.144 89.539,61.94 89.539,61.736C89.539,61.544 89.431,61.256 89.419,61.196C89.347,61.004 89.251,60.74 89.251,60.164C89.251,59.888 89.287,58.52 89.287,58.208C89.287,56.768 89.131,55.64 86.755,55.64C84.499,55.64 84.091,56.972 84.091,57.332C84.091,57.584 84.307,57.776 84.559,57.776C84.883,57.776 84.967,57.548 85.075,57.272C85.339,56.624 86.107,56.408 86.827,56.408C88.195,56.408 88.219,57.188 88.243,58.016C87.967,58.112 87.835,58.148 87.655,58.196C87.415,58.256 86.179,58.472 85.903,58.532C85.171,58.676 83.863,58.952 83.863,60.368C83.863,61.244 84.499,62.144 85.879,62.144C87.235,62.144 88.015,61.436 88.339,61.124ZM88.255,58.76C88.255,59.456 88.231,60.02 87.991,60.428C87.631,61.052 86.779,61.328 86.119,61.328C85.255,61.328 84.931,60.728 84.931,60.296C84.931,60.056 85.039,59.552 85.735,59.36C86.227,59.228 86.815,59.144 87.559,58.976C87.883,58.904 88.099,58.82 88.255,58.76ZM91.4,55.784L91.1,55.784C90.968,55.784 90.536,55.784 90.536,56.156C90.536,56.18 90.536,56.54 91.004,56.54L91.4,56.54L91.4,60.32C91.4,61.088 91.4,62.108 92.864,62.108C93.512,62.108 94.04,62 94.04,61.592C94.04,61.352 93.884,61.22 93.68,61.22C93.596,61.22 93.164,61.292 93.068,61.292C92.48,61.292 92.444,60.86 92.444,60.236L92.444,56.54L93.032,56.54C93.356,56.54 93.644,56.432 93.644,56.156C93.644,55.784 93.248,55.784 92.996,55.784L92.444,55.784L92.444,54.668C92.444,54.224 92.444,53.744 91.916,53.744C91.712,53.744 91.544,53.876 91.484,53.984C91.4,54.14 91.4,54.272 91.4,54.728L91.4,55.784ZM100.133,60.176C100.133,59.876 99.881,59.696 99.653,59.696C99.317,59.696 99.185,60.092 98.993,60.44C98.669,61.016 98.057,61.328 97.397,61.328C96.221,61.328 95.489,60.404 95.489,58.856C95.489,57.38 96.257,56.456 97.421,56.456C98.477,56.456 98.885,57.176 99.041,57.44C99.281,57.848 99.413,57.86 99.545,57.86C99.785,57.86 100.013,57.668 100.013,57.404C100.013,56.888 99.281,55.64 97.409,55.64C95.057,55.64 94.445,57.464 94.445,58.904C94.445,59.828 94.673,60.428 94.889,60.812C95.189,61.34 95.825,62.144 97.457,62.144C99.473,62.144 100.133,60.524 100.133,60.176ZM106.563,58.004C106.563,57.68 106.563,56.9 106.131,56.396C105.711,55.916 105.171,55.64 104.415,55.64C103.419,55.64 102.891,56.132 102.459,56.672L102.459,54.128C102.459,53.708 102.459,53.264 101.919,53.264C101.415,53.264 101.415,53.72 101.415,54.128L101.415,61.28C101.415,61.676 101.415,62.144 101.919,62.144C102.411,62.144 102.459,61.82 102.459,61.292L102.459,59.216C102.459,57.92 102.579,57.656 102.747,57.344C103.023,56.816 103.635,56.492 104.223,56.492C104.655,56.492 105.099,56.696 105.327,57.08C105.495,57.368 105.519,57.908 105.519,58.256L105.519,61.28C105.519,62.012 105.687,62.144 106.023,62.144C106.395,62.144 106.563,62 106.563,61.28L106.563,58.004Z" style="fill:white;fill-rule:nonzero;"/>
    <path d="M63.426,57.126C64.112,57.507 64.112,58.493 63.426,58.874L57.486,62.175C56.819,62.545 56,62.063 56,61.301L56,54.7C56,53.937 56.819,53.455 57.486,53.825L63.426,57.126Z" style="fill:white;fill-rule:nonzero;"/>
</svg>
