<?xml version="1.0" encoding="UTF-8" standalone="no"?>
<!DOCTYPE svg PUBLIC "-//W3C//DTD SVG 1.1//EN" "http://www.w3.org/Graphics/SVG/1.1/DTD/svg11.dtd">
<svg width="100%" height="100%" viewBox="0 0 168 130" version="1.1" xmlns="http://www.w3.org/2000/svg" xmlns:xlink="http://www.w3.org/1999/xlink" xml:space="preserve" xmlns:serif="http://www.serif.com/" style="fill-rule:evenodd;clip-rule:evenodd;stroke-linejoin:round;stroke-miterlimit:2;">
    <g>
        <path d="M123,58C123,49.721 116.279,43 108,43L58,43C49.721,43 43,49.721 43,58C43,66.279 49.721,73 58,73L108,73C116.279,73 123,66.279 123,58Z" style="fill:rgb(112,36,212);"/>
        <g id="Join" transform="matrix(1,0,0,1,87.6946,58)">
            <g transform="matrix(1,0,0,1,-11,-5)">
                <path d="M4.176,6.384C4.176,7.092 4.056,8.22 2.784,8.22C1.668,8.22 1.476,7.224 1.416,6.96C1.296,6.372 1.248,6.132 0.852,6.132C0.732,6.132 0.312,6.168 0.312,6.708C0.312,7.716 0.804,9.144 2.796,9.144C5.328,9.144 5.328,7.152 5.328,6.3L5.328,1.212C5.328,0.528 5.172,0.264 4.752,0.264C4.272,0.264 4.176,0.588 4.176,1.212L4.176,6.384ZM12.395,5.892C12.395,3.6 11.039,2.64 9.467,2.64C7.643,2.64 6.539,3.84 6.539,6.012C6.539,7.704 7.511,9.144 9.467,9.144C11.027,9.144 12.395,8.184 12.395,5.892ZM11.327,5.892C11.327,7.368 10.655,8.328 9.479,8.328C8.303,8.328 7.607,7.38 7.607,5.892C7.607,4.428 8.291,3.456 9.479,3.456C10.595,3.456 11.327,4.344 11.327,5.892ZM14.882,3.492C14.882,3.06 14.894,2.64 14.366,2.64C13.958,2.64 13.826,2.868 13.826,3.492L13.826,8.292C13.826,8.664 13.838,9.144 14.354,9.144C14.678,9.144 14.87,9.012 14.882,8.292L14.882,3.492ZM14.93,1.02C14.93,0.708 14.678,0.444 14.354,0.444C14.03,0.444 13.778,0.708 13.778,1.02C13.778,1.344 14.03,1.608 14.354,1.608C14.678,1.608 14.93,1.344 14.93,1.02ZM21.833,5.028C21.833,4.632 21.833,3.876 21.425,3.408C20.993,2.916 20.429,2.64 19.673,2.64C18.557,2.64 18.029,3.288 17.705,3.708C17.705,3.192 17.693,3.036 17.597,2.868C17.549,2.76 17.381,2.64 17.189,2.64C17.021,2.64 16.889,2.724 16.817,2.784C16.685,2.916 16.685,3.132 16.685,3.468L16.685,8.292C16.685,8.64 16.685,8.868 16.829,9C16.925,9.084 17.069,9.144 17.201,9.144C17.357,9.144 17.477,9.084 17.573,9C17.717,8.868 17.729,8.64 17.729,8.292L17.729,6.312C17.729,5.004 17.837,4.74 18.017,4.416C18.305,3.888 18.905,3.552 19.505,3.552C19.937,3.552 20.369,3.756 20.597,4.152C20.729,4.38 20.789,4.716 20.789,5.328L20.789,8.292C20.789,8.64 20.789,8.868 20.933,9C21.041,9.096 21.185,9.144 21.317,9.144C21.473,9.144 21.593,9.084 21.689,9C21.833,8.868 21.833,8.64 21.833,8.292L21.833,5.028Z" style="fill:white;fill-rule:nonzero;"/>
            </g>
        </g>
        <g id="facebook--1-" serif:id="facebook (1)" transform="matrix(1,0,0,1,66.584,58)">
            <g transform="matrix(1,0,0,1,-4.5,-4.5)">
                <path d="M6.872,2.222C7.017,2.222 7.135,2.104 7.135,1.958L7.135,0.264C7.135,0.118 7.017,0 6.872,0L4.895,0C3.971,0 3.219,0.752 3.219,1.676L3.219,3.389L2.127,3.389C1.981,3.389 1.863,3.507 1.863,3.653L1.863,5.347C1.863,5.493 1.981,5.611 2.127,5.611L3.219,5.611L3.219,8.736C3.219,8.882 3.337,9 3.483,9L5.177,9C5.323,9 5.441,8.882 5.441,8.736L5.441,5.611L6.533,5.611C6.659,5.611 6.767,5.522 6.791,5.399L7.13,3.704C7.146,3.627 7.126,3.547 7.076,3.486C7.026,3.425 6.951,3.389 6.872,3.389L5.441,3.389L5.441,2.222L6.872,2.222Z" style="fill:white;fill-rule:nonzero;"/>
                <path d="M6.872,2.222C7.017,2.222 7.135,2.104 7.135,1.958L7.135,0.264C7.135,0.118 7.017,0 6.872,0L4.895,0C4.697,0 4.506,0.035 4.33,0.098L4.33,9L5.177,9C5.323,9 5.441,8.882 5.441,8.736L5.441,5.611L6.533,5.611C6.659,5.611 6.767,5.522 6.791,5.399L7.13,3.704C7.146,3.627 7.126,3.547 7.076,3.486C7.026,3.425 6.951,3.389 6.872,3.389L5.441,3.389L5.441,2.222L6.872,2.222Z" style="fill:white;fill-rule:nonzero;"/>
            </g>
        </g>
    </g>
</svg>
