<?xml version="1.0" encoding="UTF-8" standalone="no"?>
<!DOCTYPE svg PUBLIC "-//W3C//DTD SVG 1.1//EN" "http://www.w3.org/Graphics/SVG/1.1/DTD/svg11.dtd">
<svg width="100%" height="100%" viewBox="0 0 64 64" version="1.1" xmlns="http://www.w3.org/2000/svg" xmlns:xlink="http://www.w3.org/1999/xlink" xml:space="preserve" xmlns:serif="http://www.serif.com/" style="fill-rule:evenodd;clip-rule:evenodd;stroke-linejoin:round;stroke-miterlimit:2;">
    <g transform="matrix(2.77778,0,0,2.77778,-112.444,-112.444)">
        <circle cx="52" cy="52" r="9" style="fill:rgb(112,36,212);"/>
    </g>
    <g transform="matrix(2.77778,0,0,2.77778,-112.444,-112.444)">
        <path d="M52.865,55.545L52.865,50.591C52.865,50.167 52.487,49.882 52.146,50.048C51.769,50.233 51.367,50.339 50.957,50.362L50.282,50.401C50.124,50.409 50,50.559 50,50.739L50,51.223C50,51.41 50.133,51.562 50.297,51.562L50.889,51.562C51.025,51.562 51.135,51.688 51.135,51.843L51.135,55.545L50.528,55.545C50.237,55.545 50,55.816 50,56.15L50,56.396C50,56.729 50.237,57 50.528,57L53.472,57C53.764,57 54,56.729 54,56.396L54,56.15C54,55.816 53.764,55.545 53.472,55.545L52.865,55.545Z" style="fill:white;fill-rule:nonzero;"/>
    </g>
    <g transform="matrix(2.77778,0,0,2.77778,-112.444,-112.444)">
        <path d="M52,49C52.552,49 53,48.552 53,48C53,47.448 52.552,47 52,47C51.448,47 51,47.448 51,48C51,48.552 51.448,49 52,49Z" style="fill:white;fill-rule:nonzero;"/>
    </g>
</svg>
