<?xml version="1.0" encoding="UTF-8" standalone="no"?>
<!DOCTYPE svg PUBLIC "-//W3C//DTD SVG 1.1//EN" "http://www.w3.org/Graphics/SVG/1.1/DTD/svg11.dtd">
<svg width="100%" height="100%" viewBox="0 0 104 96" version="1.1" xmlns="http://www.w3.org/2000/svg" xmlns:xlink="http://www.w3.org/1999/xlink" xml:space="preserve" xmlns:serif="http://www.serif.com/" style="fill-rule:evenodd;clip-rule:evenodd;stroke-linejoin:round;stroke-miterlimit:2;">
    <path d="M37.595,48.172C38.214,48.531 37.957,50.242 37.058,52.529C36.48,53.998 36.931,55.682 38.165,56.665C40.087,58.196 41.166,59.55 40.809,60.17C40.453,60.791 38.747,60.529 36.467,59.622C35.002,59.039 33.326,59.489 32.348,60.726C30.827,62.652 29.481,63.732 28.862,63.373C28.243,63.013 28.501,61.303 29.4,59.015C29.978,57.546 29.527,55.862 28.293,54.879C26.371,53.348 25.294,51.996 25.65,51.375C26.007,50.754 27.712,51.016 29.991,51.923C31.456,52.505 33.132,52.056 34.11,50.818C35.631,48.892 36.977,47.813 37.595,48.172Z" style="fill:rgb(232,67,147);fill-rule:nonzero;"/>
    <path d="M39.587,17.579C40.035,17.839 39.849,19.077 39.198,20.732C38.78,21.795 39.106,23.014 40,23.725C41.39,24.833 42.171,25.812 41.913,26.261C41.655,26.711 40.42,26.521 38.77,25.865C37.711,25.443 36.497,25.768 35.79,26.664C34.69,28.057 33.716,28.839 33.268,28.579C32.82,28.319 33.006,27.081 33.657,25.426C34.075,24.363 33.749,23.144 32.856,22.433C31.465,21.325 30.685,20.346 30.944,19.897C31.202,19.448 32.435,19.637 34.085,20.293C35.145,20.715 36.358,20.389 37.065,19.494C38.166,18.1 39.139,17.319 39.587,17.579Z" style="fill:rgb(232,67,147);fill-rule:nonzero;"/>
    <path d="M20.837,45.592C21.584,44.291 21.138,42.626 19.841,41.873C18.543,41.12 16.885,41.565 16.137,42.866C15.39,44.167 15.836,45.832 17.133,46.585C18.431,47.338 20.089,46.894 20.837,45.592Z" style="fill:rgb(232,67,147);fill-rule:nonzero;"/>
    <path d="M52.925,10.187C53.673,8.886 53.227,7.22 51.929,6.467C50.631,5.714 48.973,6.159 48.226,7.46C47.478,8.762 47.924,10.427 49.222,11.18C50.519,11.933 52.177,11.488 52.925,10.187Z" style="fill:rgb(232,67,147);fill-rule:nonzero;"/>
    <path d="M23.337,69.805C23.785,70.065 23.599,71.303 22.948,72.958C22.53,74.021 22.856,75.239 23.75,75.951C25.14,77.059 25.921,78.038 25.663,78.487C25.405,78.937 24.171,78.747 22.52,78.09C21.461,77.669 20.247,77.994 19.54,78.89C18.44,80.283 17.466,81.065 17.018,80.805C16.57,80.545 16.756,79.307 17.407,77.652C17.825,76.589 17.499,75.37 16.606,74.659C15.215,73.551 14.435,72.572 14.694,72.123C14.952,71.674 16.185,71.863 17.835,72.519C18.895,72.94 20.108,72.615 20.815,71.72C21.916,70.326 22.89,69.545 23.337,69.805Z" style="fill:rgb(232,67,147);fill-rule:nonzero;"/>
    <g>
        <path d="M65.649,55.066L57.695,57.772L49.701,65.801L54.498,68.638L62.435,65.801L70.429,57.772L65.649,55.066Z" style="fill:rgb(232,175,229);fill-rule:nonzero;"/>
        <path d="M51.355,70.732L41.707,73.83L33.714,81.858L36.995,85.154L46.448,81.858L54.441,73.83L51.355,70.732Z" style="fill:rgb(232,175,229);fill-rule:nonzero;"/>
        <path d="M36.995,85.154L26.111,89.887C25.849,90.729 26.051,91.686 26.715,92.354L29.631,95.282C30.583,96.239 32.129,96.239 33.081,95.283L38.454,89.887L36.995,85.154Z" style="fill:rgb(232,175,229);fill-rule:nonzero;"/>
        <path d="M65.649,55.066L63.984,55.632L65.415,56.079C65.574,56.129 65.698,56.253 65.748,56.413L67.179,61.037L70.429,57.772L65.649,55.066Z" style="fill:rgb(232,148,228);fill-rule:nonzero;"/>
        <path d="M75.442,52.737L70.429,57.772L57.695,57.772L69.075,46.343L75.442,52.737Z" style="fill:rgb(110,228,255);fill-rule:nonzero;"/>
        <path d="M62.435,65.802L54.441,73.831L41.707,73.831L49.701,65.802L62.435,65.802Z" style="fill:rgb(110,228,255);fill-rule:nonzero;"/>
        <path d="M46.449,81.858L38.454,89.887L26.112,89.887C26.225,89.522 26.427,89.177 26.715,88.888L33.714,81.858L46.449,81.858Z" style="fill:rgb(110,228,255);fill-rule:nonzero;"/>
        <path d="M75.441,52.737L69.075,46.343L60.812,54.641L65.415,56.079C65.575,56.128 65.699,56.253 65.749,56.413L66.169,57.772L70.429,57.772L75.441,52.737Z" style="fill:rgb(97,202,255);fill-rule:nonzero;"/>
        <path d="M102.955,47.106L98.197,40.704C97.171,39.323 96.888,37.523 97.439,35.89L99.993,28.326C101.38,24.215 97.473,20.291 93.381,21.685L85.849,24.25C84.223,24.803 82.431,24.519 81.056,23.488L74.682,18.71C71.218,16.114 66.295,18.634 66.35,22.974L66.452,30.961C66.474,32.684 65.65,34.308 64.249,35.303L57.755,39.916C54.227,42.422 55.091,47.903 59.218,49.192L66.813,51.563C68.452,52.075 69.735,53.363 70.244,55.009L72.605,62.637C73.888,66.782 79.345,67.65 81.841,64.106L86.433,57.585C87.424,56.178 89.041,55.35 90.756,55.372L98.71,55.474C103.03,55.53 105.539,50.585 102.955,47.106Z" style="fill:rgb(255,225,118);fill-rule:nonzero;"/>
        <path d="M75.04,33.398C74.739,33.398 74.437,33.283 74.208,33.052C73.748,32.59 73.748,31.842 74.208,31.381L75.517,30.066C75.976,29.604 76.722,29.604 77.181,30.066C77.641,30.527 77.641,31.276 77.181,31.738L75.872,33.052C75.642,33.283 75.341,33.398 75.04,33.398Z" style="fill:rgb(75,63,78);fill-rule:nonzero;"/>
        <path d="M89.507,47.929C89.206,47.929 88.905,47.814 88.675,47.582C88.215,47.121 88.215,46.372 88.675,45.911L89.984,44.596C90.444,44.134 91.189,44.134 91.649,44.596C92.108,45.057 92.108,45.806 91.649,46.268L90.34,47.582C90.109,47.814 89.808,47.929 89.507,47.929Z" style="fill:rgb(75,63,78);fill-rule:nonzero;"/>
        <path d="M83.94,42.372C82.76,42.372 81.609,41.888 80.743,41.019C79.807,40.079 79.32,38.803 79.406,37.518C79.45,36.866 80.01,36.373 80.659,36.418C81.308,36.461 81.799,37.025 81.754,37.676C81.715,38.281 81.953,38.89 82.408,39.347C82.864,39.805 83.47,40.044 84.072,40.004C84.72,39.959 85.281,40.453 85.325,41.104C85.369,41.756 84.878,42.319 84.23,42.363C84.133,42.369 84.036,42.372 83.94,42.372Z" style="fill:rgb(75,63,78);fill-rule:nonzero;"/>
    </g>
</svg>
