<?xml version="1.0" encoding="UTF-8" standalone="no"?>
<!DOCTYPE svg PUBLIC "-//W3C//DTD SVG 1.1//EN" "http://www.w3.org/Graphics/SVG/1.1/DTD/svg11.dtd">
<svg width="100%" height="100%" viewBox="0 0 107 96" version="1.1" xmlns="http://www.w3.org/2000/svg" xmlns:xlink="http://www.w3.org/1999/xlink" xml:space="preserve" xmlns:serif="http://www.serif.com/" style="fill-rule:evenodd;clip-rule:evenodd;stroke-linejoin:round;stroke-miterlimit:2;">
    <path d="M38.143,48.853C38.771,49.217 38.509,50.952 37.597,53.272C37.011,54.762 37.468,56.469 38.72,57.467C40.67,59.019 41.764,60.392 41.402,61.021C41.04,61.651 39.31,61.385 36.997,60.465C35.511,59.875 33.81,60.331 32.818,61.586C31.275,63.539 29.909,64.634 29.282,64.27C28.654,63.906 28.915,62.171 29.828,59.851C30.414,58.361 29.956,56.653 28.705,55.656C26.755,54.104 25.662,52.732 26.024,52.103C26.386,51.473 28.115,51.738 30.428,52.658C31.914,53.248 33.614,52.792 34.606,51.537C36.15,49.584 37.515,48.489 38.143,48.853Z" style="fill:rgb(232,67,147);fill-rule:nonzero;"/>
    <path d="M40.163,17.827C40.618,18.091 40.429,19.346 39.768,21.025C39.344,22.103 39.675,23.339 40.581,24.06C41.992,25.184 42.784,26.177 42.522,26.633C42.26,27.088 41.008,26.896 39.334,26.23C38.259,25.803 37.028,26.133 36.31,27.041C35.194,28.455 34.206,29.247 33.751,28.983C33.297,28.72 33.486,27.464 34.146,25.786C34.571,24.708 34.24,23.472 33.334,22.75C31.923,21.627 31.132,20.634 31.394,20.179C31.656,19.723 32.907,19.915 34.581,20.58C35.656,21.008 36.887,20.678 37.604,19.77C38.721,18.356 39.709,17.564 40.163,17.827Z" style="fill:rgb(232,67,147);fill-rule:nonzero;"/>
    <path d="M21.14,46.237C21.898,44.918 21.446,43.229 20.129,42.465C18.813,41.702 17.131,42.153 16.372,43.473C15.614,44.792 16.066,46.481 17.382,47.245C18.699,48.008 20.381,47.557 21.14,46.237Z" style="fill:rgb(232,67,147);fill-rule:nonzero;"/>
    <path d="M53.694,10.331C54.453,9.011 54.001,7.322 52.684,6.559C51.368,5.795 49.686,6.246 48.927,7.566C48.169,8.886 48.621,10.575 49.937,11.338C51.254,12.102 52.936,11.651 53.694,10.331Z" style="fill:rgb(232,67,147);fill-rule:nonzero;"/>
    <path d="M23.677,70.792C24.131,71.056 23.942,72.312 23.282,73.99C22.858,75.068 23.189,76.304 24.095,77.025C25.506,78.149 26.297,79.142 26.036,79.598C25.774,80.053 24.522,79.861 22.848,79.195C21.773,78.768 20.542,79.098 19.824,80.006C18.707,81.42 17.719,82.212 17.265,81.949C16.811,81.685 17,80.429 17.66,78.751C18.084,77.673 17.753,76.437 16.847,75.715C15.437,74.592 14.646,73.599 14.908,73.144C15.169,72.688 16.421,72.88 18.095,73.545C19.17,73.973 20.4,73.643 21.118,72.735C22.235,71.321 23.223,70.529 23.677,70.792Z" style="fill:rgb(232,67,147);fill-rule:nonzero;"/>
    <g>
        <path d="M34.434,96C36.116,96 37.797,95.356 39.079,94.069L65.207,67.837C67.772,65.262 67.772,61.086 65.207,58.511C62.642,55.935 58.483,55.935 55.918,58.511L29.79,84.743C27.225,87.318 27.225,91.493 29.79,94.069C31.072,95.356 32.753,96 34.434,96Z" style="fill:rgb(91,150,117);fill-rule:nonzero;"/>
        <path d="M28.74,92.694C39.218,89.479 47.236,80.148 50.133,74.891C50.56,74.116 50.447,73.148 49.841,72.505C48.561,71.146 47.386,69.686 46.328,68.14L55.826,58.604C58.431,55.989 62.743,55.94 65.297,58.604C67.772,61.186 67.742,65.293 65.207,67.838L39.079,94.07C37.797,95.358 36.116,96.001 34.435,96.001C32.754,96.001 31.072,95.358 29.79,94.07C29.371,93.649 29.022,93.186 28.74,92.694Z" style="fill:rgb(44,98,69);fill-opacity:0.15;fill-rule:nonzero;"/>
        <path d="M39.08,94.068C37.797,95.355 36.116,95.999 34.435,95.999C32.754,95.999 31.073,95.355 29.79,94.068C27.225,91.492 27.225,87.317 29.79,84.742L34.656,79.857C37.734,82.947 41.135,86.362 43.945,89.183L39.08,94.068Z" style="fill:rgb(248,228,124);fill-rule:nonzero;"/>
        <path d="M43.945,89.184L39.08,94.069C37.797,95.356 36.116,96 34.435,96C32.754,96 31.073,95.356 29.791,94.069C29.372,93.648 29.023,93.184 28.74,92.692C33.259,91.306 37.32,88.781 40.711,85.937C41.838,87.068 42.93,88.165 43.945,89.184Z" style="fill:rgb(201,123,0);fill-opacity:0.15;fill-rule:nonzero;"/>
        <path d="M75.843,79.114C58.635,79.114 44.685,65.109 44.685,47.833C44.685,30.557 58.635,16.552 75.843,16.552C93.05,16.552 107,30.557 107,47.833C107,65.109 93.05,79.114 75.843,79.114Z" style="fill:rgb(114,205,162);fill-rule:nonzero;"/>
        <path d="M75.843,79.113C64.265,79.113 54.162,72.772 48.791,63.36C87.111,80.37 100.211,36.399 80.528,16.903C95.512,19.172 107,32.155 107,47.832C107,65.108 93.051,79.113 75.843,79.113Z" style="fill:rgb(44,98,69);fill-opacity:0.15;fill-rule:nonzero;"/>
        <path d="M75.843,70.202C63.537,70.202 53.562,60.186 53.562,47.832C53.562,35.477 63.537,25.462 75.843,25.462C88.149,25.462 98.124,35.477 98.124,47.832C98.124,60.186 88.149,70.202 75.843,70.202Z" style="fill:white;fill-rule:nonzero;"/>
        <path d="M75.844,25.462C80.091,25.462 84.06,26.656 87.438,28.726C73.992,25.364 55.369,32.546 54.641,54.717C53.942,52.547 53.563,50.234 53.563,47.831C53.563,35.477 63.539,25.462 75.844,25.462Z" style="fill-opacity:0.1;fill-rule:nonzero;"/>
        <path d="M79.37,34.359C88.399,34.359 95.981,40.58 98.096,48.985C97.499,60.804 87.765,70.202 75.844,70.202C72.45,70.202 69.233,69.438 66.354,68.075C62.484,64.529 60.056,59.424 60.056,53.749C60.056,43.04 68.703,34.359 79.37,34.359Z" style="fill:rgb(248,228,124);fill-rule:nonzero;"/>
        <path d="M90.744,60.709C88.426,60.709 86.546,59.206 86.546,57.353C86.546,55.499 88.426,53.997 90.744,53.997C93.063,53.997 94.942,55.499 94.942,57.353C94.942,59.206 93.063,60.709 90.744,60.709Z" style="fill:rgb(227,136,146);fill-rule:nonzero;"/>
        <path d="M67.994,60.709C65.676,60.709 63.796,59.206 63.796,57.353C63.796,55.499 65.676,53.997 67.994,53.997C70.312,53.997 72.192,55.499 72.192,57.353C72.192,59.206 70.312,60.709 67.994,60.709Z" style="fill:rgb(227,136,146);fill-rule:nonzero;"/>
        <path d="M90.042,54.553C90.682,54.553 91.201,54.031 91.201,53.389L91.201,51.58C91.201,50.937 90.682,50.416 90.042,50.416C89.402,50.416 88.883,50.937 88.883,51.58L88.883,53.389C88.883,54.031 89.402,54.553 90.042,54.553Z" style="fill:rgb(73,80,89);fill-rule:nonzero;"/>
        <path d="M79.367,57.827C81.047,57.827 82.408,56.46 82.408,54.774L82.408,52.554C82.408,52.094 82.037,51.721 81.578,51.721L77.156,51.721C76.698,51.721 76.326,52.094 76.326,52.554L76.326,54.774C76.326,56.46 77.688,57.827 79.367,57.827Z" style="fill:rgb(73,80,89);fill-rule:nonzero;"/>
        <path d="M68.694,54.553C69.335,54.553 69.854,54.031 69.854,53.389L69.854,51.58C69.854,50.937 69.335,50.416 68.694,50.416C68.054,50.416 67.535,50.937 67.535,51.58L67.535,53.389C67.535,54.031 68.054,54.553 68.694,54.553Z" style="fill:rgb(73,80,89);fill-rule:nonzero;"/>
        <path d="M86.737,35.82C92.326,38.138 96.592,43.013 98.094,48.992C97.493,60.807 87.761,70.201 75.843,70.201C72.452,70.201 69.238,69.438 66.36,68.077C66.184,67.916 66.01,67.753 65.841,67.586C97.889,73.139 98.331,45.382 86.737,35.82Z" style="fill:rgb(201,123,0);fill-opacity:0.15;fill-rule:nonzero;"/>
    </g>
</svg>
