<?xml version="1.0" encoding="UTF-8" standalone="no"?>
<!DOCTYPE svg PUBLIC "-//W3C//DTD SVG 1.1//EN" "http://www.w3.org/Graphics/SVG/1.1/DTD/svg11.dtd">
<svg width="100%" height="100%" viewBox="0 0 124 95" version="1.1" xmlns="http://www.w3.org/2000/svg" xmlns:xlink="http://www.w3.org/1999/xlink" xml:space="preserve" xmlns:serif="http://www.serif.com/" style="fill-rule:evenodd;clip-rule:evenodd;stroke-linejoin:round;stroke-miterlimit:2;">
    <path d="M87.801,24.754C88.344,25.069 88.118,26.571 87.329,28.577C86.823,29.866 87.218,31.344 88.301,32.207C89.987,33.551 90.933,34.738 90.621,35.283C90.308,35.828 88.812,35.597 86.811,34.801C85.526,34.29 84.056,34.684 83.199,35.77C81.864,37.46 80.684,38.407 80.141,38.092C79.598,37.777 79.824,36.276 80.612,34.269C81.119,32.98 80.723,31.502 79.641,30.639C77.955,29.296 77.01,28.109 77.322,27.564C77.635,27.019 79.131,27.249 81.131,28.045C82.415,28.556 83.886,28.162 84.743,27.076C86.077,25.386 87.258,24.439 87.801,24.754Z" style="fill:rgb(232,67,147);fill-rule:nonzero;"/>
    <path d="M82.194,14.081C83.1,12.503 82.56,10.483 80.986,9.57C79.413,8.657 77.403,9.196 76.497,10.774C75.591,12.352 76.132,14.371 77.705,15.284C79.278,16.197 81.288,15.658 82.194,14.081Z" style="fill:rgb(232,67,147);fill-rule:nonzero;"/>
    <path d="M106.457,9.283C107.206,9.718 106.892,11.794 105.8,14.569C105.098,16.352 105.643,18.394 107.138,19.585C109.465,21.44 110.771,23.08 110.338,23.834C109.905,24.587 107.838,24.271 105.076,23.173C103.301,22.468 101.269,23.016 100.083,24.518C98.237,26.856 96.605,28.167 95.855,27.732C95.106,27.297 95.42,25.221 96.512,22.446C97.214,20.663 96.67,18.621 95.175,17.43C92.848,15.576 91.543,13.936 91.976,13.183C92.409,12.429 94.475,12.745 97.237,13.842C99.011,14.547 101.043,14 102.229,12.498C104.075,10.159 105.707,8.849 106.457,9.283Z" style="fill:rgb(232,67,147);fill-rule:nonzero;"/>
    <path d="M105.83,45.745C106.738,44.166 106.199,42.146 104.628,41.234C103.056,40.323 101.046,40.864 100.138,42.443C99.231,44.022 99.769,46.042 101.341,46.953C102.913,47.865 104.923,47.324 105.83,45.745Z" style="fill:rgb(232,67,147);fill-rule:nonzero;"/>
    <path d="M117.356,53.9C117.898,54.215 117.671,55.717 116.881,57.725C116.373,59.015 116.767,60.492 117.848,61.354C119.533,62.697 120.478,63.884 120.164,64.429C119.851,64.974 118.355,64.745 116.356,63.951C115.072,63.441 113.602,63.837 112.744,64.924C111.408,66.616 110.227,67.564 109.684,67.249C109.142,66.935 109.369,65.433 110.16,63.424C110.668,62.135 110.274,60.657 109.192,59.795C107.508,58.453 106.564,57.266 106.877,56.721C107.191,56.176 108.685,56.404 110.684,57.198C111.968,57.708 113.439,57.312 114.297,56.225C115.632,54.534 116.813,53.585 117.356,53.9Z" style="fill:rgb(232,67,147);fill-rule:nonzero;"/>
    <g>
        <path d="M17.044,14.415C16.439,13.807 16.065,12.968 16.065,12.041C16.065,10.186 17.561,8.683 19.407,8.683L48.899,8.683C50.745,8.683 52.241,10.186 52.241,12.041C52.241,13.895 50.745,15.398 48.899,15.398L19.407,15.398C18.484,15.398 17.649,15.023 17.044,14.415Z" style="fill:rgb(129,212,250);fill-rule:nonzero;"/>
        <path d="M34.901,92.459L2.509,59.914C-0.836,56.553 -0.836,51.104 2.509,47.743L42.161,7.904L86.667,52.62L47.015,92.459C43.67,95.819 38.246,95.819 34.901,92.459Z" style="fill:rgb(179,229,252);fill-rule:nonzero;"/>
        <path d="M22.169,27.989L66.674,72.703L68.632,70.735L24.128,26.021L22.169,27.989Z" style="fill:rgb(133,211,250);fill-rule:nonzero;"/>
        <path d="M42.162,7.904L27.365,22.771C27.406,24.784 28.185,26.774 29.729,28.266C32.817,31.253 37.73,31.216 40.774,28.158L42.225,26.701C43.286,25.634 45.007,25.634 46.069,26.701L52.722,33.385C53.783,34.451 53.783,36.181 52.722,37.247L44.072,45.937C40.945,49.079 40.885,54.282 44.072,57.363C47.16,60.35 52.073,60.314 55.117,57.255L63.877,48.455C64.938,47.388 66.659,47.388 67.721,48.455L70.808,51.694C70.82,51.708 70.833,51.721 70.845,51.734C72.892,53.893 72.812,57.313 70.714,59.421L40.627,89.649C38.274,92.013 34.459,92.013 32.106,89.649L34.902,92.459C38.247,95.82 43.671,95.82 47.016,92.459L86.668,52.62L42.162,7.904Z" style="fill:rgb(129,212,250);fill-rule:nonzero;"/>
        <path d="M78.78,84.867C78.78,87.056 79.663,89.037 81.09,90.471C82.518,91.905 84.49,92.792 86.668,92.792C91.024,92.792 94.556,89.244 94.556,84.867L94.556,60.431C94.556,53.344 91.755,46.547 86.768,41.534L47.849,2.41C44.713,-0.741 39.569,-0.806 36.487,2.399C34.63,4.33 33.943,6.976 34.424,9.436C34.703,10.861 34.217,12.33 33.195,13.357L31.552,15.008C28.424,18.15 28.365,23.353 31.552,26.434C34.64,29.42 39.553,29.384 42.597,26.326L44.048,24.868C45.109,23.802 46.83,23.802 47.892,24.868L54.545,31.553C55.606,32.619 55.606,34.348 54.545,35.415L45.895,44.105C42.768,47.247 42.708,52.45 45.895,55.531C48.983,58.518 53.896,58.481 56.94,55.423L65.7,46.623C66.761,45.556 68.482,45.556 69.544,46.623L72.63,49.862C76.573,54.001 78.775,59.508 78.776,65.237L78.78,84.867Z" style="fill:rgb(112,36,212);fill-rule:nonzero;"/>
        <path d="M47.797,24.783L45.13,22.103C44.068,21.036 42.347,21.036 41.286,22.103L40.113,23.281C37.328,26.079 32.98,26.345 29.895,24.084C30.285,24.943 30.835,25.742 31.551,26.434C34.639,29.42 39.552,29.384 42.597,26.326L44.047,24.868C45.079,23.832 46.73,23.806 47.797,24.783ZM87.234,42.014C90.361,46.485 92.072,51.847 92.072,57.385L92.072,81.822C92.072,86.199 88.541,89.747 84.184,89.747C82.437,89.747 80.822,89.175 79.515,88.208C79.907,89.054 80.442,89.819 81.09,90.471C82.518,91.905 84.49,92.792 86.668,92.792C91.024,92.792 94.555,89.244 94.555,84.867L94.555,60.431C94.555,53.567 91.928,46.976 87.234,42.014ZM62.995,43.799L54.457,52.378C51.672,55.176 47.323,55.443 44.238,53.181C44.629,54.04 45.179,54.839 45.895,55.531C48.983,58.518 53.896,58.481 56.94,55.423L65.7,46.623C66.727,45.59 68.371,45.56 69.438,46.527L66.839,43.799C65.778,42.733 64.057,42.733 62.995,43.799Z" style="fill-opacity:0.1;fill-rule:nonzero;"/>
        <path d="M25.345,50.833C24.991,50.833 24.636,50.697 24.366,50.425C23.825,49.882 23.825,49.001 24.366,48.457L26.07,46.745C26.611,46.202 27.488,46.202 28.028,46.745C28.569,47.289 28.569,48.17 28.028,48.713L26.325,50.425C26.054,50.697 25.7,50.833 25.345,50.833Z" style="fill:rgb(64,75,88);fill-rule:nonzero;"/>
        <path d="M31.157,63.675C29.569,62.079 29.569,59.492 31.157,57.896L33.264,55.78C33.688,55.354 34.375,55.354 34.799,55.78L39.016,60.017C39.44,60.442 39.44,61.133 39.016,61.558L36.909,63.675C35.321,65.271 32.746,65.271 31.157,63.675Z" style="fill:rgb(64,75,88);fill-rule:nonzero;"/>
        <path d="M45.324,70.906C44.97,70.906 44.615,70.77 44.345,70.498C43.804,69.955 43.804,69.074 44.345,68.53L46.049,66.818C46.59,66.275 47.467,66.275 48.007,66.818C48.548,67.362 48.548,68.243 48.007,68.786L46.304,70.498C46.033,70.77 45.679,70.906 45.324,70.906Z" style="fill:rgb(64,75,88);fill-rule:nonzero;"/>
        <path d="M3.365,46.882L2.509,47.742C-0.836,51.103 -0.836,56.552 2.509,59.913L34.901,92.458C38.246,95.819 43.67,95.819 47.015,92.458L47.871,91.598L3.365,46.882Z" style="fill:rgb(129,212,250);fill-rule:nonzero;"/>
    </g>
</svg>
