<?xml version="1.0" encoding="UTF-8" standalone="no"?>
<!DOCTYPE svg PUBLIC "-//W3C//DTD SVG 1.1//EN" "http://www.w3.org/Graphics/SVG/1.1/DTD/svg11.dtd">
<svg width="100%" height="100%" viewBox="0 0 152 117" version="1.1" xmlns="http://www.w3.org/2000/svg" xmlns:xlink="http://www.w3.org/1999/xlink" xml:space="preserve" xmlns:serif="http://www.serif.com/" style="fill-rule:evenodd;clip-rule:evenodd;stroke-linejoin:round;stroke-miterlimit:2;">
    <g>
        <path d="M95,51.5C95,46.809 91.191,43 86.5,43L30.5,43C25.809,43 22,46.809 22,51.5C22,56.191 25.809,60 30.5,60L86.5,60C91.191,60 95,56.191 95,51.5Z" style="fill:rgb(112,36,212);"/>
    </g>
    <path d="M44.338,50.352C44.338,50.046 44.35,49.884 44.23,49.764C44.146,49.68 44.026,49.632 43.906,49.632C43.756,49.632 43.648,49.71 43.588,49.77C43.474,49.884 43.474,50.04 43.474,50.352L43.474,52.224C43.474,52.572 43.516,53.064 43.702,53.37C44.08,53.988 44.734,54.072 45.352,54.072C47.086,54.072 47.086,52.74 47.086,52.224L47.086,50.352C47.086,50.046 47.086,49.884 46.972,49.764C46.882,49.68 46.762,49.632 46.648,49.632C46.498,49.632 46.39,49.71 46.33,49.77C46.216,49.884 46.222,50.04 46.222,50.352L46.222,52.29C46.222,52.65 46.21,53.382 45.292,53.382C44.344,53.382 44.338,52.65 44.338,52.272L44.338,50.352ZM50.829,52.686L49.161,50.154C49.083,50.04 48.963,49.854 48.921,49.806C48.831,49.698 48.729,49.632 48.555,49.632C48.375,49.632 48.267,49.71 48.213,49.758C48.039,49.908 48.039,50.04 48.039,50.49L48.039,53.394C48.039,53.682 48.045,53.832 48.147,53.946C48.225,54.03 48.339,54.072 48.447,54.072C48.591,54.072 48.693,54 48.747,53.946C48.855,53.838 48.849,53.688 48.849,53.394L48.849,51.06L50.481,53.538C50.763,53.97 50.853,54.072 51.123,54.072C51.693,54.072 51.639,53.472 51.639,53.19L51.639,50.316C51.639,50.022 51.639,49.866 51.531,49.758C51.453,49.68 51.339,49.632 51.231,49.632C51.087,49.632 50.991,49.704 50.931,49.764C50.829,49.872 50.829,50.088 50.829,50.136L50.829,52.686ZM53.431,53.328L53.431,50.352C53.431,50.046 53.443,49.872 53.323,49.764C53.233,49.68 53.119,49.632 52.999,49.632C52.855,49.632 52.747,49.704 52.681,49.77C52.567,49.884 52.567,50.04 52.567,50.352L52.567,53.274C52.567,53.634 52.567,53.748 52.699,53.874C52.831,54 52.903,54 53.299,54L55.045,54C55.303,54 55.435,54 55.531,53.904C55.597,53.838 55.639,53.754 55.639,53.658C55.639,53.538 55.579,53.472 55.525,53.424C55.435,53.328 55.303,53.328 55.045,53.328L53.431,53.328ZM57.798,49.632C56.364,49.632 55.716,50.634 55.716,51.87C55.716,52.824 56.172,54.072 57.822,54.072C59.472,54.072 59.916,52.812 59.916,51.846C59.916,50.976 59.544,49.632 57.798,49.632ZM57.816,50.322C58.661,50.322 59.033,51.012 59.033,51.852C59.033,53.25 58.086,53.382 57.81,53.382C57.396,53.382 57.012,53.172 56.807,52.806C56.646,52.518 56.597,52.182 56.597,51.852C56.597,50.466 57.486,50.322 57.816,50.322ZM64.325,52.644C64.325,52.398 64.121,52.266 63.941,52.266C63.683,52.266 63.605,52.47 63.539,52.65C63.419,52.986 63.137,53.382 62.525,53.382C62.315,53.382 62.003,53.34 61.745,53.082C61.523,52.86 61.373,52.506 61.373,51.894C61.373,50.784 61.907,50.322 62.549,50.322C62.927,50.322 63.275,50.526 63.455,50.856C63.635,51.192 63.701,51.312 63.923,51.312C64.199,51.312 64.307,51.078 64.307,50.94C64.307,50.526 63.791,49.632 62.555,49.632C61.349,49.632 60.491,50.49 60.491,51.858C60.491,52.44 60.647,53.01 61.025,53.454C61.319,53.802 61.763,54.072 62.555,54.072C63.131,54.072 63.443,53.91 63.659,53.76C64.091,53.454 64.325,52.968 64.325,52.644ZM65.971,51.666L65.971,50.352C65.971,50.058 65.971,49.878 65.851,49.758C65.773,49.68 65.653,49.632 65.539,49.632C65.401,49.632 65.293,49.698 65.227,49.758C65.107,49.872 65.107,50.064 65.107,50.352L65.107,53.352C65.107,53.556 65.113,53.724 65.167,53.856C65.215,53.976 65.383,54.072 65.545,54.072C65.689,54.072 65.803,54.006 65.863,53.934C65.953,53.826 65.971,53.646 65.971,53.544L65.971,52.656L66.691,51.972L67.717,53.556C67.867,53.79 67.993,54.072 68.347,54.072C68.617,54.072 68.767,53.91 68.767,53.706C68.767,53.532 68.629,53.304 68.515,53.136L67.291,51.39L68.347,50.388C68.515,50.226 68.551,50.1 68.551,49.998C68.551,49.848 68.413,49.632 68.131,49.632C67.927,49.632 67.813,49.752 67.687,49.884L65.971,51.666ZM74.438,53.076C74.246,53.178 73.856,53.382 73.334,53.382C73.01,53.382 72.656,53.268 72.428,53.04C72.128,52.74 72.031,52.206 72.031,51.816C72.031,51.078 72.385,50.322 73.316,50.322C73.778,50.322 74.06,50.508 74.251,50.814C74.408,51.06 74.48,51.168 74.702,51.168C74.942,51.168 75.116,50.976 75.116,50.784C75.116,50.592 74.846,49.632 73.388,49.632C71.78,49.632 71.15,50.706 71.15,51.852C71.15,53.07 71.84,54.072 73.364,54.072C74.228,54.072 74.87,53.688 75.104,53.508C75.242,53.4 75.254,53.256 75.254,52.962L75.254,52.338C75.254,51.84 75.098,51.75 74.659,51.75L73.718,51.75C73.604,51.75 73.286,51.75 73.286,52.086C73.286,52.188 73.328,52.272 73.382,52.332C73.466,52.416 73.676,52.422 73.844,52.422L74.438,52.422L74.438,53.076ZM76.975,50.352C76.975,50.046 76.981,49.884 76.861,49.764C76.777,49.68 76.657,49.632 76.543,49.632C76.399,49.632 76.291,49.704 76.225,49.77C76.111,49.884 76.111,50.04 76.111,50.352L76.111,53.352C76.111,53.658 76.105,53.832 76.225,53.94C76.315,54.024 76.435,54.072 76.549,54.072C76.693,54.072 76.801,54.006 76.867,53.94C76.981,53.82 76.975,53.664 76.975,53.352L76.975,50.352ZM78.802,50.376L80.374,50.376C80.614,50.376 80.74,50.376 80.83,50.286C80.896,50.22 80.932,50.13 80.932,50.04C80.932,49.932 80.884,49.848 80.83,49.794C80.74,49.704 80.614,49.704 80.374,49.704L78.664,49.704C78.298,49.704 78.19,49.704 78.064,49.836C77.938,49.968 77.938,50.04 77.938,50.436L77.938,53.352C77.938,53.658 77.92,54.072 78.37,54.072C78.844,54.072 78.802,53.604 78.802,53.352L78.802,52.146L80.098,52.146C80.308,52.146 80.428,52.134 80.53,52.05C80.572,52.02 80.638,51.93 80.638,51.804C80.638,51.696 80.578,51.612 80.536,51.57C80.452,51.48 80.332,51.474 80.098,51.474L78.802,51.474L78.802,50.376ZM83.419,50.376L84.205,50.376C84.451,50.376 84.607,50.388 84.703,50.286C84.763,50.22 84.805,50.136 84.805,50.04C84.805,49.926 84.751,49.848 84.697,49.794C84.607,49.692 84.451,49.704 84.205,49.704L81.763,49.704C81.517,49.704 81.361,49.692 81.265,49.794C81.199,49.866 81.163,49.95 81.163,50.04C81.163,50.16 81.217,50.232 81.271,50.286C81.361,50.388 81.517,50.376 81.763,50.376L82.555,50.376L82.555,53.352C82.555,53.646 82.549,53.832 82.669,53.946C82.753,54.024 82.873,54.072 82.987,54.072C83.125,54.072 83.233,54 83.293,53.946C83.419,53.832 83.419,53.646 83.419,53.352L83.419,50.376Z" style="fill:white;fill-rule:nonzero;"/>
    <g id="_018-gifts" serif:id="018-gifts" transform="matrix(0.109584,0,0,0.109584,35.0369,51.5)">
        <g transform="matrix(1,0,0,1,-48,-48)">
            <g>
                <path d="M47.959,16.249C47.959,24.445 32.418,31.091 24.22,31.091C16.023,31.091 9.378,24.445 9.378,16.249C9.378,8.052 16.023,1.406 24.221,1.406C32.418,1.406 47.959,8.052 47.959,16.249Z" style="fill:rgb(255,205,0);fill-rule:nonzero;"/>
                <path d="M86.539,16.249C86.539,24.445 79.894,31.091 71.698,31.091C63.5,31.091 47.959,24.445 47.959,16.249C47.959,8.052 63.5,1.406 71.698,1.406C79.894,1.406 86.539,8.052 86.539,16.249Z" style="fill:rgb(255,205,0);fill-rule:nonzero;"/>
                <path d="M58.06,34.92L37.857,34.92L37.857,16.509C37.857,10.93 42.38,6.407 47.959,6.407C53.538,6.407 58.06,10.93 58.06,16.509L58.06,34.92Z" style="fill:rgb(255,235,153);fill-rule:nonzero;"/>
                <path d="M58.06,16.509C58.06,16.316 58.054,16.125 58.043,15.935L37.874,15.935C37.864,16.125 37.857,16.316 37.857,16.509L37.857,34.919L58.06,34.919L58.06,16.509Z" style="fill:rgb(255,222,85);fill-rule:nonzero;"/>
                <path d="M84.379,94.594L11.539,94.594C9.828,94.594 8.44,93.207 8.44,91.496L8.44,38.017C8.44,36.306 9.828,34.919 11.539,34.919L84.379,34.919C86.09,34.919 87.477,36.306 87.477,38.017L87.477,91.496C87.477,93.207 86.09,94.594 84.379,94.594Z" style="fill:rgb(255,121,86);fill-rule:nonzero;"/>
                <path d="M84.379,34.92L11.539,34.92C9.828,34.92 8.44,36.306 8.44,38.017L8.44,50.386L87.477,50.386L87.477,38.017C87.477,36.306 86.09,34.92 84.379,34.92Z" style="fill:rgb(255,98,67);fill-rule:nonzero;"/>
                <path d="M68.561,78.75C62.761,78.75 58.06,83.451 58.06,89.25C58.06,91.202 58.594,93.028 59.523,94.594L77.598,94.594C78.526,93.028 79.06,91.202 79.06,89.25C79.06,83.451 74.359,78.75 68.561,78.75Z" style="fill:rgb(215,243,255);fill-rule:nonzero;"/>
                <path d="M87.477,42.769C85.998,41.974 84.308,41.522 82.512,41.522C76.712,41.522 72.012,46.223 72.012,52.022C72.012,57.821 76.712,62.522 82.512,62.522C84.308,62.522 85.998,62.07 87.477,61.275L87.477,42.769Z" style="fill:rgb(215,243,255);fill-rule:nonzero;"/>
                <path d="M72.139,50.386L87.477,50.386L87.477,42.769C85.998,41.974 84.308,41.522 82.512,41.522C77.269,41.522 72.924,45.365 72.139,50.386Z" style="fill:rgb(189,235,255);fill-rule:nonzero;"/>
                <rect x="33.129" y="34.92" width="29.66" height="59.674" style="fill:rgb(255,235,153);"/>
                <rect x="33.129" y="34.92" width="29.66" height="15.467" style="fill:rgb(255,222,85);"/>
                <rect x="33.129" y="34.92" width="9.375" height="59.674" style="fill:rgb(255,222,85);"/>
                <path d="M17.815,91.496L17.815,38.017C17.815,36.306 19.203,34.919 20.914,34.919L11.539,34.919C9.828,34.919 8.44,36.306 8.44,38.017L8.44,91.496C8.44,93.207 9.828,94.594 11.539,94.594L20.914,94.594C19.203,94.594 17.815,93.207 17.815,91.496Z" style="fill:rgb(255,98,67);fill-rule:nonzero;"/>
                <path d="M89.914,44.761L6.004,44.761C4.293,44.761 2.906,43.375 2.906,41.663L2.906,28.187C2.906,26.476 4.293,25.088 6.004,25.088L89.914,25.088C91.625,25.088 93.012,26.475 93.012,28.187L93.012,41.663C93.012,43.375 91.625,44.761 89.914,44.761Z" style="fill:rgb(255,148,120);fill-rule:nonzero;"/>
                <path d="M12.281,41.664L12.281,28.187C12.281,26.476 13.668,25.088 15.379,25.088L6.004,25.088C4.293,25.088 2.906,26.476 2.906,28.187L2.906,41.664C2.906,43.375 4.293,44.761 6.004,44.761L15.379,44.761C13.669,44.761 12.281,43.375 12.281,41.664Z" style="fill:rgb(255,121,86);fill-rule:nonzero;"/>
                <path d="M71.522,44.761L24.396,44.761L24.396,24.968C24.396,23.085 25.922,21.56 27.804,21.56L68.114,21.56C69.995,21.56 71.522,23.085 71.522,24.968L71.522,44.761Z" style="fill:rgb(255,235,153);fill-rule:nonzero;"/>
                <path d="M47.959,37.611C46.178,37.611 44.734,36.166 44.734,34.386L44.734,32.525C44.734,32.216 44.984,31.967 45.292,31.967L50.626,31.967C50.934,31.967 51.183,32.216 51.183,32.525L51.183,34.386C51.183,36.166 49.74,37.611 47.959,37.611Z" style="fill:rgb(68,67,70);fill-rule:nonzero;"/>
                <path d="M36.549,21.56L27.174,21.56C25.64,21.56 24.396,22.803 24.396,24.338L24.396,44.761L33.771,44.761L33.771,24.338C33.771,22.803 35.015,21.56 36.549,21.56Z" style="fill:rgb(255,222,85);fill-rule:nonzero;"/>
                <path d="M15.379,57C12.719,57 10.291,57.991 8.441,59.622L8.441,75.377C10.291,77.008 12.719,78 15.379,78C21.178,78 25.879,73.299 25.879,67.5C25.879,61.701 21.178,57 15.379,57Z" style="fill:rgb(215,243,255);fill-rule:nonzero;"/>
                <path d="M17.815,77.713L17.815,57.287C17.033,57.101 16.218,57 15.379,57C12.719,57 10.291,57.991 8.441,59.622L8.441,75.377C10.291,77.008 12.719,78 15.379,78C16.218,78 17.033,77.899 17.815,77.713Z" style="fill:rgb(189,235,255);fill-rule:nonzero;"/>
                <path d="M89.914,23.682L86.15,23.682C87.33,21.398 87.946,18.871 87.946,16.249C87.946,7.289 80.656,0 71.698,0C66.202,0 58.439,2.665 53.223,6.281C51.644,5.465 49.855,5.002 47.959,5.002C46.062,5.002 44.273,5.465 42.694,6.281C37.48,2.665 29.714,0 24.221,0C19.575,0 15.141,1.995 12.058,5.474C11.542,6.056 11.596,6.944 12.177,7.459C12.758,7.975 13.647,7.92 14.162,7.34C16.712,4.463 20.379,2.813 24.221,2.813C28.304,2.813 35.082,4.733 40.214,8.005C37.904,10.111 36.451,13.143 36.451,16.509L36.451,20.153L27.804,20.153C25.595,20.153 23.73,21.65 23.166,23.682L13.028,23.682C11.559,21.478 10.784,18.924 10.784,16.249C10.784,14.675 11.054,13.134 11.585,11.669C11.849,10.939 11.472,10.132 10.742,9.867C10.012,9.603 9.205,9.98 8.941,10.71C8.298,12.483 7.972,14.347 7.972,16.249C7.972,18.871 8.587,21.398 9.767,23.682L6.004,23.682C3.521,23.682 1.5,25.703 1.5,28.187L1.5,41.664C1.5,44.148 3.521,46.168 6.004,46.168L7.035,46.168L7.035,91.496C7.034,93.979 9.055,96 11.539,96L84.379,96C86.862,96 88.883,93.979 88.883,91.496L88.883,46.167L89.914,46.167C92.397,46.167 94.418,44.148 94.418,41.664L94.418,28.187C94.418,25.703 92.397,23.682 89.914,23.682ZM71.698,2.813C79.106,2.813 85.133,8.84 85.133,16.249C85.133,18.924 84.358,21.478 82.889,23.682L72.751,23.682C72.188,21.65 70.323,20.153 68.113,20.153L59.467,20.153L59.467,16.509C59.467,13.143 58.014,10.111 55.704,8.005C60.836,4.733 67.612,2.813 71.698,2.813ZM39.264,16.509C39.264,11.714 43.165,7.813 47.959,7.813C49.608,7.813 51.152,8.276 52.468,9.077C52.52,9.116 52.573,9.15 52.63,9.18C55.047,10.726 56.654,13.433 56.654,16.509L56.654,20.153L39.264,20.153L39.264,16.509ZM25.802,24.968C25.802,23.864 26.7,22.966 27.804,22.966L68.114,22.966C69.218,22.966 70.116,23.864 70.116,24.968L70.116,43.355L25.802,43.355L25.802,24.968ZM6.004,43.355C5.071,43.355 4.313,42.596 4.313,41.664L4.313,28.187C4.313,27.253 5.071,26.495 6.004,26.495L22.99,26.495L22.99,43.355L6.004,43.355ZM9.847,60.288C11.431,59.072 13.372,58.406 15.379,58.406C20.394,58.406 24.472,62.486 24.472,67.5C24.472,72.514 20.394,76.594 15.379,76.594C13.372,76.594 11.431,75.928 9.847,74.711L9.847,60.288ZM31.723,93.188L11.539,93.188C10.606,93.188 9.847,92.429 9.847,91.496L9.847,78.039C11.541,78.929 13.436,79.406 15.379,79.406C21.944,79.406 27.285,74.065 27.285,67.5C27.285,60.935 21.944,55.594 15.379,55.594C13.436,55.594 11.541,56.071 9.847,56.96L9.847,46.167L31.723,46.167L31.723,93.188ZM76.753,93.188L64.195,93.188L64.195,81.271C65.528,80.541 67.022,80.156 68.561,80.156C73.575,80.156 77.654,84.236 77.654,89.25C77.654,90.618 77.342,91.964 76.753,93.188ZM86.071,91.496C86.071,92.429 85.312,93.188 84.379,93.188L79.796,93.188C80.238,91.928 80.466,90.596 80.466,89.25C80.466,82.685 75.125,77.344 68.561,77.344C67.052,77.344 65.575,77.627 64.195,78.171L64.195,62.522C64.195,61.745 63.565,61.115 62.788,61.115C62.012,61.115 61.382,61.745 61.382,62.522L61.382,93.188L34.535,93.188L34.535,46.167L61.383,46.167L61.383,57.272C61.383,58.049 62.012,58.678 62.789,58.678C63.565,58.678 64.195,58.049 64.195,57.272L64.195,46.167L72.143,46.167C71.141,47.937 70.605,49.943 70.605,52.022C70.605,58.587 75.946,63.928 82.511,63.928C83.72,63.928 84.923,63.742 86.071,63.383L86.071,91.496ZM86.071,60.387C84.951,60.863 83.736,61.115 82.512,61.115C77.497,61.115 73.418,57.037 73.418,52.022C73.418,49.862 74.174,47.805 75.555,46.167L86.071,46.167L86.071,60.387ZM91.606,41.664C91.606,42.596 90.847,43.355 89.914,43.355L72.927,43.355L72.927,26.495L89.914,26.495C90.846,26.495 91.605,27.253 91.605,28.187L91.605,41.664L91.606,41.664Z" style="fill-rule:nonzero;"/>
                <path d="M59.9,27.305C58.21,27.305 56.636,28.216 55.793,29.682C55.406,30.356 55.638,31.215 56.312,31.603C56.985,31.99 57.844,31.758 58.231,31.084C58.574,30.488 59.213,30.117 59.9,30.117C60.587,30.117 61.227,30.488 61.57,31.084C61.83,31.537 62.303,31.79 62.79,31.79C63.028,31.79 63.269,31.73 63.489,31.603C64.163,31.216 64.395,30.356 64.008,29.683C63.165,28.216 61.591,27.305 59.9,27.305Z" style="fill-rule:nonzero;"/>
                <path d="M36.017,27.305C34.326,27.305 32.753,28.216 31.909,29.682C31.523,30.356 31.755,31.215 32.428,31.603C33.101,31.99 33.961,31.758 34.348,31.084C34.691,30.488 35.331,30.117 36.017,30.117C36.704,30.117 37.343,30.488 37.686,31.084C37.946,31.537 38.419,31.79 38.906,31.79C39.144,31.79 39.385,31.73 39.606,31.603C40.28,31.216 40.512,30.356 40.124,29.683C39.281,28.216 37.707,27.305 36.017,27.305Z" style="fill-rule:nonzero;"/>
                <path d="M50.626,30.561L45.292,30.561C44.209,30.561 43.328,31.441 43.328,32.525L43.328,34.386C43.328,36.939 45.405,39.017 47.959,39.017C50.512,39.017 52.59,36.939 52.59,34.386L52.59,32.525C52.589,31.441 51.709,30.561 50.626,30.561ZM49.777,34.386C49.777,35.388 48.962,36.204 47.959,36.204C46.956,36.204 46.14,35.388 46.14,34.386L46.14,33.374L49.777,33.374L49.777,34.386Z" style="fill-rule:nonzero;"/>
                <path d="M60.965,37.552L58.836,37.552C58.06,37.552 57.43,36.922 57.43,36.146C57.43,35.369 58.06,34.74 58.836,34.74L60.965,34.74C61.742,34.74 62.372,35.369 62.372,36.146C62.372,36.922 61.742,37.552 60.965,37.552Z" style="fill:rgb(244,98,98);fill-rule:nonzero;"/>
                <path d="M37.082,37.552L34.953,37.552C34.176,37.552 33.546,36.922 33.546,36.146C33.546,35.369 34.176,34.74 34.953,34.74L37.082,34.74C37.858,34.74 38.488,35.369 38.488,36.146C38.488,36.922 37.858,37.552 37.082,37.552Z" style="fill:rgb(244,98,98);fill-rule:nonzero;"/>
            </g>
        </g>
    </g>
</svg>
