<?xml version="1.0" encoding="UTF-8" standalone="no"?>
<!DOCTYPE svg PUBLIC "-//W3C//DTD SVG 1.1//EN" "http://www.w3.org/Graphics/SVG/1.1/DTD/svg11.dtd">
<svg width="100%" height="100%" viewBox="0 0 596 842" version="1.1" xmlns="http://www.w3.org/2000/svg" xmlns:xlink="http://www.w3.org/1999/xlink" xml:space="preserve" xmlns:serif="http://www.serif.com/" style="fill-rule:evenodd;clip-rule:evenodd;stroke-linejoin:round;stroke-miterlimit:2;">
    <path d="M417.849,682.404C413.598,691.965 407.789,701.945 401.478,711.201C397.16,717.534 391.941,723.087 389.462,729.692C386.98,736.303 386.572,742.719 387.63,750.357C393.176,741.695 399.392,733.417 406.496,725.647C404.893,732.004 402.698,738.334 400.094,744.644C396.034,754.487 390.979,764.284 385.626,774.065C392.539,764.734 398.194,755.071 402.99,745.181C408.937,743.952 414.802,743.727 420.749,742.498C431.497,740.277 439.741,735.335 453.078,734.83C449.099,737.865 445.843,741.284 441.954,744.4C425.105,757.904 408.241,771.659 390.999,784.812C383.188,790.769 376.961,796.374 369.744,801.978C362.527,807.583 354.319,813.187 342.55,819.145C352.767,814.731 365.069,814.4 375.286,809.986C393.46,802.134 410.591,791.641 428.174,782.63C440.712,776.206 453.643,771.149 466.602,765.55C461.748,776.16 458.015,787.359 452.04,797.379C446.632,806.447 440.683,815.383 438.72,826.491C452.761,815.014 467.135,808.894 480.121,797.698C484.285,794.108 487.441,790.004 491.415,786.042C498.038,779.437 505.305,772.628 511.347,764.883C516.461,775.657 524.157,785.098 529.271,795.872C535.065,808.082 535.277,822.96 544.072,833.837C547.599,823.673 550.542,813.256 554.069,803.092C556.342,796.541 559.445,790.165 561.848,783.67C564.789,775.719 567.039,767.65 569.822,759.632C572.197,773.641 575.3,787.677 579.195,801.742C582.026,811.967 584.65,822.417 588.345,832.674C589.476,835.813 591.275,838.746 592.49,841.889L0.037,841.889C0.025,814.105 0.012,786.322 -0.001,758.538C19.801,762.109 38.078,754.143 57.396,754.171C73.212,754.194 87.668,759.58 105.299,757.87C104.966,765.148 105.189,772.633 106.634,780.577C109.204,770.579 110.373,779.248 114.314,782.247C112.659,775.944 111.307,769.713 110.189,763.54C105.014,734.967 104.835,707.593 102.627,679.733C106.696,697.053 111.217,714.273 116.32,731.364C120.75,746.202 121.869,761.694 131.011,775.568C133.045,773.343 134.661,771.006 133.348,767.888C133.032,762.27 134.382,756.651 134.065,751.033C132.824,728.991 129.915,706.95 128.673,684.909C133.01,696.829 135.264,709.75 139.601,721.671C145.003,736.519 148.406,752.285 157.891,765.217C155.721,741.842 145.3,714.967 151.38,695.093C153.746,710.803 154.28,726.787 159.314,741.355C161.95,748.985 165.546,756.272 170.58,763.046C167.271,755.331 163.835,747.53 162.566,741.174C175.172,738.958 184.751,733.203 195.887,729.675C210.204,725.14 224.309,719.323 239.373,720.256C250.861,720.969 263.561,724.425 274.285,730.495C280.3,733.899 283.867,739.384 290.697,742.609C299.654,746.838 311.816,750.614 322.013,750.691C328.875,757.775 335.023,765.255 340.88,772.897C338.221,766.742 334.546,760.816 330.157,755.051C323.626,746.47 312.799,739.544 306.82,730.155C313.486,734.723 319.823,739.82 325.779,745.527C331.258,750.775 335.163,757.25 341.214,762.879C341.381,760.264 340.825,757.593 339.544,754.865C336.79,750.699 334.498,746.432 332.54,742.092C329.768,735.95 327.662,729.662 325.854,723.309C329.888,728.181 332.254,732.938 334.042,737.342C335.475,740.873 337.246,744.01 338.496,746.963C339.599,749.568 340.14,752.068 341.923,754.04C344.031,756.372 346.329,758.073 348.894,758.872C348.093,737.997 353.38,721.453 353.191,703.248C353.085,693.035 351.325,683.205 351.065,673.054C359.14,688.946 361.674,706.421 360.414,724.979C362.39,725.102 363.948,723.905 364.588,719.803C366.414,712.152 368.645,704.588 371.165,697.086C374.732,686.47 378.881,675.977 383.288,665.541C383.395,685.854 380.947,705.611 375.942,724.812C385.865,718.534 393.622,706.922 402.461,697.976C407.591,692.785 412.72,687.595 417.849,682.404L417.849,682.404Z" style="fill:white;"/>
</svg>
