<?xml version="1.0" encoding="UTF-8" standalone="no"?>
<!DOCTYPE svg PUBLIC "-//W3C//DTD SVG 1.1//EN" "http://www.w3.org/Graphics/SVG/1.1/DTD/svg11.dtd">
<svg width="100%" height="100%" viewBox="0 0 596 842" version="1.1" xmlns="http://www.w3.org/2000/svg" xmlns:xlink="http://www.w3.org/1999/xlink" xml:space="preserve" xmlns:serif="http://www.serif.com/" style="fill-rule:evenodd;clip-rule:evenodd;stroke-linejoin:round;stroke-miterlimit:2;">
    <path d="M595.237,0L137.075,0C122.667,18.441 116.054,36.463 126.586,53.567C99.422,70.993 129.89,105.838 147.981,100.485C152.21,99.233 156.909,96.813 158.727,90.283C153.672,88.791 152.467,85.368 152.34,81.405C156.249,87.224 160.424,89.275 165.185,83.039C165.287,85.645 164.842,88.133 160.572,89.786C164.758,93.173 169.443,90.724 174.198,87.442C173.245,95.044 176.214,98.212 184.915,94.9C180.891,92.998 181.606,90.014 182.998,86.874C184.981,96.299 192.368,94.219 200.528,90.496C197.818,94.08 194.26,97.107 186.618,97.457C190.023,105.105 198.634,105.199 209.612,101.86C209.905,108.339 212.033,112.247 219.902,108.111C223.924,114.556 229.294,115.041 235.586,111.449C237.078,111.064 238.237,111.116 238.212,112.727C237.573,118.663 240.01,121.137 246.941,118.551C249.165,117.507 251.058,117.554 252.619,118.693C264.47,121.605 272.348,118.74 276.252,110.099C283.935,111.366 290.284,110.088 293.994,103.778C302.268,109.938 310.039,111.266 316.42,99.232C332.724,98.762 342.199,92.387 346.014,81.121C354.419,82.18 360.914,80.873 362.124,73.024C362.289,71.15 363.886,71.055 364.04,72.953C364.239,80.25 370.342,82.129 379.44,81.263C378.415,86.672 381.715,88.77 387.885,84.033C384.518,90.865 390.31,93.042 393.407,93.648C397.39,94.427 404.318,93.09 410.24,85.88C416.639,90.544 422.27,88.745 426.776,77.499C428.924,80.564 425.985,83.755 426.748,85.642C427.493,87.488 429.706,88.4 431.123,89.025C435.31,90.871 442.156,87.877 450.054,82.968C455.581,82.744 444.811,89.433 444.571,91.742C444.113,96.15 449.442,98.316 460.557,98.238C461.148,104.584 464.459,107.969 473.757,104.843C489.025,123.734 502.349,121.346 514.21,102.926C525.548,105.457 533.482,103.566 535.926,94.545C531.688,91.272 531.003,87.259 531.313,83.039C520.078,79.755 514.941,74.438 517.9,66.419C518.159,74.884 524.665,79.05 534.01,81.263C535.549,93.965 541.198,98.648 548.674,99.251C556.097,99.85 565.321,96.427 574.107,92.84C573.276,94.136 572.352,95.385 571.451,96.847C579.554,99.607 588.759,100.14 595.276,96.373L595.237,0Z" style="fill:white;"/>
</svg>
