<?xml version="1.0" encoding="UTF-8" standalone="no"?>
<!DOCTYPE svg PUBLIC "-//W3C//DTD SVG 1.1//EN" "http://www.w3.org/Graphics/SVG/1.1/DTD/svg11.dtd">
<svg width="100%" height="100%" viewBox="0 0 596 842" version="1.1" xmlns="http://www.w3.org/2000/svg" xmlns:xlink="http://www.w3.org/1999/xlink" xml:space="preserve" xmlns:serif="http://www.serif.com/" style="fill-rule:evenodd;clip-rule:evenodd;stroke-linejoin:round;stroke-miterlimit:2;">
    <g>
        <path d="M523.369,390.557C524.286,387.807 525.634,384.699 528.144,382.768C530.655,380.836 534.328,380.082 537.227,380.039C544.593,379.93 553.644,383.462 556.928,390.057C561.873,399.985 561.486,412.529 558.765,423.282C556.638,431.687 551.904,444.436 543.237,444.152C537.579,443.966 531.23,440.268 527.683,435.04C525.011,431.101 524.684,426.112 523.202,422.113C521.146,416.566 522.487,410.348 522.823,404.267C523.084,399.538 521.914,394.923 523.369,390.557Z" style="fill:rgb(128,128,128);"/>
        <path d="M520.696,387.051C521.895,381.967 525.575,376.464 530.547,374.863C533.504,373.911 536.941,374.292 540.262,374.539C544.027,374.819 547.644,375.166 550.248,377.534C557.815,384.417 562.731,394.906 563.772,405.083C565.073,417.799 560.607,430.574 556.927,442.816C556.305,444.881 555.572,446.854 553.988,448.425C552.904,449.499 551.11,450.298 549.914,451.164C549.108,451.748 548.184,450.152 547.243,449.828C545.464,449.216 542.752,450.146 540.777,449.851C536.431,449.202 532.763,447.439 530.046,444.319C527.471,441.362 524.267,438.478 522.81,434.768C520.876,429.844 521.033,423.91 520.195,418.774C518.492,408.336 518.27,397.344 520.696,387.051ZM523.369,390.557C524.286,387.807 525.634,384.699 528.144,382.768C530.655,380.836 534.328,380.082 537.227,380.039C544.593,379.93 553.644,383.462 556.928,390.057C561.873,399.985 561.486,412.529 558.765,423.282C556.638,431.687 551.904,444.436 543.237,444.152C537.579,443.966 531.23,440.268 527.683,435.04C525.011,431.101 524.684,426.112 523.202,422.113C521.146,416.566 522.487,410.348 522.823,404.267C523.084,399.538 521.914,394.923 523.369,390.557Z"/>
    </g>
    <g>
        <path d="M523.369,390.557C524.286,387.807 525.634,384.699 528.144,382.768C530.655,380.836 534.328,380.082 537.227,380.039C544.593,379.93 553.644,383.462 556.928,390.057C561.873,399.985 561.486,412.529 558.765,423.282C556.638,431.687 551.904,444.436 543.237,444.152C537.579,443.966 531.23,440.268 527.683,435.04C525.011,431.101 524.684,426.112 523.202,422.113C521.146,416.566 522.487,410.348 522.823,404.267C523.084,399.538 521.914,394.923 523.369,390.557Z" style="fill:rgb(255,165,0);"/>
        <path d="M520.696,387.051C521.895,381.967 525.575,376.464 530.547,374.863C533.504,373.911 536.941,374.292 540.262,374.539C544.027,374.819 547.644,375.166 550.248,377.534C557.815,384.417 562.731,394.906 563.772,405.083C565.073,417.799 560.607,430.574 556.927,442.816C556.305,444.881 555.572,446.854 553.988,448.425C552.904,449.499 551.11,450.298 549.914,451.164C549.108,451.748 548.184,450.152 547.243,449.828C545.464,449.216 542.752,450.146 540.777,449.851C536.431,449.202 532.763,447.439 530.046,444.319C527.471,441.362 524.267,438.478 522.81,434.768C520.876,429.844 521.033,423.91 520.195,418.774C518.492,408.336 518.27,397.344 520.696,387.051ZM523.369,390.557C524.286,387.807 525.634,384.699 528.144,382.768C530.655,380.836 534.328,380.082 537.227,380.039C544.593,379.93 553.644,383.462 556.928,390.057C561.873,399.985 561.486,412.529 558.765,423.282C556.638,431.687 551.904,444.436 543.237,444.152C537.579,443.966 531.23,440.268 527.683,435.04C525.011,431.101 524.684,426.112 523.202,422.113C521.146,416.566 522.487,410.348 522.823,404.267C523.084,399.538 521.914,394.923 523.369,390.557Z"/>
    </g>
</svg>
