<?xml version="1.0" encoding="UTF-8" standalone="no"?>
<!DOCTYPE svg PUBLIC "-//W3C//DTD SVG 1.1//EN" "http://www.w3.org/Graphics/SVG/1.1/DTD/svg11.dtd">
<svg width="100%" height="100%" viewBox="0 0 596 842" version="1.1" xmlns="http://www.w3.org/2000/svg" xmlns:xlink="http://www.w3.org/1999/xlink" xml:space="preserve" xmlns:serif="http://www.serif.com/" style="fill-rule:evenodd;clip-rule:evenodd;stroke-linejoin:round;stroke-miterlimit:2;">
    <path d="M595.276,833.337L595.276,91.363L595.238,91.364L595.238,99.897C586.367,102.487 575.498,102.989 568.744,99.285C558.885,103.643 545.5,105.335 537.913,100.013C532.756,106.405 525.233,108.535 515.345,106.405C513.48,109.194 511.609,111.533 509.746,113.469C511.229,132.04 513.81,150.79 517.742,169.034C520.4,181.364 523.914,193.563 528.711,205.565C528.543,207.675 527.597,207.452 525.873,204.897C522.962,195.792 520.7,186.163 511.848,181.856C504.33,177.071 497.739,171.285 491.801,164.795C486.767,159.294 482.702,153.286 478.438,146.955C473.748,139.992 467.914,132.551 463.625,125.044C461.788,121.83 458.84,119.069 456.761,115.889C453.78,111.33 451.227,106.59 449.565,101.782C442.971,101.2 441.07,97.127 441.467,90.745C437.95,92.76 434.77,93.039 431.974,92.281C434.047,97.375 436.373,102.503 438.267,107.595C439.997,112.244 441.144,116.894 442.873,121.541C448.147,135.718 452.448,150.169 457.616,164.383C459.717,170.162 462.798,175.728 464.843,181.492C467.893,190.089 470.36,198.561 473.558,207.157C476.594,215.318 480.449,223.146 482.964,231.307C485.906,240.851 487.505,250.73 491.241,260.273C494.167,267.748 500.051,275.225 502.832,282.7C495.15,278.328 494.969,272.788 490.12,268.082C487.4,265.442 482.846,263.301 480.126,260.662C474.939,256.317 470.379,251.594 465.192,247.249C459.78,242.715 454.106,238.281 448.081,234.464C444.09,231.936 439.663,230.123 436.068,227.127C428.059,220.45 420.463,213.679 414.038,205.888C409.35,200.203 405.947,193.427 400.191,188.443C395.523,184.401 394.014,178.664 389.188,174.721C375.639,163.652 358.165,155.357 343.381,145.023C338.488,141.602 332.654,138.684 328.074,135.065C323.446,131.408 319.649,126.708 314.588,123.441C308.471,119.491 302.793,115.11 298.132,110.412C297.004,109.761 295.838,108.95 294.632,107.967C291.282,113.814 286.886,116.211 281.011,113.733C283.446,115.679 285.966,117.582 288.656,119.427C291.642,121.476 295.231,123.305 297.844,125.525C300.484,127.767 301.783,130.515 304.407,132.765C324.723,150.191 347.236,165.761 367.543,183.222C383.846,197.24 397.929,213.16 414.343,227.102C426.636,240.533 440.589,250.379 452.448,262.786C467.22,278.241 482.009,293.837 490.325,312.84C495.734,325.198 498.341,338.697 500.687,352.739C503.901,371.983 505.452,392.541 502.332,415.267C503.201,422.229 502.86,429.387 503.553,435.997C504.245,442.608 505.972,448.673 505.633,455.452C504.975,468.594 501.44,482.604 500.207,495.544C499.447,503.518 499.488,511.458 498.972,519.359C496.702,554.144 497.461,588.3 494.849,621.113C492.947,645.008 492.608,669.671 482.998,690.616C474.882,708.306 467.874,724.746 454.488,738.892C444.195,749.769 428.495,758.746 415.621,769.226C402.413,779.977 388.308,792.59 373.104,803.951C378.413,804.062 387.198,798.951 396.359,794.246C402.426,791.129 408.706,788.752 414.081,786.169C423.85,781.476 433.342,776.351 443.214,772.022C451.393,768.436 459.965,765.681 467.997,761.583C473.661,758.692 478.591,753.267 484.3,750.524C481.904,756.085 475.425,758.729 472.529,763.79C463.07,780.323 456.694,798.772 447.235,815.305C460.129,808.611 469.024,797.583 478.169,788.056C487.443,778.394 501.897,769.855 510.245,759.84C517.611,751.003 518.859,740.684 527.042,732.158C524.788,737.981 522.033,743.637 519.78,749.46C518.027,753.989 515.44,758.351 515.021,763.213C518.93,771.518 527.958,780.64 532.417,790.543C537.017,800.761 540.212,811.811 542.068,823.653C547.35,810.569 552.141,797.513 556.6,784.476C558.837,777.933 563.158,771.81 565.249,765.275C570.199,749.796 568.376,733.338 577.13,718.468C574.525,729.818 572.242,740.019 572.982,752.317C573.239,756.589 575.181,762.581 575.794,766.953C577.458,778.836 582.557,789.746 586.505,802.276C589.575,812.022 588.094,824.359 595.276,833.337ZM552.087,593.249C553.869,590.398 555.649,589.948 557.43,589.576C552.796,625.5 552.602,660.617 557.764,694.761C557.226,694.972 556.571,693.427 556.129,693.461C555.189,693.535 554.621,694.884 554.056,694.196C552.67,692.507 552.3,688.586 552.419,682.74C548.006,650.996 548.482,621.874 552.087,593.249ZM538.396,511.104C533.482,518.797 531.568,531.408 529.238,542.352C526.31,556.104 525.159,569.849 522.717,583.957C519.77,600.985 515.55,618.39 512.016,634.988C522.141,616.797 526.299,590.686 530.949,568.075C534.802,549.338 537.39,530.368 538.396,511.104ZM520.696,387.051C521.895,381.967 525.575,376.464 530.547,374.863C533.504,373.911 536.941,374.292 540.262,374.539C544.027,374.819 547.644,375.166 550.248,377.534C557.815,384.417 562.731,394.906 563.772,405.083C565.073,417.799 560.607,430.574 556.927,442.816C556.305,444.881 555.572,446.854 553.988,448.425C552.904,449.499 551.11,450.298 549.914,451.164C549.108,451.748 548.184,450.152 547.243,449.828C545.464,449.216 542.752,450.146 540.777,449.851C536.431,449.202 532.763,447.439 530.046,444.319C527.471,441.362 524.267,438.478 522.81,434.768C520.876,429.844 521.033,423.91 520.195,418.774C518.492,408.336 518.27,397.344 520.696,387.051ZM531.884,272.684C531.996,259.327 532.107,245.97 532.218,232.613C528.688,240.417 530.658,262.805 528.378,278.027C523.759,265.171 519.14,252.315 514.521,239.459C513.943,247.227 518.17,256.437 520.352,265.055C522.155,272.174 525.352,277.839 527.381,285.039C531.391,299.273 534.482,315.132 538.73,329.45C540.973,319.877 533.626,300.051 532.152,285.654C531.701,281.247 532.159,277.032 531.884,272.684Z" style="fill:white;"/>
</svg>
